<svg width="420" height="616" viewBox="0 0 420 616" fill="none" xmlns="http://www.w3.org/2000/svg">
<path d="M414.487 78.1777C414.487 78.1777 412.482 98.7244 404.964 114.761C405.265 114.36 404.864 201.257 404.262 302.888C404.262 302.989 404.262 302.989 404.262 303.089C404.764 404.72 405.165 507.554 404.964 491.217C412.482 507.253 414.487 543.836 414.487 543.836L420 546.342V560.875L415.99 562.879C416.492 567.891 414.286 575.608 412.983 578.415L415.99 582.925L408.974 592.447L403.46 590.943C401.857 593.349 394.74 598.961 392.434 599.964L393.938 605.977L382.912 611.991L378.401 607.982C373.89 609.986 366.372 610.989 363.866 610.989L361.36 616H347.828L344.32 610.989C333.093 610.989 317.957 601.668 311.742 599.463H114.272C108.057 601.668 92.9211 610.989 81.6944 610.989L78.186 616H64.6538L62.1478 610.989C59.6418 610.989 52.1239 609.986 47.6132 607.982L43.1025 611.991L32.0762 605.977L33.5798 599.964C31.2743 598.961 24.1574 593.349 22.5535 590.943L17.0404 592.346L10.0237 582.825L13.0309 578.314C11.7278 575.508 9.52251 567.791 10.0237 562.779L6.01416 560.775V546.242L11.5273 543.736C11.5273 543.736 13.5321 523.189 21.05 507.153C20.7492 507.554 21.1502 404.62 21.7516 302.989C21.7516 302.888 21.7516 302.888 21.7516 302.788C21.2504 201.157 20.8495 114.36 21.05 114.661C13.5321 98.7244 11.5273 78.1777 11.5273 78.1777L6.01416 75.672V61.139L10.0237 59.1344C9.52251 54.123 11.7278 46.4055 13.0309 43.5991L10.0237 39.0888L17.0404 29.5672L22.5535 31.0706C24.1574 28.6652 31.2743 23.0524 33.5798 22.0501L32.0762 16.0365L43.1025 10.0228L47.6132 14.0319C52.1239 12.0273 59.6418 11.0251 62.1478 11.0251L64.6538 6.01367H78.186L81.6944 11.0251C92.9211 11.0251 108.057 15.3349 114.272 17.5399H158.377V24.5558H267.637V17.5399H311.742C317.957 15.3349 333.093 11.0251 344.32 11.0251L347.828 6.01367H361.36L363.866 11.0251C366.372 11.0251 373.89 12.0273 378.401 14.0319L382.912 10.0228L393.938 16.0365L392.434 22.0501C394.74 23.0524 401.857 28.6652 403.46 31.0706L408.974 29.5672L415.99 39.0888L412.983 43.5991C414.286 46.4055 416.492 54.123 415.99 59.1344L420 61.139V75.672L414.487 78.1777Z" fill="#2E2C47"/>
<path d="M412.482 76.1738C412.482 76.1738 410.478 96.7205 402.96 112.757C403.26 112.356 402.859 199.254 402.258 300.885C402.258 300.985 402.258 300.985 402.258 301.085C402.759 402.716 403.16 505.55 402.96 489.213C410.478 505.249 412.482 541.832 412.482 541.832L417.995 544.338V558.871L413.986 560.875C414.487 565.887 412.282 573.604 410.979 576.411L413.986 580.921L406.969 590.443L401.456 588.939C399.852 591.345 392.735 596.957 390.43 597.96L391.933 603.973L380.907 609.987L376.396 605.978C371.886 607.983 364.368 608.985 361.862 608.985L359.356 613.996H345.824L342.315 608.985C331.089 608.985 315.953 599.664 309.738 597.459H112.268C106.053 599.664 90.9167 608.985 79.69 608.985L76.1816 613.996H62.6494L60.1434 608.985C57.6375 608.985 50.1196 607.983 45.6088 605.978L41.0981 609.987L30.0718 603.973L31.5754 597.96C29.2699 596.957 22.153 591.345 20.5491 588.939L15.036 590.342L8.01931 580.821L11.0265 576.311C9.72337 573.504 7.51812 565.787 8.01931 560.775L4.00977 558.771V544.238L9.52289 541.732C9.52289 541.732 11.5277 521.185 19.0456 505.149C18.7449 505.55 19.1458 402.616 19.7472 300.985C19.7472 300.885 19.7472 300.885 19.7472 300.784C19.246 199.153 18.8451 112.356 19.0456 112.657C11.5277 96.7205 9.52289 76.1738 9.52289 76.1738L4.00977 73.6681V59.1351L8.01931 57.1305C7.51812 52.1191 9.72337 44.4016 11.0265 41.5952L8.01931 37.0849L15.036 27.5633L20.5491 29.0667C22.153 26.6613 29.2699 21.0485 31.5754 20.0462L30.0718 14.0325L41.0981 8.01888L45.6088 12.028C50.1196 10.0234 57.6375 9.02116 60.1434 9.02116L62.6494 4.00977H76.1816L79.69 9.02116C90.9167 9.02116 106.053 13.331 112.268 15.536H156.373V22.5519H265.633V15.536H309.738C315.953 13.331 331.089 9.02116 342.315 9.02116L345.824 4.00977H359.356L361.862 9.02116C364.368 9.02116 371.886 10.0234 376.396 12.028L380.907 8.01888L391.933 14.0325L390.43 20.0462C392.735 21.0485 399.852 26.6613 401.456 29.0667L406.969 27.5633L413.986 37.0849L410.979 41.5952C412.282 44.4016 414.487 52.1191 413.986 57.1305L417.995 59.1351V73.6681L412.482 76.1738Z" fill="#2E2C47"/>
<path d="M410.477 74.1689C410.477 74.1689 408.473 94.7156 400.955 110.752C401.255 110.351 400.855 197.249 400.253 298.88C400.253 298.98 400.253 298.98 400.253 299.08C400.754 400.711 401.155 503.545 400.955 487.208C408.473 503.244 410.477 539.827 410.477 539.827L415.991 542.333V556.866L411.981 558.871C412.482 563.882 410.277 571.599 408.974 574.406L411.981 578.916L404.964 588.438L399.451 586.934C397.847 589.34 390.73 594.953 388.425 595.955L389.929 601.969L378.902 607.982L374.392 603.973C369.881 605.978 362.363 606.98 359.857 606.98L357.351 611.991H343.819L340.31 606.98C329.084 606.98 313.948 597.659 307.733 595.454H110.263C104.048 597.659 88.9118 606.98 77.6851 606.98L74.1767 611.991H60.6445L58.1385 606.98C55.6326 606.98 48.1147 605.978 43.6039 603.973L39.0932 607.982L28.0669 601.969L29.5705 595.955C27.265 594.953 20.1481 589.34 18.5443 586.934L13.0311 588.338L6.01443 578.816L9.02159 574.306C7.71849 571.499 5.51324 563.782 6.01443 558.77L2.00488 556.766V542.233L7.51801 539.727C7.51801 539.727 9.52278 519.18 17.0407 503.144C16.74 503.545 17.1409 400.611 17.7424 298.98C17.7424 298.88 17.7424 298.88 17.7424 298.779C17.2412 197.148 16.8402 110.351 17.0407 110.652C9.52278 94.7156 7.51801 74.1689 7.51801 74.1689L2.00488 71.6632V57.1302L6.01443 55.1256C5.51324 50.1142 7.71849 42.3967 9.02159 39.5903L6.01443 35.0801L13.0311 25.5584L18.5443 27.0618C20.1481 24.6564 27.265 19.0436 29.5705 18.0413L28.0669 12.0277L39.0932 6.014L43.6039 10.0231C48.1147 8.01855 55.6326 7.01627 58.1385 7.01627L60.6445 2.00488H74.1767L77.6851 7.01627C88.9118 7.01627 104.048 11.3261 110.263 13.5311H154.368V20.547H263.628V13.5311H307.733C313.948 11.3261 329.084 7.01627 340.31 7.01627L343.819 2.00488H357.351L359.857 7.01627C362.363 7.01627 369.881 8.01855 374.392 10.0231L378.902 6.014L389.929 12.0277L388.425 18.0413C390.73 19.0436 397.847 24.6564 399.451 27.0618L404.964 25.5584L411.981 35.0801L408.974 39.5903C410.277 42.3967 412.482 50.1142 411.981 55.1256L415.991 57.1302V71.6632L410.477 74.1689Z" fill="#2E2C47"/>
<path d="M408.473 72.164C408.473 72.164 406.468 92.7107 398.95 108.747C399.251 108.346 398.85 195.244 398.248 296.875C398.248 296.975 398.248 296.975 398.248 297.075C398.749 398.706 399.15 501.54 398.95 485.203C406.468 501.239 408.473 537.822 408.473 537.822L413.986 540.328V554.861L409.976 556.866C410.477 561.877 408.272 569.595 406.969 572.401L409.976 576.911L402.959 586.433L397.446 584.929C395.843 587.335 388.726 592.948 386.42 593.95L387.924 599.964L376.897 605.977L372.387 601.968C367.876 603.973 360.358 604.975 357.852 604.975L355.346 609.986H341.814L338.306 604.975C327.079 604.975 311.943 595.654 305.728 593.449H108.258C102.043 595.654 86.9069 604.975 75.6802 604.975L72.1718 609.986H58.6396L56.1337 604.975C53.6277 604.975 46.1098 603.973 41.599 601.968L37.0883 605.977L26.0621 599.964L27.5656 593.95C25.2601 592.948 18.1432 587.335 16.5394 584.929L11.0263 586.333L4.00955 576.811L7.01671 572.301C5.7136 569.494 3.50835 561.777 4.00955 556.765L0 554.761V540.228L5.51313 537.722C5.51313 537.722 7.5179 517.175 15.0358 501.139C14.7351 501.54 15.136 398.606 15.7375 296.975C15.7375 296.875 15.7375 296.875 15.7375 296.775C15.2363 195.144 14.8353 108.346 15.0358 108.647C7.5179 92.7107 5.51313 72.164 5.51313 72.164L0 69.6583V55.1253L4.00955 53.1207C3.50835 48.1093 5.7136 40.3918 7.01671 37.5854L4.00955 33.0752L11.0263 23.5535L16.5394 25.057C18.1432 22.6515 25.2601 17.0387 27.5656 16.0364L26.0621 10.0228L37.0883 4.00911L41.599 8.01822C46.1098 6.01367 53.6277 5.01139 56.1337 5.01139L58.6396 0H72.1718L75.6802 5.01139C86.9069 5.01139 102.043 9.32119 108.258 11.5262H152.363V18.5421H261.623V11.5262H305.728C311.943 9.32119 327.079 5.01139 338.306 5.01139L341.814 0H355.346L357.852 5.01139C360.358 5.01139 367.876 6.01367 372.387 8.01822L376.897 4.00911L387.924 10.0228L386.42 16.0364C388.726 17.0387 395.843 22.6515 397.446 25.057L402.959 23.5535L409.976 33.0752L406.969 37.5854C408.272 40.3918 410.477 48.1093 409.976 53.1207L413.986 55.1253V69.6583L408.473 72.164Z" fill="#3F3D56"/>
<rect x="59.1406" y="67.1533" width="296.706" height="459.043" rx="4" fill="white" fill-opacity="0.5"/>
<rect x="63.1504" y="71.1621" width="288.687" height="451.025" rx="4" fill="white"/>
<ellipse cx="207.494" cy="42.0957" rx="12.0286" ry="12.0273" fill="#2E2C47"/>
<ellipse rx="7.01671" ry="7.01595" transform="matrix(1 0 0 -1 207.494 42.0964)" fill="white" fill-opacity="0.5"/>
</svg>
