<svg width="150" height="150" viewBox="0 0 150 150" fill="none" xmlns="http://www.w3.org/2000/svg">
<g clip-path="url(#clip0_117_15397)">
<path d="M0 75C0 33.5786 33.5786 0 75 0C116.421 0 150 33.5786 150 75C150 116.421 116.421 150 75 150C33.5786 150 0 116.421 0 75Z" fill="#6D7AAB"/>
<path d="M79.501 18.5C91.001 21.3657 106.668 27 113.501 76.4999C116.166 95.8014 125.901 112.64 127.001 115C120.479 115.331 93.2734 118.129 65.501 115C43.0047 112.468 25.001 131 25.001 131C35.5088 112 33.2897 59.4999 44.0088 36.7163C53.7259 16.0626 76.8126 17.8301 79.501 18.5Z" fill="#131D35"/>
<path d="M52.454 84.5329C34.9686 77.7986 38.5214 50.3178 47.2839 39.7656C51.001 46.0002 75.001 48.0002 75.001 48.0002C74.001 59.5002 79.501 58.5002 80.5048 56.9063C80.5048 56.9063 85.3965 48.7403 90.54 55.8325C93.4166 61.1749 87.2789 67.2199 87.2789 67.2199C87.2789 67.2199 85.6218 73.1721 87.2789 83.0084C90.7388 94.0246 99.3158 98.2004 99.2628 98.2534C88.1008 112.544 78.4368 113.008 67.752 108.646L62.2108 84.4666C60.7128 84.9306 56.0067 85.9116 52.454 84.5329Z" fill="#E6A67F"/>
<path d="M87.4247 56.4419C85.5025 55.673 83.3815 56.9589 82.5596 57.7013C82.5596 57.7013 84.906 57.118 86.404 57.3168C87.8357 57.5024 88.5515 58.6955 88.5515 58.6955C88.6311 58.152 88.4985 56.9456 87.4247 56.4419Z" fill="#BE8A6A"/>
<path d="M83.9256 68.7176C82.2553 68.943 81.1948 68.1211 80.8766 67.6836C80.8634 68.2669 81.049 69.46 81.8046 69.5925C82.5602 69.7251 83.5412 69.0623 83.9256 68.7176Z" fill="#BE8A6A"/>
<path d="M64.2675 69.765C67.0057 69.765 69.2254 67.5453 69.2254 64.8071C69.2254 62.0689 67.0057 59.8491 64.2675 59.8491C61.5293 59.8491 59.3096 62.0689 59.3096 64.8071C59.3096 67.5453 61.5293 69.765 64.2675 69.765Z" fill="#CB7878"/>
<path d="M45.7988 56.4816C45.3481 59.1859 42.7366 60.9888 40.0322 60.538C40.0322 60.538 40.1648 58.2712 40.6818 55.5669C41.1325 52.8625 41.8881 50.7812 41.8881 50.7812C44.5792 51.232 46.2495 53.7905 45.7988 56.4816Z" fill="#CB7878"/>
<path d="M62.2119 84.4668C67.4085 82.6771 79.1935 77.2154 85.4771 69.9111L85.8483 69.4736C85.729 69.6195 85.6097 69.7653 85.4771 69.9111L64.5848 94.7671L62.2119 84.4668Z" fill="#BE8A6A"/>
<path d="M52.2172 64.1043C52.2172 64.1043 47.5244 62.5135 47.5244 60.1008C47.5244 58.5631 52.8403 50.3838 52.8403 50.3838" stroke="#131D35" stroke-width="2.08558" stroke-linecap="round"/>
<path d="M83.6468 71.793C81.3402 74.7492 74.6722 80.9002 66.3604 83.7504" stroke="#131D35" stroke-width="1.84917" stroke-linecap="round"/>
<path d="M65.4728 54.5404C66.3286 53.7298 66.5203 52.5427 65.901 51.8889C65.2817 51.2351 64.0859 51.3622 63.2302 52.1729C62.3744 52.9835 62.1827 54.1706 62.802 54.8244C63.4213 55.4782 64.6171 55.351 65.4728 54.5404Z" fill="#131D35"/>
<path d="M48.6172 48.9215C49.2591 47.9329 49.1672 46.7339 48.412 46.2435C47.6567 45.753 46.524 46.1569 45.8821 47.1455C45.2401 48.1341 45.332 49.3331 46.0873 49.8235C46.8425 50.314 47.9752 49.9101 48.6172 48.9215Z" fill="#131D35"/>
<path d="M155.39 136.002C136.857 111.928 109.535 99.8647 98.307 96.8555C78.8066 107.713 69.7789 102.609 66.5046 100.753C65.7887 100.342 65.338 100.09 65.1259 100.209C64.9138 100.315 64.3305 100.528 63.4423 100.859C59.2268 102.423 48.2636 106.493 38.7454 112.896C28.644 119.696 19.0993 130.368 10.4693 140.032C1.01739 150.597 -7.33422 159.943 -14.1083 161.627C-26.9274 164.822 -45.3804 138.72 -49.9539 132.264C-50.4842 131.521 -50.8289 131.031 -50.9482 130.885L-67.5586 165.193C-55.4289 175.321 -28.8098 195.882 -19.4109 197.088C-5.88926 198.825 4.29176 188.882 14.1016 179.311C19.9079 173.637 25.5817 168.109 31.7327 165.193C44.976 158.936 44.976 165.193 44.976 165.193L26.3241 231.091L125.92 248.841V231.091C140.569 227.684 171.708 216.946 179.172 201.304C188.491 181.737 178.562 166.081 155.39 136.002ZM124.422 199.156L123.296 154.402C130.149 158.167 144.493 167.963 147.025 177.004C149.557 186.045 133.013 195.537 124.422 199.156Z" fill="#E2D4B0"/>
<path d="M66.8867 100.859C70.9697 103.338 82.7017 106.174 96.979 97.624" stroke="#131D35" stroke-width="1.06052" stroke-linecap="round"/>
</g>
<defs>
<clipPath id="clip0_117_15397">
<path d="M0 75C0 33.5786 33.5786 0 75 0C116.421 0 150 33.5786 150 75C150 116.421 116.421 150 75 150C33.5786 150 0 116.421 0 75Z" fill="white"/>
</clipPath>
</defs>
</svg>
