<svg width="150" height="150" viewBox="0 0 150 150" fill="none" xmlns="http://www.w3.org/2000/svg">
<g clip-path="url(#clip0_117_15159)">
<path d="M0 75C0 33.5786 33.5786 0 75 0C116.421 0 150 33.5786 150 75C150 116.421 116.421 150 75 150C33.5786 150 0 116.421 0 75Z" fill="#BAB9A3"/>
<path d="M216.578 167.544C201.645 201.472 157.359 185.797 146.929 176.523L162.964 145.16C168.552 148.315 181.184 153.584 187.285 148.78C194.889 142.783 205.256 101.694 205.519 99.2693C206.666 89.468 203.657 81.9411 201.887 70.7398C200.117 59.5384 200.421 55.9826 203.02 55.8001C205.618 55.6177 209.029 69.0974 212.026 71.0116C214.451 72.5467 216.158 70.8774 216.705 69.8433C219.302 61.6758 223.09 47.583 224.709 44.8948C225.985 42.7646 228.288 42.9884 228.997 44.4364C229.833 46.1458 229.806 48.1852 229.374 50.7023C231 46.0153 232.043 40.2426 235.875 40.2118C239.676 40.1914 238.094 50.5818 238.094 50.5818C238.094 50.5818 238.772 48.8602 240.302 46.3039C241.822 43.7175 244.603 44.8258 245.04 46.8412C245.334 48.1613 244.82 52.365 244.253 55.2668C244.648 54.1835 245.527 53.0357 247.088 52.9726C250.626 52.8735 249.855 60.4813 249.042 64.3138C244.449 84.571 231.542 133.605 216.578 167.544Z" fill="#FF6B6B"/>
<path d="M-22.5139 207.472C10.438 224.944 35.3929 185.474 37.7767 171.796L5.56536 157.014C3.18298 162.908 -3.46563 174.803 -11.2307 174.764C-20.952 174.721 -54.8005 148.827 -56.5235 147.085C-63.5679 140.065 -65.9049 132.34 -71.5247 122.462C-77.1445 112.584 -79.608 109.979 -81.7919 111.44C-83.9458 112.891 -78.1887 125.565 -79.3431 128.905C-80.2864 131.598 -82.6706 131.335 -83.7474 130.859C-90.8962 126.04 -102.688 117.302 -105.641 116.185C-107.975 115.295 -109.643 116.883 -109.294 118.455C-108.88 120.309 -107.583 121.894 -105.669 123.605C-109.878 120.923 -114.309 117.032 -117.336 119.358C-120.363 121.684 -112.59 128.859 -112.59 128.859C-112.59 128.859 -114.198 127.923 -116.999 126.856C-119.811 125.758 -121.3 128.334 -120.382 130.184C-119.787 131.401 -116.753 134.385 -114.492 136.315C-115.48 135.707 -116.888 135.345 -118.154 136.253C-120.993 138.346 -115.627 143.845 -112.591 146.354C-96.3094 159.438 -55.4658 190 -22.5139 207.472Z" fill="#FF6B6B"/>
<path d="M54.4862 43.5314C78.8522 21.5086 96.1434 37.1527 101.74 47.7542C103.132 49.6692 105.644 55.4617 104.48 63.4759C103.026 73.4937 86.8057 86.2102 87.1346 88.0615C91.8358 100.372 101.948 107.571 106.408 109.618L92.922 139.416C84.7076 133.647 68.2064 121.896 68.0476 121.036C57.2159 104.93 54.965 92.1227 54.965 92.1227C46.8635 91.7084 24.0113 71.0831 54.4862 43.5314Z" fill="#CD907F"/>
<path d="M52.3337 64.7891C52.3337 64.7891 48.4851 61.3232 49.4858 59.0275C50.13 57.5611 58.6807 51.9038 58.6807 51.9038" stroke="#000407" stroke-width="2.58731" stroke-linecap="round"/>
<path d="M83.5545 78.1075C81.2764 77.892 80.0917 76.7246 79.7627 76.1669C79.6068 76.7925 79.5389 78.1606 80.5032 78.4972C81.508 78.8534 82.9704 78.3781 83.5545 78.1075Z" fill="#B28075"/>
<path d="M91.4747 67.6739C88.8213 66.7092 85.9827 68.5404 84.8694 69.552C84.8694 69.552 88.0401 68.6744 90.1183 68.8681C92.0947 69.0629 93.1129 70.6167 93.1129 70.6167C93.1692 69.8977 92.9551 68.304 91.4747 67.6739Z" fill="#B28075"/>
<path d="M75.2603 84.461C75.2603 84.461 70.8285 88.4118 54.3451 91.7732C54.3451 91.7732 57.128 102.518 61.1666 108.768C71.0258 93.3759 75.2603 84.461 75.2603 84.461Z" fill="#B28075"/>
<path d="M57.4199 91.0829C61.665 90.4321 74.7947 86.1477 79.8418 81.4975" stroke="#000407" stroke-width="2.58731" stroke-linecap="round"/>
<path d="M87.844 22.708C84.5705 14.4647 74.6776 0.866097 61.4327 12.3346C49.6868 22.4888 76.9225 41.501 91.7249 54.4405C93.6229 56.075 89.5673 64.2756 89.5673 64.2756C93.7578 62.7853 100.352 65.5007 97.097 71.6166C94.2947 76.8923 85.9955 79.0285 85.1701 78.5749C85.1701 78.5749 85.7011 81.7143 88.3523 87.7336C96.204 82.8019 112.637 70.7431 115.367 62.097C118.766 51.2769 119.053 33.2772 108.881 24.974C100.747 18.3233 96.5215 21.3881 95.4326 23.7112C95.7678 22.1316 95.5651 18.7736 92.0527 17.917C89.5236 17.2881 87.7851 20.7592 87.844 22.708Z" fill="#000407"/>
<path d="M70.7578 56.0594C70.5823 55.02 69.6222 54.3193 68.6132 54.4943C67.6043 54.6693 66.9286 55.6538 67.1041 56.6932C67.2796 57.7326 68.2398 58.4333 69.2487 58.2583C70.2577 58.0833 70.9333 57.0988 70.7578 56.0594Z" fill="#000407"/>
<path d="M55.255 48.0547C55.8504 47.1994 55.8459 46.1804 55.2448 45.7786C54.6437 45.3769 53.6737 45.7446 53.0782 46.5998C52.4827 47.4551 52.4873 48.4741 53.0884 48.8759C53.6895 49.2776 54.6595 48.91 55.255 48.0547Z" fill="#000407"/>
<path d="M98.7399 108.19L67.3907 122.915L58.4011 109.589C55.6655 109.22 46.9524 110.443 33.9609 118.024C20.9694 125.605 -0.74136 145.049 -5.2713 157.857L29.2089 184.066L24.384 223.739C66.4132 213.711 101.497 230.118 113.764 239.552C114.06 215.11 115.91 165.858 120.98 164.479C126.04 163.069 139.713 171.681 145.92 176.171L166.152 134.379C143.718 116.872 109.821 112.58 98.7399 108.19Z" fill="#6C9986"/>
<path d="M23.9184 150.742C26.8947 149.707 28.4672 146.453 27.4306 143.476C26.394 140.499 23.1408 138.925 20.1645 139.961C17.1882 140.996 15.6157 144.249 16.6523 147.227C17.6889 150.204 20.9421 151.778 23.9184 150.742Z" fill="white"/>
<path d="M67.5043 146.548C70.4807 145.513 72.0531 142.26 71.0165 139.282C69.9799 136.305 66.7268 134.731 63.7505 135.767C60.7741 136.803 59.2017 140.056 60.2383 143.033C61.2749 146.01 64.528 147.584 67.5043 146.548Z" fill="white"/>
<path d="M110.086 133.072C113.063 132.036 114.635 128.783 113.599 125.806C112.562 122.829 109.309 121.255 106.333 122.29C103.356 123.326 101.784 126.579 102.82 129.556C103.857 132.534 107.11 134.107 110.086 133.072Z" fill="white"/>
<path d="M146.451 161.795C149.427 160.759 150.999 157.506 149.963 154.529C148.926 151.552 145.673 149.978 142.697 151.013C139.72 152.049 138.148 155.302 139.185 158.279C140.221 161.257 143.474 162.831 146.451 161.795Z" fill="white"/>
<path d="M58.1074 106.233L68.9737 121.428L93.2875 110.302" stroke="#000407" stroke-width="2.58731" stroke-linecap="round"/>
<path d="M125.794 142.233C124.442 147.284 123.136 154.434 123.416 162.828" stroke="black" stroke-width="2.58731" stroke-linecap="round"/>
<path d="M117.476 146.223C119.059 160.164 120.281 179.5 118.782 201.099" stroke="black" stroke-width="2.58731" stroke-linecap="round"/>
</g>
<defs>
<clipPath id="clip0_117_15159">
<path d="M0 75C0 33.5786 33.5786 0 75 0C116.421 0 150 33.5786 150 75C150 116.421 116.421 150 75 150C33.5786 150 0 116.421 0 75Z" fill="white"/>
</clipPath>
</defs>
</svg>
