<svg width="150" height="150" viewBox="0 0 150 150" fill="none" xmlns="http://www.w3.org/2000/svg">
<g clip-path="url(#clip0_122_14671)">
<path d="M0 75C0 33.5786 33.5786 0 75 0C116.421 0 150 33.5786 150 75C150 116.421 116.421 150 75 150C33.5786 150 0 116.421 0 75Z" fill="#B19EC9"/>
<path d="M104.407 99.7426C101.026 102.701 96.8943 104.579 92.4334 105.565V105.706L94.6873 120.215C95.1569 123.08 95.016 126.038 94.1239 128.855C92.3395 134.443 87.9726 138.951 82.4318 140.735C77.1727 142.426 71.3032 141.534 66.5606 138.575C61.8181 135.664 58.719 130.687 57.8738 125.193L55.7607 111.623L53.5068 97.16C55.9486 94.8122 57.5451 91.6192 57.7798 88.0036C57.8737 86.2193 57.6859 84.435 57.1694 82.8384C57.2633 71.2403 57.3572 59.6421 57.4512 48.044C64.8702 44.4753 72.7119 40.9536 81.0231 37.4789C86.7987 35.0841 92.4334 32.8302 97.9273 30.7642C116.193 47.8562 120.654 85.421 104.407 99.7426Z" fill="#C08C78"/>
<path d="M103.743 46.7247C107.871 45.3314 110.82 43.0267 110.331 41.577C109.842 40.1272 106.099 40.0815 101.971 41.4748C97.8425 42.8681 94.8928 45.1728 95.3821 46.6225C95.8714 48.0723 99.6145 48.118 103.743 46.7247Z" fill="#131D35"/>
<path d="M72.9717 58.0372C77.0218 56.4318 79.8479 53.9773 79.2841 52.5549C78.7203 51.1326 74.98 51.281 70.9299 52.8865C66.8799 54.492 64.0537 56.9465 64.6176 58.3688C65.1814 59.7912 68.9217 59.6427 72.9717 58.0372Z" fill="#131D35"/>
<path d="M89.8038 89.1774C84.4977 89.1774 79.7082 84.7166 79.6613 84.6696C79.5673 84.5757 79.5673 84.3879 79.6613 84.294C79.7552 84.2001 79.943 84.1531 80.0369 84.294C80.1308 84.3879 89.0525 92.6991 95.8141 86.0783C95.9081 85.9844 96.0959 85.9844 96.1898 86.0783C96.2837 86.1722 96.2837 86.3601 96.1898 86.454C94.1707 88.4731 91.9638 89.1774 89.8038 89.1774Z" fill="#131D35"/>
<path d="M98.3029 73.2597L92.1517 62.0372L90.0856 58.2337L86.7987 52.2233C86.7048 52.0825 86.5639 52.0355 86.423 52.1294C86.2822 52.2233 86.2352 52.3642 86.3291 52.5051L97.6925 73.2597L87.3152 76.8753C87.1743 76.9222 87.0804 77.1101 87.1274 77.2509C87.1743 77.3448 87.2683 77.4388 87.4091 77.4388C87.4561 77.4388 87.4561 77.4388 87.503 77.4388L98.1621 73.7292C98.256 73.7292 98.3029 73.6353 98.3499 73.5414C98.3499 73.4005 98.3499 73.3066 98.3029 73.2597Z" fill="#131D35"/>
<path d="M86.4707 106.504C82.2447 106.504 76.8447 105.753 71.3509 103.077C71.21 103.03 71.163 102.842 71.21 102.701C71.2569 102.56 71.4448 102.513 71.5856 102.56C80.1317 106.739 88.302 106.176 92.3872 105.424C92.5281 105.377 92.6689 105.518 92.7159 105.659C92.7628 105.8 92.622 105.941 92.4811 105.988C90.9785 106.27 88.9124 106.504 86.4707 106.504Z" fill="black"/>
<path d="M97.8802 30.7173C92.3864 32.7834 86.7516 35.0373 80.976 37.432C72.6648 40.9068 64.8231 44.4285 57.4041 47.9971C57.3102 59.5953 57.2163 71.1934 57.1223 82.7916C55.4319 77.4856 50.6424 73.4943 44.7259 73.1186C43.8807 73.0717 43.0825 73.0717 42.2842 73.1656C42.0025 72.2734 41.7677 71.3813 41.5329 70.4891C41.486 70.2074 41.3921 69.9726 41.3451 69.6909C41.3451 69.6439 41.3451 69.6439 41.2981 69.5969C41.2042 69.0804 41.0634 68.6109 40.9695 68.0943C40.9225 67.8126 40.8755 67.5778 40.8286 67.2961C40.7816 67.0144 40.7347 66.7796 40.6877 66.4978C40.5468 65.6526 40.406 64.8074 40.3121 63.9622C40.2651 63.4927 40.2182 63.0231 40.1712 62.5535C40.1242 62.2718 40.1242 61.9901 40.1242 61.7083C40.1242 61.4735 40.0773 61.2388 40.0773 61.0509C40.0773 60.9101 40.0773 60.8162 40.0773 60.6753C40.0773 60.4405 40.0773 60.2057 40.0303 59.9709C39.9834 59.1257 39.9834 58.3275 40.0303 57.5292C40.0303 57.2944 40.0303 57.0597 40.0303 56.7779C40.0303 56.3084 40.0773 55.8388 40.0773 55.4162V55.2284C40.0773 55.0875 40.0773 54.9936 40.1242 54.8527C40.1242 54.6179 40.1712 54.3832 40.1712 54.1484C40.1712 53.9606 40.2182 53.8197 40.2182 53.6319C40.2182 53.5849 40.2182 53.538 40.2182 53.538C40.7347 48.9832 42.519 40.8598 48.6703 33.3468C57.6389 23.3922 73.557 19.2131 86.1882 23.6269C89.6629 24.8478 92.8559 26.726 95.7672 29.0738C96.5655 29.5434 97.2228 30.1069 97.8802 30.7173Z" fill="#131D35"/>
<path opacity="0.9" d="M86.2341 59.7827C88.9106 65.934 86.0932 73.2122 79.942 75.9356C73.7907 78.6121 66.5125 75.7947 63.7891 69.6435C71.2551 66.3096 78.768 63.0696 86.2341 59.7827Z" fill="#D5E7F8"/>
<path opacity="0.9" d="M105.673 65.371C100.79 67.2023 95.437 65.6997 92.15 61.9902L90.084 58.1867C97.6909 55.3224 105.251 52.4581 112.858 49.5938C115.205 55.8859 111.966 63.0232 105.673 65.371Z" fill="#D5E7F8"/>
<path d="M85.1075 61.1449C85.0136 61.1449 84.8728 61.0979 84.8258 60.9571C84.3093 59.6423 84.3563 58.1867 84.9667 56.8719C85.5302 55.698 86.5632 54.8058 87.7371 54.4302C89.991 53.7728 92.4796 55.0406 93.4657 57.2945C93.5127 57.4354 93.4657 57.6232 93.3249 57.6702C93.184 57.7171 92.9962 57.6701 92.9492 57.5293C92.104 55.5102 89.8501 54.3832 87.9249 54.9937C86.8919 55.3223 85.9997 56.0736 85.4832 57.1536C84.9197 58.2806 84.8728 59.5954 85.3423 60.7693C85.3893 60.9101 85.3423 61.0979 85.2015 61.1449C85.2015 61.1449 85.1545 61.1449 85.1075 61.1449Z" fill="#131D35"/>
<path d="M67.4521 70.6303L53.7878 77.2511C53.647 77.1103 53.5061 76.9694 53.3652 76.8285L67.2173 70.1138C67.3582 70.0668 67.546 70.1138 67.5929 70.2547C67.6869 70.3955 67.5929 70.5364 67.4521 70.6303Z" fill="#131D35"/>
<path d="M81.5863 69.0343C82.9348 69.0343 84.028 67.9411 84.028 66.5926C84.028 65.2441 82.9348 64.1509 81.5863 64.1509C80.2377 64.1509 79.1445 65.2441 79.1445 66.5926C79.1445 67.9411 80.2377 69.0343 81.5863 69.0343Z" fill="#131D35"/>
<path d="M107.835 58.61C109.184 58.61 110.277 57.5168 110.277 56.1683C110.277 54.8198 109.184 53.7266 107.835 53.7266C106.487 53.7266 105.394 54.8198 105.394 56.1683C105.394 57.5168 106.487 58.61 107.835 58.61Z" fill="#131D35"/>
<path d="M57.1697 82.7917C56.5123 80.6787 55.3384 78.8004 53.7889 77.2509C53.648 77.11 53.5071 76.9691 53.3663 76.8283C51.1124 74.7152 48.1072 73.3535 44.7733 73.1187C43.9281 73.0718 43.1298 73.0718 42.3316 73.1657C35.7108 73.87 30.4048 79.27 29.9352 86.1256C29.4187 93.8264 35.2412 100.447 42.942 100.964C46.9802 101.245 50.7837 99.7428 53.5071 97.1602C55.9489 94.8124 57.5454 91.6194 57.7801 88.0038C57.8741 86.1256 57.6862 84.3882 57.1697 82.7917Z" fill="#C08C78"/>
<path d="M51.8631 93.0749C51.8161 93.0749 51.7222 93.0749 51.6752 93.0279C51.0648 92.6053 50.0318 91.6193 49.6561 90.0228C49.0457 87.581 50.4544 85.6558 51.0648 84.9045L37.4006 77.6263C37.2597 77.5324 37.2128 77.3915 37.3067 77.2507C37.4006 77.1098 37.5415 77.0629 37.6823 77.1568L51.6752 84.6228C51.7691 84.6698 51.8161 84.7637 51.8161 84.8106C51.8161 84.9045 51.8161 84.9984 51.7222 85.0454C51.6283 85.1393 49.5622 87.2054 50.2196 89.8819C50.5483 91.2906 51.4874 92.1827 52.0509 92.5584C52.1918 92.6523 52.1917 92.8401 52.0978 92.934C52.0509 93.0279 51.957 93.0749 51.8631 93.0749Z" fill="#131D35"/>
<path d="M300.074 125.944C298.853 128.01 296.411 128.902 294.204 128.245C291.387 138.763 288.194 147.779 285.142 155.245C284.907 155.855 284.625 156.466 284.391 157.076C284.344 157.17 284.297 157.264 284.25 157.358C283.639 158.767 283.076 160.081 282.512 161.396C282.419 161.631 282.278 161.913 282.184 162.147C281.949 162.664 281.714 163.133 281.526 163.603C281.385 163.932 281.198 164.307 281.057 164.636C280.869 165.059 280.681 165.481 280.493 165.904C280.305 166.28 280.165 166.608 279.977 166.984C278.521 170.13 277.112 173.041 275.61 175.859C275.046 176.892 274.483 177.925 273.919 178.958C273.638 179.427 273.356 179.897 273.074 180.366C272.792 180.836 272.511 181.305 272.229 181.775C271.994 182.151 271.759 182.479 271.572 182.855C271.196 183.418 270.867 183.935 270.492 184.498C270.116 185.062 269.74 185.578 269.318 186.142C268.473 187.269 267.627 188.443 266.688 189.57C266.266 190.086 265.843 190.556 265.42 191.072C265.139 191.401 264.857 191.777 264.528 192.105C258.8 198.632 249.784 208.916 234.57 214.269C215.083 221.124 197.334 215.724 187.614 212.813C178.505 210.043 171.414 206.38 166.813 203.657C166.672 212.766 166.719 222.157 166.953 231.924C167 234.319 167.094 236.714 167.188 239.108C167.235 240.329 167.282 241.55 167.329 242.771C167.799 255.073 168.597 266.906 169.63 278.176C169.677 278.786 169.724 279.397 169.771 280.007C169.583 280.054 169.442 280.054 169.254 280.101C166.437 280.571 163.62 281.04 160.802 281.51C157.797 281.979 154.839 282.496 151.834 283.012C149.11 283.482 146.387 283.904 143.663 284.374C137.136 285.454 130.609 286.581 124.083 287.661C119.997 288.365 115.865 289.07 111.78 289.774C100.792 291.652 89.8047 293.577 78.8639 295.503C76.61 295.878 74.3561 296.301 72.0553 296.723C71.0692 296.911 70.0831 297.099 69.0501 297.24C64.5423 298.038 59.9875 298.836 55.4798 299.682C51.1598 300.48 46.7929 301.231 42.4729 302.029C39.9373 302.499 37.4017 302.969 34.8191 303.438C31.8139 304.002 28.8087 304.518 25.8035 305.082V279.256C-13.7335 288.412 -29.3699 281.134 -36.3663 273.198C-36.8359 272.682 -37.2585 272.118 -37.6811 271.555C-37.775 271.461 -37.8689 271.32 -37.9629 271.179C-38.1037 270.992 -38.2446 270.757 -38.3855 270.569C-38.6202 270.193 -38.855 269.818 -39.0898 269.442C-39.2307 269.16 -39.4185 268.925 -39.5594 268.644C-39.7941 268.221 -40.0289 267.799 -40.2637 267.376C-40.3576 267.141 -40.4985 266.953 -40.5924 266.719C-40.5924 266.672 -40.6393 266.672 -40.6393 266.625C-40.7333 266.39 -40.8272 266.202 -40.9211 265.967C-41.015 265.732 -41.1559 265.498 -41.2498 265.263C-41.4376 264.793 -41.6254 264.324 -41.8133 263.854C-41.9072 263.572 -42.0011 263.291 -42.095 263.009C-42.3767 262.258 -42.6115 261.459 -42.7993 260.661C-42.8932 260.379 -42.9402 260.145 -43.0341 259.863C-43.0811 259.628 -43.128 259.393 -43.2219 259.159C-43.2219 259.065 -43.2689 259.018 -43.2689 258.924C-43.3158 258.689 -43.3628 258.454 -43.4567 258.219C-43.5037 257.938 -43.5506 257.656 -43.6445 257.374C-43.6915 257.046 -43.7854 256.764 -43.8324 256.435C-43.9263 256.013 -43.9732 255.59 -44.0671 255.167C-44.208 254.322 -44.3019 253.43 -44.3958 252.538C-44.4428 252.068 -44.4897 251.646 -44.5367 251.176C-44.5837 250.894 -44.5837 250.566 -44.6306 250.237C-44.6776 249.627 -44.7245 248.969 -44.7245 248.359C-44.7245 248.03 -44.7715 247.748 -44.7715 247.42C-44.7715 247.091 -44.7715 246.762 -44.7715 246.434C-44.7715 246.105 -44.7715 245.729 -44.7715 245.4C-44.7715 244.978 -44.7715 244.508 -44.7715 244.086C-44.7715 243.71 -44.7715 243.334 -44.7245 242.959C-44.7245 242.818 -44.7245 242.677 -44.7245 242.536C-44.7245 242.301 -44.7245 242.114 -44.6776 241.879C-44.6776 241.597 -44.6776 241.315 -44.6306 240.987C-44.6306 240.94 -44.6306 240.893 -44.6306 240.893C-44.6306 240.517 -44.5837 240.094 -44.5367 239.672C-44.5367 239.578 -44.5367 239.484 -44.5367 239.39C-44.4897 239.014 -44.4897 238.639 -44.4428 238.216C-44.3489 236.854 -44.1611 235.446 -43.9732 234.037C-43.9263 233.708 -43.8793 233.333 -43.8324 233.004C-43.7385 232.347 -43.6445 231.736 -43.5506 231.079C-43.5506 231.032 -43.5506 230.938 -43.5037 230.891C-43.4567 230.609 -43.4098 230.281 -43.3628 229.999C-43.2689 229.435 -43.175 228.872 -43.0811 228.308C-43.0341 228.121 -42.9872 227.886 -42.9872 227.698C-42.9402 227.463 -42.8932 227.182 -42.8463 226.947C-42.7993 226.618 -42.7054 226.242 -42.6585 225.914C-42.5176 225.209 -42.3767 224.505 -42.1889 223.848C-41.9541 222.815 -41.7193 221.829 -41.4846 220.795C-41.4846 220.749 -41.4846 220.749 -41.4846 220.702C-41.3906 220.326 -41.2967 219.997 -41.2028 219.669C-41.015 218.964 -40.8272 218.26 -40.6393 217.556C-40.4046 216.757 -40.1698 215.959 -39.935 215.161C-39.7472 214.55 -39.5594 213.893 -39.3715 213.283C-39.2776 212.954 -39.1837 212.672 -39.0898 212.343C-38.9489 211.921 -38.855 211.545 -38.7142 211.123C-38.6202 210.747 -38.4794 210.418 -38.3385 210.043C-38.2446 209.761 -38.1507 209.432 -38.0568 209.15C-37.3994 207.272 -36.742 205.394 -35.9907 203.516C-35.709 202.811 -35.4272 202.06 -35.1455 201.309C-34.6759 200.229 -34.2533 199.102 -33.7838 198.022C-33.6429 197.646 -33.4551 197.271 -33.3142 196.942C-32.8446 195.815 -32.3281 194.735 -31.8116 193.655C-31.6238 193.279 -31.4829 192.904 -31.2951 192.575C-30.5907 191.072 -29.8864 189.617 -29.1351 188.114C-28.9473 187.738 -28.7595 187.363 -28.5716 186.987C-28.2899 186.471 -28.0082 185.907 -27.7264 185.391C-27.6325 185.156 -27.4916 184.921 -27.3508 184.686C-27.2099 184.358 -27.0221 184.076 -26.8343 183.747C-26.6464 183.418 -26.5056 183.09 -26.3177 182.808C-25.8951 182.057 -25.4725 181.258 -25.003 180.507C-24.8151 180.178 -24.6273 179.803 -24.4395 179.474C-23.2186 177.361 -21.9508 175.295 -20.6361 173.229C-20.4482 172.947 -20.2604 172.619 -20.0726 172.337C-19.5561 171.539 -19.0396 170.787 -18.57 169.989C-18.3352 169.66 -18.1474 169.332 -17.9126 169.003C-16.0813 166.279 -14.1561 163.65 -12.184 161.02C-11.4796 160.081 -10.7753 159.189 -10.024 158.25C-9.74224 157.874 -9.46051 157.546 -9.17878 157.217C-8.944 156.935 -8.75617 156.654 -8.52139 156.419C-8.38052 156.231 -8.23965 156.09 -8.09879 155.902C-6.45532 153.93 -4.81186 152.005 -3.07449 150.08C-2.79275 149.751 -2.46405 149.422 -2.18232 149.094C-1.24319 148.061 -0.257118 147.028 0.728962 145.994C1.0107 145.713 1.24548 145.431 1.52721 145.196C1.8559 144.868 2.13764 144.539 2.46634 144.257C6.035 140.688 9.79148 137.308 13.7358 134.115C14.0645 133.833 14.4401 133.551 14.7688 133.269C15.1914 132.941 15.614 132.612 16.0366 132.283C16.3184 132.049 16.6471 131.814 16.9758 131.579C17.2105 131.391 17.4453 131.203 17.6801 131.062C17.821 130.969 17.9618 130.828 18.1027 130.734C18.5723 130.405 19.0418 130.029 19.5114 129.701C19.7931 129.513 20.0749 129.278 20.3566 129.09C20.7323 128.809 21.1079 128.574 21.4836 128.292C21.4836 128.292 21.4836 128.292 21.5305 128.292C21.8122 128.104 22.094 127.916 22.3757 127.729C22.4696 127.682 22.5635 127.588 22.6575 127.541C23.0331 127.306 23.4088 127.024 23.8314 126.789C24.207 126.508 24.6296 126.273 25.0053 126.038C25.287 125.85 25.5687 125.663 25.8505 125.475C26.0852 125.287 26.367 125.146 26.6487 124.958C27.1183 124.676 27.5878 124.395 28.0574 124.113C28.3391 123.925 28.6678 123.737 28.9496 123.549C31.8139 121.859 34.7721 120.263 37.7773 118.76C38.0121 118.666 38.2469 118.525 38.4347 118.431C38.8573 118.243 39.2329 118.056 39.6555 117.868C42.2851 116.647 47.779 114.205 55.4328 111.857L57.5458 125.428C58.391 130.922 61.5371 135.899 66.2327 138.81C70.9753 141.721 76.8917 142.661 82.1039 140.97C87.5977 139.186 91.9646 134.678 93.7959 129.09C94.6881 126.32 94.829 123.362 94.3594 120.45L92.1055 105.941C99.8533 105.847 108.164 106.457 116.757 108.195C171.602 118.948 189.586 164.495 220.155 158.532C220.718 158.438 221.329 158.297 221.892 158.156C222.08 158.109 222.268 158.062 222.456 158.015C222.643 157.968 222.831 157.921 223.066 157.827C223.254 157.78 223.442 157.734 223.629 157.64H223.676C223.676 157.64 223.676 157.64 223.723 157.64L224.005 157.546C224.099 157.499 224.193 157.499 224.287 157.452C224.475 157.405 224.663 157.311 224.85 157.264C225.085 157.17 225.32 157.076 225.602 156.982C225.789 156.935 225.93 156.841 226.118 156.747C226.306 156.654 226.541 156.56 226.729 156.466C227.715 156.043 228.701 155.527 229.734 154.963C229.781 154.963 229.828 154.916 229.828 154.916C230.016 154.822 230.203 154.681 230.438 154.587C230.861 154.353 231.283 154.071 231.753 153.789C231.988 153.648 232.175 153.507 232.363 153.367C232.598 153.226 232.786 153.085 233.021 152.944C233.443 152.662 233.866 152.334 234.289 152.005C234.523 151.864 234.711 151.676 234.946 151.488C235.791 150.784 236.683 150.033 237.528 149.234C237.716 149.047 237.904 148.859 238.092 148.718C238.327 148.483 238.562 148.248 238.843 148.014C239.031 147.873 239.172 147.685 239.313 147.497C239.454 147.356 239.595 147.215 239.735 147.074C239.97 146.84 240.205 146.558 240.44 146.323C241.661 145.008 242.881 143.553 244.102 141.956C244.29 141.721 244.478 141.44 244.666 141.205C244.901 140.876 245.182 140.548 245.417 140.219C245.652 139.937 245.84 139.608 246.074 139.28C246.074 139.233 246.121 139.186 246.168 139.186C246.356 138.904 246.544 138.622 246.732 138.341C246.779 138.294 246.826 138.2 246.873 138.153C247.061 137.871 247.248 137.636 247.389 137.355C247.577 137.073 247.765 136.791 247.953 136.509C248 136.462 248.047 136.368 248.047 136.322C248.281 135.993 248.469 135.617 248.704 135.288C249.127 134.584 249.596 133.88 250.019 133.129C250.254 132.706 250.535 132.283 250.77 131.814C250.958 131.485 251.146 131.156 251.334 130.828C251.521 130.546 251.662 130.217 251.85 129.936C252.132 129.419 252.414 128.949 252.648 128.433C252.836 128.057 253.024 127.682 253.212 127.306C253.259 127.212 253.306 127.118 253.353 127.024C253.54 126.649 253.728 126.273 253.916 125.897C254.574 124.583 255.231 123.221 255.888 121.812C256.123 121.343 256.311 120.873 256.546 120.403C256.968 119.417 257.391 118.431 257.86 117.445C258.189 116.647 258.565 115.849 258.893 115.003C259.598 113.219 260.349 111.388 261.053 109.463L258.987 108.289C256.593 106.88 255.747 103.781 257.156 101.386C258.095 99.7897 259.786 98.8506 261.57 98.8506C262.415 98.8506 263.307 99.0854 264.106 99.508L264.481 99.7427L267.393 101.433L267.627 101.574L296.74 118.384H296.787L298.337 119.276C300.59 120.45 301.436 123.549 300.074 125.944Z" fill="#51526B"/>
<path d="M22.6575 127.493C22.6575 129.418 21.061 131.015 19.1358 131.015C18.7132 131.015 18.3376 130.921 17.9619 130.78C18.1028 130.686 18.2436 130.545 18.3845 130.451C18.8541 130.123 19.3236 129.747 19.7932 129.418C20.0749 129.231 20.3567 128.996 20.6384 128.808C21.0141 128.526 21.3897 128.292 21.7654 128.01C21.7654 128.01 21.7654 128.01 21.8123 128.01C22.094 127.822 22.3758 127.634 22.6575 127.446V127.493Z" fill="#D5E0EA"/>
<path d="M140.331 131.015C142.276 131.015 143.853 129.438 143.853 127.493C143.853 125.548 142.276 123.972 140.331 123.972C138.386 123.972 136.81 125.548 136.81 127.493C136.81 129.438 138.386 131.015 140.331 131.015Z" fill="#D5E0EA"/>
<path d="M77.0336 141.815C73.418 141.815 69.6615 140.782 66.4685 138.763C61.726 135.851 58.533 130.874 57.6408 125.192L55.5278 111.622C55.4808 111.481 55.6217 111.34 55.7625 111.293C55.9034 111.293 56.0443 111.387 56.0912 111.528L58.2043 125.099C59.0495 130.639 62.1955 135.429 66.7972 138.293C71.5867 141.251 77.4093 142.05 82.4336 140.406C87.8335 138.669 92.1535 134.302 93.9378 128.714C94.783 126.132 94.9709 123.173 94.5013 120.215C94.4543 120.074 94.5952 119.933 94.7361 119.886C94.877 119.839 95.0178 119.98 95.0648 120.121C95.5343 123.173 95.3465 126.179 94.4543 128.855C92.5761 134.631 88.1622 139.091 82.5745 140.923C80.7432 141.533 78.9119 141.815 77.0336 141.815Z" fill="#D3DEEB"/>
</g>
<defs>
<clipPath id="clip0_122_14671">
<path d="M0 75C0 33.5786 33.5786 0 75 0C116.421 0 150 33.5786 150 75C150 116.421 116.421 150 75 150C33.5786 150 0 116.421 0 75Z" fill="white"/>
</clipPath>
</defs>
</svg>
