<svg width="150" height="150" viewBox="0 0 150 150" fill="none" xmlns="http://www.w3.org/2000/svg">
<g clip-path="url(#clip0_117_15444)">
<path d="M0 75C0 33.5786 33.5786 0 75 0C116.421 0 150 33.5786 150 75C150 116.421 116.421 150 75 150C33.5786 150 0 116.421 0 75Z" fill="#7F87CD"/>
<path d="M88.1682 151.052C82.8162 159.235 75.4095 165.278 65.0171 165.214C34.3075 164.975 56.6413 106.355 57.6172 103.834C57.9771 103.813 58.3744 103.852 58.5785 103.848L58.7234 103.881L96.8657 108.745L99.0828 109.043C99.7698 109.147 100.42 109.193 101.107 109.297C101.118 109.249 99.0233 134.466 88.1682 151.052Z" fill="#CD907F"/>
<path opacity="0.08" d="M88.1644 151.051L60.8763 163.314C57.3664 153.685 53.8564 144.057 50.3465 134.429C53.0682 134.74 57.2887 134.932 62.2447 133.666C68.7058 132.029 72.8848 128.81 75.233 126.955C76.8379 125.693 82.3211 121.195 86.9809 112.702C88.0079 110.853 88.9929 108.74 89.914 106.46C94.2985 95.3668 94.2161 85.3963 94.2666 81.8027C94.2808 80.8412 94.3417 80.3472 94.4492 80.3207C94.5567 80.2943 94.7108 80.7353 94.868 81.8371C95.0781 83.154 95.3223 85.4432 95.588 89.2099C95.6423 90.5423 95.7075 91.8264 95.8101 93.1697C96.0974 98.4137 96.4548 103.572 96.8232 108.682L96.8123 108.73C96.8169 108.934 96.8324 109.09 96.8371 109.294C96.851 109.907 96.9132 110.53 96.9162 111.191C97.0783 110.923 98.2393 109.154 100.087 109.064C100.339 109.071 100.688 109.099 101.075 109.186C101.112 109.245 99.0184 134.464 88.1644 151.051Z" fill="url(#paint0_linear_117_15444)"/>
<path d="M175.159 215.282C171.899 216.678 168.638 218.073 165.356 219.565C163.322 220.476 161.289 221.387 159.314 222.261C154.665 224.409 150.076 226.519 145.572 228.699C140.51 221.667 135.179 213.355 130.143 203.74C126.526 196.831 123.553 190.219 121.093 184.029C116.689 204.862 112.295 225.647 107.89 246.481C107.869 246.577 107.847 246.674 107.836 246.722L31.8496 225.744C28.4874 222.649 25.066 219.592 21.7038 216.497L24.3711 194.814L26.9166 174.119C24.2212 179.754 21.4666 185.426 18.6419 191.184C17.5164 193.468 16.3909 195.752 15.2653 198.036C15.1032 198.304 14.9785 198.631 14.8164 198.899C11.3339 205.321 7.86239 211.694 4.33162 218.105C4.08845 218.507 3.89355 218.919 3.65038 219.321C1.82735 218.402 -0.129662 217.401 -2.07577 216.352C-3.92527 215.325 -5.86046 214.228 -7.82213 213.023C-9.3818 212.062 -10.9789 211.041 -12.565 209.972C-16.4447 207.369 -19.9643 204.746 -23.0976 202.211C-21.671 198.37 -19.2185 191.564 -16.2545 182.943L-16.2436 182.895C-15.8086 181.42 -15.2098 179.22 -14.3304 176.677C-12.397 170.819 -9.60007 163.837 -4.12692 153.55C3.60655 139.104 9.68449 127.938 20.9513 118.301C21.824 117.584 22.8371 116.696 24.3021 115.606C33.2371 109.096 42.7074 106.058 50.6893 104.664C52.5437 104.322 55.5419 104.085 56.7138 103.842C56.7621 103.853 57.2296 103.807 57.7345 103.819C58.0945 103.799 58.4918 103.838 58.6959 103.833L58.8409 103.866C59.0917 104.329 59.3425 104.792 59.5559 105.195C62.2071 110.312 66.0263 119.247 66.8811 130.964C67.6023 141.026 65.9505 149.232 64.4114 154.468C67.5142 153.545 84.8949 148.081 93.0528 130.634C97.0858 122.001 97.2868 113.924 96.9651 109.283C96.9605 109.079 96.9449 108.923 96.9403 108.719C97.735 108.797 98.4814 108.864 99.2169 108.98C99.9041 109.084 100.554 109.129 101.241 109.234C106.653 110 111.413 111.177 115.518 112.561C117.588 113.283 119.552 114.031 121.3 114.833C127.344 117.518 131.668 120.627 134.742 123.2C138.967 126.744 148.057 135.499 167.179 190.838C170.58 200.947 173.332 209.438 175.159 215.282Z" fill="#BDD3DE"/>
<path opacity="0.5" d="M9.94022 130.092L9.72835 130.806L3.52454 151.543L3.25811 152.499L-2.43469 171.422L-2.70109 172.377L-8.36116 191.156L-8.62759 192.111L-13.7611 209.231C-14.0773 209.058 -14.3344 208.848 -14.5914 208.637L-9.52336 191.807L-9.25696 190.852L-3.59688 172.074L-3.33045 171.118L2.36234 152.195L2.62874 151.24L8.21872 132.547C8.66117 131.936 9.05533 131.314 9.48688 130.752C9.6489 130.483 9.80001 130.264 9.94022 130.092Z" fill="white"/>
<path opacity="0.5" d="M36.6521 108.703L35.2671 113.265L35.0006 114.22L28.6177 135.526L28.3513 136.482L22.1366 157.267L21.8702 158.223L16.1774 177.146L15.911 178.101L10.3211 196.794L10.0546 197.749L3.97081 217.955L3.70441 218.911L3.54707 219.383C3.2682 219.269 2.95195 219.096 2.63569 218.923L2.70113 218.633L2.96753 217.678L9.05135 197.472L9.31775 196.517L14.9077 177.824L15.1741 176.869L20.8669 157.945L21.1333 156.99L27.348 136.204L27.6144 135.249L33.9974 113.943L34.2638 112.987L35.3668 109.225C35.8669 109.033 36.2595 108.868 36.6521 108.703Z" fill="white"/>
<path opacity="0.5" d="M61.0116 108.31L57.5077 120.01L57.2413 120.965L50.8584 142.271L50.592 143.227L44.3664 164.061L44.1 165.016L38.4072 183.939L38.1408 184.895L32.5836 203.442L32.3172 204.398L27.1946 221.47C26.9485 221.211 26.6431 220.99 26.397 220.731L31.3622 204.131L31.6286 203.176L37.1858 184.628L37.4522 183.673L43.145 164.75L43.4114 163.794L49.637 142.96L49.9034 142.005L56.2863 120.699L56.5527 119.743L60.3931 107.003C60.6065 107.406 60.809 107.858 61.0116 108.31Z" fill="white"/>
<path opacity="0.5" d="M72.3821 151.294L66.4992 170.834L66.2328 171.789L60.5401 190.713L60.2736 191.668L54.7491 210.071L54.4827 211.026L48.3552 231.425L48.0888 232.381L46.1928 238.756C45.9466 238.498 45.6413 238.276 45.3951 238.018L47.193 232.077L47.4594 231.121L53.5869 210.722L53.8533 209.767L59.3779 191.364L59.6443 190.409L65.337 171.485L65.6035 170.53L71.1934 151.837C71.5751 151.721 71.9786 151.507 72.3821 151.294Z" fill="white"/>
<path opacity="0.5" d="M108.767 110.661L101.831 133.518L101.565 134.473L95.0962 155.709L94.7815 156.654L88.4266 177.611L88.1119 178.555L82.3708 197.468L82.1044 198.423L76.5752 216.621L76.3088 217.577L70.0629 238.051L69.7482 238.995L65.4575 253.056C65.1195 252.98 64.8406 252.866 64.5026 252.789L68.7932 238.729L69.0596 237.773L75.3055 217.299L75.5719 216.344L81.112 198.097L81.3784 197.142L87.1195 178.229L87.4342 177.285L93.7891 156.328L94.0556 155.373L100.524 134.136L100.791 133.181L107.716 110.373C108.139 110.519 108.478 110.595 108.767 110.661Z" fill="white"/>
<path opacity="0.5" d="M65.6268 122.502C65.6953 122.873 65.7639 123.244 65.8325 123.615L57.1813 121.002L56.2259 120.735L34.9417 114.256L33.9863 113.989L29.0974 112.48C29.501 112.266 29.8564 112.042 30.271 111.78L34.2638 112.986L35.2191 113.252L56.5034 119.732L57.4588 119.999L65.6268 122.502Z" fill="white"/>
<path opacity="0.5" d="M151.212 149.587L143.275 147.186L142.331 146.872L123.139 141.017L122.184 140.75L101.517 134.461L100.561 134.194L92.4791 131.761C92.6521 131.445 92.7658 131.166 92.9388 130.849L100.876 133.25L101.832 133.517L122.499 139.806L123.454 140.073L142.645 145.928L143.601 146.194L150.679 148.35C150.845 148.743 151.058 149.146 151.212 149.587Z" fill="white"/>
<path opacity="0.5" d="M66.1161 146.883C66.0397 147.221 66.0117 147.57 65.9462 147.86L50.5545 143.167L49.5992 142.901L28.3149 136.421L27.3595 136.155L9.68155 130.794L9.43999 130.739C9.59117 130.52 9.74237 130.3 9.89355 130.08L9.9481 129.839L10.0447 129.861L27.6261 135.2L28.5814 135.466L49.8657 141.946L50.8211 142.212L66.1161 146.883Z" fill="white"/>
<path opacity="0.5" d="M162.301 177.172L155.646 175.163L154.691 174.896L136.117 169.232L135.172 168.917L116.405 163.208L115.45 162.942L94.7823 156.652L93.827 156.386L74.1042 150.411C74.5079 150.198 74.8632 149.973 75.2778 149.712L94.0935 155.431L95.0488 155.697L115.716 161.987L116.671 162.253L135.439 167.962L136.394 168.228L154.92 173.882L155.875 174.149L161.816 175.946C162.03 176.35 162.147 176.732 162.301 177.172Z" fill="white"/>
<path opacity="0.5" d="M120.434 187.424C120.358 187.762 120.292 188.052 120.216 188.39L109.724 185.159L108.78 184.844L88.1234 178.506L87.179 178.192L66.2438 171.74L65.2884 171.474L44.015 164.946L43.0706 164.631L21.8454 158.114L20.901 157.799L3.23391 152.39L2.28947 152.075L-2.55122 150.577C-2.37822 150.26 -2.21611 149.993 -2.04311 149.676L2.61522 151.083L3.55967 151.398L21.2267 156.807L22.1712 157.122L43.3963 163.639L44.3407 163.954L65.6142 170.481L66.5695 170.748L87.553 177.21L88.4975 177.525L109.154 183.863L110.098 184.178L120.434 187.424Z" fill="white"/>
<path opacity="0.5" d="M129.733 119.455L123.454 140.074L123.139 141.018L116.671 162.254L116.404 163.21L110.039 184.215L109.772 185.17L104.031 204.083L103.716 205.027L98.2199 223.081L97.9535 224.036L91.6858 244.607L91.4193 245.562L87.2643 259.247C86.9262 259.171 86.6473 259.057 86.3093 258.981L90.4644 245.296L90.7308 244.34L96.9985 223.77L97.2649 222.814L102.772 204.712L103.087 203.768L108.828 184.855L109.143 183.911L115.509 162.906L115.775 161.95L122.244 140.714L122.51 139.759L128.854 118.85C129.159 119.071 129.416 119.282 129.733 119.455Z" fill="white"/>
<path opacity="0.5" d="M145.979 138.81L143.59 146.243L143.275 147.187L136.431 168.287L136.116 169.232L129.305 190.187L128.99 191.132L126.971 197.378C126.768 196.926 126.555 196.523 126.352 196.071L128.046 190.817L128.361 189.872L135.172 168.917L135.487 167.973L142.331 146.872L142.646 145.928L145.338 137.599C145.552 138.003 145.776 138.358 145.979 138.81Z" fill="white"/>
<path opacity="0.17" d="M159.325 222.265C154.676 224.413 150.086 226.523 145.582 228.704C140.52 221.672 135.189 213.36 130.152 203.745C126.535 196.837 123.561 190.226 121.102 184.035C116.697 204.868 112.304 225.652 107.899 246.484C107.877 246.581 107.855 246.677 107.845 246.726L31.8552 225.75C28.4929 222.655 25.0713 219.598 21.7089 216.503L24.3761 194.821L26.9215 174.127C24.2261 179.762 21.4715 185.434 18.6467 191.192C17.5211 193.475 16.3956 195.759 15.27 198.043C15.1079 198.311 14.9832 198.638 14.8211 198.906C11.3386 205.327 7.86696 211.7 4.33612 218.111L-2.07152 216.358L-8.09269 214.693C-8.09269 214.693 -8.00999 214.103 -7.81812 213.03C-5.93678 202.236 5.75239 142.44 32.5705 140.378C62.0752 138.11 51.4115 180.117 111.937 166.178C147.818 157.939 157.449 192.603 159.325 222.265Z" fill="url(#paint1_linear_117_15444)"/>
<path opacity="0.32" d="M108.343 240.451C93.4319 235.456 75.0999 227.402 65.5987 215.759C59.3217 208.044 63.8564 190.892 72.35 171.943C83.0293 172.529 93.7085 173.115 104.399 173.653C108.043 153.252 111.735 132.863 115.379 112.462C117.45 113.184 119.413 113.933 121.16 114.734C118.965 133.888 113.314 183.843 110.22 217.315C109.662 224.501 108.996 232.17 108.343 240.451Z" fill="url(#paint2_linear_117_15444)"/>
<path d="M96.8767 109.304C94.5361 110.449 91.1796 111.822 86.9712 112.697C84.9986 113.114 82.8547 113.39 80.5987 113.489C72.547 113.849 66.0029 111.81 61.7194 109.877C60.7561 107.628 59.7755 105.68 58.9116 104.114C58.8742 104.055 58.8478 103.948 58.7621 103.877C59.2775 101.151 59.8413 98.4363 60.4159 95.6729C61.4777 90.5324 62.566 85.4994 63.729 80.5849C63.8492 80.0537 63.9585 79.5708 64.0677 79.0879C64.2126 79.1207 64.3201 79.0943 64.465 79.127C72.577 79.8458 80.7263 80.6238 88.8383 81.3426C90.6798 81.5054 92.4729 81.6573 94.2661 81.8093C94.4702 81.8047 94.7116 81.8593 94.9157 81.8547C95.0606 81.8875 95.1681 81.8611 95.313 81.8939C95.4271 84.3055 95.5304 86.7654 95.6336 89.2254C95.6875 90.5574 95.7523 91.8411 95.8545 93.184C96.1403 98.4264 96.4962 103.583 96.863 108.692L96.8521 108.74C96.8567 108.944 96.8722 109.1 96.8767 109.304Z" fill="#CD907F"/>
<path opacity="0.15" d="M72.3292 103.804C69.8084 104.401 66.7956 104.48 65.8235 104.514C63.0148 104.589 60.6315 104.355 58.9196 104.069C58.8823 104.009 58.8558 103.902 58.7702 103.832C59.2855 101.105 59.8492 98.39 60.4237 95.6263C61.4854 90.4852 62.5735 85.4516 63.7363 80.5365L64.4723 79.0785C67.6109 79.7888 71.7917 80.3797 76.663 80.1622C80.1432 80.036 83.1951 79.559 85.7159 78.9619C86.2216 80.0917 89.1642 87.0528 85.754 94.0484C82.1271 101.553 73.9308 103.455 72.3292 103.804Z" fill="#19233D"/>
<path d="M98.0269 74.0712C97.6154 74.9937 97.1665 75.8569 96.6693 76.7092C94.7398 80.0809 92.1715 83.3591 89.1966 86.19C80.6756 94.4691 68.9112 99.5781 60.3644 95.6153C47.3246 89.5199 48.9636 65.4182 49.5073 57.6206C49.5917 56.5735 49.6277 55.5154 49.723 54.4199C49.7683 53.7702 49.8245 53.072 49.9181 52.4332C50.1757 49.4958 50.5892 46.543 51.3781 43.7257C52.6192 39.1321 54.8044 34.8535 58.9044 31.3122C66.9375 24.2937 79.5924 22.4323 88.5504 27.0465C94.5063 30.119 98.4814 35.8917 100.487 42.7423C100.45 45.3742 100.299 48.7417 99.966 53.1344C99.5629 59.1868 98.9414 66.2052 98.0269 74.0712Z" fill="#CD907F"/>
<path d="M68.4959 80.0959C63.6961 73.478 59.3076 74.923 57.4826 76.0335C55.6315 75.463 50.5733 74.9292 47.9273 83.2657C45.2594 91.6989 54.6301 80.5669 57.3764 77.1771C60.7903 79.3699 73.8037 87.3869 68.4959 80.0959Z" fill="url(#paint3_linear_117_15444)"/>
<path d="M54.7272 84.8536C54.1475 84.7227 53.638 84.506 53.225 84.3112C53.091 84.2302 53.0272 84.0635 53.0599 83.9186C53.141 83.7846 53.3077 83.7207 53.4527 83.7535C54.2302 84.1322 55.5127 84.5235 57.0337 84.3088C59.2263 84.0427 60.5636 82.619 61.0437 82.0676C61.173 81.9445 61.3289 81.929 61.4629 82.01C61.586 82.1393 61.6015 82.2951 61.5205 82.4291C60.9703 83.0662 59.5145 84.5647 57.1068 84.8837C56.2465 85.0954 55.4518 85.0174 54.7272 84.8536Z" fill="black"/>
<path d="M64.0995 64.0201C64.9529 64.2131 65.8013 63.6776 65.9945 62.824C66.1877 61.9705 65.6525 61.1221 64.7991 60.9291C63.9457 60.736 63.0973 61.2715 62.9041 62.1251C62.7109 62.9787 63.2461 63.8271 64.0995 64.0201Z" fill="url(#paint4_linear_117_15444)"/>
<path d="M51.6259 62.8292C52.4793 63.0222 53.3277 62.4867 53.5209 61.6331C53.714 60.7796 53.1788 59.9312 52.3255 59.7381C51.4721 59.5451 50.6237 60.0806 50.4305 60.9342C50.2373 61.7877 50.7725 62.6362 51.6259 62.8292Z" fill="url(#paint5_linear_117_15444)"/>
<path d="M58.6589 57.7664C57.5587 59.041 55.9833 61.0713 54.2769 63.6812C51.6416 67.706 50.3669 69.7535 51.0973 71.2388C52.3292 73.6498 58.1374 72.8809 58.5082 72.8124C58.5262 67.7898 58.5925 62.7781 58.6589 57.7664Z" fill="#A2625E"/>
<path d="M73.5948 54.1305L62.7578 51.5312L62.3536 53.3181L73.1906 55.9173L73.5948 54.1305Z" fill="url(#paint6_linear_117_15444)"/>
<path d="M55.2333 53.5915L49.7032 54.4734C49.7488 53.8237 49.8052 53.1257 49.899 52.487L54.9507 51.7001L55.2333 53.5915Z" fill="url(#paint7_linear_117_15444)"/>
<path d="M98.2077 72.5877C98.1469 73.0817 98.086 73.5756 98.0251 74.0695C97.2104 81.0438 96.3943 86.9009 95.7826 91.1796L95.7453 91.1204C95.2374 90.4471 94.6175 89.5962 93.971 88.6378C93.0893 87.3724 92.1656 85.8436 91.2264 84.1591C90.7622 83.2926 90.2607 82.3669 89.7701 81.393C89.3168 80.4782 88.8745 79.5152 88.4431 78.5038C87.8201 76.9923 87.2454 75.4916 86.7564 74.0611C85.492 70.2215 84.726 66.6468 84.2436 63.3901C84.0024 61.7618 83.7877 60.2409 83.6213 58.731C82.7455 51.3746 82.357 45.9053 77.6053 42.4452C74.991 40.5344 69.3788 38.8598 64.0154 39.6784C57.2387 40.6852 54.9832 45.0492 51.6521 43.8394C51.5555 43.8176 51.4698 43.7475 51.3732 43.7256C47.0995 41.7444 44.8686 31.8478 48.8008 27.2535C51.0825 24.5707 54.886 24.3642 58.5976 24.34C80.2874 24.0638 92.5986 23.9524 98.3746 32.3148C99.8544 34.5277 100.566 36.7701 100.485 42.7426C100.449 45.3744 100.297 48.7416 99.9645 53.1341C99.9536 53.1824 99.9536 53.1824 99.9536 53.1824L98.2077 72.5877Z" fill="url(#paint8_linear_117_15444)"/>
<path d="M93.3894 68.5532C92.1489 72.6889 87.7576 75.0456 83.6219 73.8051C80.4411 72.8315 78.3252 70.0683 78.0634 66.9633C77.9703 66.0285 78.0923 65.0408 78.3701 64.0376C79.6105 59.9019 84.0018 57.5453 88.1375 58.7857C88.9958 59.0307 89.7248 59.3987 90.4209 59.9116C93.0934 61.7854 94.3958 65.2275 93.3894 68.5532Z" fill="#CD907F"/>
<path opacity="0.09" d="M90.429 59.8627L78.0711 66.9142C77.9781 65.9794 78.1001 64.9918 78.3778 63.9887C79.6183 59.853 84.0097 57.4964 88.1455 58.7369C88.9929 59.0301 89.7702 59.4091 90.429 59.8627Z" fill="url(#paint9_linear_117_15444)"/>
</g>
<defs>
<linearGradient id="paint0_linear_117_15444" x1="56.1037" y1="115.323" x2="97.863" y2="127.86" gradientUnits="userSpaceOnUse">
<stop offset="0.00194495" stop-color="#19233D" stop-opacity="0.5"/>
<stop offset="0.8362" stop-color="#F07125"/>
</linearGradient>
<linearGradient id="paint1_linear_117_15444" x1="2.62792" y1="172.77" x2="160.004" y2="220.043" gradientUnits="userSpaceOnUse">
<stop offset="0.1948" stop-color="#87AEB4"/>
<stop offset="1" stop-color="#153E5C"/>
</linearGradient>
<linearGradient id="paint2_linear_117_15444" x1="73.0154" y1="164.838" x2="126.258" y2="180.821" gradientUnits="userSpaceOnUse">
<stop stop-color="#5A142A" stop-opacity="0.2"/>
<stop offset="1" stop-color="#FC860A" stop-opacity="0.2"/>
</linearGradient>
<linearGradient id="paint3_linear_117_15444" x1="49.2117" y1="79.059" x2="69.057" y2="85.0198" gradientUnits="userSpaceOnUse">
<stop offset="0.000555701"/>
<stop offset="0.8106"/>
</linearGradient>
<linearGradient id="paint4_linear_117_15444" x1="62.9297" y1="62.0376" x2="65.9299" y2="62.9395" gradientUnits="userSpaceOnUse">
<stop offset="0.000555701"/>
<stop offset="0.8106"/>
</linearGradient>
<linearGradient id="paint5_linear_117_15444" x1="50.4626" y1="60.8457" x2="53.4629" y2="61.7477" gradientUnits="userSpaceOnUse">
<stop offset="0.000555701"/>
<stop offset="0.8106"/>
</linearGradient>
<linearGradient id="paint6_linear_117_15444" x1="62.5974" y1="52.1144" x2="73.3524" y2="55.3469" gradientUnits="userSpaceOnUse">
<stop offset="0.000555701"/>
<stop offset="0.8106"/>
</linearGradient>
<linearGradient id="paint7_linear_117_15444" x1="49.9435" y1="52.3632" x2="55.1523" y2="53.9294" gradientUnits="userSpaceOnUse">
<stop offset="0.000555701"/>
<stop offset="0.8106"/>
</linearGradient>
<linearGradient id="paint8_linear_117_15444" x1="43.1472" y1="43.8608" x2="104.456" y2="62.2729" gradientUnits="userSpaceOnUse">
<stop stop-color="#002544"/>
<stop offset="0.1924" stop-color="#00172A"/>
<stop offset="0.4174" stop-color="#000A13"/>
<stop offset="0.6287" stop-color="#000305"/>
<stop offset="0.8106"/>
</linearGradient>
<linearGradient id="paint9_linear_117_15444" x1="79.1004" y1="61.6481" x2="85.3786" y2="63.5355" gradientUnits="userSpaceOnUse">
<stop offset="0.00308041" stop-color="#F07125"/>
<stop offset="0.4448" stop-color="#19233D" stop-opacity="0.5"/>
</linearGradient>
<clipPath id="clip0_117_15444">
<path d="M0 75C0 33.5786 33.5786 0 75 0C116.421 0 150 33.5786 150 75C150 116.421 116.421 150 75 150C33.5786 150 0 116.421 0 75Z" fill="white"/>
</clipPath>
</defs>
</svg>
