<svg width="150" height="150" viewBox="0 0 150 150" fill="none" xmlns="http://www.w3.org/2000/svg">
<g clip-path="url(#clip0_117_15442)">
<path d="M0 75C0 33.5786 33.5786 0 75 0C116.421 0 150 33.5786 150 75C150 116.421 116.421 150 75 150C33.5786 150 0 116.421 0 75Z" fill="#A28676"/>
<path d="M80.3637 28.7818C79.6768 31.2649 74.0237 53.085 86.281 64.8667C87.7603 66.2932 89.7151 67.7197 92.1983 68.9349C90.6133 70.6255 88.5 73.3728 87.4433 77.2296C86.3866 81.0336 87.232 83.0941 86.9678 88.9057C86.6508 97.042 85.013 96.0382 85.5413 100.37C86.4395 108.084 90.8775 113.103 94.1531 116.696C94.9984 117.647 95.6324 118.281 95.7909 118.439C106.833 129.534 111.641 148.079 121.732 151.724C131.559 155.317 148.677 145.49 152.322 131.225C153.96 124.885 153.273 116.22 148.413 110.092C142.442 102.589 134.2 103.752 132.827 98.2044C131.242 91.7059 141.967 87.1622 140.118 80.8223C138.638 75.9088 132.14 76.9655 125.325 68.4065C122.894 65.3422 120.517 62.3836 120.57 58.3683C120.622 53.6661 124.004 51.9226 124.109 46.5337C124.215 42.9939 122.789 40.3522 121.732 38.2389C116.607 27.9893 105.037 25.0306 103.399 24.6608C91.6171 21.8607 82.16 27.6195 80.3637 28.7818Z" fill="url(#paint0_linear_117_15442)"/>
<path d="M63.7739 78.0223C73.3895 71.9993 56.8527 34.9634 56.8527 34.9634C37.0932 44.3148 32.7081 50.9189 33.1836 55.4626C33.6062 59.9005 38.5197 60.9044 39.3122 66.6632C40.4217 74.7466 31.6514 77.7053 31.5457 86.5812C31.4929 95.4043 40.2632 99.3668 38.4669 103.329C36.4592 107.767 25.6284 102.695 14.0052 106.605C-0.0483932 111.307 -12.4113 128.055 -11.0905 144.909C-10.9848 146.177 -9.50551 162.555 1.64225 168.155C11.839 173.28 17.1223 162.819 31.6514 167.416C38.7838 169.635 46.6031 175.024 55.9546 171.959C55.9546 171.959 56.0602 171.906 56.1659 171.854C75.4499 165.461 83.4277 142.584 83.956 126.681C84.6429 105.126 71.7516 90.0153 68.0533 86C66.8382 83.3584 65.3589 80.6111 63.7739 78.0223Z" fill="url(#paint1_linear_117_15442)"/>
<path d="M120.569 133.391C120.199 135.505 119.724 137.301 119.46 138.516C119.46 138.569 119.407 138.675 119.407 138.727C119.301 139.256 119.143 139.837 118.984 140.418C117.611 145.86 112.274 164.14 90.4016 233.351C79.201 232.823 68.0532 232.295 56.8527 231.713C52.0449 231.396 47.2899 231.079 42.4821 230.762C42.9576 221.2 41.2669 215.23 39.5234 211.478C39.5234 211.478 36.7761 202.55 33.976 192.987C33.976 192.934 33.976 192.934 33.976 192.881C31.3872 183.9 28.6927 174.39 28.2172 170.903C28.1643 170.638 28.1644 170.427 28.1115 170.269C28.0059 169.212 28.0059 168.208 28.0059 167.31C28.0059 167.204 28.0059 167.099 28.0059 166.993C28.0059 166.835 28.0059 166.676 28.0059 166.518C28.0059 166.306 28.0058 166.148 28.0587 165.936C28.0587 165.778 28.1115 165.567 28.1115 165.408C28.1115 165.25 28.1644 165.038 28.1644 164.88C28.1644 164.721 28.2172 164.51 28.2172 164.351C28.4285 163.083 28.7455 161.974 29.1153 160.917C29.1682 160.759 29.221 160.547 29.3267 160.389C29.6437 159.544 30.0135 158.645 30.4362 157.8C30.489 157.694 30.5418 157.589 30.5418 157.483C30.8588 156.691 31.2287 155.898 31.5985 155C31.6513 154.894 31.7042 154.789 31.7042 154.683C32.0212 153.89 32.2853 153.045 32.6023 152.147C32.6552 151.988 32.708 151.83 32.708 151.724C32.8136 151.46 32.8665 151.143 32.9193 150.879C32.9722 150.72 32.9722 150.562 33.025 150.456C33.025 150.403 33.0778 150.298 33.0778 150.245C33.1306 150.139 33.1307 149.981 33.1835 149.875C33.5533 148.237 33.9231 146.388 34.1345 144.222C35.5081 134.395 34.1873 129.904 34.5043 126.84C34.5043 126.734 34.5043 126.681 34.5043 126.576C34.5043 126.417 34.5571 126.259 34.5571 126.1C34.5571 125.995 34.61 125.889 34.6628 125.73C34.6628 125.678 34.7157 125.572 34.7157 125.519C34.7685 125.413 34.7685 125.308 34.8213 125.202C34.8213 125.149 34.8741 125.044 34.927 124.991C34.9798 124.832 35.0855 124.674 35.1383 124.568C35.3496 124.198 35.561 123.881 35.878 123.511C37.4101 121.821 40.2103 120.553 45.5464 118.439C46.2332 118.175 46.9201 117.858 47.7126 117.594C47.7126 117.594 48.2937 117.383 50.09 116.696C50.5655 116.538 51.041 116.326 51.5165 116.115C56.2187 114.16 60.8151 111.413 63.5625 109.194C63.721 109.088 63.8795 108.93 64.038 108.824C64.355 108.56 64.6191 108.348 64.8305 108.137C66.4154 106.658 67.6306 104.809 68.4759 102.854C71.3817 96.2496 70.8534 87.902 70.4307 84.0981L88.9223 77.5996C88.9223 78.1808 88.9223 78.7619 88.9223 79.3431C88.9751 94.3477 91.5111 102.801 94.9453 107.503C95.0509 107.662 95.2094 107.82 95.3151 107.979C96.6887 109.722 98.1681 110.884 99.753 111.677C100.07 111.835 100.334 111.941 100.651 112.1C106.621 114.583 112.908 111.888 117.505 116.432C121.89 120.5 121.52 127.897 120.569 133.391Z" fill="#E2C8C0"/>
<path opacity="0.06" d="M81.9486 73.7428C85.3299 74.8523 86.0167 83.0414 84.0619 88.9587C80.8391 98.6272 70.431 102.167 68.6875 102.748C71.5933 96.144 71.065 87.7964 70.6423 83.9924C74.2878 77.0185 79.0956 72.7918 81.9486 73.7428Z" fill="#253041"/>
<path opacity="0.06" d="M62.6116 151.407C62.9815 148.396 63.4569 141.211 59.7586 133.286C55.4792 124.146 48.2939 119.76 45.7051 118.334C46.0749 118.175 46.3919 118.07 46.7617 117.911C47.1316 117.753 47.5014 117.647 47.8712 117.489C47.8712 117.489 48.4524 117.277 50.2487 116.59C50.7242 116.432 51.1997 116.221 51.6752 116.009C56.6415 118.598 59.2303 121.61 60.6568 123.881C64.6721 130.168 66.0986 136.033 66.0986 136.033C66.5213 137.829 66.8911 139.995 68.7402 141.422C70.6951 142.901 72.3857 142.109 73.1254 143.271C74.3934 145.384 70.9592 151.672 66.2571 152.147C64.7249 152.306 63.4041 151.777 62.6116 151.407Z" fill="#253041"/>
<path d="M121.785 116.273C121.415 121.979 120.993 127.685 120.623 133.338C120.623 133.338 120.623 133.338 120.623 133.391C120.517 133.867 120.411 134.289 120.359 134.765C120.094 136.033 119.777 137.301 119.513 138.516C119.513 138.569 119.46 138.675 119.46 138.727C119.249 139.678 119.091 140.365 119.038 140.418C118.932 140.894 119.038 142.162 120.042 145.279C118.932 151.46 117.664 157.747 116.29 164.193C114.97 170.586 113.49 177.084 111.905 183.688C110.743 188.549 109.528 193.515 108.207 198.482C107.309 201.863 106.411 205.244 105.513 208.52C104.773 211.161 104.033 213.75 103.294 216.339C101.603 222.151 99.9122 227.804 98.1687 233.351C87.9191 233.14 79.5715 232.823 73.7071 232.559C69.6389 232.4 65.3066 232.136 56.959 231.713C54.5815 231.608 52.204 231.449 49.8794 231.344C47.4491 231.238 45.0188 231.079 42.6413 230.974C42.6413 230.921 42.6413 230.815 42.6413 230.762C42.6413 230.551 42.6413 230.287 42.6413 230.023C42.5885 227.857 42.0601 224.475 41.1619 220.407C40.2638 216.339 39.1015 211.531 37.7806 206.565C36.6183 202.074 35.3503 197.425 34.1352 192.987C34.1352 192.934 34.1352 192.934 34.1352 192.881C31.3878 182.843 28.8519 174.02 28.3764 170.903C28.3236 170.639 28.3235 170.427 28.2707 170.269C28.165 169.212 28.165 168.208 28.165 167.31C28.165 167.204 28.165 167.099 28.165 166.993C28.165 166.835 28.165 166.676 28.165 166.518C28.165 166.306 28.165 166.148 28.2179 165.936C28.2179 165.778 28.2707 165.567 28.2707 165.408C28.2707 165.25 28.3235 165.038 28.3235 164.88C28.3235 164.721 28.3764 164.51 28.3764 164.351C28.5877 163.083 28.9047 161.974 29.2745 160.917C29.3274 160.759 29.3802 160.547 29.4859 160.389C29.8029 159.544 30.1727 158.645 30.5953 157.8C30.6482 157.694 30.701 157.589 30.701 157.483C31.018 156.691 31.3878 155.898 31.7577 155C31.8105 154.894 31.8633 154.789 31.8633 154.683C32.1803 153.89 32.4445 153.045 32.7615 152.147C32.8143 151.989 32.8672 151.83 32.8672 151.724C32.9729 151.46 33.0257 151.143 33.0785 150.879C33.1313 150.721 33.1313 150.562 33.1842 150.456C33.1842 150.404 33.237 150.298 33.237 150.245C33.2898 150.139 33.2898 149.981 33.3427 149.875C33.7125 148.237 33.9767 146.6 34.2937 144.222C35.6673 134.395 34.3465 129.904 34.6635 126.84C34.6635 126.734 34.6635 126.682 34.6635 126.576C34.6635 126.417 34.7163 126.259 34.7163 126.1C34.7163 125.995 34.7691 125.889 34.822 125.731C34.822 125.678 34.8748 125.572 34.8748 125.519C34.9277 125.414 34.9277 125.308 34.9805 125.202C34.9805 125.149 35.0333 125.097 35.0333 124.991C35.0862 124.832 35.1918 124.674 35.2447 124.568C35.5088 124.146 35.773 123.829 35.9843 123.512C36.8296 122.349 39.3128 118.968 43.6451 117.383C44.0149 117.224 44.4376 117.119 44.8602 117.013C45.9697 116.749 47.8189 116.379 50.1964 116.696C54.6872 120.077 60.6045 125.678 63.7745 134.131C65.8878 139.731 65.6765 143.482 67.8954 144.169C71.6466 145.279 76.0846 136.033 86.8096 124.674C92.2514 118.915 97.2706 114.741 100.705 112.1C101.973 111.677 104.403 111.043 107.52 111.043C109.105 111.043 110.901 111.201 112.803 111.73C114.441 112.152 115.973 112.839 116.132 112.892C116.185 112.945 116.238 112.945 116.343 112.998C116.449 113.051 116.502 113.103 116.607 113.103C116.66 113.103 116.713 113.156 116.766 113.156C119.038 114.054 120.676 115.322 121.785 116.273Z" fill="#8376A2"/>
<path d="M150.422 198.534C150.317 205.508 148.468 210.633 144.241 213.856C133.886 221.675 115.553 214.067 105.462 208.52C103.401 207.41 101.71 206.353 100.495 205.561C97.9592 203.923 96.1101 202.391 94.7892 200.806C93.3099 199.062 92.5174 197.372 92.2004 195.523C91.9363 193.938 92.0948 192.247 92.5174 190.662C93.5213 186.7 96.3742 183.16 99.914 181.945C102.503 181.046 105.039 181.733 109.952 183.107C110.639 183.318 111.273 183.477 111.854 183.688C118.881 185.96 121.417 188.39 122.949 187.228C124.904 185.749 122.896 180.307 120.572 173.65C119.145 169.529 117.613 166.465 116.239 164.193C113.968 160.442 111.96 158.909 111.115 158.275C108.896 156.69 108.05 156.743 106.994 155.898C103.877 153.415 103.031 146.177 110.269 127.051C111.854 122.877 113.809 118.122 116.187 112.733C116.239 112.786 116.292 112.786 116.398 112.839C116.504 112.892 116.556 112.945 116.662 112.945C116.715 112.945 116.768 112.998 116.821 112.998C117.772 113.473 119.145 114.16 120.572 115.111C128.602 120.394 132.406 128.583 134.467 134.395C134.784 135.346 135.101 136.191 135.312 136.984C143.871 163.612 150.581 184.639 150.422 198.534Z" fill="#8376A2"/>
<path opacity="0.21" d="M134.518 134.395C128.601 135.716 123.952 135.716 120.306 134.765C115.34 133.55 112.17 130.591 110.268 127.051C107.574 122.032 107.309 115.692 107.573 110.884C109.158 110.884 110.955 111.043 112.857 111.571C114.495 111.994 116.027 112.681 116.185 112.733C116.238 112.786 116.291 112.786 116.397 112.839C116.502 112.892 116.555 112.945 116.661 112.945C116.714 112.945 116.766 112.998 116.819 112.998C117.77 113.473 119.144 114.16 120.57 115.111C128.654 120.394 132.458 128.583 134.518 134.395Z" fill="url(#paint2_linear_117_15442)"/>
<path d="M95.4743 107.82C88.2362 114.319 81.7906 117.594 76.2431 117.594C75.0808 117.594 73.9713 117.436 72.8618 117.172C68.1596 115.904 65.3067 112.047 63.7217 109.088C63.8802 108.983 64.0387 108.824 64.1972 108.718C65.6765 111.571 68.4767 115.375 73.0203 116.59C79.0433 118.228 86.4399 115.111 95.1045 107.345C95.2102 107.503 95.3687 107.662 95.4743 107.82Z" fill="#31445A"/>
<path d="M74.9222 119.866C76.1769 119.866 77.194 118.849 77.194 117.594C77.194 116.339 76.1769 115.322 74.9222 115.322C73.6675 115.322 72.6504 116.339 72.6504 117.594C72.6504 118.849 73.6675 119.866 74.9222 119.866Z" fill="#DF8744"/>
<path d="M95.7373 67.2443C95.1561 68.301 94.3636 69.7275 93.3598 71.3653C87.601 80.6111 73.1776 98.4158 61.4487 95.0345C56.2182 93.5023 53.1539 88.219 51.9916 86.1586C50.8821 84.2566 49.2443 80.7167 49.0329 71.9465C48.8744 65.9235 48.7159 58.2627 51.9916 48.9113C52.2557 48.1716 53.4709 44.7903 55.3729 40.7222C57.0107 37.3409 59.1769 33.484 61.7657 30.3669C64.7243 26.8271 68.2113 24.2383 72.0681 24.3439C76.7702 24.5024 80.1516 28.5706 82.3705 31.2651C82.4234 31.3707 82.7404 31.7406 83.163 32.2689C84.431 34.0652 86.9142 37.922 87.7067 42.3072C88.0765 44.4205 88.0765 46.6395 87.3897 48.8584C86.7557 50.8661 85.4877 53.0851 85.0122 57.1532C84.8009 59.1081 84.8009 60.7459 85.5934 62.4894C85.699 62.7535 86.4387 64.2329 87.9709 65.448C91.1408 67.8783 94.9448 67.35 95.7373 67.2443Z" fill="#E2C8C0"/>
<path opacity="0.06" d="M87.8124 42.3603C83.9556 41.2508 76.1892 39.2431 71.3285 39.6658C66.5736 40.0885 59.3354 40.5111 55.4258 40.7225C57.0636 37.3411 59.2298 33.4843 61.8186 30.3672L83.2688 32.322C84.5368 34.1183 87.0199 37.9751 87.8124 42.3603Z" fill="#253041"/>
<path d="M73.0736 65.2365C74.0365 65.2365 74.817 64.4559 74.817 63.493C74.817 62.5301 74.0365 61.7495 73.0736 61.7495C72.1107 61.7495 71.3301 62.5301 71.3301 63.493C71.3301 64.4559 72.1107 65.2365 73.0736 65.2365Z" fill="#000105"/>
<path d="M56.2728 63.8102C57.2357 63.8102 58.0163 63.0296 58.0163 62.0667C58.0163 61.1038 57.2357 60.3232 56.2728 60.3232C55.3099 60.3232 54.5293 61.1038 54.5293 62.0667C54.5293 63.0296 55.3099 63.8102 56.2728 63.8102Z" fill="#000105"/>
<path d="M63.4043 84.9433C61.0268 84.9433 59.1776 83.9923 58.438 83.5696C58.2795 83.4639 58.2266 83.2526 58.3323 83.0941C58.438 82.9356 58.6493 82.8828 58.8078 82.9884C59.6532 83.5168 61.925 84.6263 64.8308 84.1508C68.1593 83.6224 70.0613 81.2449 70.5368 80.5581C70.6424 80.3996 70.8537 80.3996 71.0122 80.5053C71.1707 80.611 71.1708 80.8223 71.0651 80.9808C70.5368 81.7204 68.4763 84.2564 64.8836 84.8376C64.3553 84.8904 63.8798 84.9433 63.4043 84.9433Z" fill="#000105"/>
<path d="M63.4566 58.4214C62.7169 59.478 61.7131 61.0102 60.6564 62.9122C57.962 67.72 56.5883 70.2032 57.5393 71.7881C58.7544 73.9015 63.3509 73.3731 64.4076 73.2146C64.0377 68.3012 63.7736 63.3349 63.4566 58.4214Z" fill="#C0846F"/>
<path d="M99.4369 63.4931C95.8442 47.2733 89.6099 41.1975 84.2209 38.8201C72.3863 33.5368 59.6536 43.7335 51.94 36.6539C48.2945 33.2726 47.2379 27.4081 48.7172 23.34C51.5702 15.3622 64.3029 12.9847 72.7562 14.0942C87.6551 16.049 99.9123 30.4724 101.867 45.5299C102.871 53.2435 100.916 59.6891 99.4369 63.4931Z" fill="#2A303D"/>
<path d="M77.986 55.6211L67.7364 52.9266C67.5251 52.8737 67.3666 52.6624 67.4194 52.3982L67.6836 51.5001C67.7364 51.2887 67.9477 51.1303 68.2119 51.1831L78.4615 53.8776C78.6729 53.9304 78.8314 54.1417 78.7785 54.4059L78.5144 55.3041C78.4087 55.5682 78.1974 55.6739 77.986 55.6211Z" fill="#2A303D"/>
<path d="M57.0118 53.2966L47.3962 55.1458C47.1849 55.1986 46.9735 55.0401 46.9207 54.8288L46.7622 53.9306C46.7094 53.7193 46.8678 53.5079 47.0792 53.4551L56.6948 51.6059C56.9061 51.5531 57.1175 51.7116 57.1703 51.9229L57.3288 52.8211C57.3816 53.0324 57.2231 53.2438 57.0118 53.2966Z" fill="#2A303D"/>
<path d="M100.494 71.3125C100.388 75.3806 96.9543 78.6034 92.8861 78.4449C88.818 78.3392 85.5952 74.9051 85.7537 70.837C85.7537 70.6785 85.7537 70.5728 85.7537 70.4143C86.0707 66.5047 89.3991 63.546 93.3616 63.6517C95.3693 63.7045 97.1656 64.6027 98.4864 65.9235C99.7544 67.35 100.547 69.252 100.494 71.3125Z" fill="#E2C8C0"/>
<path opacity="0.28" d="M98.4338 65.9762L85.7539 70.467C86.0709 66.5574 89.3994 63.5987 93.3619 63.7044C95.3167 63.7572 97.113 64.6026 98.4338 65.9762Z" fill="url(#paint3_linear_117_15442)"/>
<path d="M1.7481 107.344C1.7481 107.714 1.58961 108.084 1.32544 108.348C1.06128 108.612 0.691431 108.771 0.3216 108.771H-26.676C-27.4685 108.771 -28.1025 108.137 -28.1025 107.344C-28.1025 106.975 -27.944 106.605 -27.6799 106.341C-27.4157 106.076 -27.0459 105.918 -26.676 105.918H0.3216C1.1141 105.971 1.7481 106.605 1.7481 107.344Z" fill="#BACFDA"/>
<path opacity="0.09" d="M1.74815 107.344C1.74815 107.714 1.58966 108.084 1.32549 108.348C1.06133 108.612 0.691486 108.771 0.321655 108.771H-1.10483C-2.42565 121.345 -3.74647 133.867 -5.01446 146.441H-14.5772C-20.9172 139.572 -21.3927 136.825 -20.653 135.61C-19.4907 133.708 -15.2112 135.082 -9.66378 132.123C-8.97695 131.753 -6.81079 130.485 -5.64847 128.055C-5.48997 127.738 -4.96163 126.523 -5.27863 126.311C-5.80696 125.889 -8.02595 129.27 -11.6714 131.119C-16.3736 133.497 -21.6569 132.387 -21.7097 131.859C-21.7625 131.436 -17.8529 131.436 -12.4639 129.059C-7.92028 127.051 -4.48615 124.251 -4.69748 123.881C-4.90881 123.511 -7.86744 125.255 -13.4677 126.893C-17.483 128.055 -22.7663 129.164 -23.0305 128.478C-23.189 127.949 -20.4417 126.576 -20.0719 126.364C-16.4264 124.515 -10.9846 123.141 -9.13545 122.719C-8.44862 122.56 -7.07496 122.19 -6.75796 121.239C-6.59946 120.764 -6.70513 120.13 -7.07496 119.76C-8.02596 118.809 -10.2978 120.077 -13.8904 121.292C-17.5887 122.56 -21.8682 123.458 -22.0795 122.983C-22.238 122.56 -19.5964 121.081 -18.0642 120.236C-12.0941 116.96 -9.98076 117.118 -9.50527 115.322C-9.02977 113.473 -10.7204 110.673 -10.5091 108.771C-10.5091 108.718 -10.4563 108.19 -10.3506 107.45C-10.2978 106.922 -10.2449 106.446 -10.1921 105.971H0.321655C1.11415 105.971 1.74815 106.605 1.74815 107.344Z" fill="#2A303D"/>
<path d="M49.0333 157.06C47.9767 162.396 46.2332 169.582 43.1161 177.771C39.9989 185.96 24.149 227.54 2.32899 227.434C-7.33945 227.381 -14.4719 219.139 -24.7215 206.618C-25.1442 206.089 -25.6197 205.508 -26.0951 204.98C-27.5216 203.236 -39.4619 188.232 -43.847 165.989C-44.2168 164.246 -44.4282 162.608 -44.6395 161.181C-45.8547 151.671 -43.7414 148.554 -42.1035 147.075C-39.3562 144.645 -34.9182 144.063 -31.4841 145.279C-25.197 147.498 -23.8233 155.158 -20.2307 163.612C-16.7437 171.801 -9.92824 183.688 -3.42979 189.13C-1.0523 191.138 1.32516 192.247 3.38565 191.983C11.3106 191.032 17.0694 170.48 23.4622 147.656C24.2018 145.014 26.368 136.931 32.3381 128.161C33.5005 126.47 34.5571 125.044 35.4025 124.04C35.561 123.828 35.7723 123.617 35.9308 123.406C40.3688 134.606 44.701 145.86 49.0333 157.06Z" fill="#8376A2"/>
<path opacity="0.4" d="M35.5608 123.987C35.5079 137.248 34.0814 188.443 15.0087 199.697C-0.0486853 208.572 -2.95449 197.161 -3.27148 189.077C-0.894 191.085 1.4835 192.194 3.54398 191.93C11.4689 190.979 17.2277 170.427 23.6205 147.603C24.3602 144.962 26.5263 136.878 32.4965 128.108C33.6588 126.417 34.7154 124.991 35.5608 123.987Z" fill="url(#paint4_linear_117_15442)"/>
<path d="M47.6086 133.18H47.5558L39.7894 132.493C39.3139 132.44 38.9969 132.071 39.0497 131.595C39.1025 131.12 39.4724 130.803 39.9479 130.855L47.7143 131.542C48.1898 131.595 48.5068 131.965 48.454 132.44C48.4011 132.863 48.0313 133.18 47.6086 133.18Z" fill="#BACFDA"/>
<path d="M129.973 127.95C129.815 127.95 129.656 127.897 129.498 127.791L123.21 123.195C122.841 122.93 122.735 122.402 123.052 122.032C123.316 121.662 123.844 121.557 124.214 121.874L130.501 126.47C130.871 126.734 130.977 127.263 130.66 127.633C130.449 127.844 130.184 127.95 129.973 127.95Z" fill="#BACFDA"/>
<path d="M64.3553 149.769C64.0383 149.769 63.7742 149.611 63.6157 149.294C63.4043 148.871 63.5628 148.396 63.9855 148.184L70.9066 144.592C71.3293 144.38 71.8048 144.539 72.0161 144.962C72.2274 145.384 72.0689 145.86 71.6463 146.071L64.7252 149.664C64.6195 149.769 64.5138 149.769 64.3553 149.769Z" fill="#BACFDA"/>
<path d="M137.528 143.852L133.249 146.071C133.143 146.124 132.984 146.177 132.879 146.177C132.562 146.177 132.298 146.018 132.139 145.754C131.928 145.331 132.086 144.856 132.509 144.645L137.053 142.267C137.211 142.743 137.37 143.324 137.528 143.852Z" fill="#BACFDA"/>
<path d="M89.1864 123.881C88.8694 123.881 88.6052 123.723 88.4467 123.458C88.2354 123.036 88.3939 122.56 88.8166 122.349L95.7377 118.756C96.1604 118.545 96.6358 118.703 96.8472 119.126C97.0585 119.549 96.9 120.024 96.4773 120.236L89.5562 123.828C89.4506 123.828 89.2921 123.881 89.1864 123.881Z" fill="#BACFDA"/>
<path d="M114.969 133.497H114.916L107.15 132.916C106.674 132.863 106.357 132.493 106.357 132.018C106.41 131.542 106.78 131.225 107.256 131.225L115.022 131.806C115.498 131.859 115.815 132.229 115.815 132.704C115.762 133.18 115.392 133.497 114.969 133.497Z" fill="#BACFDA"/>
<path d="M111.905 111.307C111.799 111.677 111.482 111.941 111.113 111.941H111.06L103.293 111.36C103.241 111.36 103.188 111.36 103.082 111.307C105.195 110.884 108.313 110.567 111.905 111.307Z" fill="#BACFDA"/>
<path d="M90.5083 140.101C90.3498 140.101 90.2442 140.048 90.0857 139.995L83.3231 136.085C82.9004 135.874 82.7947 135.346 83.0061 134.923C83.2174 134.501 83.7457 134.395 84.1684 134.606L90.931 138.516C91.3537 138.727 91.4593 139.255 91.248 139.678C91.0895 139.942 90.7725 140.101 90.5083 140.101Z" fill="#BACFDA"/>
</g>
<defs>
<linearGradient id="paint0_linear_117_15442" x1="78.4906" y1="88.1976" x2="153.124" y2="88.1976" gradientUnits="userSpaceOnUse">
<stop offset="0.3245" stop-color="#2A303D"/>
<stop offset="1" stop-color="#31445A"/>
</linearGradient>
<linearGradient id="paint1_linear_117_15442" x1="-11.2629" y1="103.889" x2="83.9742" y2="103.889" gradientUnits="userSpaceOnUse">
<stop offset="0.3245" stop-color="#2A303D"/>
<stop offset="1" stop-color="#31445A"/>
</linearGradient>
<linearGradient id="paint2_linear_117_15442" x1="107.498" y1="123.149" x2="134.497" y2="123.149" gradientUnits="userSpaceOnUse">
<stop stop-color="white"/>
<stop offset="1" stop-color="#9375A1"/>
</linearGradient>
<linearGradient id="paint3_linear_117_15442" x1="85.7405" y1="67.057" x2="98.4321" y2="67.057" gradientUnits="userSpaceOnUse">
<stop stop-color="#E2C8C0"/>
<stop offset="1" stop-color="#DD8093" stop-opacity="0.4"/>
</linearGradient>
<linearGradient id="paint4_linear_117_15442" x1="-3.29795" y1="163.45" x2="35.5514" y2="163.45" gradientUnits="userSpaceOnUse">
<stop stop-color="#302E40"/>
<stop offset="1" stop-color="#9375A1"/>
</linearGradient>
<clipPath id="clip0_117_15442">
<path d="M0 75C0 33.5786 33.5786 0 75 0C116.421 0 150 33.5786 150 75C150 116.421 116.421 150 75 150C33.5786 150 0 116.421 0 75Z" fill="white"/>
</clipPath>
</defs>
</svg>
