<svg width="150" height="150" viewBox="0 0 150 150" fill="none" xmlns="http://www.w3.org/2000/svg">
<g clip-path="url(#clip0_117_15228)">
<path d="M0 75C0 33.5786 33.5786 0 75 0C116.421 0 150 33.5786 150 75C150 116.421 116.421 150 75 150C33.5786 150 0 116.421 0 75Z" fill="#CCAFBF"/>
<path d="M83.7765 21.9918C89.4209 21.9918 118.211 28.0146 127.135 79.5401C129.91 99.6584 133 109.497 134.135 111.956C134.293 111.956 134.419 111.956 134.514 111.925C134.671 112.745 134.514 112.808 134.135 111.956C127.356 112.303 87.9704 115.204 59.0543 111.925C35.625 109.276 10.083 87.9595 10.083 87.9595C33.2915 69.8594 42.8146 51.7592 46.3464 40.7226C56.4686 19.2168 80.8754 21.9918 83.7765 21.9918Z" fill="#272035"/>
<path d="M55.1445 90.577C36.9183 83.5766 40.6392 54.9128 49.7523 43.9392C71.8888 44.0969 84.9751 29.3077 84.5967 30.6006C80.4343 44.696 81.5695 54.7236 84.376 61.8186C84.376 61.8186 89.4844 53.3046 94.845 60.6834C97.8407 66.2648 91.4394 72.54 91.4394 72.54C91.4394 72.54 88.0654 78.2475 89.7997 88.4958C91.4394 107.353 104.652 113.659 104.589 113.691C97.9353 122.173 84.4075 165.626 84.4075 165.626C84.6282 164.933 66.8749 131.76 71.1004 115.678L65.3298 90.4824C63.7532 90.9869 58.8655 91.996 55.1445 90.577Z" fill="#E9CCC3"/>
<path d="M91.5973 61.2823C89.6108 60.494 87.3719 61.8184 86.5205 62.6067C86.5205 62.6067 88.9801 62.0076 90.5252 62.1968C92.0073 62.386 92.7641 63.6158 92.7641 63.6158C92.8587 63.0797 92.701 61.8184 91.5973 61.2823Z" fill="#CFA598"/>
<path d="M87.9388 74.0848C86.2044 74.3056 85.1008 73.4542 84.7539 73.0127C84.7539 73.6118 84.9116 74.8732 85.7314 74.9993C86.5198 75.1254 87.5288 74.4317 87.9388 74.0848Z" fill="#CFA598"/>
<path d="M67.442 75.1886C70.2981 75.1886 72.6135 72.8733 72.6135 70.0172C72.6135 67.1611 70.2981 64.8457 67.442 64.8457C64.5859 64.8457 62.2705 67.1611 62.2705 70.0172C62.2705 72.8733 64.5859 75.1886 67.442 75.1886Z" fill="#DCA7A7"/>
<path d="M48.2074 61.3457C47.7344 64.1522 45.0226 66.0442 42.1846 65.5712C42.1846 65.5712 42.3107 63.2062 42.8468 60.3997C43.3198 57.5933 44.1081 55.4175 44.1081 55.4175C46.9461 55.8589 48.6804 58.5393 48.2074 61.3457Z" fill="#DCA7A7"/>
<path d="M65.2979 90.4821C70.7216 88.6216 82.988 82.9456 89.547 75.3145L89.9254 74.873C89.7993 75.0307 89.6731 75.1884 89.547 75.3145L67.789 101.203L65.2979 90.4821Z" fill="#CFA598"/>
<path d="M54.8926 69.2602C54.8926 69.2602 50.0049 67.5889 50.0049 65.0978C50.0049 63.4896 55.5548 54.9756 55.5548 54.9756" stroke="#272035" stroke-width="2" stroke-linecap="round"/>
<path d="M87.6549 77.3013C85.2584 80.36 78.3211 86.7928 69.6494 89.7569" stroke="#272035" stroke-width="2" stroke-linecap="round"/>
<path d="M68.7106 59.3112C69.6083 58.4609 69.8117 57.2181 69.165 56.5353C68.5183 55.8526 67.2663 55.9884 66.3686 56.8388C65.4709 57.6891 65.2674 58.9319 65.9142 59.6146C66.5609 60.2974 67.8129 60.1616 68.7106 59.3112Z" fill="#272035"/>
<path d="M51.1654 53.4677C51.8388 52.4306 51.7453 51.1748 50.9565 50.6626C50.1678 50.1504 48.9825 50.5759 48.3091 51.613C47.6357 52.65 47.7292 53.9059 48.518 54.4181C49.3067 54.9302 50.492 54.5047 51.1654 53.4677Z" fill="#272035"/>
<path d="M69.4297 108.834C59.0552 109.15 50.3205 119.808 46.7572 126.052C46.7572 126.052 23.1072 172.879 20.1746 177.072C17.242 181.266 4.81784 190.506 -9.84516 177.072C-24.5082 163.639 -31.9816 121.858 -33.9051 102.654L-69.79 140.809C-63.2942 178.208 -45.4463 202.299 -30.0896 212.169C-14.7328 222.039 -3.66462 225.918 14.5617 225.918C34.6169 225.918 54.8928 196.402 63.4068 181.266L63.2176 220.62C103.328 218.823 136.69 228.093 157.881 233.391L142.051 165.973C144.984 165.973 159.237 173.604 192.82 204.128C226.403 234.652 247.025 274.353 253.111 290.372L292.812 237.333C267.238 216.458 207.703 167.171 174.12 136.962C140.537 106.722 110.675 110.316 101.531 111.452L83.6827 161.369L69.4297 108.834Z" fill="#7F88B7"/>
<path d="M70.5957 113.186L83.8712 161.653L99.6379 117.317" stroke="#272035" stroke-width="2" stroke-linecap="round"/>
</g>
<defs>
<clipPath id="clip0_117_15228">
<path d="M0 75C0 33.5786 33.5786 0 75 0C116.421 0 150 33.5786 150 75C150 116.421 116.421 150 75 150C33.5786 150 0 116.421 0 75Z" fill="white"/>
</clipPath>
</defs>
</svg>
