<svg width="150" height="150" viewBox="0 0 150 150" fill="none" xmlns="http://www.w3.org/2000/svg">
<g clip-path="url(#clip0_117_15446)">
<path d="M0 75C0 33.5786 33.5786 0 75 0C116.421 0 150 33.5786 150 75C150 116.421 116.421 150 75 150C33.5786 150 0 116.421 0 75Z" fill="#8677A7"/>
<path d="M100.238 100.04C97.4744 113.116 94.4412 127.068 89.1163 144.121C88.7119 145.469 88.2401 146.885 87.7683 148.3C86.4876 152.21 85.0721 156.321 83.5893 160.568C76.4445 180.317 69.0301 196.359 63.2334 207.818C45.1693 202.493 27.1051 197.168 9.04102 191.843C9.37803 172.229 11.6023 143.784 20.4996 110.824C23.8024 98.7589 28.6554 80.6273 35.4632 63.7765C35.935 62.6306 36.4068 61.5522 36.8787 60.4063C45.7085 39.4438 57.5041 21.3123 72.8047 20.2338C85.7462 19.3576 97.9462 30.951 103.406 40.6571C106.035 45.3079 109.877 54.4074 100.238 100.04Z" fill="#19233D"/>
<path opacity="0.35" d="M89.1163 144.121C88.7119 145.469 88.2401 146.885 87.7683 148.3C86.4876 152.21 85.0721 156.321 83.5893 160.568C76.4445 180.317 69.0301 196.359 63.2334 207.818C45.1693 202.493 27.1051 197.168 9.04102 191.843C9.37803 172.229 11.6023 143.784 20.4996 110.824C23.8024 98.7588 28.6554 80.6273 35.4632 63.7764C35.935 62.6306 36.4068 61.5521 36.8787 60.4062L89.1163 144.121Z" fill="url(#paint0_linear_117_15446)"/>
<path d="M115.942 115.407L110.55 136.505C110.55 136.572 110.482 136.64 110.482 136.64C108.393 142.234 106.371 149.244 105.157 157.467C105.09 158.141 104.955 158.815 104.888 159.489C104.416 163.466 104.146 167.308 104.079 170.948C104.079 171.757 104.079 172.633 104.079 173.442C104.146 179.104 104.685 184.159 105.36 188.608C105.697 190.697 106.101 192.652 106.438 194.404C106.438 194.472 106.438 194.472 106.438 194.539L106.371 194.607C105.831 195.213 104.281 196.898 101.787 198.786C100.911 199.46 99.8999 200.201 98.754 200.942C93.7661 204.178 86.4866 207.346 77.5219 206.874C69.0291 206.47 62.4909 202.965 58.5815 200.201C56.8964 198.988 55.6158 197.909 54.9418 197.235C55.2788 195.955 55.6158 194.741 55.8854 193.595H55.818C56.3572 191.371 56.829 189.282 57.1661 187.26C57.5705 184.833 57.9075 182.541 58.0423 180.452C58.1097 179.441 58.1771 178.43 58.2445 177.419C58.2445 177.149 58.2445 176.947 58.2445 176.677C58.3119 175.666 58.3119 174.723 58.2445 173.779C58.1771 168.454 57.4357 164.41 56.6942 161.444C55.481 156.591 52.3804 147.626 49.2799 139.336C49.2799 139.268 49.2125 139.201 49.2125 139.133C49.1451 138.931 49.0777 138.729 48.9428 138.459C47.3926 134.685 46.3141 131.652 45.6401 129.697C43.3484 123.091 40.787 116.082 41.2589 115.475C43.4158 113.857 45.3705 112.442 47.1229 111.228C47.1229 111.228 47.1229 111.228 47.1904 111.228C48.0666 110.622 48.8754 110.083 49.6843 109.611C51.5716 108.398 53.4589 107.252 55.0092 106.308C55.6158 105.971 56.155 105.634 56.6268 105.297C57.0987 105.027 57.5705 104.758 57.9749 104.488C59.4578 103.612 63.0976 100.983 65.9959 98.287L66.4677 97.8152C67.8832 96.4671 69.0965 95.119 69.7031 94.0406C71.86 90.266 72.7363 86.3566 72.9385 82.6494C73.0733 80.7621 73.0059 78.9422 72.8037 77.1897C72.3318 72.6063 71.0512 68.8317 70.3097 66.8096C76.9827 67.6858 83.723 68.5621 90.396 69.4383C90.1938 71.9322 90.1264 74.6958 90.2612 77.5941C90.396 80.1555 90.6656 82.8516 91.2048 85.5477C91.744 88.1765 92.4855 90.8726 93.5639 93.5688C93.5639 93.6362 93.6313 93.7036 93.6313 93.7036C94.1706 95.0516 94.7772 96.3997 95.5186 97.6804C95.7883 98.1522 96.0579 98.6914 96.3949 99.1632C96.5297 99.3654 96.5971 99.5677 96.7319 99.7699C97.2037 100.444 97.6755 101.118 98.1474 101.792C100.237 104.623 102.192 106.038 104.483 107.386C104.618 107.454 104.82 107.589 104.955 107.656C105.36 107.926 105.764 108.128 106.168 108.398C106.371 108.532 106.505 108.6 106.708 108.735C109.404 110.083 112.235 111.902 115.942 115.407Z" fill="#E6A67F"/>
<path opacity="0.13" d="M93.8335 93.569C91.2722 93.3668 87.902 92.7601 84.397 91.2098C78.4655 88.6485 74.8931 84.8065 73.2081 82.717C73.3429 80.8297 73.2755 79.0098 73.0732 77.2573L90.5981 77.6617C90.3959 79.3468 90.3285 82.2452 91.5418 85.6153C92.0136 88.2441 92.7551 90.9402 93.8335 93.569Z" fill="#002544"/>
<path opacity="0.25" d="M115.808 115.407L110.415 136.505C110.415 136.572 110.348 136.639 110.348 136.639C108.258 142.234 106.236 149.244 105.023 157.467L65.1201 150.39L95.6539 97.6802C96.4627 99.0956 97.339 100.444 98.2826 101.792C100.372 104.623 102.327 106.038 104.619 107.386C104.753 107.454 104.956 107.589 105.09 107.656C105.495 107.926 105.899 108.128 106.304 108.397C106.506 108.532 106.641 108.6 106.843 108.734C109.269 110.082 112.168 111.902 115.808 115.407Z" fill="url(#paint1_linear_117_15446)"/>
<path opacity="0.64" d="M96.9342 99.7701C95.1143 101.994 91.4071 105.499 85.88 106.645C85.6104 106.51 85.2734 106.376 84.9364 106.376C84.3972 106.376 83.9253 106.578 83.5883 106.982C83.3187 106.982 83.0491 107.05 82.7795 107.05C82.5773 107.05 82.3751 107.05 82.2403 107.05C75.8369 107.05 69.838 103.68 66.2656 98.2873L66.7375 97.8154C70.3098 103.275 76.4435 106.578 82.7795 106.376C89.9916 106.173 94.6425 101.657 96.6646 99.1635C96.6646 99.3657 96.7994 99.5679 96.9342 99.7701Z" fill="white"/>
<path opacity="0.64" d="M85.8807 106.645C85.6111 106.51 85.2741 106.375 84.9371 106.375C84.3979 106.375 83.926 106.578 83.589 106.982C83.252 107.319 83.0498 107.791 83.0498 108.33C83.0498 109.409 83.926 110.217 84.9371 110.217C85.9481 110.217 86.8244 109.341 86.8244 108.33C86.8244 107.589 86.42 106.982 85.8807 106.645Z" fill="white"/>
<path d="M99.5625 44.5666C97.473 44.971 92.1481 45.7799 86.1492 43.2859C78.0608 39.8484 74.8254 32.771 74.1514 31.1533C74.084 31.1533 74.0166 31.2207 74.0166 31.2207C72.8707 36.276 71.8597 41.5335 70.916 47.0605C69.4331 55.823 68.4221 64.1136 67.748 71.9324C71.253 76.9203 75.8365 80.4253 80.3525 82.3125C81.6332 82.8518 88.3061 84.8739 93.1592 82.717C101.248 79.212 105.427 63.4396 99.5625 44.5666Z" fill="#E6A67F"/>
<path d="M83.3179 55.4185C84.2113 55.4185 84.9356 54.6942 84.9356 53.8008C84.9356 52.9074 84.2113 52.1831 83.3179 52.1831C82.4245 52.1831 81.7002 52.9074 81.7002 53.8008C81.7002 54.6942 82.4245 55.4185 83.3179 55.4185Z" fill="black"/>
<path d="M97.9438 53.4639C98.8373 53.4639 99.5615 52.7396 99.5615 51.8462C99.5615 50.9528 98.8373 50.2285 97.9438 50.2285C97.0504 50.2285 96.3262 50.9528 96.3262 51.8462C96.3262 52.7396 97.0504 53.4639 97.9438 53.4639Z" fill="black"/>
<path d="M91.2725 52.8574C91.9465 54.8795 93.0924 57.3735 95.1145 59.8674C96.6648 61.7547 97.9454 62.6983 97.6758 63.7094C97.4736 64.5856 95.9907 65.3945 91.2725 65.5967C91.2725 61.3503 91.2725 57.1038 91.2725 52.8574Z" fill="#C5856E"/>
<path d="M90.1928 72.741C89.1818 72.741 87.9011 72.5388 86.6204 71.9996C83.6547 70.6516 82.4414 68.0902 82.1044 67.0792C82.037 66.8769 82.1044 66.6073 82.374 66.5399C82.5762 66.4725 82.8458 66.5399 82.9132 66.8095C83.1829 67.551 84.2613 69.9775 87.0249 71.2582C89.384 72.3366 91.6757 71.8648 92.4845 71.6626C92.6868 71.5952 92.9564 71.73 92.9564 71.9322C93.0238 72.1344 92.889 72.404 92.6867 72.404C92.2149 72.5388 91.3387 72.741 90.1928 72.741Z" fill="black"/>
<path d="M84.3286 44.1619C83.1154 44.4989 81.8347 44.7685 80.6214 45.1055C79.206 45.4425 77.7231 45.847 76.3076 46.184C76.712 45.7121 78.0601 44.2967 80.3518 43.8249C82.1717 43.4878 83.6546 43.8923 84.3286 44.1619Z" fill="black"/>
<path d="M101.853 48.0715C100.64 47.8018 99.3591 47.4648 98.1459 47.1952C96.7304 46.8582 95.2475 46.5212 93.832 46.1167C94.4387 45.9145 96.2586 45.3079 98.4829 45.9145C100.303 46.4538 101.381 47.5322 101.853 48.0715Z" fill="black"/>
<path d="M106.37 194.539C106.37 194.607 106.37 194.674 106.437 194.741C105.831 195.416 103.404 198.044 99.4949 200.673C99.36 200.808 99.2252 200.875 99.023 201.01C97.4053 202.088 95.5854 203.099 93.5633 204.043C92.6871 204.448 91.8108 204.785 90.8672 205.122C87.0252 206.47 82.5766 207.346 77.5213 207.144C76.6451 207.076 75.7688 207.009 74.96 206.874C74.286 206.807 73.6793 206.672 73.0053 206.605C70.0395 206.065 67.3434 205.122 64.9843 204.111C64.5798 203.908 64.1754 203.706 63.771 203.504C59.929 201.617 57.1655 199.46 55.6152 198.112C55.2782 197.842 55.076 197.64 54.8737 197.438C54.8737 197.438 54.8737 197.438 54.8737 197.37C54.8737 197.303 54.9412 197.303 54.9412 197.235C55.1434 196.494 55.3456 195.82 55.5478 195.146C55.6826 194.607 55.8174 194.067 55.9522 193.596C57.1655 188.743 57.8395 184.361 58.1765 180.452C58.2439 179.441 58.3113 178.43 58.3787 177.419C58.3787 177.149 58.3787 176.947 58.3787 176.677C58.4461 175.666 58.4461 174.723 58.3787 173.779C58.3113 168.589 57.5699 164.612 56.8284 161.714C56.8284 161.646 56.8284 161.646 56.8284 161.579C56.8284 161.579 56.8284 161.579 56.8284 161.512V161.444C56.761 161.242 56.6936 161.04 56.6262 160.77C56.5588 160.635 56.5588 160.433 56.4914 160.231C56.424 159.961 56.3566 159.759 56.2892 159.489C56.2892 159.355 56.2218 159.287 56.2218 159.152C56.1544 159.018 56.1544 158.815 56.087 158.681C56.0196 158.478 55.9522 158.209 55.8848 158.007C55.8848 157.939 55.8848 157.939 55.8174 157.872C55.75 157.602 55.6826 157.333 55.5478 157.063C55.4804 156.861 55.413 156.659 55.3456 156.389C55.076 155.58 54.8063 154.839 54.5367 153.962C54.5367 153.895 54.5367 153.895 54.4693 153.828C54.3345 153.491 54.2671 153.154 54.1323 152.884C54.1323 152.817 54.1323 152.817 54.0649 152.749L53.9301 152.412V152.345C53.5257 151.266 53.1887 150.12 52.7842 148.907C52.582 148.368 52.4472 147.896 52.245 147.357C51.3688 144.728 50.3577 142.099 49.4141 139.471L49.4815 139.403C50.3577 138.729 51.1666 138.123 52.0428 137.516C52.4472 137.179 52.8517 136.909 53.3235 136.64C53.7953 136.37 54.1323 136.033 54.6041 135.763C54.7389 135.629 54.9412 135.561 55.076 135.426C55.2782 135.292 55.413 135.157 55.6152 135.089C56.1544 134.752 56.6263 134.415 57.0981 134.078C57.3677 133.876 57.7047 133.674 57.9743 133.539C58.1091 133.472 58.1765 133.404 58.3113 133.337C58.6483 133.135 59.0528 132.865 59.3898 132.663C59.7942 132.393 60.1986 132.191 60.5356 131.989C61.2097 131.584 61.8837 131.247 62.5577 130.91C62.8274 130.776 63.1644 130.573 63.434 130.439C63.5014 130.439 63.5014 130.371 63.5688 130.371H63.6362C63.771 130.304 63.8384 130.236 63.9732 130.236C64.3102 130.102 64.5798 129.899 64.9169 129.765C64.9843 129.697 65.0517 129.697 65.1865 129.63C65.3887 129.495 65.6583 129.428 65.8605 129.293C66.0627 129.158 66.3323 129.091 66.5346 128.956C67.0064 128.753 67.4108 128.551 67.8826 128.349C68.2871 128.147 68.7589 128.012 69.1633 127.81C69.3655 127.742 69.5677 127.675 69.7025 127.608C69.9721 127.54 70.1743 127.405 70.444 127.338C70.7136 127.203 71.0506 127.136 71.3202 127.001C71.6572 126.866 71.9942 126.799 72.3312 126.664C72.466 126.597 72.6683 126.529 72.8031 126.529C72.9379 126.462 73.1401 126.462 73.2749 126.394C73.6793 126.26 74.0837 126.192 74.4208 126.057C74.8252 125.923 75.2296 125.855 75.5666 125.72C75.7688 125.653 76.0384 125.586 76.2407 125.586C76.6451 125.451 77.0495 125.383 77.5213 125.316C77.7235 125.248 77.9931 125.248 78.1954 125.181C78.465 125.114 78.6672 125.114 78.9368 125.046C79.0716 125.046 79.2738 124.979 79.4086 124.979C79.5434 124.979 79.7456 124.911 79.8804 124.911C80.0152 124.911 80.2175 124.844 80.3523 124.844C80.4871 124.844 80.6893 124.777 80.8241 124.777C81.1611 124.709 81.4307 124.709 81.7677 124.642C82.1047 124.642 82.3744 124.574 82.644 124.574C82.7788 124.574 82.981 124.574 83.1158 124.574C83.2506 124.574 83.318 124.574 83.4528 124.574H83.5202C86.0816 124.44 88.5081 124.574 90.7324 124.979C91.002 125.046 91.2716 125.046 91.4738 125.114C91.6761 125.181 91.9457 125.181 92.1479 125.249C92.2153 125.249 92.2153 125.249 92.2827 125.249C92.4849 125.316 92.6871 125.316 92.8893 125.383C93.1589 125.451 93.4285 125.518 93.6307 125.586C93.6981 125.586 93.6982 125.586 93.7656 125.586C94.0352 125.653 94.3048 125.72 94.507 125.788C94.7766 125.855 95.1136 125.99 95.3832 126.057C95.5854 126.125 95.7877 126.192 95.9899 126.26C96.1247 126.327 96.2595 126.327 96.3269 126.394C96.3269 126.394 96.3269 126.394 96.3943 126.394C96.5291 126.462 96.5965 126.462 96.7313 126.529C96.8661 126.597 97.0009 126.597 97.0683 126.664C97.4053 126.799 97.7424 126.934 98.0794 127.068C98.4164 127.203 98.7534 127.405 99.0904 127.54C99.2252 127.608 99.4275 127.675 99.5623 127.81C99.6971 127.877 99.8993 127.945 100.034 128.079C100.169 128.147 100.304 128.214 100.506 128.349C100.776 128.484 101.113 128.686 101.382 128.888C101.517 128.956 101.652 129.091 101.787 129.158C101.854 129.225 101.921 129.225 101.989 129.293C102.326 129.495 102.663 129.697 103 129.967C103.135 130.102 103.337 130.169 103.472 130.304C104.078 130.708 104.618 131.18 105.157 131.584C105.359 131.787 105.561 131.921 105.763 132.124C105.966 132.326 106.168 132.461 106.37 132.663C106.572 132.865 106.707 133 106.909 133.202C106.977 133.27 107.111 133.337 107.179 133.472C107.246 133.539 107.314 133.607 107.448 133.741C107.583 133.876 107.785 134.078 107.92 134.213C108.055 134.348 108.19 134.55 108.325 134.685C108.392 134.752 108.46 134.82 108.527 134.887C108.594 134.955 108.662 135.022 108.729 135.089C108.797 135.157 108.864 135.224 108.931 135.292C109.066 135.426 109.134 135.561 109.268 135.696C109.403 135.831 109.471 135.966 109.605 136.1C109.673 136.168 109.74 136.235 109.808 136.303C110.01 136.572 110.212 136.842 110.347 137.044L110.414 137.112C108.19 143.178 105.966 150.929 104.82 160.096C104.348 164.006 104.078 167.78 104.011 171.352C104.011 172.161 104.011 173.038 104.011 173.846C104.011 174.857 104.011 175.801 104.078 176.745C104.078 176.812 104.078 176.812 104.078 176.88C104.078 177.351 104.146 177.891 104.146 178.362C104.146 178.834 104.213 179.374 104.213 179.845C104.281 181.261 104.415 182.676 104.55 184.024C104.618 184.496 104.685 184.968 104.685 185.372C104.752 185.777 104.752 186.181 104.82 186.586C104.887 186.923 104.955 187.327 104.955 187.664C105.022 188.001 105.089 188.406 105.089 188.743C105.224 189.484 105.292 190.158 105.426 190.832C105.494 191.169 105.561 191.506 105.629 191.843C105.696 192.113 105.696 192.382 105.763 192.585C105.831 192.922 105.898 193.326 105.966 193.663C105.966 193.73 105.966 193.798 106.033 193.865C106.1 194.135 106.168 194.404 106.168 194.674C106.37 194.404 106.37 194.472 106.37 194.539Z" fill="#8677A7"/>
<path d="M57.0983 134.011C57.0309 134.752 56.3568 135.426 55.4806 135.426C55.3458 135.426 55.211 135.426 55.0088 135.359C55.211 135.224 55.3458 135.089 55.548 135.022C56.0872 134.617 56.5591 134.28 57.0983 134.011Z" fill="#004E5A"/>
<path d="M55.48 144.324C56.3734 144.324 57.0977 143.66 57.0977 142.841C57.0977 142.022 56.3734 141.358 55.48 141.358C54.5866 141.358 53.8623 142.022 53.8623 142.841C53.8623 143.66 54.5866 144.324 55.48 144.324Z" fill="#87AEB4"/>
<path d="M65.0522 132.393C65.9457 132.393 66.6699 131.729 66.6699 130.91C66.6699 130.091 65.9457 129.427 65.0522 129.427C64.1588 129.427 63.4346 130.091 63.4346 130.91C63.4346 131.729 64.1588 132.393 65.0522 132.393Z" fill="#87AEB4"/>
<path d="M65.0522 141.358C65.9457 141.358 66.6699 140.694 66.6699 139.875C66.6699 139.056 65.9457 138.392 65.0522 138.392C64.1588 138.392 63.4346 139.056 63.4346 139.875C63.4346 140.694 64.1588 141.358 65.0522 141.358Z" fill="#004E5A"/>
<path d="M65.0522 150.323C65.9457 150.323 66.6699 149.659 66.6699 148.84C66.6699 148.021 65.9457 147.357 65.0522 147.357C64.1588 147.357 63.4346 148.021 63.4346 148.84C63.4346 149.659 64.1588 150.323 65.0522 150.323Z" fill="#87AEB4"/>
<path d="M75.7009 125.518C75.4313 126.057 74.8921 126.394 74.2181 126.394C73.881 126.394 73.6114 126.327 73.3418 126.125C73.7462 125.99 74.1506 125.923 74.4877 125.788C74.8921 125.72 75.2965 125.653 75.7009 125.518Z" fill="#87AEB4"/>
<path d="M74.2192 135.359C75.1127 135.359 75.8369 134.695 75.8369 133.876C75.8369 133.057 75.1127 132.393 74.2192 132.393C73.3258 132.393 72.6016 133.057 72.6016 133.876C72.6016 134.695 73.3258 135.359 74.2192 135.359Z" fill="#004E5A"/>
<path d="M74.2192 144.324C75.1127 144.324 75.8369 143.66 75.8369 142.841C75.8369 142.022 75.1127 141.358 74.2192 141.358C73.3258 141.358 72.6016 142.022 72.6016 142.841C72.6016 143.66 73.3258 144.324 74.2192 144.324Z" fill="#87AEB4"/>
<path d="M83.3853 131.989C84.2787 131.989 85.003 131.325 85.003 130.506C85.003 129.687 84.2787 129.023 83.3853 129.023C82.4919 129.023 81.7676 129.687 81.7676 130.506C81.7676 131.325 82.4919 131.989 83.3853 131.989Z" fill="#87AEB4"/>
<path d="M83.3853 140.954C84.2787 140.954 85.003 140.29 85.003 139.471C85.003 138.652 84.2787 137.988 83.3853 137.988C82.4919 137.988 81.7676 138.652 81.7676 139.471C81.7676 140.29 82.4919 140.954 83.3853 140.954Z" fill="#004E5A"/>
<path d="M83.3853 149.918C84.2787 149.918 85.003 149.254 85.003 148.435C85.003 147.616 84.2787 146.952 83.3853 146.952C82.4919 146.952 81.7676 147.616 81.7676 148.435C81.7676 149.254 82.4919 149.918 83.3853 149.918Z" fill="#87AEB4"/>
<path d="M93.833 125.316C93.5633 125.72 93.0915 125.99 92.4849 125.99C91.676 125.99 91.002 125.383 90.8672 124.642C91.1368 124.709 91.4064 124.709 91.6086 124.776C91.8108 124.844 92.0805 124.844 92.2827 124.911C92.3501 124.911 92.3501 124.911 92.4175 124.911C92.6197 124.979 92.8219 124.979 93.0241 125.046C93.3611 125.181 93.5633 125.248 93.833 125.316Z" fill="#87AEB4"/>
<path d="M92.4849 134.954C93.3783 134.954 94.1026 134.291 94.1026 133.472C94.1026 132.653 93.3783 131.989 92.4849 131.989C91.5915 131.989 90.8672 132.653 90.8672 133.472C90.8672 134.291 91.5915 134.954 92.4849 134.954Z" fill="#004E5A"/>
<path d="M92.4849 143.919C93.3783 143.919 94.1026 143.255 94.1026 142.437C94.1026 141.618 93.3783 140.954 92.4849 140.954C91.5915 140.954 90.8672 141.618 90.8672 142.437C90.8672 143.255 91.5915 143.919 92.4849 143.919Z" fill="#87AEB4"/>
<path d="M92.4849 152.884C93.3783 152.884 94.1026 152.22 94.1026 151.401C94.1026 150.582 93.3783 149.918 92.4849 149.918C91.5915 149.918 90.8672 150.582 90.8672 151.401C90.8672 152.22 91.5915 152.884 92.4849 152.884Z" fill="#004E5A"/>
<path d="M102.124 131.989C103.017 131.989 103.741 131.325 103.741 130.506C103.741 129.687 103.017 129.023 102.124 129.023C101.23 129.023 100.506 129.687 100.506 130.506C100.506 131.325 101.23 131.989 102.124 131.989Z" fill="#87AEB4"/>
<path d="M102.124 140.954C103.017 140.954 103.741 140.29 103.741 139.471C103.741 138.652 103.017 137.988 102.124 137.988C101.23 137.988 100.506 138.652 100.506 139.471C100.506 140.29 101.23 140.954 102.124 140.954Z" fill="#004E5A"/>
<path d="M102.124 149.918C103.017 149.918 103.741 149.254 103.741 148.435C103.741 147.616 103.017 146.952 102.124 146.952C101.23 146.952 100.506 147.616 100.506 148.435C100.506 149.254 101.23 149.918 102.124 149.918Z" fill="#87AEB4"/>
<path d="M70.5116 133.876C70.4442 133.943 70.3094 133.943 70.242 133.943C69.8375 134.011 69.4331 133.809 69.2309 133.404L55.1436 106.173C55.7502 105.836 56.2894 105.499 56.7613 105.162L70.8486 132.393C71.1182 133 70.9834 133.606 70.5116 133.876Z" fill="#8677A7"/>
<path d="M106.37 108.397L99.6968 134.819C99.4272 134.617 99.225 134.415 98.9554 134.213C98.8206 134.078 98.6858 133.943 98.4836 133.808C98.3487 133.674 98.2139 133.539 98.0117 133.471L104.617 107.386L106.37 108.397Z" fill="#8677A7"/>
<path opacity="0.42" d="M106.371 194.539C106.371 194.607 106.371 194.674 106.439 194.741C105.832 195.483 103.405 198.044 99.4961 200.673L83.5889 202.021C86.0154 191.641 88.1723 177.958 88.0375 161.848C87.9027 146.952 85.8806 134.146 83.5889 124.237C86.5546 124.035 91.5425 124.17 97.0022 126.327C104.956 129.495 109.27 135.089 110.348 136.64L110.415 136.707C108.191 142.773 105.967 150.525 104.821 159.692C104.349 163.601 104.08 167.376 104.012 170.948C104.012 171.757 104.012 172.633 104.012 173.442C104.08 181.732 105.158 188.81 106.304 194.27C106.371 194.404 106.371 194.472 106.371 194.539Z" fill="url(#paint2_linear_117_15446)"/>
<path d="M66.4014 193.123L42.0687 194.741L37.0809 195.078L41.5295 144.728C35.935 149.783 9.91729 172.768 -4.91147 170.409C-6.32694 170.206 -7.67503 169.734 -8.88829 168.993C-13.7413 165.96 -14.1458 159.759 -21.6275 122.417C-22.3016 119.114 -22.9082 116.014 -23.5148 113.183C-23.717 112.105 -23.9192 111.093 -24.1215 110.082C-24.8629 106.375 -25.5369 103.275 -26.0762 100.848V100.781C-25.9414 100.646 -22.4364 99.1631 -20.3469 98.2194C-20.0099 98.0846 -19.7402 97.9498 -19.538 97.815C-19.4032 97.7476 -19.2684 97.6802 -19.201 97.6128C-19.1336 97.6802 -19.1336 97.7476 -19.0662 97.815C-18.9988 97.9498 -18.9314 98.0172 -18.864 98.152C-17.1115 100.713 -14.9546 104.151 -12.7303 108.397C-1.40649 130.303 -4.10264 144.997 1.96367 146.682C7.15374 148.098 11.7372 138.055 26.8355 123.698C35.7328 115.273 44.1582 109.274 50.4268 105.229C55.7516 134.482 61.0765 163.803 66.4014 193.123Z" fill="#BDD3DE"/>
<path d="M186.918 101.32C185.907 106.105 184.357 113.722 182.469 123.024C179.571 137.515 177.684 147.356 176.268 154.097C174.044 164.342 172.763 167.51 170 169.397C169.932 169.465 169.797 169.532 169.73 169.6C162.383 174.183 149.981 168.251 139.196 161.039C130.097 154.973 122.143 147.896 119.312 145.334C120.795 152.142 122.278 158.95 123.761 165.758C122.548 166.229 121.267 166.701 119.986 167.24C117.695 168.184 115.336 169.195 112.909 170.206C108.663 172.093 104.618 173.981 100.776 175.935C100.979 165.421 101.653 153.962 103.001 141.627C104.484 128.349 106.64 116.149 109.067 105.162C115.673 109.341 124.502 115.609 133.939 124.304C148.835 138.055 154.025 147.559 158.811 146.008C165.079 143.919 160.294 126.057 171.82 107.184C172.359 106.308 172.898 105.431 173.505 104.555C174.718 102.803 175.864 101.32 176.875 100.174C177.549 99.3651 178.156 98.6911 178.627 98.2192C179.099 98.4214 179.638 98.6237 180.11 98.8259C182.335 99.7021 184.559 100.511 186.783 101.387C186.851 101.252 186.918 101.252 186.918 101.32Z" fill="#BDD3DE"/>
<path opacity="0.36" d="M49.2138 160.635C49.2138 167.847 44.9674 184.496 42.1365 194.741L37.1486 195.078L41.5973 144.728C36.0028 149.783 9.98501 172.768 -4.84375 170.408C3.64909 160.77 20.837 144.121 33.3066 140.953C50.4945 136.37 49.2138 149.783 49.2138 160.635Z" fill="url(#paint3_linear_117_15446)"/>
<path opacity="0.36" d="M170.001 169.33C169.934 169.397 169.799 169.465 169.732 169.532C162.385 174.116 149.982 168.184 139.198 160.972C130.098 154.906 122.145 147.828 119.314 145.267C120.797 152.075 122.28 158.882 123.762 165.69C122.549 166.162 121.269 166.634 119.988 167.173C116.348 161.039 109.001 147.019 112.91 140.212C117.359 132.528 158.61 161.242 170.001 169.33Z" fill="url(#paint4_linear_117_15446)"/>
</g>
<defs>
<linearGradient id="paint0_linear_117_15446" x1="9.01493" y1="134.136" x2="89.1139" y2="134.136" gradientUnits="userSpaceOnUse">
<stop stop-color="#153E5C"/>
<stop offset="1" stop-color="#271C41"/>
</linearGradient>
<linearGradient id="paint1_linear_117_15446" x1="104.376" y1="94.7214" x2="88.2574" y2="144.287" gradientUnits="userSpaceOnUse">
<stop offset="0.1545" stop-color="#691B26"/>
<stop offset="0.5166" stop-color="#CD907F" stop-opacity="0.5"/>
</linearGradient>
<linearGradient id="paint2_linear_117_15446" x1="83.629" y1="163.141" x2="110.446" y2="163.141" gradientUnits="userSpaceOnUse">
<stop stop-color="#9776A6"/>
<stop offset="1" stop-color="#271C41"/>
</linearGradient>
<linearGradient id="paint3_linear_117_15446" x1="-4.88082" y1="167.498" x2="49.2136" y2="167.498" gradientUnits="userSpaceOnUse">
<stop stop-color="#153E5C"/>
<stop offset="0.9956" stop-color="#AAC0DC"/>
</linearGradient>
<linearGradient id="paint4_linear_117_15446" x1="111.85" y1="155.019" x2="170.004" y2="155.019" gradientUnits="userSpaceOnUse">
<stop stop-color="#153E5C"/>
<stop offset="0.9956" stop-color="#AAC0DC"/>
</linearGradient>
<clipPath id="clip0_117_15446">
<path d="M0 75C0 33.5786 33.5786 0 75 0C116.421 0 150 33.5786 150 75C150 116.421 116.421 150 75 150C33.5786 150 0 116.421 0 75Z" fill="white"/>
</clipPath>
</defs>
</svg>
