<svg width="150" height="150" viewBox="0 0 150 150" fill="none" xmlns="http://www.w3.org/2000/svg">
<g clip-path="url(#clip0_117_17363)">
<path d="M0 75C0 33.5786 33.5786 0 75 0C116.421 0 150 33.5786 150 75C150 116.421 116.421 150 75 150C33.5786 150 0 116.421 0 75Z" fill="#B2C7E6"/>
<path d="M119.442 209.411C118.608 210.036 117.774 210.662 116.941 211.218C115.342 212.33 113.813 213.511 112.215 214.623C110.269 221.85 108.254 229.078 106.308 236.305C104.918 241.378 103.528 246.382 102.138 251.455H52.9363L49.1141 241.587L14.9229 241.031C15.1314 240.475 15.2703 239.849 15.4788 239.293C17.7721 231.51 20.2739 221.642 22.6367 211.774C22.7757 211.079 22.9842 210.384 23.1232 209.689C24.5131 203.782 25.8335 197.875 27.0844 192.385C29.2387 182.725 31.0456 174.455 32.088 169.938C35.1457 156.943 29.2387 171.745 15.6178 187.034C11.0312 192.176 1.78845 202.392 -5.57795 201.141C-5.92542 201.071 -6.34241 201.002 -6.68989 200.863C-7.38483 200.585 -8.07976 200.238 -8.63572 199.821C-9.88662 198.917 -10.79 197.736 -11.4155 196.624C-11.9714 195.651 -12.3884 194.817 -12.5969 194.261C-12.5969 194.261 -12.8748 193.566 -13.0833 192.802C-16.6275 180.918 -5.99494 162.016 -5.99494 162.016C-4.81354 159.861 -3.70161 157.915 -2.5897 156.039C5.26316 142.14 10.0583 134.218 17.7026 125.253C27.9878 113.231 39.3154 99.9572 54.1177 93.2858C56.7584 92.1044 59.5382 91.1315 62.3875 90.367C63.0129 90.228 63.7079 90.0196 64.3333 89.8806C71.6302 88.3517 78.4407 88.4907 82.2629 88.6992C84.2087 88.8382 85.3901 88.9771 85.3901 88.9771C86.641 89.1856 87.7529 89.3941 88.7953 89.6026C93.0345 90.506 96.1618 91.6874 97.7601 92.3129C99.15 92.8688 100.54 93.4248 101.86 94.0502C103.25 94.7452 104.64 95.4401 105.96 96.2046C117.149 102.529 124.932 111.215 128.755 116.636C133.133 122.821 136.19 129.979 137.858 137.762C142.514 159.792 136.468 186.478 119.442 209.411Z" fill="#336859"/>
<path opacity="0.17" d="M85.8761 205.449C109.852 180.431 117.149 154.649 108.253 143.669C102.624 136.719 89.3508 134.148 79.9691 138.387C70.3789 142.765 67.4601 153.12 63.4989 162.085C60.0937 169.799 54.9511 178.833 46.6118 188.354C46.6118 188.076 44.388 144.989 37.2301 144.294C30.6976 143.669 -4.67502 187.867 -11.555 196.624C-12.3194 197.596 -12.7363 198.083 -12.7363 198.083L-8.77518 199.82L-5.71742 201.141C1.64898 202.392 10.8917 192.245 15.4784 187.033C29.0298 171.745 35.0063 156.942 31.9485 169.938C30.2807 176.957 26.8754 193.218 23.0533 209.619C20.5515 220.252 17.9107 230.954 15.4089 239.293C13.88 244.436 12.3511 248.744 11.0307 251.455H102.138C105.474 239.154 108.879 226.923 112.214 214.623C115.411 213.372 117.01 212.26 116.94 211.217C116.732 208.646 106.377 206.77 85.8761 205.449Z" fill="url(#paint0_linear_117_17363)"/>
<path opacity="0.05" d="M137.789 137.832C135.148 136.998 132.16 135.747 128.754 133.94C114.16 126.157 108.253 108.088 105.891 96.2046C117.079 102.529 124.863 111.215 128.685 116.636C133.063 122.89 136.121 130.048 137.789 137.832Z" fill="url(#paint1_linear_117_17363)"/>
<path opacity="0.05" d="M53.9075 93.2856C46.0547 107.046 20.7588 150.202 10.2651 156.803C4.56659 160.417 0.257946 158.819 -2.7998 156.039C5.05305 142.14 9.84817 134.218 17.4925 125.253C27.7777 113.231 39.1053 99.9571 53.9075 93.2856Z" fill="url(#paint2_linear_117_17363)"/>
<path opacity="0.36" d="M101.72 94.1197C96.7864 105.586 86.9877 112.466 77.9534 111.424C76.2856 111.215 68.8497 110.103 65.097 103.362C61.6918 97.247 63.7766 90.9925 64.124 89.8806C71.4209 88.3517 78.2314 88.4907 82.0536 88.6992L88.6555 89.6026C92.8947 90.506 96.0219 91.6874 97.6203 92.3129C99.0102 92.9383 100.4 93.4943 101.72 94.1197Z" fill="#0D2A28"/>
<path d="M94.424 91.0621C94.146 98.776 88.0305 104.683 81.2896 104.891C73.7147 105.1 66.7652 98.0116 67.4602 89.2553C67.4602 89.1858 67.4602 89.1163 67.4602 89.0468C67.5992 88.1434 67.8077 86.7535 68.0856 85.0856C69.0586 79.1091 69.6145 76.1208 70.0315 75.2174C70.3789 74.5225 70.7959 73.9665 71.2824 73.4106C72.9502 71.6732 75.591 70.4918 79.8997 68.6155C81.637 67.851 83.9303 67.0171 86.6406 66.1832C88.5865 65.6272 90.7408 65.0713 93.1036 64.6543C93.1036 66.1832 93.1731 67.7121 93.2426 69.2409C93.3121 70.9783 93.3816 72.7156 93.4511 74.453C93.4511 74.5225 93.4511 74.592 93.4511 74.6615C93.5205 76.8158 93.6595 78.9701 93.7985 81.1244C94.007 84.5297 94.2155 87.7959 94.424 91.0621Z" fill="#E29678"/>
<path opacity="0.13" d="M93.2434 69.3106C93.1739 69.3106 93.1739 69.3106 93.1044 69.3106C93.0349 70.0055 90.8805 83.8349 79.275 88.352C74.4104 90.2284 69.8237 89.6724 67.4609 89.186C67.4609 89.1165 67.4609 89.047 67.4609 88.9775C67.5999 88.0741 67.8084 86.6842 68.0864 85.0163C69.0593 79.0398 69.6153 76.0515 70.0322 75.1481C70.3797 74.4532 70.7967 73.8972 71.2831 73.3413L86.6414 66.1138C88.5872 65.5579 90.7416 65.0019 93.1044 64.585C93.1739 66.2528 93.2434 67.7817 93.2434 69.3106Z" fill="#002544"/>
<path d="M97.3422 50.6163C97.2727 51.3808 97.2032 52.1452 97.1337 52.9096C96.7862 55.203 96.1608 56.8013 95.6743 58.7472C95.0489 59.1641 94.215 59.6506 92.7556 60.9015C90.8097 62.6388 89.4893 64.3762 88.5859 66.0441C85.8756 70.7697 85.8756 75.0783 82.0534 79.0395C77.2583 83.9736 66.9037 86.4059 60.5797 82.3752C55.4371 79.1785 55.1591 70.3527 54.5337 52.8401C54.5337 52.8401 54.1167 40.4007 59.1898 31.2274C59.6068 30.463 60.1627 29.8375 60.3712 29.5595L60.4407 29.49L60.5102 29.4205C60.6492 29.2816 60.7882 29.1426 60.8577 29.0036C61.0661 28.7951 61.2746 28.5866 61.4831 28.3781C61.6221 28.2391 61.7611 28.1001 61.9001 27.9612C62.0391 27.8222 62.2476 27.6832 62.3866 27.5442C62.456 27.4747 62.595 27.4052 62.6645 27.3357C62.8035 27.1967 62.9425 27.1272 63.151 26.9882C68.7105 23.305 76.6329 23.0966 82.4704 25.1814C82.8179 25.3204 83.0958 25.3899 83.4433 25.5289C83.7908 25.6678 84.0688 25.8068 84.3467 25.9458C84.6247 26.0848 84.9722 26.2238 85.2502 26.4323C85.5282 26.5713 85.7366 26.7103 86.0146 26.8493C86.0146 26.8493 86.0146 26.8493 86.0841 26.8493C86.1536 26.9188 86.3621 26.9883 86.5706 27.1272C86.779 27.2662 86.9875 27.4052 87.196 27.5442C87.4045 27.6832 87.5435 27.8222 87.752 27.9612C88.9334 28.8646 90.0453 29.907 90.9487 31.0884C91.0877 31.2274 91.2267 31.4359 91.3657 31.5749C95.4659 37.1344 97.0642 44.4313 97.3422 50.6163Z" fill="#E29678"/>
<path d="M97.3428 50.6165C97.2733 51.3809 97.2038 52.1454 97.1343 52.9098C96.7868 55.2031 96.1614 56.8015 95.675 58.7473C95.3275 60.2067 95.0495 61.805 95.0495 64.0984C95.0495 67.1561 95.4664 69.6579 95.8139 71.2563C94.563 71.5343 92.4782 71.7428 91.2273 70.6308C90.8798 70.2834 90.6018 69.7274 89.9069 68.685C89.9069 68.685 89.1425 67.3646 88.5865 66.1137C87.0576 62.5 86.9186 54.2302 86.0847 54.0912C85.8067 54.0912 85.4593 54.7166 84.7643 57.5659C84.1389 57.5659 83.4439 57.6354 82.749 57.5659C81.2201 57.4964 79.8302 57.2184 78.7183 56.871C78.7878 53.6742 78.7878 50.3385 78.7183 46.7943C78.5793 42.9026 78.3708 39.2194 78.0234 35.6752C71.7689 34.1463 65.4449 32.6869 59.1904 31.1581C59.5379 30.5326 59.9548 29.9767 60.3718 29.4902L60.4413 29.4207L60.5108 29.3512C60.6498 29.2122 60.7888 29.0732 60.8583 28.9342C61.0668 28.7258 61.2753 28.5173 61.4837 28.3088C61.6227 28.1698 61.7617 28.0308 61.9007 27.8918C62.0397 27.7528 62.2482 27.6139 62.3872 27.4749C62.4566 27.4054 62.5957 27.3359 62.6651 27.2664C62.8041 27.1274 62.9431 27.0579 63.1516 26.9189C68.7111 23.2357 76.6335 23.0272 82.471 25.1121C82.8185 25.251 83.0965 25.3205 83.4439 25.4595C83.7914 25.5985 84.0694 25.7375 84.3473 25.8765C84.6253 26.0155 84.9728 26.1545 85.2508 26.3629C85.5288 26.5019 85.7372 26.6409 86.0152 26.7799C86.0152 26.7799 86.0152 26.7799 86.0847 26.7799C86.1542 26.8494 86.3627 26.9189 86.5712 27.0579C86.7797 27.1969 86.9882 27.3359 87.1966 27.4749C87.4051 27.6139 87.5441 27.7528 87.7526 27.8918C88.934 28.7953 89.9764 29.8377 90.9493 31.0191C91.0883 31.1581 91.2273 31.3665 91.3663 31.5055C95.3275 36.7871 97.6903 43.945 97.3428 50.6165Z" fill="#302C34"/>
<path d="M62.4368 54.2676C62.7824 53.5395 62.5005 52.6824 61.807 52.3532C61.1135 52.0241 60.2712 52.3475 59.9256 53.0757C59.58 53.8038 59.862 54.6609 60.5554 54.99C61.2489 55.3192 62.0912 54.9958 62.4368 54.2676Z" fill="#302C34"/>
<path d="M94.0763 57.0792C94.0763 60.6929 91.644 63.6117 88.7253 63.6117C86.293 63.6117 84.2776 61.7353 83.5827 59.0945C83.4437 58.4691 83.3047 57.8436 83.3047 57.1487C83.3047 53.535 85.737 50.6162 88.6558 50.6162C89.9762 50.6162 91.1576 51.1722 92.1305 52.1451C93.3119 53.257 94.0763 55.0639 94.0763 57.0792Z" fill="#E29678"/>
<path opacity="0.25" d="M92.1315 52.0758C89.0042 54.7165 85.2515 57.7743 83.5837 59.0252C83.4447 58.3997 83.3057 57.7743 83.3057 57.0794C83.3057 53.4657 85.738 50.5469 88.6567 50.5469C89.9771 50.5469 91.228 51.1723 92.1315 52.0758Z" fill="url(#paint3_linear_117_17363)"/>
<path d="M66.9378 47.5574L60.6064 42.5674L59.359 44.1502L65.6903 49.1402L66.9378 47.5574Z" fill="#302C34"/>
<path d="M60.1626 73.1328C59.9541 73.1328 59.8151 72.9938 59.7456 72.7853C59.6761 72.5769 59.8151 72.3684 60.0236 72.2989C61.9694 71.8124 63.7068 70.909 65.2356 69.6581C65.9306 69.1021 66.6256 68.4072 67.1815 67.7123C67.3205 67.5038 67.5985 67.5038 67.7375 67.6428C67.946 67.7818 67.9459 68.0597 67.807 68.1987C67.1815 68.9632 66.4866 69.6581 65.7221 70.2836C64.1237 71.604 62.2474 72.5074 60.1626 73.0633C60.2321 73.1328 60.1626 73.1328 60.1626 73.1328Z" fill="black"/>
<path d="M59.8853 50.269C59.8853 50.269 48.2102 60.6237 50.434 62.2916C52.6578 63.9594 54.8121 64.1679 54.8121 64.1679L59.8853 50.269Z" fill="#D38D71"/>
</g>
<defs>
<linearGradient id="paint0_linear_117_17363" x1="-12.7192" y1="193.909" x2="116.912" y2="193.909" gradientUnits="userSpaceOnUse">
<stop offset="0.00238381" stop-color="#FF931E"/>
<stop offset="0.6622" stop-color="#0D2A28"/>
</linearGradient>
<linearGradient id="paint1_linear_117_17363" x1="105.844" y1="117.068" x2="137.773" y2="117.068" gradientUnits="userSpaceOnUse">
<stop offset="0.00238381" stop-color="#FF931E"/>
<stop offset="1" stop-color="white"/>
</linearGradient>
<linearGradient id="paint2_linear_117_17363" x1="-2.75894" y1="126.098" x2="53.9317" y2="126.098" gradientUnits="userSpaceOnUse">
<stop offset="0.00238381" stop-color="#FF931E"/>
<stop offset="1" stop-color="white"/>
</linearGradient>
<linearGradient id="paint3_linear_117_17363" x1="83.3255" y1="54.8056" x2="92.1459" y2="54.8056" gradientUnits="userSpaceOnUse">
<stop offset="0.1269" stop-color="#CD907F"/>
<stop offset="0.8455" stop-color="#691B26"/>
</linearGradient>
<clipPath id="clip0_117_17363">
<path d="M0 75C0 33.5786 33.5786 0 75 0C116.421 0 150 33.5786 150 75C150 116.421 116.421 150 75 150C33.5786 150 0 116.421 0 75Z" fill="white"/>
</clipPath>
</defs>
</svg>
