<svg width="150" height="150" viewBox="0 0 150 150" fill="none" xmlns="http://www.w3.org/2000/svg">
<g clip-path="url(#clip0_122_14608)">
<path d="M0 75C0 33.5786 33.5786 0 75 0C116.421 0 150 33.5786 150 75C150 116.421 116.421 150 75 150C33.5786 150 0 116.421 0 75Z" fill="#B1CA99"/>
<path d="M238.443 86.3541C238.131 86.1666 237.756 86.1041 237.443 86.0416L239.443 84.5416C240.318 83.9166 240.818 82.9166 240.818 81.8541C240.818 81.2291 240.631 80.6041 240.256 80.0416C239.568 79.0416 238.443 78.6041 237.381 78.6666L238.256 78.0416C239.693 76.9791 240.006 74.9791 239.068 73.5416C238.068 72.1041 236.131 71.7291 234.693 72.7916L234.256 73.1041C234.881 72.0416 234.881 70.6041 234.193 69.5416C233.193 68.1041 231.256 67.7291 229.818 68.7916L212.568 81.3541L205.693 82.2291L211.506 75.9166C212.693 74.6041 212.631 72.5416 211.443 71.3541C211.193 71.1041 210.943 70.9166 210.631 70.7916C209.443 70.2291 207.943 70.4791 207.006 71.4791C203.943 73.9166 199.756 77.7291 195.943 83.4791C191.256 90.6041 185.381 111.917 183.006 118.229C173.568 143.604 170.256 145.479 168.131 145.667C167.881 145.667 167.631 145.667 167.381 145.667C167.381 145.667 167.381 145.667 167.318 145.667C161.381 144.854 146.506 125.917 136.568 118.354C132.756 115.417 127.068 111.667 119.318 108.229C123.256 121.604 127.006 135.979 130.256 151.354C130.881 154.417 131.506 157.417 132.131 160.417C134.693 165.729 138.131 170.354 142.256 174.042C143.006 174.729 143.818 175.354 144.631 175.979C148.693 179.042 153.256 181.167 158.068 182.229C159.006 182.417 159.881 182.604 160.818 182.729C163.318 183.042 165.756 183.104 168.006 182.854C177.443 181.979 184.256 177.104 186.381 175.542C186.381 175.542 201.943 166.229 213.256 124.417C214.006 121.729 214.631 118.917 214.631 118.917C215.006 117.354 215.256 116.354 215.256 116.354C215.881 113.542 216.443 110.604 216.943 107.479C217.193 105.979 217.381 104.604 217.568 103.167C218.818 102.667 220.631 101.917 222.756 101.042C232.193 97.2916 235.756 94.5416 238.881 92.1041C240.256 91.0416 240.506 88.9791 239.506 87.5416C239.256 86.8541 238.881 86.5416 238.443 86.3541Z" fill="#F1C8BB"/>
<path d="M53.4438 113.979C52.0688 130.104 50.6938 146.166 49.3188 162.291C43.6938 176.541 37.9438 190.916 31.9438 205.416V205.229C31.9438 204.729 31.5063 204.291 31.0063 204.291C30.5063 204.291 30.0688 204.729 30.0688 205.229V209.916C26.8188 217.666 23.5688 225.479 20.2563 233.291C19.5688 234.854 18.9438 236.416 18.2563 237.979C15.1938 245.166 12.1313 252.291 9.00632 259.354C9.00632 259.416 9.06881 266.104 9.06881 266.104V266.916C9.06881 268.916 7.63132 270.416 5.75632 270.354C5.31882 270.354 4.88132 270.229 4.50632 270.041C4.38132 269.979 4.31882 269.916 4.19382 269.916C3.31882 269.416 2.63132 268.479 2.44382 267.416C2.38132 268.354 2.00632 269.104 1.38132 269.666C0.818817 270.229 0.00631332 270.541 -0.868687 270.541C-2.43119 270.479 -3.74368 269.229 -4.11868 267.604C-4.11868 267.541 -4.18119 267.479 -4.18119 267.354C-4.18119 267.416 -4.18119 267.479 -4.18119 267.541C-4.43119 269.104 -5.68119 270.291 -7.18119 270.291C-7.24369 270.291 -7.30619 270.291 -7.43119 270.291C-8.49369 270.229 -9.43119 269.666 -10.0562 268.791C-10.4312 268.291 -10.6812 267.729 -10.7437 267.104C-10.7437 267.041 -10.7437 266.979 -10.8062 266.854C-10.8062 266.916 -10.8687 267.041 -10.8687 267.104C-10.9937 267.479 -11.1812 267.791 -11.3687 268.104C-12.0562 268.979 -13.1187 269.479 -14.2437 269.291C-14.8062 269.229 -15.3687 268.979 -15.8062 268.604C-16.3062 268.229 -16.6812 267.729 -16.9312 267.166C-17.1812 266.604 -17.3687 265.916 -17.3062 265.229V264.979L-17.1187 262.604L-16.9937 260.854L-16.8687 258.729L-16.8062 258.104C-16.9312 258.166 -16.9937 258.291 -17.1187 258.354C-17.2437 258.416 -17.3062 258.541 -17.4312 258.666C-17.6187 258.854 -17.8062 259.041 -17.9937 259.229C-18.1812 259.416 -18.3687 259.604 -18.5562 259.791C-18.5562 259.791 -18.5562 259.791 -18.6187 259.854C-18.7437 260.041 -18.9312 260.166 -19.0562 260.354C-19.3062 260.604 -19.5562 260.916 -19.7437 261.229C-19.8687 261.416 -20.0562 261.604 -20.1812 261.791C-20.7437 262.541 -21.3062 263.354 -21.8062 264.166C-21.9937 264.416 -22.1187 264.729 -22.3062 264.979C-22.4312 265.166 -22.5562 265.354 -22.6187 265.541C-22.7437 265.729 -22.8062 265.916 -22.9312 266.104C-22.9937 266.229 -23.0562 266.354 -23.1187 266.479C-23.2437 266.666 -23.3062 266.854 -23.4312 267.104C-23.6187 267.479 -23.8062 267.916 -23.9937 268.291C-24.0562 268.479 -24.1812 268.666 -24.2437 268.854C-24.3687 269.166 -24.4937 269.416 -24.6187 269.729C-25.3687 269.854 -26.1187 269.666 -26.8062 269.291C-28.4937 268.354 -29.0562 266.166 -28.1187 264.541L-19.9937 250.479C-18.6187 246.479 -17.2437 242.354 -15.7437 238.104C-8.61869 217.604 0.00631142 194.791 10.1938 170.354C16.1313 156.166 23.5063 139.229 40.3188 123.854C45.5688 119.354 50.2563 116.041 53.4438 113.979Z" fill="#F1C8BB"/>
<path d="M167.318 145.603C161.381 144.791 146.506 125.853 136.568 118.291C132.756 115.353 127.068 111.603 119.318 108.166C118.693 107.853 117.943 107.541 117.256 107.291C117.256 107.291 117.256 107.291 117.193 107.291C114.068 105.978 110.193 104.728 105.818 103.791C101.193 102.791 97.0681 102.478 93.5681 102.416C92.9431 102.416 92.3181 102.416 91.6931 102.416H91.3806C83.5681 102.478 76.5681 103.916 70.4431 106.041C67.2556 107.103 64.3181 108.353 61.6306 109.666C60.9431 109.978 60.2556 110.353 59.5681 110.666C59.0056 110.978 58.3806 111.291 57.8181 111.603C57.1931 111.916 56.6306 112.228 56.0681 112.541C55.1306 113.041 54.2556 113.603 53.3806 114.103C50.1931 116.228 45.5681 119.541 40.5056 124.166C23.6931 139.478 16.3181 156.478 10.3806 170.666C0.193077 195.103 -8.36942 217.916 -15.5569 238.416C-18.1194 238.166 -20.3069 237.353 -22.1819 235.416C-28.7444 228.916 -22.1819 220.353 -27.7444 210.666C-35.9944 196.416 -61.4944 204.041 -65.6819 193.291C-68.7444 185.416 -58.9319 172.166 -48.5569 165.791C-36.8069 158.541 -26.6194 161.728 -22.3069 154.228C-19.1819 148.791 -23.0569 144.541 -23.3694 136.978C-24.3694 113.853 9.38058 108.853 17.6306 79.6034C22.8806 60.9159 11.8806 52.8534 20.8806 39.8534C27.6931 29.9784 42.8806 21.7284 56.0681 26.2909C59.8806 27.6034 62.8181 29.7284 65.0681 31.7909C61.8181 35.5409 58.5681 39.2909 55.3181 43.0409L57.4431 44.9784C60.0681 40.7909 63.6306 37.3534 68.0681 35.4784C68.2556 35.4159 68.4431 35.2909 68.6931 35.2284C81.0681 30.5409 98.7556 37.9784 106.756 55.5409C105.568 56.0409 104.381 56.5409 103.256 57.1034C103.256 57.1659 103.318 57.2284 103.318 57.2909C103.693 58.8534 103.881 60.4159 103.943 62.0409C103.943 62.3534 103.943 62.6659 103.943 62.9784C103.943 64.6659 103.881 66.3534 103.818 68.1659C103.693 70.5409 103.568 72.9784 103.693 75.4784C103.818 78.5409 104.256 81.7284 105.443 85.0409C105.943 86.4159 106.568 87.8534 107.318 89.2284C109.443 93.1659 112.006 95.5409 112.818 96.2909C120.381 103.291 129.631 103.978 132.693 104.541C145.506 106.603 162.256 125.541 167.318 145.603Z" fill="#1A2744"/>
<path d="M65.0059 31.5415C61.7559 35.2915 58.5059 39.0415 55.2559 42.7915L58.7559 45.9165L68.5059 35.0415L68.6309 34.9165C67.3809 33.7915 66.1934 32.6665 65.0059 31.5415Z" fill="#A96464"/>
<path d="M106.693 67.479C106.131 64.2915 105.068 60.6665 103.256 57.0415C103.193 56.979 103.193 56.9165 103.131 56.854C96.6934 59.6665 90.1309 62.6665 83.4434 65.729C82.7559 66.0415 82.0684 66.354 81.3809 66.6665C80.8809 66.9165 80.3809 67.1665 79.8809 67.354C75.8184 69.2915 71.8184 71.1665 67.8809 73.104C67.4434 73.2915 67.0059 73.5415 66.5684 73.729C66.0684 73.979 65.5684 74.229 65.0684 74.479C63.0684 75.479 61.1309 76.4165 59.1309 77.4165C58.8809 77.5415 58.6934 77.6665 58.4434 77.729C58.1309 77.9165 57.8184 78.0415 57.5059 78.229C57.6309 78.604 57.7559 78.979 57.9434 79.354C58.3809 80.479 58.8809 81.479 58.8809 81.479C58.8809 81.479 60.1309 83.7915 62.0684 85.854C62.1934 85.979 63.6934 87.4165 66.1309 89.2915L66.1934 89.354H66.1309L66.4434 90.479L70.4434 105.854V105.917L76.0684 113.667C76.1934 113.542 76.3809 113.604 76.5059 113.729L94.9433 139.042L94.0058 119.104C94.0058 118.917 94.1308 118.792 94.3183 118.792L93.5684 102.292L93.4434 99.354V99.0415C93.4434 99.0415 93.5059 99.0415 93.5059 98.979C100.193 96.604 103.631 89.6665 105.381 84.729C106.131 82.479 106.568 80.729 106.756 79.979C106.756 79.979 107.318 77.5415 107.256 73.729C107.256 72.0415 107.131 69.854 106.693 67.479Z" fill="#F1C8BB"/>
<path d="M87.0059 100.354C86.0059 100.354 85.0059 100.291 84.0059 100.166C78.4434 99.416 74.5059 96.7285 72.1309 94.6035C72.0059 94.4785 72.0059 94.291 72.1309 94.166C72.2559 94.041 72.4434 94.041 72.5684 94.166C74.8809 96.2285 78.7559 98.791 84.1309 99.541C87.1309 99.9785 90.1934 99.7285 93.1934 98.8535C93.3809 98.791 93.5059 98.916 93.5684 99.041C93.6309 99.2285 93.5059 99.3535 93.3809 99.416C91.1934 100.041 89.1309 100.354 87.0059 100.354Z" fill="#1A2744"/>
<path d="M92.7568 83.0411C92.6318 83.0411 92.5068 82.9786 92.4443 82.8536C92.3818 82.6661 92.4443 82.5411 92.6318 82.4786L98.1318 80.4161L93.3193 70.6661C93.2568 70.5411 93.3193 70.3536 93.4443 70.2286C93.5693 70.1661 93.7568 70.2286 93.8818 70.3536L98.8193 80.4161C98.8818 80.4786 98.8818 80.6036 98.8193 80.6661C98.7568 80.7286 98.6944 80.7911 98.6319 80.8536L92.8193 83.0411C92.8818 83.0411 92.8193 83.0411 92.7568 83.0411Z" fill="#1A2744"/>
<path d="M94.6533 91.1806C92.1223 91.8771 89.0774 90.7054 87.2133 88.1716C87.1199 88.0677 87.147 87.9306 87.1907 87.8538C87.2344 87.7769 87.3383 87.6835 87.4754 87.7106L98.0606 87.7798C98.1811 87.7466 98.2745 87.8506 98.3077 87.9711C98.3409 88.0916 98.374 88.2121 98.3304 88.289C97.9101 89.1176 96.8226 90.5837 95.048 91.2017C94.834 91.1309 94.7738 91.1475 94.6533 91.1806ZM88.0797 88.2574C89.8879 90.3527 92.532 91.2457 94.7119 90.4514C96.021 90.0264 96.9068 89.0048 97.3601 88.2966L88.0797 88.2574Z" fill="#1A2744"/>
<path d="M100.599 64.8099C102.824 63.8678 104.42 62.6145 104.164 62.0106C103.909 61.4066 101.898 61.6807 99.6725 62.6228C97.4474 63.5649 95.8508 64.8182 96.1066 65.4222C96.3623 66.0261 98.3734 65.752 100.599 64.8099Z" fill="#1A2744"/>
<path d="M83.8193 68.104C86.2356 68.104 88.1943 67.5723 88.1943 66.9165C88.1943 66.2607 86.2356 65.729 83.8193 65.729C81.4031 65.729 79.4443 66.2607 79.4443 66.9165C79.4443 67.5723 81.4031 68.104 83.8193 68.104Z" fill="#1A2744"/>
<path d="M86.5684 71.7285C87.2932 71.7285 87.8809 71.1409 87.8809 70.416C87.8809 69.6911 87.2932 69.1035 86.5684 69.1035C85.8435 69.1035 85.2559 69.6911 85.2559 70.416C85.2559 71.1409 85.8435 71.7285 86.5684 71.7285Z" fill="#1A2744"/>
<path d="M102.006 69.041C102.731 69.041 103.318 68.4534 103.318 67.7285C103.318 67.0036 102.731 66.416 102.006 66.416C101.281 66.416 100.693 67.0036 100.693 67.7285C100.693 68.4534 101.281 69.041 102.006 69.041Z" fill="#1A2744"/>
<path d="M90.7559 70.041C91.4434 73.916 88.6934 77.7285 84.6934 78.4785C80.6309 79.2285 76.7559 76.6035 76.0059 72.7285C80.8809 71.791 85.8184 70.916 90.7559 70.041Z" fill="#1A2744"/>
<path d="M110.132 66.916C110.757 70.8535 107.882 74.541 103.819 75.2285C99.7568 75.916 95.8818 73.166 95.3193 69.2285C100.257 68.416 105.194 67.666 110.132 66.916Z" fill="#1A2744"/>
<path d="M80.3809 78.3538C80.3184 78.3538 80.3183 78.3538 80.2558 78.3538C80.0684 78.2913 80.0059 78.1038 80.0684 77.9163C80.7559 76.2913 80.3808 75.9788 79.6309 75.3538C79.2559 75.0413 78.8184 74.7288 78.4434 74.1038C77.9434 73.4163 77.9434 72.6663 78.4434 72.0413C78.5684 71.9163 78.7559 71.8538 78.8809 71.9788C79.0059 72.1038 79.0684 72.2913 78.9434 72.4163C78.6309 72.8538 78.6309 73.2913 78.9434 73.7913C79.2559 74.2913 79.6934 74.6038 80.0059 74.9163C80.8184 75.5413 81.5059 76.1038 80.6309 78.1663C80.6309 78.2913 80.5059 78.3538 80.3809 78.3538Z" fill="white"/>
<path d="M99.8806 75.1038C99.8181 75.1038 99.818 75.1038 99.7555 75.1038C99.568 75.0413 99.5056 74.8538 99.5681 74.6663C100.381 72.7913 100.006 72.4788 99.1931 71.8538C98.8181 71.5413 98.3806 71.2288 98.0056 70.6038C97.4431 69.7288 97.6306 69.0413 97.9431 68.6038C98.0681 68.4788 98.2555 68.4163 98.3805 68.5413C98.5055 68.6663 98.568 68.8538 98.443 68.9788C98.193 69.4163 98.193 69.8538 98.5055 70.2913C98.818 70.7913 99.2556 71.1038 99.5681 71.3538C100.506 72.1038 101.068 72.7288 100.068 74.9163C100.131 74.9788 100.006 75.1038 99.8806 75.1038Z" fill="white"/>
<path d="M88.5684 72.416C88.4434 72.416 88.2559 72.291 88.2559 72.166C88.2559 71.9785 88.3184 71.8535 88.5059 71.791L97.0059 70.4785C97.1934 70.4785 97.3184 70.541 97.3809 70.7285C97.3809 70.916 97.3183 71.041 97.1308 71.1035L88.5684 72.416Z" fill="#1A2744"/>
<path d="M51.3809 73.916C51.1934 73.916 51.0684 73.791 51.0684 73.6035C51.0684 73.416 51.1934 73.291 51.3809 73.291L76.7559 73.041C76.9434 73.041 77.0684 73.166 77.0684 73.3535C77.0684 73.541 76.9434 73.666 76.7559 73.666L51.3809 73.916Z" fill="#1A2744"/>
<path d="M70.1945 80.9785C69.6945 78.7285 68.4445 76.8535 66.757 75.6035C65.3195 74.4785 63.507 73.791 61.632 73.7285C60.8195 73.666 60.007 73.7285 59.1945 73.916C54.1945 74.9785 51.007 79.916 52.0695 84.8535C53.132 89.8535 58.0695 93.041 63.0695 91.9785C68.132 90.916 71.257 85.9785 70.1945 80.9785Z" fill="#F1C8BB"/>
<path d="M65.0694 86.4166C65.0069 86.4166 64.9444 86.4166 64.9444 86.3541C63.9444 85.8541 63.2569 84.7916 63.1944 83.6666C63.1319 82.6666 63.5694 81.7291 64.3194 81.1041L56.3194 76.5416C56.1944 76.4791 56.1319 76.2916 56.1944 76.1041C56.2569 75.9791 56.4444 75.9166 56.6319 75.9791L65.0694 80.7916C65.1944 80.8541 65.1944 80.9166 65.2569 81.0416C65.3194 81.1666 65.1944 81.2291 65.1319 81.2916C64.3194 81.7916 63.8819 82.6666 63.8819 83.6041C63.9444 84.5416 64.4444 85.3541 65.2569 85.7291C65.3819 85.7916 65.4444 85.9791 65.3819 86.1666C65.3194 86.3541 65.1944 86.4166 65.0694 86.4166Z" fill="#1A2744"/>
<path d="M61.6309 91.291C62.7009 91.291 63.5684 90.4236 63.5684 89.3535C63.5684 88.2835 62.7009 87.416 61.6309 87.416C60.5608 87.416 59.6934 88.2835 59.6934 89.3535C59.6934 90.4236 60.5608 91.291 61.6309 91.291Z" fill="#A96464"/>
<path d="M139.756 209.103C136.256 209.416 132.756 209.791 129.256 210.103C113.193 211.666 97.1309 213.166 81.0684 214.728C80.4434 214.791 79.8184 214.853 79.1934 214.916C77.6309 215.041 76.0684 215.228 74.5059 215.353C73.4434 215.478 72.4434 215.541 71.3809 215.666C68.2559 215.978 65.0684 216.291 61.9434 216.603C58.9434 216.916 55.9434 217.166 52.9434 217.478C50.3809 217.728 47.8184 217.978 45.2559 218.228L45.5684 213.291L48.7559 167.853L49.2559 162.353C50.6309 146.228 52.0059 130.166 53.3809 114.041C54.1934 113.541 55.1309 112.978 56.0684 112.478C56.6309 112.166 57.1934 111.853 57.8184 111.541C58.3809 111.228 58.9434 110.916 59.5684 110.603C60.2559 110.291 60.9434 109.916 61.6309 109.603C64.3184 108.291 67.2559 107.103 70.4434 105.978V106.041L76.0684 113.791C76.1934 113.666 76.3808 113.728 76.5058 113.853L94.9434 139.166L94.0059 119.228C94.0059 119.041 94.1308 118.916 94.3184 118.916C94.0683 113.416 93.8184 107.916 93.6309 102.416C99.1309 102.353 103.443 102.978 106.506 103.666C107.256 103.853 107.881 103.978 108.131 104.041C112.943 105.228 116.693 106.916 119.381 108.228C123.318 121.603 127.068 135.978 130.318 151.353C130.943 154.416 131.568 157.416 132.193 160.416C134.443 171.916 136.318 183.041 137.818 193.728C138.506 198.853 139.193 204.041 139.756 209.103Z" fill="#A96464"/>
<path d="M95.6316 140.103C95.6316 140.228 95.5691 140.353 95.4441 140.416C95.3816 140.416 95.3816 140.416 95.3191 140.416C95.1941 140.416 95.1316 140.353 95.0691 140.291L76.0066 114.166C75.8816 114.041 75.9441 113.853 76.0691 113.728C76.1941 113.603 76.3816 113.666 76.5066 113.791L94.9441 139.103L94.0066 119.166C94.0066 118.978 94.1316 118.853 94.3191 118.853C94.5066 118.853 94.6316 118.978 94.6316 119.166L95.6316 140.103Z" fill="#1A2744"/>
</g>
<defs>
<clipPath id="clip0_122_14608">
<path d="M0 75C0 33.5786 33.5786 0 75 0C116.421 0 150 33.5786 150 75C150 116.421 116.421 150 75 150C33.5786 150 0 116.421 0 75Z" fill="white"/>
</clipPath>
</defs>
</svg>
