<svg width="150" height="150" viewBox="0 0 150 150" fill="none" xmlns="http://www.w3.org/2000/svg">
<g clip-path="url(#clip0_117_15289)">
<path d="M0 75C0 33.5786 33.5786 0 75 0C116.421 0 150 33.5786 150 75C150 116.421 116.421 150 75 150C33.5786 150 0 116.421 0 75Z" fill="#A3C2CF"/>
<path d="M53.6287 71.9494C52.3095 89.7914 65.7111 94.988 73.2243 95.5993C75.1067 101.085 78.6783 112.766 77.9543 115.645C77.2303 118.525 61.4316 127.213 53.6287 131.187C54.9801 133.133 62.5095 138.346 81.7833 143.575C120.975 151.008 134.714 120.504 134.714 119.024C98.0326 101.906 102.055 83.6618 102.055 82.3103C102.746 82.3103 111.128 76.8725 112.721 70.9198C114.314 64.9671 114.636 59.0466 114.636 59.0466C114.636 59.0466 113.606 50.2302 111.515 45.1462C108.635 38.1156 92.8199 30.345 84.0357 30.2806C65.8558 30.168 54.6905 57.5504 53.6287 71.9494Z" fill="#F1CFC0"/>
<path d="M106.189 72.0621C104.001 69.9063 100.011 71.5634 98.29 72.6413C103.68 72.2069 105.514 72.8665 106.785 75.4728C107.058 74.9258 107.316 73.4779 106.189 72.0621Z" fill="#E2B29D"/>
<path d="M98.708 83.7584C96.6969 84.0963 95.5547 81.6509 95.2168 80.3799C96.9061 82.5518 98.7884 83.1953 100.574 82.2461C100.462 82.6483 99.8824 83.4206 98.708 83.7584Z" fill="#E2B29D"/>
<path d="M97.0179 86.4614C86.5444 92.4785 76.8431 95.1009 73.3037 95.6479L77.0362 108.454L97.0179 86.4614Z" fill="#E2B29D"/>
<path d="M66.7566 71.0645C66.7566 71.0645 62.268 67.3481 63.0885 64.9831C63.6033 63.4708 72.0658 57.8398 72.0658 57.8398" stroke="#192312" stroke-width="1.28707" stroke-linecap="round"/>
<path d="M80.7534 62.4757C81.433 61.2778 81.4013 59.9761 80.6826 59.5683C79.9638 59.1605 78.8302 59.801 78.1506 60.999C77.4709 62.1969 77.5026 63.4985 78.2213 63.9063C78.9401 64.3141 80.0737 63.6736 80.7534 62.4757Z" fill="#192312"/>
<path d="M64.0587 56.4501C64.3626 55.116 63.9558 53.8857 63.1502 53.7021C62.3445 53.5186 61.445 54.4514 61.1411 55.7855C60.8372 57.1196 61.2439 58.3499 62.0496 58.5335C62.8553 58.717 63.7548 57.7843 64.0587 56.4501Z" fill="#192312"/>
<path d="M75.1221 95.4226C79.4659 94.3769 89.3924 91.3845 94.3315 87.7324" stroke="#192312" stroke-width="1.28707" stroke-linecap="round"/>
<path d="M90.6635 67.6539C87.7837 74.0088 81.5414 77.1943 76.8114 75.0546C72.0815 72.9148 70.3761 66.1095 73.2559 59.7546C76.1357 53.3997 82.378 50.2142 87.108 52.3539C91.8379 54.5097 93.5594 61.299 90.6635 67.6539Z" stroke="#192312" stroke-width="1.28707"/>
<path d="M67.5931 57.2124C64.7777 63.5995 58.5676 66.8654 53.8215 64.774C49.0754 62.6825 47.2896 55.9093 50.1051 49.5222C52.9206 43.1351 59.1307 39.8692 63.8767 41.9607C68.6228 44.0361 70.4086 50.8093 67.5931 57.2124Z" stroke="#192312" stroke-width="1.28707"/>
<path d="M68.4941 55.4429L73.8194 58.1779" stroke="#192312" stroke-width="1.28707" stroke-linecap="round"/>
<path d="M67.8514 38.4375C67.5618 38.1962 52.3422 -2.08903 73.4501 4.44284C78.6949 6.06776 84.4706 13.1627 84.4706 13.1627C84.4706 13.1627 87.5757 0.131162 96.0703 9.91288C99.3684 13.7097 98.3871 22.6066 98.3871 22.6066C98.3871 22.6066 108.507 18.3593 111.033 22.6066C112.786 25.5668 110.083 31.3908 110.083 31.3908C116.052 37.3435 121.023 45.3877 121.023 55.0729C121.023 70.9843 103.069 82.4392 101.428 82.9218C101.412 82.0209 108.442 79.4467 109.327 73.3975C110.196 67.4448 102.297 66.2704 99.8028 67.3322C99.7385 67.3805 99.7063 67.4126 99.6902 67.3805C99.7224 67.3644 99.7706 67.3483 99.8028 67.3322C100.816 66.3991 107.22 55.4107 107.22 55.0568C107.316 55.0568 101.428 53.6088 101.428 53.6088C101.428 53.6088 102.136 48.4284 98.3871 45.0337C94.6385 41.6391 86.6104 45.0337 86.6104 45.0337C86.6104 45.0337 85.7577 38.8719 82.9744 36.6356C78.5662 33.0962 68.141 38.6788 67.8514 38.4375Z" fill="#192312"/>
<path d="M91.6768 64.5327L103.148 66.3185" stroke="#192312" stroke-width="1.28707" stroke-linecap="round"/>
<path d="M151.641 30.7954L181.195 3.09131C202.946 31.0046 230.554 78.7065 220.483 105.96C214.932 121.003 194.693 136.271 176.996 149.624C162.613 160.484 149.887 170.088 148.101 177.264C144.9 190.086 160.714 236.63 168.421 258.14H19.7966L23.3522 245.237L-12.6857 222.536C-24.1085 213.64 -41.0817 189.877 -17.5766 166.018C5.92847 142.159 55.9954 119.893 78.1008 111.736L93.6743 125.089L117.871 109.13C126.575 113.393 147.072 117.689 168.437 105.944C189.802 94.1996 185.088 77.4677 181.211 64.9993C177.318 52.5791 151.641 30.7954 151.641 30.7954ZM33.52 208.62L41.9181 174.802C32.9086 175.06 13.7957 177.087 9.46791 183.104C5.14015 189.137 9.83794 195.09 13.6187 197.503L33.52 208.62Z" fill="#688865"/>
<path d="M65.6964 141.515L53.775 121.823L47.8545 124.558C52.4558 129.578 61.8031 139.858 61.8031 140.421C61.8031 140.984 53.2119 146.905 48.9163 149.817L66.9031 194.173L55.3195 148.321L65.6964 141.515Z" fill="#517463"/>
<path d="M124.097 133.246L136.018 113.554H142.405C137.804 118.573 127.99 131.589 127.99 132.152C127.99 132.715 136.581 138.652 140.877 141.547L124.161 186.193L134.49 140.051L124.097 133.246Z" fill="#517463"/>
<path d="M133.38 258.172L107.767 115.758L93.6094 125.137L83.4255 116.321L58.3438 258.172H133.38Z" fill="white"/>
<path d="M90.9873 132.57V127.438C90.9873 127.261 91.1321 127.116 91.3091 127.116H94.9933C95.1703 127.116 95.3151 127.261 95.3151 127.438V132.57C95.3151 132.747 95.1703 132.892 94.9933 132.892H91.3091C91.1321 132.892 90.9873 132.747 90.9873 132.57Z" stroke="#192312" stroke-width="1.28707"/>
<path d="M115.378 118.413L95.3154 127.567V132.57L114.702 138.797L115.378 118.413Z" stroke="#192312" stroke-width="1.28707"/>
<path d="M70.9258 118.413L90.9879 127.567V132.57L71.6015 138.797L70.9258 118.413Z" stroke="#192312" stroke-width="1.28707"/>
<path d="M90.6664 129.095L77.3613 125.749" stroke="#192312" stroke-width="1.28707" stroke-linecap="round"/>
<path d="M90.7794 130.624L80.4346 132.345" stroke="#192312" stroke-width="1.28707" stroke-linecap="round"/>
<path d="M95.5254 129.095L105.404 125.443" stroke="#192312" stroke-width="1.28707" stroke-linecap="round"/>
<path d="M95.8623 131.267L109.956 133.777" stroke="#192312" stroke-width="1.28707" stroke-linecap="round"/>
<path d="M135.905 114L124 135.092L134.554 141.543L124 184.177" stroke="#192312" stroke-width="1.28707" stroke-linecap="round"/>
<path d="M53 123L68.3 147.808L57.7461 154.276L68.3 196.91" stroke="#192312" stroke-width="1.28707" stroke-linecap="round"/>
<path d="M76.6699 110.642L93.7075 125.25L114.638 111.333" stroke="#192312" stroke-width="1.28707" stroke-linecap="round"/>
<path d="M126.623 18.89C128.457 23.1212 138.834 23.99 152.3 30.1518L175.033 8.86694C163.578 -3.40847 142.872 -28.4098 138.657 -26.8009C134.442 -25.1921 147.876 -14.9438 146.959 -13.6246C146.042 -12.3053 129.857 -27.4606 126.623 -25.3691C123.759 -23.5028 141.81 -10.053 141.81 -9.18418C141.81 -8.49238 141.553 -8.79807 141.167 -8.79807L127.62 -17.7754C124.757 -19.9312 119.142 -23.2776 119.608 -19.4968C120.188 -14.7668 136.228 -3.60153 134.506 -3.74632C132.785 -3.89112 121.925 -2.87755 120.751 2.97861C120.027 6.61457 120.895 11.7146 123.759 12.0042C126.623 12.2938 124.049 5.98713 129.197 4.41047C139.075 5.13445 139.944 10.7171 141.794 12.8569C143.644 14.9966 141.215 16.0102 138.641 16.4446C136.067 16.895 124.338 13.5969 126.623 18.89Z" fill="#FF6B6B"/>
<path d="M146.878 13.5971C151.174 12.9697 159.893 14.5785 164.495 17.8283" stroke="black" stroke-width="1.28707" stroke-linecap="round"/>
<path d="M159.314 110.127C160.102 113.232 158.22 116.385 155.115 117.174C152.01 117.962 148.857 116.031 148.068 112.926C148.068 112.926 150.964 112.508 154.069 111.736C157.174 110.931 159.314 110.127 159.314 110.127Z" fill="#2039D2"/>
<path d="M46.9223 124.993C48.3381 127.856 47.1315 131.299 44.2678 132.715C41.404 134.131 37.9289 132.956 36.4971 130.093C36.4971 130.093 38.7816 128.934 41.6453 127.519C44.5091 126.087 46.9223 124.993 46.9223 124.993Z" fill="#50567A"/>
<path d="M27.5214 160.981C30.4767 159.757 31.8801 156.368 30.6559 153.413C29.4318 150.458 26.0437 149.054 23.0884 150.279C20.1331 151.503 18.7297 154.891 19.9538 157.846C21.178 160.801 24.5661 162.205 27.5214 160.981Z" fill="#2039D2"/>
</g>
<defs>
<clipPath id="clip0_117_15289">
<path d="M0 75C0 33.5786 33.5786 0 75 0C116.421 0 150 33.5786 150 75C150 116.421 116.421 150 75 150C33.5786 150 0 116.421 0 75Z" fill="white"/>
</clipPath>
</defs>
</svg>
