<svg width="150" height="150" viewBox="0 0 150 150" fill="none" xmlns="http://www.w3.org/2000/svg">
<g clip-path="url(#clip0_122_14571)">
<path d="M0 75C0 33.5786 33.5786 0 75 0C116.421 0 150 33.5786 150 75C150 116.421 116.421 150 75 150C33.5786 150 0 116.421 0 75Z" fill="#6784BB"/>
<circle cx="86.5" cy="162.5" r="65.5" fill="#4C5079"/>
<path d="M142.81 114.963C141.06 110.588 137.435 108.213 135.56 107.213C136.81 106.463 138.748 105.025 140.31 102.588C143.81 97.213 142.56 91.4005 142.185 89.963C140.873 84.713 137.31 81.7755 135.685 80.4005C131.248 76.7755 126.498 76.0255 124.56 75.838C129.81 67.963 129.748 57.9005 124.56 50.8379C118.248 42.2754 107.623 42.3379 106.623 42.3379C106.435 40.6504 105.435 34.6504 100.435 30.7754C94.3727 26.0879 84.8727 26.3379 77.3102 31.9629C76.4352 30.8379 74.8102 28.9629 72.1227 27.8379C68.0602 26.0879 64.3102 27.1504 62.1227 27.7129C60.3727 28.2129 54.1852 30.4629 50.4352 36.2129C46.3727 42.4629 47.5602 49.0879 47.5602 49.0879C47.5602 49.0879 30.8727 42.4004 26.8727 62.6505C22.8727 82.9005 37.3727 84.6505 37.3727 84.6505C37.3727 84.6505 14.9977 88.2755 14.5602 103.338C14.0602 118.4 26.8102 122.775 26.8102 122.775C26.8102 122.775 13.5602 132.213 23.6852 142.588C29.1852 129.65 36.8102 116.525 51.6852 108.025C54.0602 106.65 56.1227 105.713 57.4352 105.15C57.7477 106.65 60.1852 119.213 63.6227 136.838C64.9352 135.9 65.6852 135.275 65.6852 135.275C65.6852 135.275 63.8102 147.9 83.7477 145.65C103.435 143.4 97.6852 122.338 97.5602 121.775C101.623 126.838 106.185 130.65 110.748 133.4C110.498 120.65 110.31 110.025 110.06 104.088C110.06 103.713 110.06 103.338 109.998 102.963C113.685 104.213 117.185 105.713 120.498 107.463C130.06 112.65 137.06 119.838 142.373 127.588C143.873 123.588 144.498 119.088 142.81 114.963Z" fill="#071725"/>
<path d="M106.186 61.3384C106.061 60.5259 105.811 59.1509 105.373 57.4634C105.061 56.4009 104.748 55.2134 104.248 53.9009C103.873 52.9009 103.436 51.9009 102.936 50.8384C99.6856 50.9634 94.6856 50.5884 89.8106 47.6509C85.3731 45.0259 82.9355 41.5259 81.748 39.5259C81.6855 42.2134 81.248 47.9009 78.623 54.5259C76.6855 59.4009 73.5606 64.7759 68.5606 69.9634C67.3731 71.2134 66.0605 72.4009 64.623 73.5884C64.4355 73.7134 64.3106 73.8384 64.1231 74.0259C63.4981 74.5259 62.873 75.0259 62.1855 75.5259C62.998 77.3384 64.0605 79.1509 65.248 80.8384C65.6855 81.4634 66.1856 82.0884 66.6856 82.7134L66.748 83.2759V83.4009C66.748 83.4009 66.748 83.4009 66.748 83.4634C67.248 86.4009 67.6855 89.3384 68.123 92.2759C68.5605 95.1509 69.0606 98.0259 69.4981 100.901C69.4981 101.026 69.498 101.088 69.5605 101.213C69.873 101.651 70.248 102.026 70.5605 102.463C70.6855 102.338 70.873 102.401 70.998 102.526L94.748 131.651L93.748 102.401C93.748 102.213 93.873 102.088 94.0605 102.088C94.0605 101.213 93.998 100.338 93.9355 99.4634C93.873 97.7134 93.8105 95.9634 93.748 94.2759C93.748 94.0884 93.748 93.8384 93.748 93.6509C93.8105 93.6509 93.873 93.5884 93.998 93.5884C94.1855 93.5259 94.373 93.4634 94.5605 93.3384C97.6855 92.0259 100.061 89.8384 101.873 87.1509C102.998 85.4634 103.873 83.6509 104.561 81.6509C107.061 74.9634 107.186 67.0884 106.186 61.3384Z" fill="#ECA98E"/>
<path d="M96.873 73.5879C96.8105 73.5879 96.7481 73.5879 96.6856 73.5254C96.5606 73.4004 96.5605 73.2129 96.623 73.0879L99.873 69.3379L92.498 62.6504C92.373 62.5254 92.373 62.3379 92.498 62.2129C92.623 62.0879 92.8106 62.0879 92.9356 62.2129L100.561 69.0879C100.686 69.2129 100.686 69.4004 100.561 69.5254L97.123 73.5254C97.0605 73.5254 96.9355 73.5879 96.873 73.5879Z" fill="#071725"/>
<path d="M83.6241 66.4634C82.2491 66.4634 81.1866 65.9634 80.9366 65.7759C80.8116 65.7134 80.7491 65.5259 80.8116 65.3384C80.8741 65.2134 81.0616 65.1509 81.2491 65.2134C81.5616 65.4009 83.3116 66.2759 85.2491 65.5259C87.3741 64.7134 87.9991 62.6509 88.0616 62.4634C88.1241 62.2759 88.3116 62.2134 88.4366 62.2759C88.6241 62.3384 88.6866 62.5259 88.6241 62.6509C88.4991 63.0884 87.7491 65.2134 85.3741 66.1509C84.8116 66.4009 84.1866 66.4634 83.6241 66.4634Z" fill="#071725"/>
<path d="M99.9363 63.0886C97.4988 63.0886 95.8113 61.0886 95.8113 61.0261C95.6863 60.9011 95.7488 60.7136 95.8738 60.5886C95.9988 60.4636 96.1863 60.5261 96.3113 60.6511C96.4363 60.7761 99.1863 64.0886 102.686 61.4636C102.811 61.3386 102.999 61.4011 103.124 61.5261C103.249 61.6511 103.186 61.8386 103.061 61.9636C101.936 62.8386 100.874 63.0886 99.9363 63.0886Z" fill="#071725"/>
<path d="M82.129 58.9399C84.1759 58.1091 85.6354 56.9429 85.3887 56.3352C85.1421 55.7275 83.2827 55.9084 81.2357 56.7392C79.1887 57.5701 77.7293 58.7363 77.9759 59.344C78.2226 59.9517 80.082 59.7708 82.129 58.9399Z" fill="#071725"/>
<path d="M102.4 54.1372C102.432 53.4821 100.669 52.8644 98.4627 52.7575C96.2562 52.6506 94.4418 53.0949 94.41 53.75C94.3783 54.405 96.1413 55.0227 98.3477 55.1296C100.554 55.2366 102.369 54.7922 102.4 54.1372Z" fill="#071725"/>
<path d="M93.8737 81.088C88.2487 81.088 87.1862 76.7755 87.1862 76.7755C87.1237 76.588 87.2487 76.463 87.4362 76.4005C87.6237 76.338 87.7487 76.463 87.8112 76.6505C87.8737 76.838 88.8737 80.838 94.4987 80.463C94.6862 80.463 94.8112 80.588 94.8112 80.7755C94.8112 80.963 94.6862 81.088 94.4987 81.088C94.3112 81.088 94.0612 81.088 93.8737 81.088Z" fill="#071725"/>
<path d="M89.8738 94.7752C89.3738 94.7752 88.9363 94.7752 88.4363 94.7127C84.4988 94.3377 81.5613 92.7127 79.8113 91.3377C79.6863 91.2127 79.6238 91.0252 79.7488 90.9002C79.8738 90.7752 80.0613 90.7127 80.1863 90.8377C81.8738 92.1502 84.6863 93.7127 88.4988 94.0877C90.8113 94.2752 93.2488 93.9627 95.4363 93.1502C95.6238 93.0877 95.7488 93.1502 95.8113 93.3377C95.8738 93.5252 95.8113 93.6502 95.6238 93.7127C93.8113 94.4002 91.8113 94.7752 89.8738 94.7752Z" fill="#071725"/>
<path d="M60.8738 70.5253C60.4988 70.5253 60.1238 70.2753 59.9988 69.9628C56.1863 60.5878 58.1863 50.0878 65.0613 43.2128C74.6863 33.6503 88.3738 37.1503 88.9988 37.2753C93.2488 38.4003 97.1863 40.7128 100.436 43.9003C100.811 44.2753 100.811 44.8378 100.436 45.2128C100.061 45.5878 99.4988 45.5878 99.1238 45.2128C96.1238 42.2128 92.4363 40.0878 88.5613 39.0878C87.9988 38.9628 75.3113 35.7128 66.4363 44.5253C60.1238 50.8378 58.3113 60.5253 61.8113 69.2128C61.9988 69.7128 61.7488 70.2128 61.3113 70.4628C61.1238 70.4628 60.9988 70.5253 60.8738 70.5253Z" fill="#C284A7"/>
<path d="M62.9356 84.3379C67.4919 84.3379 71.1855 80.6442 71.1855 76.0879C71.1855 71.5315 67.4919 67.8379 62.9356 67.8379C58.3792 67.8379 54.6855 71.5315 54.6855 76.0879C54.6855 80.6442 58.3792 84.3379 62.9356 84.3379Z" fill="#ECA98E"/>
<path d="M66.5603 79.4627C66.4978 79.4627 66.4978 79.4627 66.4353 79.4627C65.3728 79.0877 64.7478 78.5252 64.6228 77.7752C64.4353 76.7752 65.2478 75.7752 65.6853 75.3377L60.3728 71.0877C60.2478 70.9627 60.1853 70.7752 60.3103 70.6502C60.4353 70.5252 60.6228 70.4627 60.7478 70.5877L66.3103 75.0252C66.3728 75.0877 66.4353 75.1502 66.4353 75.2752C66.4353 75.3377 66.3728 75.4627 66.3103 75.5252C65.9353 75.8377 65.0603 76.8377 65.1853 77.6502C65.2478 78.1502 65.7478 78.5877 66.6228 78.8377C66.8103 78.9002 66.8728 79.0877 66.8103 79.2127C66.8103 79.4002 66.6853 79.4627 66.5603 79.4627Z" fill="#071725"/>
<path d="M107.997 86.7134C105.997 86.9009 103.997 87.0259 101.997 87.2134C103.122 85.5259 103.997 83.7134 104.685 81.7134C105.81 83.3384 107.997 86.7134 107.997 86.7134Z" fill="#4C5079"/>
<path d="M66.748 83.5259C67.0605 83.2759 67.248 82.9009 67.248 82.4634C67.3105 81.5884 66.6231 80.9009 65.7481 80.8384C64.8731 80.7759 64.1855 81.4634 64.123 82.3384C64.123 82.9009 64.3731 83.4009 64.8106 83.6509C63.3731 86.6509 60.6855 92.7759 60.6855 92.7759C60.6855 92.7759 72.498 92.2759 72.1855 92.0259C72.0605 91.8384 68.498 86.2759 66.748 83.5259Z" fill="#4C5079"/>
<path d="M111.622 216.775C111.622 216.025 111.622 215.275 111.622 214.525C111.56 209.088 111.497 202.9 111.435 196.213C111.435 195.338 111.435 194.525 111.435 193.65C111.372 187.775 111.31 181.588 111.247 175.275C111.247 174.338 111.247 173.4 111.185 172.463C111.122 165.588 110.997 158.65 110.935 151.9C110.935 150.9 110.935 149.9 110.872 148.9C110.81 142.713 110.685 136.713 110.622 131.213C110.622 130.15 110.56 129.15 110.56 128.15C110.435 121.15 110.31 114.963 110.122 110.088C110.06 109.088 110.06 108.088 110.06 107.213C109.997 105.963 109.997 104.9 109.935 103.9C109.935 103.525 109.935 103.15 109.872 102.775C104.81 101.088 99.4971 99.9629 93.9971 99.4629C94.0596 100.338 94.0596 101.213 94.1221 102.088C93.9346 102.088 93.8096 102.213 93.8096 102.4L94.8096 131.65L71.0596 102.525C70.9346 102.4 70.7471 102.4 70.6221 102.463C70.3096 102.088 69.9346 101.65 69.6221 101.213C69.6221 101.088 69.5596 101.025 69.5596 100.9C67.9971 101.275 66.4346 101.65 64.9346 102.15C62.8721 102.775 60.8721 103.463 58.8721 104.275C58.3721 104.463 57.8721 104.713 57.3721 104.963C60.6221 121.65 66.8096 153.65 72.3096 181.9C72.4971 182.838 72.6846 183.713 72.8096 184.588C74.9346 195.588 76.9346 205.963 78.6221 214.463C78.7471 214.963 78.8096 215.463 78.9346 215.963C78.9971 216.275 79.0596 216.588 79.1221 216.9C79.2471 217.525 79.3721 218.15 79.4971 218.775C79.8721 220.713 80.2471 222.525 80.5596 224.213C86.3096 224.275 92.0596 224.338 97.7471 224.4C102.435 224.463 107.06 224.463 111.747 224.525C111.685 222.338 111.685 219.65 111.622 216.775Z" fill="#C284A7"/>
<path d="M64.4971 110.151C65.3255 110.151 65.9971 109.479 65.9971 108.651C65.9971 107.822 65.3255 107.151 64.4971 107.151C63.6687 107.151 62.9971 107.822 62.9971 108.651C62.9971 109.479 63.6687 110.151 64.4971 110.151Z" fill="#4C5079"/>
<path d="M96.8719 108.651C96.8719 109.464 96.1844 110.151 95.3719 110.151C95.1219 110.151 94.8719 110.089 94.6843 110.026C94.5593 109.964 94.4968 107.401 94.6218 107.339C94.8718 107.214 95.1219 107.151 95.3719 107.151C96.1844 107.151 96.8719 107.776 96.8719 108.651Z" fill="#4C5079"/>
<path d="M110.186 110.088C109.561 109.901 109.123 109.338 109.123 108.651C109.123 108.026 109.498 107.463 110.123 107.213C110.123 108.151 110.123 109.088 110.186 110.088Z" fill="#4C5079"/>
<path d="M71.9355 119.776C72.764 119.776 73.4355 119.105 73.4355 118.276C73.4355 117.448 72.764 116.776 71.9355 116.776C71.1071 116.776 70.4355 117.448 70.4355 118.276C70.4355 119.105 71.1071 119.776 71.9355 119.776Z" fill="#4C5079"/>
<path d="M102.811 119.776C103.639 119.776 104.311 119.105 104.311 118.276C104.311 117.448 103.639 116.776 102.811 116.776C101.982 116.776 101.311 117.448 101.311 118.276C101.311 119.105 101.982 119.776 102.811 119.776Z" fill="#4C5079"/>
<path d="M64.4981 131.214C65.3265 131.214 65.9981 130.542 65.9981 129.714C65.9981 128.885 65.3265 128.214 64.4981 128.214C63.6696 128.214 62.998 128.885 62.998 129.714C62.998 130.542 63.6696 131.214 64.4981 131.214Z" fill="#4C5079"/>
<path d="M79.748 131.214C80.5765 131.214 81.248 130.542 81.248 129.714C81.248 128.885 80.5765 128.214 79.748 128.214C78.9196 128.214 78.248 128.885 78.248 129.714C78.248 130.542 78.9196 131.214 79.748 131.214Z" fill="#4C5079"/>
<path d="M96.8722 129.713C96.8722 130.526 96.2472 131.213 95.4347 131.213H95.3722C95.3097 131.213 95.1847 131.213 95.1222 131.213C94.9972 131.213 94.9347 128.213 94.9972 128.213C95.1222 128.213 95.1847 128.151 95.3097 128.151H95.3722C96.1847 128.151 96.8722 128.838 96.8722 129.713Z" fill="#4C5079"/>
<path d="M110.623 131.214C109.748 131.214 109.123 130.526 109.123 129.714C109.123 128.901 109.748 128.214 110.623 128.214C110.561 129.151 110.623 130.214 110.623 131.214Z" fill="#4C5079"/>
<path d="M72.3106 142.339C73.139 142.339 73.8106 141.667 73.8106 140.839C73.8106 140.01 73.139 139.339 72.3106 139.339C71.4821 139.339 70.8105 140.01 70.8105 140.839C70.8105 141.667 71.4821 142.339 72.3106 142.339Z" fill="#4C5079"/>
<path d="M87.5605 142.339C88.389 142.339 89.0605 141.667 89.0605 140.839C89.0605 140.01 88.389 139.339 87.5605 139.339C86.7321 139.339 86.0605 140.01 86.0605 140.839C86.0605 141.667 86.7321 142.339 87.5605 142.339Z" fill="#4C5079"/>
<path d="M103.186 142.339C104.014 142.339 104.686 141.667 104.686 140.839C104.686 140.01 104.014 139.339 103.186 139.339C102.357 139.339 101.686 140.01 101.686 140.839C101.686 141.667 102.357 142.339 103.186 142.339Z" fill="#4C5079"/>
<path d="M79.748 151.964C80.5765 151.964 81.248 151.292 81.248 150.464C81.248 149.635 80.5765 148.964 79.748 148.964C78.9196 148.964 78.248 149.635 78.248 150.464C78.248 151.292 78.9196 151.964 79.748 151.964Z" fill="#1F0D60"/>
<path d="M95.373 151.964C96.2015 151.964 96.873 151.292 96.873 150.464C96.873 149.635 96.2015 148.964 95.373 148.964C94.5446 148.964 93.873 149.635 93.873 150.464C93.873 151.292 94.5446 151.964 95.373 151.964Z" fill="#1F0D60"/>
<path d="M110.936 151.901C110.811 151.901 110.748 151.964 110.623 151.964C109.811 151.964 109.123 151.276 109.123 150.464C109.123 149.651 109.811 148.964 110.623 148.964C110.748 148.964 110.811 148.964 110.936 148.964C110.936 149.901 110.936 150.901 110.936 151.901Z" fill="#1F0D60"/>
<path d="M95.4959 132.651C95.4959 132.776 95.4334 132.901 95.3084 132.963C95.2459 132.963 95.2459 132.963 95.1834 132.963C95.1209 132.963 94.9959 132.901 94.9334 132.838L70.5584 102.963C70.4334 102.838 70.4959 102.651 70.6209 102.526C70.7459 102.401 70.9334 102.463 71.0584 102.588L94.8084 131.713V131.088L94.6834 128.276L94.0584 109.401L93.9959 107.963L93.8084 102.463C93.8084 102.276 93.9334 102.151 94.1209 102.151C94.3084 102.151 94.4334 102.276 94.4334 102.463L94.6209 107.401L94.6834 110.088L95.3084 128.213L95.4334 131.276L95.4959 132.651Z" fill="#4C5079"/>
<path d="M81.5596 229.837L47.1221 227.337C44.7471 227.15 42.3721 227.025 39.9971 226.837C40.4346 222.4 40.8721 217.962 41.3096 213.525C41.3096 213.4 41.3096 213.337 41.3096 213.212C41.3096 213.087 41.3096 213.025 41.3721 212.9C42.4346 202.15 43.4346 191.4 44.4971 180.65C37.9346 195.462 26.4346 207.087 12.7471 212.9C12.4971 213.025 12.2471 213.087 11.9971 213.212C11.7471 213.337 11.4971 213.4 11.2471 213.525C7.62207 214.962 3.87207 215.962 -0.00293064 216.525C-0.127931 216.525 -0.190431 216.525 -0.315431 216.587C-0.440431 216.587 -0.502931 216.587 -0.627931 216.65C-1.37793 216.775 -2.12793 216.837 -2.87793 216.9C-2.87793 216.9 -31.1279 219.65 -53.5029 193.462C-52.1904 189.837 -50.8779 186.212 -49.5029 182.587C-47.2529 177.275 -45.0654 171.962 -42.8154 166.65C-42.8154 166.65 -42.8154 166.65 -42.8779 166.587C-20.0654 184.525 -7.19043 185.275 0.559566 182.025C12.7471 176.837 16.2471 159.9 23.6221 142.525C29.1221 129.587 36.7471 116.462 51.6221 107.962C53.9971 106.587 56.0596 105.65 57.3721 105.087C57.6846 106.587 60.1221 119.15 63.5596 136.775C66.0596 149.525 69.0596 164.962 72.1221 180.837C72.3096 181.712 74.9971 195.525 78.3721 212.962C78.3721 213.087 78.4346 213.15 78.4346 213.275C78.4346 213.4 78.4971 213.462 78.4971 213.587C78.8721 215.65 79.3096 217.775 79.7471 219.9C80.2471 223.15 80.9346 226.462 81.5596 229.837Z" stroke="#677973" stroke-width="1.27193" stroke-miterlimit="10" stroke-linecap="round" stroke-linejoin="round"/>
<path d="M189.684 238.587C180.934 243.275 172.184 247.962 163.434 252.65C163.434 252.65 163.371 252.65 163.371 252.712C161.309 247.65 159.246 242.65 157.184 237.587C157.121 237.462 157.121 237.4 157.059 237.275C156.996 237.15 156.996 237.087 156.934 236.962C153.746 229.15 150.559 221.4 147.371 213.65C147.309 213.525 147.309 213.462 147.246 213.337C147.184 213.212 147.184 213.15 147.121 213.025C142.809 202.525 138.559 192.025 134.246 181.587C134.996 192.087 135.684 202.587 136.434 213.025C136.434 213.15 136.434 213.212 136.434 213.337C136.434 213.462 136.434 213.525 136.434 213.65C136.934 220.337 137.371 227.087 137.809 233.775C136.434 233.9 134.996 233.962 133.559 234.087C126.246 234.587 118.934 235.087 111.621 235.65C111.621 235.025 111.621 231.025 111.559 224.775C111.559 223.15 111.559 221.337 111.496 219.4C111.496 217.65 111.496 215.712 111.434 213.775V213.462C111.434 213.337 111.434 213.275 111.434 213.15C111.246 191.462 110.934 158.4 110.496 133.462C110.246 120.712 110.059 110.087 109.809 104.15C109.809 103.775 109.809 103.4 109.746 103.025C113.434 104.275 116.934 105.775 120.246 107.525C129.809 112.712 136.809 119.9 142.121 127.65C147.996 136.15 151.934 145.275 155.246 153.15C159.246 162.587 163.246 172.212 167.246 181.962C167.559 182.712 167.871 183.525 168.184 184.275C168.496 185.025 168.809 185.837 169.121 186.587C170.684 190.4 172.184 194.212 173.746 198.087C173.871 198.4 173.996 198.712 174.121 199.025L174.496 199.962C176.246 204.337 177.996 208.712 179.746 213.212C179.809 213.337 179.809 213.4 179.871 213.525C179.934 213.65 179.934 213.712 179.996 213.837C182.996 221.462 185.996 229.275 188.996 237.15C189.059 237.275 189.059 237.337 189.121 237.462C189.184 237.587 189.184 237.65 189.246 237.775C189.434 237.9 189.559 238.212 189.684 238.587Z" stroke="#677973" stroke-width="1.27193" stroke-miterlimit="10" stroke-linecap="round" stroke-linejoin="round"/>
</g>
<defs>
<clipPath id="clip0_122_14571">
<path d="M0 75C0 33.5786 33.5786 0 75 0C116.421 0 150 33.5786 150 75C150 116.421 116.421 150 75 150C33.5786 150 0 116.421 0 75Z" fill="white"/>
</clipPath>
</defs>
</svg>
