<svg width="150" height="150" viewBox="0 0 150 150" fill="none" xmlns="http://www.w3.org/2000/svg">
<g clip-path="url(#clip0_122_14607)">
<path d="M0 75C0 33.5786 33.5786 0 75 0C116.421 0 150 33.5786 150 75C150 116.421 116.421 150 75 150C33.5786 150 0 116.421 0 75Z" fill="#B48070"/>
<path d="M174.25 157.711C173.625 157.586 173 157.398 172.375 157.273C165 155.586 157.563 153.836 150.188 152.148C149.875 152.086 149.5 152.023 149.125 151.898C148.812 151.836 148.438 151.773 148.125 151.648C146.625 149.023 145 146.523 143.313 144.148C140.625 140.461 137.625 137.148 134.312 134.211C129.5 130.023 124.375 127.148 118.812 125.086C118.375 124.898 117.938 124.773 117.5 124.586C110.312 122.148 102.562 121.148 94.0625 120.711V112.148C94.0625 112.148 89.875 112.086 83.8125 112.023C80.5 111.961 76.625 111.961 72.625 111.898C72.0625 111.898 71.5 111.898 70.9375 111.898C61.9375 111.836 52.25 111.773 45.9375 111.836C42.0625 111.898 39.4375 111.961 39.0625 112.086C38.875 115.523 38.75 118.961 38.5625 122.398C32.4375 123.273 26.4375 124.523 20.625 126.461C20.25 126.586 19.875 126.711 19.4375 126.898C10.0625 130.211 1.4375 135.273 -5.5 143.023C-5.5 143.023 -11.1875 149.398 -18.625 163.586L-19.1875 164.711C-23.1875 172.461 -27.625 182.398 -31.9375 194.711C-32.9375 197.648 -33.9375 200.648 -33.9375 200.648C-34.25 201.711 -34.625 202.773 -34.9375 203.836C-35.1875 204.586 -35.4375 205.398 -35.625 206.148C-35.625 206.148 -35.625 206.148 -35.625 206.211C-35.1875 206.711 -34.6875 207.211 -34.25 207.711C-34.1875 207.773 -34.125 207.836 -34 207.961C-33.75 208.211 -33.5625 208.461 -33.5 208.461C-29.25 213.023 -25 216.898 -25 216.898C-24.0625 217.773 -21.75 219.836 -18.5625 222.336C-18.5 222.398 -18.25 222.586 -17.9375 222.836C-15.6875 224.648 -13.0625 226.648 -10 228.711C-6.25 231.273 -3.1875 233.023 -0.875 234.336C3.875 237.086 7.625 238.836 8.625 239.336C8.625 239.336 13.625 241.711 17.6875 243.211C18.0625 243.336 19.25 243.773 20.5625 244.273C20.75 244.336 21.25 244.523 21.875 244.773C22.0625 244.836 22.3125 244.898 22.5625 245.023C22.5625 245.023 22.5625 245.023 22.625 245.023C22.6875 245.023 22.75 245.086 22.8125 245.086C22.875 245.086 23 245.148 23.125 245.211C23.25 245.273 23.4375 245.336 23.5625 245.336C23.75 245.398 23.9375 245.461 24.125 245.523C24.625 245.648 25.1875 245.898 25.8125 246.086C26.0625 246.148 26.25 246.211 26.5 246.273C27.4375 246.586 28.5625 246.898 29.8125 247.273C30 247.336 30.125 247.336 30.3125 247.398C31.0625 247.586 31.8125 247.836 32.5 248.023C33 248.148 33.5625 248.273 34.0625 248.398C34.625 248.523 35.1875 248.711 35.75 248.836C37.5 249.273 39.3125 249.648 41.3125 250.023C41.875 250.148 42.4375 250.211 43.0625 250.336C45.5625 250.773 48.125 251.148 50.625 251.461C51.6875 251.586 52.875 251.711 54.125 251.836C56.6875 252.086 59.1875 252.273 61.625 252.336C62.1875 252.336 62.6875 252.398 63.25 252.398C64 252.398 64.75 252.461 65.5 252.461C66.75 252.461 67.875 252.461 69.0625 252.461C70.6875 252.461 72.125 252.398 73.4375 252.336C73.4375 252.336 73.5 252.336 73.5625 252.336C73.9375 252.336 74.3125 252.336 74.6875 252.273C74.6875 252.273 74.75 252.273 74.8125 252.273C75.4375 252.211 76.125 252.211 76.75 252.148C80.0625 251.961 83.4375 251.586 86.6875 251.148C87.3125 251.086 87.9375 250.961 88.5625 250.898C90.25 250.648 92 250.336 93.9375 249.961H94.0625C94.5 249.898 94.9375 249.773 95.375 249.711C95.875 249.586 96.3125 249.523 96.8125 249.398C97.5 249.273 98.125 249.086 98.8125 248.961C99 248.898 99.1875 248.898 99.375 248.836C99.9375 248.711 100.5 248.523 101.125 248.398C101.313 248.336 101.5 248.273 101.625 248.273C102.062 248.148 102.5 248.023 102.938 247.961C108.812 246.398 114.625 244.398 120.25 242.086L120.75 241.898C120.813 241.898 120.875 241.836 120.938 241.836C121.5 241.586 122 241.398 122.562 241.148H122.625C122.75 241.086 122.812 241.086 122.938 241.023C123.562 240.773 124.125 240.461 124.688 240.211L124.875 240.148C125.375 239.898 125.812 239.711 126.25 239.523H126.312C126.375 239.523 126.375 239.461 126.438 239.461C127 239.211 127.5 238.961 128 238.711C128.125 238.648 128.188 238.586 128.313 238.586C128.938 238.273 129.438 238.023 130 237.711C130.375 237.523 130.75 237.336 131.062 237.148L131.312 237.023H131.375C131.688 236.836 132 236.711 132.312 236.523L132.625 236.336C133.25 235.961 133.938 235.648 134.563 235.273C135.25 234.898 135.875 234.523 136.562 234.148C136.688 234.086 136.75 234.023 136.875 233.961C137.5 233.586 138.188 233.211 138.875 232.773C139.563 232.336 140.25 231.898 141 231.461C141.688 231.023 142.375 230.586 143.062 230.148L143.125 230.086C143.812 229.648 144.438 229.211 145.062 228.773C145.75 228.336 146.438 227.836 147.063 227.398C147.75 226.898 148.375 226.461 149.062 225.961C149.562 225.586 150.125 225.211 150.625 224.773C150.75 224.648 150.875 224.586 151 224.523L151.125 224.461C151.75 223.961 152.375 223.461 153 222.961L153.062 222.898C153.625 222.461 154.188 222.023 154.688 221.586L155 221.336C155.625 220.836 156.188 220.336 156.812 219.836L156.875 219.773C157.375 219.336 157.875 218.898 158.375 218.461C159.125 217.836 159.875 217.148 160.562 216.461C161.125 215.961 161.688 215.398 162.25 214.898L162.312 214.836C162.938 214.273 163.5 213.711 164.062 213.148C164.125 213.086 164.188 213.023 164.25 212.961C164.5 212.711 164.75 212.461 165 212.211C165.062 212.148 165.125 212.086 165.188 212.023C165.563 211.648 165.938 211.273 166.312 210.898C166.562 210.648 166.75 210.461 166.938 210.273C167.438 209.773 167.938 209.211 168.438 208.711C168.562 208.586 168.75 208.398 168.875 208.273C173.562 203.211 177.813 197.773 181.688 192.148C182 191.711 182.25 191.273 182.562 190.898C182.812 185.211 183 179.461 183.25 173.773C183.25 173.023 183.313 172.273 183.313 171.523C183.5 167.648 183.625 163.836 183.812 159.961C180.5 159.148 177.375 158.461 174.25 157.711Z" fill="#615D80"/>
<path d="M74.8135 252.523C74.4385 252.523 74.0635 252.586 73.6885 252.586C73.626 252.586 73.626 252.586 73.5635 252.586C66.8135 211.211 47.4385 177.586 33.001 152.523C27.251 142.523 22.3135 134.023 19.4385 127.086C19.8135 126.961 20.1885 126.836 20.626 126.648C23.501 133.461 28.3135 141.898 34.126 151.898C48.5635 177.086 68.0635 210.836 74.8135 252.523Z" fill="#FFB800"/>
<path d="M132.313 236.461C132.25 236.461 132.25 236.523 132.187 236.523C131.875 236.711 131.562 236.836 131.25 237.023H131.187C129 233.273 126.875 229.461 124.75 225.461C113.937 205.211 103.875 182.336 96.125 160.086C88.5 138.336 80.0625 122.273 70.8125 112.023C71.375 112.023 71.9375 112.023 72.5 112.023C81.5625 122.398 89.875 138.336 97.3125 159.648C104.375 179.773 110.875 196.648 125.25 223.648C128.125 229.086 130.625 233.523 132.313 236.461Z" fill="#B7A066"/>
<path d="M165.125 212.086C165.062 212.148 165 212.211 164.937 212.273C164.687 212.523 164.437 212.773 164.187 213.023C158.25 202.336 151.5 191.523 145.062 181.273C142.687 177.523 140.437 173.836 138.187 170.273C127 152.148 118.062 136.148 117.375 124.711C117.812 124.836 118.25 125.023 118.687 125.211C119.625 136.148 128.187 151.648 138.562 168.586C141 172.523 143.5 176.586 146.062 180.648C152.562 190.773 159.25 201.461 165.125 212.086Z" fill="#B7A066"/>
<path d="M197.313 117.961C194.188 127.586 192.5 135.524 186 153.086C184.938 156.024 184.125 158.399 183.625 159.899C180.5 159.149 177.375 158.461 174.25 157.711C173.625 157.586 173 157.399 172.375 157.274C165 155.586 157.563 153.836 150.188 152.149C149.563 151.961 144.125 150.961 143.062 150.836C143.062 150.336 143.125 149.649 143.187 148.836C143.25 147.149 143.313 145.649 143.313 144.211C143.625 132.399 143 127.461 143 120.211C143 117.461 145.312 115.211 148.062 115.211C150.812 115.211 153.062 117.524 153.062 120.274L153 130.149C153.563 128.899 154.125 127.649 154.75 126.399L162.875 104.024C163.812 101.399 166.687 100.086 169.312 101.024C170.5 101.461 171.375 102.274 171.937 103.274L172.375 102.024C173.25 99.3986 176.062 97.9611 178.687 98.8361C181.187 99.6486 182.563 102.274 182 104.774C182.063 104.711 182.125 104.711 182.187 104.649C183.437 103.711 185.125 103.399 186.688 103.899C189.313 104.774 190.75 107.586 189.875 110.211L189 112.899C189.062 112.836 189.062 112.836 189.125 112.774C190.438 111.524 192.375 110.961 194.25 111.524C196.75 112.461 198.188 115.336 197.313 117.961Z" fill="#FF1EAD"/>
<path d="M109 67.2739C108.812 63.0239 108.562 58.2739 107.625 53.5864C91.8125 52.7114 76.0625 51.8989 60.25 51.0239C60.75 52.7114 63 61.0864 58.375 69.7739C54.75 76.5864 48.9375 79.8364 45.25 81.2739C45.5 82.0239 45.875 112.024 45.875 112.024C52.1875 111.961 61.875 112.024 70.875 112.086C71.4375 112.086 72 112.086 72.5625 112.086C76.625 112.086 80.4375 112.149 83.75 112.211V109.086C87.4375 108.899 90.875 108.711 94.625 106.649C109.687 98.3989 109.187 71.4614 109 67.2739Z" fill="#F4C8B5"/>
<path d="M83.1873 109.337C79.8748 109.337 63.6873 108.774 55.6873 98.5867C55.5623 98.4617 55.6248 98.2742 55.7498 98.1492C55.8748 98.0242 56.0623 98.0867 56.1873 98.2117C64.8748 109.274 83.5623 108.712 83.7498 108.712C83.9373 108.712 84.0623 108.837 84.0623 109.024C84.0623 109.212 83.9373 109.337 83.7498 109.337C83.7498 109.337 83.4998 109.337 83.1873 109.337Z" fill="#15212B"/>
<path d="M107.626 53.5865C107.626 53.524 107.626 53.524 107.626 53.5865C107.563 53.0865 107.438 52.649 107.313 52.149C107.188 51.524 107.001 50.899 106.813 50.3365C105.563 45.774 103.001 39.649 97.7508 34.274C88.7508 25.0865 71.9383 18.274 60.6883 25.5865C57.1258 27.899 54.8759 31.149 53.3759 34.149C53.7509 31.0865 53.8134 27.9615 52.1259 28.5865C50.0633 29.399 50.8758 33.9615 51.6258 36.9615C48.1258 35.274 43.8133 33.5865 42.1258 34.774C41.6258 35.149 41.3758 35.7115 41.5008 36.274C41.9383 37.8365 45.8758 38.5865 49.6883 38.9615C45.8133 40.649 37.8758 45.2115 35.2508 54.7115C32.5633 64.399 36.5633 75.0865 45.2508 81.274C48.8758 79.8365 54.7508 76.5865 58.3759 69.774C63.0009 61.0865 60.7509 52.7115 60.2509 51.024C76.0634 51.8365 91.8134 52.7115 107.626 53.5865Z" fill="#15212B"/>
<path d="M96.749 70.0869C97.8881 70.0869 98.8115 69.1635 98.8115 68.0244C98.8115 66.8853 97.8881 65.9619 96.749 65.9619C95.6099 65.9619 94.6865 66.8853 94.6865 68.0244C94.6865 69.1635 95.6099 70.0869 96.749 70.0869Z" fill="#15212B"/>
<path d="M73.8125 69.8364C74.9516 69.8364 75.875 68.913 75.875 67.7739C75.875 66.6348 74.9516 65.7114 73.8125 65.7114C72.6734 65.7114 71.75 66.6348 71.75 67.7739C71.75 68.913 72.6734 69.8364 73.8125 69.8364Z" fill="#15212B"/>
<path d="M88.249 97.2114C82.624 97.2114 77.874 90.8364 77.6865 90.5239C77.624 90.3989 77.624 90.2739 77.6865 90.2114C77.749 90.1489 77.874 90.0239 77.999 90.0864L95.3115 92.3364C95.4365 92.3364 95.499 92.3989 95.5615 92.5239C95.624 92.6489 95.624 92.7114 95.499 92.8364C93.4365 95.7114 90.999 97.2114 88.249 97.2114C88.3115 97.2114 88.249 97.2114 88.249 97.2114ZM78.6865 90.7739C79.999 92.3364 83.9365 96.5864 88.249 96.5864C88.249 96.5864 88.249 96.5864 88.3115 96.5864C90.6865 96.5864 92.8115 95.3364 94.6865 92.8364L78.6865 90.7739Z" fill="#15212B"/>
<path d="M85.6256 81.3359C85.5006 81.3359 85.3756 81.211 85.3131 81.086C85.2506 80.8985 85.3756 80.7734 85.5631 80.7109L92.1881 79.086L87.6881 63.211C87.6256 63.0235 87.7506 62.8985 87.8756 62.836C88.0631 62.7735 88.1881 62.8985 88.2506 63.0235L92.8756 79.211C92.8756 79.2735 92.8756 79.3984 92.8756 79.4609C92.8756 79.5234 92.7506 79.586 92.6881 79.586L85.7506 81.3359C85.6881 81.3359 85.6881 81.3359 85.6256 81.3359Z" fill="#15212B"/>
<path d="M72.8445 61.0348C76.6096 60.1572 79.4522 58.5465 79.1936 57.4371C78.935 56.3278 75.6732 56.1399 71.9081 57.0174C68.143 57.895 65.3004 59.5058 65.559 60.6151C65.8176 61.7245 69.0794 61.9124 72.8445 61.0348Z" fill="#15212B"/>
<path d="M104.823 60.3812C105.082 59.2719 102.239 57.6612 98.4744 56.7836C94.7093 55.906 91.4475 56.0939 91.1889 57.2032C90.9303 58.3126 93.7729 59.9233 97.538 60.8009C101.303 61.6785 104.565 61.4906 104.823 60.3812Z" fill="#15212B"/>
<path d="M89.499 84.6492C89.499 84.6492 73.1865 81.8992 69.4365 86.5867L88.999 88.7117L89.499 84.6492Z" fill="#15212B"/>
<path d="M92.0615 84.8994C92.0615 84.8994 107.062 86.8994 108.812 92.3994L91.249 88.8369L92.0615 84.8994Z" fill="#15212B"/>
<path d="M37.375 94.1489C44.7618 94.1489 50.75 88.1607 50.75 80.7739C50.75 73.3871 44.7618 67.3989 37.375 67.3989C29.9882 67.3989 24 73.3871 24 80.7739C24 88.1607 29.9882 94.1489 37.375 94.1489Z" fill="#F4C8B5"/>
<path d="M43.8125 86.5234C43.75 86.5234 43.6875 86.5234 43.625 86.4609C42.25 85.5859 41.625 84.6484 41.625 83.6484C41.6875 82.4609 42.6875 81.5859 43.25 81.1484L32.625 70.2734C32.5 70.1484 32.5 69.9609 32.625 69.8359C32.75 69.7109 32.9375 69.7109 33.0625 69.8359L43.9375 80.9609C44 81.0234 44.0625 81.1484 44 81.2109C43.9375 81.2734 43.9375 81.3984 43.8125 81.4609C43.8125 81.4609 42.1875 82.3984 42.125 83.6484C42.125 84.3984 42.6875 85.2109 43.8125 85.9609C43.9375 86.0859 44 86.2734 43.875 86.3984C44.0625 86.5234 43.9375 86.5234 43.8125 86.5234Z" fill="#15212B"/>
</g>
<defs>
<clipPath id="clip0_122_14607">
<path d="M0 75C0 33.5786 33.5786 0 75 0C116.421 0 150 33.5786 150 75C150 116.421 116.421 150 75 150C33.5786 150 0 116.421 0 75Z" fill="white"/>
</clipPath>
</defs>
</svg>
