<svg width="240" height="200" viewBox="0 0 240 200" fill="none" xmlns="http://www.w3.org/2000/svg">
<mask id="mask0_708_24683" style="mask-type:alpha" maskUnits="userSpaceOnUse" x="20" y="4" width="200" height="193">
<path d="M20 16C20 9.37259 25.3726 4 32 4H208C214.627 4 220 9.37258 220 16V196.771H20V16Z" fill="url(#paint0_linear_708_24683)"/>
</mask>
<g mask="url(#mask0_708_24683)">
<path d="M28 20C28 11.1634 35.1634 4 44 4H196C204.837 4 212 11.1634 212 20V197H28V20Z" fill="#DDE1F8"/>
</g>
<mask id="mask1_708_24683" style="mask-type:alpha" maskUnits="userSpaceOnUse" x="28" y="11" width="184" height="181">
<path d="M28.4344 23.2302C28.4344 16.6028 33.807 11.2302 40.4344 11.2302H199.567C206.194 11.2302 211.567 16.6028 211.567 23.2302V191.953H28.4344V23.2302Z" fill="url(#paint1_linear_708_24683)"/>
</mask>
<g mask="url(#mask1_708_24683)">
<path fill-rule="evenodd" clip-rule="evenodd" d="M85.6156 14.0001H48.9996C42.3722 14.0001 36.9996 19.3726 36.9996 26.0001V194H203V26.0001C203 19.3726 197.627 14.0001 191 14.0001H154.386L153.496 18.453C152.935 21.2575 150.472 23.2763 147.612 23.2763H92.3896C89.5295 23.2763 87.067 21.2575 86.5061 18.453L85.6156 14.0001Z" fill="white"/>
<rect x="48.9998" y="41" width="60" height="6" rx="2" fill="#3F51B5" fill-opacity="0.08"/>
<rect x="48.9998" y="56" width="140" height="6" rx="2" fill="#3F51B5" fill-opacity="0.08"/>
</g>
<path d="M13 82C13 77.5817 16.5817 74 21 74H219C223.418 74 227 77.5817 227 82V138C227 142.418 223.418 146 219 146H21C16.5817 146 13 142.418 13 138V82Z" fill="url(#paint2_linear_708_24683)"/>
<line x1="30" y1="128.5" x2="210" y2="128.5" stroke="#3F51B5"/>
<rect x="30" y="91" width="140" height="12" rx="2" fill="#3F51B5" fill-opacity="0.3"/>
<path d="M34.1426 114.469V123H33.0293V114.469H34.1426ZM36.8848 114.469V115.395H30.293V114.469H36.8848ZM40.1813 123.117C39.7398 123.117 39.3395 123.043 38.9801 122.895C38.6246 122.742 38.318 122.529 38.0602 122.256C37.8063 121.982 37.6109 121.658 37.4742 121.283C37.3375 120.908 37.2691 120.498 37.2691 120.053V119.807C37.2691 119.291 37.3453 118.832 37.4977 118.43C37.65 118.023 37.857 117.68 38.1188 117.398C38.3805 117.117 38.6773 116.904 39.0094 116.76C39.3414 116.615 39.6852 116.543 40.0406 116.543C40.4938 116.543 40.8844 116.621 41.2125 116.777C41.5445 116.934 41.816 117.152 42.027 117.434C42.2379 117.711 42.3941 118.039 42.4957 118.418C42.5973 118.793 42.648 119.203 42.648 119.648V120.135H37.9137V119.25H41.5641V119.168C41.5484 118.887 41.4898 118.613 41.3883 118.348C41.2906 118.082 41.1344 117.863 40.9195 117.691C40.7047 117.52 40.4117 117.434 40.0406 117.434C39.7945 117.434 39.568 117.486 39.3609 117.592C39.1539 117.693 38.9762 117.846 38.8277 118.049C38.6793 118.252 38.5641 118.5 38.482 118.793C38.4 119.086 38.359 119.424 38.359 119.807V120.053C38.359 120.354 38.4 120.637 38.482 120.902C38.568 121.164 38.691 121.395 38.8512 121.594C39.0152 121.793 39.2125 121.949 39.443 122.062C39.6773 122.176 39.943 122.232 40.2398 122.232C40.6227 122.232 40.9469 122.154 41.2125 121.998C41.4781 121.842 41.7105 121.633 41.9098 121.371L42.566 121.893C42.4293 122.1 42.2555 122.297 42.0445 122.484C41.8336 122.672 41.5738 122.824 41.2652 122.941C40.9605 123.059 40.5992 123.117 40.1813 123.117ZM45.1418 117.92V123H44.052V116.66H45.0832L45.1418 117.92ZM44.9191 119.59L44.4152 119.572C44.4191 119.139 44.4758 118.738 44.5852 118.371C44.6945 118 44.8566 117.678 45.0715 117.404C45.2863 117.131 45.5539 116.92 45.8742 116.771C46.1945 116.619 46.5656 116.543 46.9875 116.543C47.2844 116.543 47.5578 116.586 47.8078 116.672C48.0578 116.754 48.2746 116.885 48.4582 117.064C48.6418 117.244 48.7844 117.475 48.8859 117.756C48.9875 118.037 49.0383 118.377 49.0383 118.775V123H47.9543V118.828C47.9543 118.496 47.8977 118.23 47.7844 118.031C47.675 117.832 47.5188 117.688 47.3156 117.598C47.1125 117.504 46.8742 117.457 46.6008 117.457C46.2805 117.457 46.0129 117.514 45.798 117.627C45.5832 117.74 45.4113 117.896 45.2824 118.096C45.1535 118.295 45.0598 118.523 45.0012 118.781C44.9465 119.035 44.9191 119.305 44.9191 119.59ZM49.0266 118.992L48.3 119.215C48.3039 118.867 48.3605 118.533 48.4699 118.213C48.5832 117.893 48.7453 117.607 48.9563 117.357C49.1711 117.107 49.4348 116.91 49.7473 116.766C50.0598 116.617 50.4172 116.543 50.8195 116.543C51.1594 116.543 51.4602 116.588 51.7219 116.678C51.9875 116.768 52.2102 116.906 52.3898 117.094C52.5734 117.277 52.7121 117.514 52.8059 117.803C52.8996 118.092 52.9465 118.436 52.9465 118.834V123H51.8566V118.822C51.8566 118.467 51.8 118.191 51.6867 117.996C51.5773 117.797 51.4211 117.658 51.218 117.58C51.0188 117.498 50.7805 117.457 50.5031 117.457C50.2648 117.457 50.0539 117.498 49.8703 117.58C49.6867 117.662 49.5324 117.775 49.4074 117.92C49.2824 118.061 49.1867 118.223 49.1203 118.406C49.0578 118.59 49.0266 118.785 49.0266 118.992ZM55.8211 117.879V125.438H54.7313V116.66H55.7273L55.8211 117.879ZM60.0926 119.777V119.9C60.0926 120.361 60.0379 120.789 59.9285 121.184C59.8191 121.574 59.659 121.914 59.448 122.203C59.241 122.492 58.9852 122.717 58.6805 122.877C58.3758 123.037 58.0262 123.117 57.6316 123.117C57.2293 123.117 56.8738 123.051 56.5652 122.918C56.2566 122.785 55.9949 122.592 55.7801 122.338C55.5652 122.084 55.3934 121.779 55.2645 121.424C55.1395 121.068 55.0535 120.668 55.0066 120.223V119.566C55.0535 119.098 55.1414 118.678 55.2703 118.307C55.3992 117.936 55.5691 117.619 55.7801 117.357C55.9949 117.092 56.2547 116.891 56.5594 116.754C56.8641 116.613 57.2156 116.543 57.6141 116.543C58.0125 116.543 58.366 116.621 58.6746 116.777C58.9832 116.93 59.243 117.148 59.4539 117.434C59.6648 117.719 59.823 118.061 59.9285 118.459C60.0379 118.854 60.0926 119.293 60.0926 119.777ZM59.0027 119.9V119.777C59.0027 119.461 58.9695 119.164 58.9031 118.887C58.8367 118.605 58.7332 118.359 58.5926 118.148C58.4559 117.934 58.2801 117.766 58.0652 117.645C57.8504 117.52 57.5945 117.457 57.2977 117.457C57.0242 117.457 56.7859 117.504 56.5828 117.598C56.3836 117.691 56.2137 117.818 56.073 117.979C55.9324 118.135 55.8172 118.314 55.7273 118.518C55.6414 118.717 55.577 118.924 55.534 119.139V120.656C55.6121 120.93 55.7215 121.188 55.8621 121.43C56.0027 121.668 56.1902 121.861 56.4246 122.01C56.659 122.154 56.9539 122.227 57.3094 122.227C57.6023 122.227 57.8543 122.166 58.0652 122.045C58.2801 121.92 58.4559 121.75 58.5926 121.535C58.7332 121.32 58.8367 121.074 58.9031 120.797C58.9695 120.516 59.0027 120.217 59.0027 119.9ZM62.8031 114V123H61.7133V114H62.8031ZM68.4316 121.916V118.652C68.4316 118.402 68.3809 118.186 68.2793 118.002C68.1816 117.814 68.0332 117.67 67.834 117.568C67.6348 117.467 67.3887 117.416 67.0957 117.416C66.8223 117.416 66.582 117.463 66.375 117.557C66.1719 117.65 66.0117 117.773 65.8945 117.926C65.7812 118.078 65.7246 118.242 65.7246 118.418H64.6406C64.6406 118.191 64.6992 117.967 64.8164 117.744C64.9336 117.521 65.1016 117.32 65.3203 117.141C65.543 116.957 65.8086 116.812 66.1172 116.707C66.4297 116.598 66.7773 116.543 67.1602 116.543C67.6211 116.543 68.0273 116.621 68.3789 116.777C68.7344 116.934 69.0117 117.17 69.2109 117.486C69.4141 117.799 69.5156 118.191 69.5156 118.664V121.617C69.5156 121.828 69.5332 122.053 69.5684 122.291C69.6074 122.529 69.6641 122.734 69.7383 122.906V123H68.6074C68.5527 122.875 68.5098 122.709 68.4785 122.502C68.4473 122.291 68.4316 122.096 68.4316 121.916ZM68.6191 119.156L68.6309 119.918H67.5352C67.2266 119.918 66.9512 119.943 66.709 119.994C66.4668 120.041 66.2637 120.113 66.0996 120.211C65.9355 120.309 65.8105 120.432 65.7246 120.58C65.6387 120.725 65.5957 120.895 65.5957 121.09C65.5957 121.289 65.6406 121.471 65.7305 121.635C65.8203 121.799 65.9551 121.93 66.1348 122.027C66.3184 122.121 66.543 122.168 66.8086 122.168C67.1406 122.168 67.4336 122.098 67.6875 121.957C67.9414 121.816 68.1426 121.645 68.291 121.441C68.4434 121.238 68.5254 121.041 68.5371 120.85L69 121.371C68.9727 121.535 68.8984 121.717 68.7773 121.916C68.6562 122.115 68.4941 122.307 68.291 122.49C68.0918 122.67 67.8535 122.82 67.5762 122.941C67.3027 123.059 66.9941 123.117 66.6504 123.117C66.2207 123.117 65.8438 123.033 65.5195 122.865C65.1992 122.697 64.9492 122.473 64.7695 122.191C64.5938 121.906 64.5059 121.588 64.5059 121.236C64.5059 120.896 64.5723 120.598 64.7051 120.34C64.8379 120.078 65.0293 119.861 65.2793 119.689C65.5293 119.514 65.8301 119.381 66.1816 119.291C66.5332 119.201 66.9258 119.156 67.3594 119.156H68.6191ZM74.025 116.66V117.492H70.5973V116.66H74.025ZM71.7574 115.119H72.8414V121.43C72.8414 121.645 72.8746 121.807 72.941 121.916C73.0074 122.025 73.0934 122.098 73.1988 122.133C73.3043 122.168 73.4176 122.186 73.5387 122.186C73.6285 122.186 73.7223 122.178 73.8199 122.162C73.9215 122.143 73.9977 122.127 74.0484 122.115L74.0543 123C73.9684 123.027 73.8551 123.053 73.7145 123.076C73.5777 123.104 73.4117 123.117 73.2164 123.117C72.9508 123.117 72.7066 123.064 72.484 122.959C72.2613 122.854 72.0836 122.678 71.9508 122.432C71.8219 122.182 71.7574 121.846 71.7574 121.424V115.119ZM78.0773 123.117C77.6359 123.117 77.2355 123.043 76.8762 122.895C76.5207 122.742 76.2141 122.529 75.9562 122.256C75.7023 121.982 75.507 121.658 75.3703 121.283C75.2336 120.908 75.1652 120.498 75.1652 120.053V119.807C75.1652 119.291 75.2414 118.832 75.3937 118.43C75.5461 118.023 75.7531 117.68 76.0148 117.398C76.2766 117.117 76.5734 116.904 76.9055 116.76C77.2375 116.615 77.5812 116.543 77.9367 116.543C78.3898 116.543 78.7805 116.621 79.1086 116.777C79.4406 116.934 79.7121 117.152 79.923 117.434C80.134 117.711 80.2902 118.039 80.3918 118.418C80.4934 118.793 80.5441 119.203 80.5441 119.648V120.135H75.8098V119.25H79.4602V119.168C79.4445 118.887 79.3859 118.613 79.2844 118.348C79.1867 118.082 79.0305 117.863 78.8156 117.691C78.6008 117.52 78.3078 117.434 77.9367 117.434C77.6906 117.434 77.4641 117.486 77.257 117.592C77.05 117.693 76.8723 117.846 76.7238 118.049C76.5754 118.252 76.4602 118.5 76.3781 118.793C76.2961 119.086 76.2551 119.424 76.2551 119.807V120.053C76.2551 120.354 76.2961 120.637 76.3781 120.902C76.4641 121.164 76.5871 121.395 76.7473 121.594C76.9113 121.793 77.1086 121.949 77.3391 122.062C77.5734 122.176 77.8391 122.232 78.1359 122.232C78.5187 122.232 78.843 122.154 79.1086 121.998C79.3742 121.842 79.6066 121.633 79.8059 121.371L80.4621 121.893C80.3254 122.1 80.1516 122.297 79.9406 122.484C79.7297 122.672 79.4699 122.824 79.1613 122.941C78.8566 123.059 78.4953 123.117 78.0773 123.117ZM87.6234 122.227C87.8812 122.227 88.1195 122.174 88.3383 122.068C88.557 121.963 88.7367 121.818 88.8773 121.635C89.018 121.447 89.098 121.234 89.1176 120.996H90.1488C90.1293 121.371 90.0023 121.721 89.768 122.045C89.5375 122.365 89.2348 122.625 88.8598 122.824C88.4848 123.02 88.0727 123.117 87.6234 123.117C87.1469 123.117 86.7309 123.033 86.3754 122.865C86.0238 122.697 85.7309 122.467 85.4965 122.174C85.266 121.881 85.0922 121.545 84.975 121.166C84.8617 120.783 84.8051 120.379 84.8051 119.953V119.707C84.8051 119.281 84.8617 118.879 84.975 118.5C85.0922 118.117 85.266 117.779 85.4965 117.486C85.7309 117.193 86.0238 116.963 86.3754 116.795C86.7309 116.627 87.1469 116.543 87.6234 116.543C88.1195 116.543 88.5531 116.645 88.9242 116.848C89.2953 117.047 89.5863 117.32 89.7973 117.668C90.0121 118.012 90.1293 118.402 90.1488 118.84H89.1176C89.098 118.578 89.0238 118.342 88.8949 118.131C88.7699 117.92 88.598 117.752 88.3793 117.627C88.1645 117.498 87.9125 117.434 87.6234 117.434C87.2914 117.434 87.0121 117.5 86.7855 117.633C86.5629 117.762 86.3852 117.938 86.2523 118.16C86.1234 118.379 86.0297 118.623 85.9711 118.893C85.9164 119.158 85.8891 119.43 85.8891 119.707V119.953C85.8891 120.23 85.9164 120.504 85.9711 120.773C86.0258 121.043 86.1176 121.287 86.2465 121.506C86.3793 121.725 86.557 121.9 86.7797 122.033C87.0062 122.162 87.2875 122.227 87.6234 122.227ZM91.2305 119.9V119.766C91.2305 119.309 91.2969 118.885 91.4297 118.494C91.5625 118.1 91.7539 117.758 92.0039 117.469C92.2539 117.176 92.5566 116.949 92.9121 116.789C93.2676 116.625 93.666 116.543 94.1074 116.543C94.5527 116.543 94.9531 116.625 95.3086 116.789C95.668 116.949 95.9727 117.176 96.2227 117.469C96.4766 117.758 96.6699 118.1 96.8027 118.494C96.9355 118.885 97.002 119.309 97.002 119.766V119.9C97.002 120.357 96.9355 120.781 96.8027 121.172C96.6699 121.562 96.4766 121.904 96.2227 122.197C95.9727 122.486 95.6699 122.713 95.3145 122.877C94.9629 123.037 94.5645 123.117 94.1191 123.117C93.6738 123.117 93.2734 123.037 92.918 122.877C92.5625 122.713 92.2578 122.486 92.0039 122.197C91.7539 121.904 91.5625 121.562 91.4297 121.172C91.2969 120.781 91.2305 120.357 91.2305 119.9ZM92.3145 119.766V119.9C92.3145 120.217 92.3516 120.516 92.4258 120.797C92.5 121.074 92.6113 121.32 92.7598 121.535C92.9121 121.75 93.1016 121.92 93.3281 122.045C93.5547 122.166 93.8184 122.227 94.1191 122.227C94.416 122.227 94.6758 122.166 94.8984 122.045C95.125 121.92 95.3125 121.75 95.4609 121.535C95.6094 121.32 95.7207 121.074 95.7949 120.797C95.873 120.516 95.9121 120.217 95.9121 119.9V119.766C95.9121 119.453 95.873 119.158 95.7949 118.881C95.7207 118.6 95.6074 118.352 95.4551 118.137C95.3066 117.918 95.1191 117.746 94.8926 117.621C94.6699 117.496 94.4082 117.434 94.1074 117.434C93.8105 117.434 93.5488 117.496 93.3223 117.621C93.0996 117.746 92.9121 117.918 92.7598 118.137C92.6113 118.352 92.5 118.6 92.4258 118.881C92.3516 119.158 92.3145 119.453 92.3145 119.766ZM102.507 121.77V114H103.597V123H102.601L102.507 121.77ZM98.2418 119.9V119.777C98.2418 119.293 98.3004 118.854 98.4176 118.459C98.5387 118.061 98.7086 117.719 98.9273 117.434C99.15 117.148 99.4137 116.93 99.7184 116.777C100.027 116.621 100.371 116.543 100.75 116.543C101.148 116.543 101.496 116.613 101.793 116.754C102.093 116.891 102.347 117.092 102.554 117.357C102.765 117.619 102.931 117.936 103.052 118.307C103.173 118.678 103.257 119.098 103.304 119.566V120.105C103.261 120.57 103.177 120.988 103.052 121.359C102.931 121.73 102.765 122.047 102.554 122.309C102.347 122.57 102.093 122.771 101.793 122.912C101.492 123.049 101.14 123.117 100.738 123.117C100.367 123.117 100.027 123.037 99.7184 122.877C99.4137 122.717 99.15 122.492 98.9273 122.203C98.7086 121.914 98.5387 121.574 98.4176 121.184C98.3004 120.789 98.2418 120.361 98.2418 119.9ZM99.3316 119.777V119.9C99.3316 120.217 99.3629 120.514 99.4254 120.791C99.4918 121.068 99.5934 121.312 99.7301 121.523C99.8668 121.734 100.041 121.9 100.252 122.021C100.463 122.139 100.714 122.197 101.007 122.197C101.367 122.197 101.662 122.121 101.892 121.969C102.127 121.816 102.314 121.615 102.455 121.365C102.595 121.115 102.705 120.844 102.783 120.551V119.139C102.736 118.924 102.668 118.717 102.578 118.518C102.492 118.314 102.379 118.135 102.238 117.979C102.101 117.818 101.931 117.691 101.728 117.598C101.529 117.504 101.293 117.457 101.019 117.457C100.722 117.457 100.466 117.52 100.252 117.645C100.041 117.766 99.8668 117.934 99.7301 118.148C99.5934 118.359 99.4918 118.605 99.4254 118.887C99.3629 119.164 99.3316 119.461 99.3316 119.777ZM108.066 123.117C107.624 123.117 107.224 123.043 106.864 122.895C106.509 122.742 106.202 122.529 105.945 122.256C105.691 121.982 105.495 121.658 105.359 121.283C105.222 120.908 105.154 120.498 105.154 120.053V119.807C105.154 119.291 105.23 118.832 105.382 118.43C105.534 118.023 105.741 117.68 106.003 117.398C106.265 117.117 106.562 116.904 106.894 116.76C107.226 116.615 107.57 116.543 107.925 116.543C108.378 116.543 108.769 116.621 109.097 116.777C109.429 116.934 109.7 117.152 109.911 117.434C110.122 117.711 110.279 118.039 110.38 118.418C110.482 118.793 110.532 119.203 110.532 119.648V120.135H105.798V119.25H109.448V119.168C109.433 118.887 109.374 118.613 109.273 118.348C109.175 118.082 109.019 117.863 108.804 117.691C108.589 117.52 108.296 117.434 107.925 117.434C107.679 117.434 107.452 117.486 107.245 117.592C107.038 117.693 106.861 117.846 106.712 118.049C106.564 118.252 106.448 118.5 106.366 118.793C106.284 119.086 106.243 119.424 106.243 119.807V120.053C106.243 120.354 106.284 120.637 106.366 120.902C106.452 121.164 106.575 121.395 106.736 121.594C106.9 121.793 107.097 121.949 107.327 122.062C107.562 122.176 107.827 122.232 108.124 122.232C108.507 122.232 108.831 122.154 109.097 121.998C109.363 121.842 109.595 121.633 109.794 121.371L110.45 121.893C110.314 122.1 110.14 122.297 109.929 122.484C109.718 122.672 109.458 122.824 109.15 122.941C108.845 123.059 108.484 123.117 108.066 123.117Z" fill="#3F51B5" fill-opacity="0.5"/>
<path d="M190.286 126.687L193.712 134.329C193.905 134.762 193.727 135.267 193.311 135.468L190.317 136.919C189.9 137.12 189.414 136.935 189.221 136.502L185.718 128.692L181.404 133.174C181.08 133.511 180.563 133.511 180.239 133.174C180.085 133.014 180 132.797 180 132.565V110.858C180 110.385 180.37 110 180.826 110C181.034 110 181.227 110.08 181.381 110.224L196.729 124.73C197.069 125.051 197.092 125.588 196.783 125.941C196.644 126.101 196.443 126.206 196.235 126.222L190.286 126.687Z" fill="#3F51B5"/>
<defs>
<linearGradient id="paint0_linear_708_24683" x1="120" y1="4" x2="120" y2="196.771" gradientUnits="userSpaceOnUse">
<stop/>
<stop offset="1" stop-opacity="0"/>
</linearGradient>
<linearGradient id="paint1_linear_708_24683" x1="120.001" y1="11.2302" x2="120.001" y2="191.953" gradientUnits="userSpaceOnUse">
<stop/>
<stop offset="1" stop-opacity="0"/>
</linearGradient>
<linearGradient id="paint2_linear_708_24683" x1="120" y1="87" x2="120" y2="204" gradientUnits="userSpaceOnUse">
<stop stop-color="white"/>
<stop offset="1" stop-color="white" stop-opacity="0"/>
</linearGradient>
</defs>
</svg>
