<svg width="240" height="200" viewBox="0 0 240 200" fill="none" xmlns="http://www.w3.org/2000/svg">
<mask id="mask0_708_24614" style="mask-type:alpha" maskUnits="userSpaceOnUse" x="20" y="4" width="200" height="193">
<path d="M20 16C20 9.37259 25.3726 4 32 4H208C214.627 4 220 9.37258 220 16V196.771H20V16Z" fill="url(#paint0_linear_708_24614)"/>
</mask>
<g mask="url(#mask0_708_24614)">
<path d="M20 20C20 11.1635 27.1634 4 36 4H204C212.837 4 220 11.1634 220 20V196.771H20V20Z" fill="#DDE1F8"/>
</g>
<mask id="mask1_708_24614" style="mask-type:alpha" maskUnits="userSpaceOnUse" x="28" y="11" width="184" height="181">
<path d="M28.4344 23.2302C28.4344 16.6028 33.807 11.2302 40.4344 11.2302H199.567C206.194 11.2302 211.567 16.6028 211.567 23.2302V191.953H28.4344V23.2302Z" fill="url(#paint1_linear_708_24614)"/>
</mask>
<g mask="url(#mask1_708_24614)">
<path fill-rule="evenodd" clip-rule="evenodd" d="M85.5432 13.6382H40.4342C33.8068 13.6382 28.4342 19.0108 28.4342 25.6383V194.361H211.567V25.6382C211.567 19.0108 206.194 13.6382 199.567 13.6382H154.459L153.496 18.453C152.935 21.2575 150.472 23.2763 147.612 23.2763H92.3896C89.5295 23.2763 87.067 21.2575 86.5061 18.453L85.5432 13.6382Z" fill="white"/>
</g>
<path d="M71.8069 37.7363H58.1201C53.7018 37.7363 50.1201 41.318 50.1201 45.7363V59.4231" stroke="#7986CB" stroke-width="2"/>
<path d="M170.603 37.7363H184.29C188.708 37.7363 192.29 41.318 192.29 45.7363V59.4231" stroke="#7986CB" stroke-width="2"/>
<path d="M71.8069 179.904H58.1201C53.7018 179.904 50.1201 176.323 50.1201 171.904V158.218" stroke="#7986CB" stroke-width="2"/>
<path d="M170.603 179.904H184.29C188.708 179.904 192.29 176.323 192.29 171.904V158.218" stroke="#7986CB" stroke-width="2"/>
<rect x="111" y="65" width="20" height="5" fill="#3F51B5"/>
<rect x="126" y="70" width="10" height="5" transform="rotate(90 126 70)" fill="#3F51B5"/>
<rect x="131" y="80" width="11" height="5" transform="rotate(90 131 80)" fill="#3F51B5"/>
<rect x="116" y="70" width="10" height="5" transform="rotate(90 116 70)" fill="#3F51B5"/>
<rect x="121" y="80" width="13" height="5" transform="rotate(90 121 80)" fill="#3F51B5"/>
<rect x="83" y="102" width="14" height="5" transform="rotate(90 83 102)" fill="#3F51B5"/>
<rect x="96" y="107" width="13" height="5" transform="rotate(-180 96 107)" fill="#3F51B5"/>
<rect x="106" y="102" width="10" height="5" transform="rotate(-180 106 102)" fill="#3F51B5"/>
<rect x="101" y="111" width="14" height="5" transform="rotate(-90 101 111)" fill="#3F51B5"/>
<rect x="106" y="111" width="16" height="5" fill="#3F51B5"/>
<rect x="111" y="97" width="20" height="5" fill="#3F51B5"/>
<rect x="131" y="97" width="25" height="5" transform="rotate(90 131 97)" fill="#3F51B5"/>
<rect x="116" y="118" width="15" height="5" fill="#3F51B5"/>
<rect x="111" y="123" width="5" height="5" fill="#3F51B5"/>
<rect x="111" y="133" width="5" height="19" fill="#3F51B5"/>
<rect x="121" y="139" width="5" height="13" fill="#3F51B5"/>
<rect x="132" y="138" width="5" height="11" transform="rotate(90 132 138)" fill="#3F51B5"/>
<rect x="140" y="133" width="5" height="8" transform="rotate(90 140 133)" fill="#3F51B5"/>
<rect x="140" y="147" width="5" height="8" transform="rotate(90 140 147)" fill="#3F51B5"/>
<rect x="145" y="147" width="5" height="5" transform="rotate(90 145 147)" fill="#3F51B5"/>
<rect x="116" y="128" width="5" height="5" fill="#3F51B5"/>
<rect x="135" y="123" width="5" height="5" fill="#3F51B5"/>
<rect x="116" y="143" width="5" height="5" fill="#3F51B5"/>
<rect x="131" y="102" width="14" height="5" fill="#3F51B5"/>
<rect x="155" y="97" width="10" height="5" fill="#3F51B5"/>
<rect width="14" height="5" transform="matrix(1 0 0 -1 151 126)" fill="#3F51B5"/>
<rect x="151" y="107" width="9" height="5" fill="#3F51B5"/>
<rect x="145" y="107" width="30" height="5" transform="rotate(90 145 107)" fill="#3F51B5"/>
<rect x="155" y="139" width="15" height="5" transform="rotate(-180 155 139)" fill="#3F51B5"/>
<rect x="158" y="139" width="8" height="8" transform="rotate(-180 158 139)" fill="#3F51B5"/>
<rect x="150" y="152" width="13" height="5" transform="rotate(-90 150 152)" fill="#3F51B5"/>
<rect x="160" y="152" width="10" height="5" transform="rotate(-90 160 152)" fill="#3F51B5"/>
<rect x="165" y="97" width="10" height="5" transform="rotate(90 165 97)" fill="#3F51B5"/>
<rect width="10" height="5" transform="matrix(-4.37114e-08 -1 -1 4.37114e-08 165 126)" fill="#3F51B5"/>
<rect x="116" y="97" width="16" height="5" transform="rotate(90 116 97)" fill="#3F51B5"/>
<rect x="96" y="116" width="9" height="5" transform="rotate(-90 96 116)" fill="#3F51B5"/>
<rect x="78" y="124" width="28" height="28" fill="#3F51B5"/>
<rect x="83.6001" y="129.6" width="16.8" height="16.8" fill="#929AC1"/>
<rect x="86.3999" y="132.4" width="11.2" height="11.2" fill="#3F51B5"/>
<rect x="137" y="65" width="28" height="28" fill="#3F51B5"/>
<rect x="142.6" y="70.6001" width="16.8" height="16.8" fill="#D9DCEB"/>
<rect x="145.4" y="73.3999" width="11.2" height="11.2" fill="#3F51B5"/>
<rect x="78" y="65" width="28" height="28" fill="#3F51B5"/>
<rect x="83.6001" y="70.6001" width="16.8" height="16.8" fill="#D9DCEB"/>
<rect x="86.3999" y="73.3999" width="11.2" height="11.2" fill="#3F51B5"/>
<rect x="52.5293" y="107.615" width="137.349" height="55.4217" fill="url(#paint2_linear_708_24614)"/>
<rect x="52.5293" y="107.615" width="137.349" height="2.40964" fill="#7986CB"/>
<defs>
<linearGradient id="paint0_linear_708_24614" x1="120" y1="4" x2="120" y2="196.771" gradientUnits="userSpaceOnUse">
<stop/>
<stop offset="1" stop-opacity="0"/>
</linearGradient>
<linearGradient id="paint1_linear_708_24614" x1="120.001" y1="50" x2="120.001" y2="191.953" gradientUnits="userSpaceOnUse">
<stop/>
<stop offset="1" stop-opacity="0"/>
</linearGradient>
<linearGradient id="paint2_linear_708_24614" x1="121.204" y1="107.615" x2="121.204" y2="163.037" gradientUnits="userSpaceOnUse">
<stop stop-color="#A4B1F5"/>
<stop offset="1" stop-color="#7986CB" stop-opacity="0"/>
</linearGradient>
</defs>
</svg>
