<svg width="3391" height="869" viewBox="0 0 3391 869" fill="none" xmlns="http://www.w3.org/2000/svg">
<g clip-path="url(#clip0_1944_28509)">
<path d="M1193.49 428.262L1182.16 424.798L1192.93 420.069C1224.81 405.881 1237.21 389.648 1237.21 361.994C1237.21 311.226 1186.92 292.072 1174.47 290.05C1161.87 288.167 1149.13 287.278 1136.39 287.39H1035C1022.68 287.39 1001 287 1001 287V577.848C1001 577.848 1024.16 577.328 1035 577.328H1173.66C1183.32 577.328 1192.29 573.533 1200.22 570.175C1201.86 569.478 1203.45 568.815 1204.94 568.201C1215.96 563.566 1251.92 544.744 1251.92 497.262C1251.95 462.348 1233.36 440.428 1193.49 428.262ZM1055.32 324.125H1112.59C1135.87 324.125 1184.31 324.125 1184.31 366.179C1184.31 385.096 1175.13 398.161 1157.04 405.018C1142.65 410.469 1126.14 410.469 1118.22 410.469H1055.32V324.125ZM1179.22 530.804C1168.41 537.638 1152.18 540.818 1128.08 540.818H1055.32V445.169H1125.94C1137.75 445.169 1196.96 447.463 1196.96 492.734C1196.96 510.788 1191.12 523.237 1179.22 530.804Z" fill="#08364D"/>
<path d="M1337.55 287V528.191C1337.55 541.361 1332.33 553.992 1323.03 563.304C1313.73 572.617 1301.11 577.848 1287.96 577.848V287H1337.55Z" fill="#08364D"/>
<path d="M1568.15 365.032V533.322C1567.21 544.981 1562.1 555.91 1553.76 564.092C1545.41 572.275 1534.39 577.161 1522.73 577.848H1519.41V550.431C1519.41 550.431 1518.77 551.199 1517.65 552.381C1510.75 559.612 1502.73 565.677 1493.89 570.341L1493.7 570.447C1484.89 575.162 1475.08 577.7 1465.09 577.848C1426.98 577.848 1413.72 575.247 1404 570.388C1394.12 565.636 1385.77 558.206 1379.89 548.941C1373.11 537.851 1369.66 521.405 1369.66 500.1V365.032H1418.68V478.794C1418.68 532.885 1445.37 544.235 1467.76 544.235C1469.62 544.235 1471.44 544.235 1473.2 544.058C1504.07 542.048 1518.42 522.292 1519.26 480.899C1519.26 479.622 1519.26 478.321 1519.26 476.997V365.032H1568.15Z" fill="#08364D"/>
<path d="M1785.87 513.412C1785.21 514.004 1756.77 542.97 1715.14 542.97C1689.29 542.97 1651.03 530.993 1651.03 487.508V483.086H1813.45C1813.45 483.086 1812.93 450.703 1805.19 430.024C1798.1 411.107 1783.93 388.643 1764.41 378.002C1748.79 369.502 1732.36 364.82 1710.53 364.82C1694.81 364.634 1679.18 367.264 1664.39 372.587C1651.16 377.721 1639.2 385.668 1629.33 395.879C1619.97 405.386 1612.81 416.837 1608.37 429.421C1603.33 443.687 1600.82 458.723 1600.95 473.852C1600.95 507.524 1611 528.57 1630.8 548.066C1650.61 567.562 1678.83 577.387 1714.8 577.387C1770.94 577.387 1799.06 550.076 1805.19 543.502C1808.26 540.204 1813.45 532.861 1813.45 532.861L1791.02 508.033L1785.87 513.412ZM1709.11 397.191C1735.4 397.191 1766.22 418.236 1766.22 458.435H1650.49C1650.49 414.689 1685.92 397.191 1709.09 397.191H1709.11Z" fill="#08364D"/>
<path d="M1944.11 577.848C1894.32 577.848 1866.17 549.035 1853.77 531.868C1846.32 521.701 1841.41 509.902 1839.43 497.451C1838.66 492.666 1838.26 487.827 1838.25 482.98L1885.49 483.263C1886.49 487.527 1887.81 491.708 1889.44 495.772C1893.86 505.952 1898.7 510.61 1902.86 516.132C1905.75 519.986 1922.07 539.163 1959.28 539.163C1975.91 539.163 1992.17 535.9 2003.92 530.213C2019.27 522.8 2027.29 513.661 2027.29 499.473C2027.29 473.71 2002.97 459.274 1990.11 455.266C1980.05 452.121 1966.37 448.705 1949.42 445.134C1931.59 441.38 1914.2 435.786 1897.52 428.44C1883.15 422.292 1871.61 413.826 1863.28 403.28C1854.94 392.734 1850.83 379.634 1850.83 364.063C1850.66 349.696 1855.33 335.692 1864.08 324.302C1872.58 313.07 1899.29 287 1962.33 287C1992.63 287 2016.13 293.834 2036.64 307.099C2054.73 318.804 2066.44 340.417 2068.53 350.845C2069.3 355.535 2069.69 360.279 2069.71 365.032H2023.65C2023.65 365.032 2013.02 323.084 1959.49 323.084C1917.29 323.084 1900.23 349.095 1900.23 359.949C1900.23 365.281 1901.41 373.391 1905.93 378.865C1910.53 384.212 1916.15 388.581 1922.46 391.717C1927.69 394.354 1934.27 396.104 1940.08 397.629L1943.53 398.563C1946.94 399.509 1952.98 400.797 1960.06 402.287C1965.88 403.469 1972.48 404.924 1978.85 406.401C1991.53 408.956 2004.04 412.296 2016.31 416.404C2027.75 419.912 2038.61 425.091 2048.55 431.774C2058.95 438.56 2067.33 447.026 2072.16 455.621C2076.69 463.673 2082.08 476.382 2082.08 491.09C2082.08 508.506 2076.48 524.467 2066.33 536.018C2042.55 563.199 2016.02 577.848 1944.11 577.848Z" fill="#08364D"/>
<path d="M2308.71 415.363C2300.44 399.154 2288.96 386.704 2274.7 378.333C2260.42 369.947 2244.14 365.58 2227.58 365.695C2208.39 365.695 2197.95 369.159 2184.22 375.39C2165.36 383.949 2148.83 406.413 2148.83 406.413V365.032H2102.77C2102.77 365.032 2102.87 383.063 2102.87 392.545V672.433H2103.36C2115.07 672.448 2126.34 667.935 2134.81 659.835C2143.28 651.736 2148.3 640.675 2148.83 628.96V624.762L2148.73 541.575L2152.82 548.113C2152.89 548.243 2160.75 557.087 2177.07 567.137C2190.93 575.661 2208.64 578.392 2224.45 578.392C2237.9 578.392 2259.7 573.805 2270.51 568.39C2281.5 562.892 2295 549.319 2304.23 536.798C2308.88 530.485 2312.5 524.443 2314.08 519.832C2317.23 510.742 2319.35 501.327 2320.41 491.764C2321.09 485.838 2321.42 479.877 2321.41 473.911C2321.37 451.4 2317.1 431.703 2308.71 415.363ZM2264.26 514.145C2259.64 524.446 2252.13 533.182 2242.65 539.293C2232.55 545.879 2220.47 546.635 2212.26 546.635C2192.9 546.635 2179.95 541.362 2169 529.019C2157.36 515.931 2151.46 497.534 2151.46 474.325C2151.46 449.769 2157.36 430.757 2169.17 417.858C2181.03 404.77 2195.88 398.137 2213.29 398.137C2224.11 398.072 2234.68 401.319 2243.6 407.442C2252.6 413.566 2259.71 422.375 2264.72 433.654C2269.63 444.708 2272.12 458.045 2272.12 473.308C2272.12 489.175 2269.48 502.878 2264.26 514.145Z" fill="#08364D"/>
<path d="M2550.91 446.931V537.555C2549.11 548.798 2543.36 559.031 2534.71 566.416C2526.05 573.801 2515.05 577.854 2503.67 577.848H2502.08V454.983C2502.08 436.728 2501.63 427.423 2491.45 415.281C2482 403.99 2470.61 399.379 2452.09 399.379C2440.14 399.379 2427.45 403.8 2419.19 411.202C2408.56 420.66 2401.48 432.483 2401.48 459.676V531.041C2400.89 543.647 2395.48 555.544 2386.37 564.261C2377.25 572.977 2365.13 577.844 2352.53 577.848H2352.46V287H2401.54V395.288L2405.36 391.256C2405.45 391.173 2415.61 380.119 2427.56 374.491C2447.64 365.032 2455.72 365.293 2471.26 365.032C2486.8 364.772 2504.44 369.052 2515.42 375.366C2527.02 382.034 2535.36 388.17 2541.06 398.149C2544.99 404.575 2547.64 411.701 2548.88 419.135C2550.33 428.326 2551.01 437.625 2550.91 446.931Z" fill="#08364D"/>
<path d="M2769.55 513.412C2768.89 514.004 2740.45 542.97 2698.83 542.97C2672.98 542.97 2634.72 530.993 2634.72 487.508V483.086H2797.13C2797.13 483.086 2796.62 450.703 2788.87 430.024C2781.78 411.107 2767.61 388.643 2748.09 378.002C2732.47 369.502 2716.04 364.82 2694.21 364.82C2678.49 364.634 2662.86 367.264 2648.07 372.587C2634.84 377.721 2622.88 385.668 2613.01 395.879C2603.65 405.386 2596.5 416.837 2592.05 429.421C2587.01 443.687 2584.51 458.723 2584.63 473.852C2584.63 507.524 2594.68 528.57 2614.49 548.066C2634.29 567.562 2662.51 577.387 2698.48 577.387C2754.62 577.387 2782.74 550.076 2788.87 543.502C2791.94 540.204 2797.13 532.861 2797.13 532.861L2774.7 508.033L2769.55 513.412ZM2692.79 397.191C2719.08 397.191 2749.9 418.236 2749.9 458.435H2634.17C2634.17 414.689 2669.6 397.191 2692.77 397.191H2692.79Z" fill="#08364D"/>
<path d="M2980.17 381.585V417.054C2980.17 417.054 2963.64 405.231 2944.75 401.684C2929.26 398.776 2914.04 400.502 2901.47 409.062C2896.59 412.384 2892.48 416.522 2886.35 425.91C2880.08 435.522 2877.62 449.189 2877.53 450.159V535.545C2875.98 547.144 2870.31 557.797 2861.57 565.563C2852.82 573.328 2841.58 577.688 2829.89 577.848V365.032H2877.52V401.909C2881.7 395.279 2886.69 389.191 2892.36 383.784C2901.9 374.857 2914.94 367.965 2925.85 366.215C2930.54 365.475 2935.28 365.08 2940.02 365.032C2948.29 365.032 2958.92 368.579 2966 372.126C2975.71 377.068 2980.17 381.585 2980.17 381.585Z" fill="#08364D"/>
<path d="M3173.41 513.412C3172.75 514.004 3144.32 542.97 3102.69 542.97C3076.84 542.97 3038.58 530.993 3038.58 487.508V483.086H3201C3201 483.086 3200.48 450.703 3192.73 430.024C3185.65 411.107 3171.48 388.643 3151.96 378.002C3136.33 369.502 3119.91 364.82 3098.07 364.82C3082.35 364.634 3066.73 367.264 3051.94 372.587C3038.7 377.721 3026.74 385.668 3016.88 395.879C3007.52 405.386 3000.36 416.837 2995.91 429.421C2990.88 443.687 2988.37 458.723 2988.5 473.852C2988.5 507.524 2998.55 528.57 3018.35 548.066C3038.16 567.562 3066.38 577.387 3102.35 577.387C3158.49 577.387 3186.61 550.076 3192.73 543.502C3195.8 540.204 3201 532.861 3201 532.861L3178.56 508.033L3173.41 513.412ZM3096.66 397.191C3122.94 397.191 3153.76 418.236 3153.76 458.435H3038.04C3038.04 414.689 3073.46 397.191 3096.63 397.191H3096.66Z" fill="#08364D"/>
<path d="M1193.49 428.262L1182.16 424.798L1192.93 420.069C1224.81 405.881 1237.21 389.648 1237.21 361.994C1237.21 311.226 1186.92 292.072 1174.47 290.05C1161.87 288.167 1149.13 287.278 1136.39 287.39H1035C1022.68 287.39 1001 287 1001 287V577.848C1001 577.848 1024.16 577.328 1035 577.328H1173.66C1183.32 577.328 1192.29 573.533 1200.22 570.175C1201.86 569.478 1203.45 568.815 1204.94 568.201C1215.96 563.566 1251.92 544.744 1251.92 497.262C1251.95 462.348 1233.36 440.428 1193.49 428.262ZM1055.32 324.125H1112.59C1135.87 324.125 1184.31 324.125 1184.31 366.179C1184.31 385.096 1175.13 398.161 1157.04 405.018C1142.65 410.469 1126.14 410.469 1118.22 410.469H1055.32V324.125ZM1179.22 530.804C1168.41 537.638 1152.18 540.818 1128.08 540.818H1055.32V445.169H1125.94C1137.75 445.169 1196.96 447.463 1196.96 492.734C1196.96 510.788 1191.12 523.237 1179.22 530.804Z" fill="#08364D"/>
<path d="M1337.55 287V528.191C1337.55 541.361 1332.33 553.992 1323.03 563.304C1313.73 572.617 1301.11 577.848 1287.96 577.848V287H1337.55Z" fill="#08364D"/>
<path d="M1568.15 365.032V533.322C1567.21 544.981 1562.1 555.91 1553.76 564.092C1545.41 572.275 1534.39 577.161 1522.73 577.848H1519.41V550.431C1519.41 550.431 1518.77 551.199 1517.65 552.381C1510.75 559.612 1502.73 565.677 1493.89 570.341L1493.7 570.447C1484.89 575.162 1475.08 577.7 1465.09 577.848C1426.98 577.848 1413.72 575.247 1404 570.388C1394.12 565.636 1385.77 558.206 1379.89 548.941C1373.11 537.851 1369.66 521.405 1369.66 500.1V365.032H1418.68V478.794C1418.68 532.885 1445.37 544.235 1467.76 544.235C1469.62 544.235 1471.44 544.235 1473.2 544.058C1504.07 542.048 1518.42 522.292 1519.26 480.899C1519.26 479.622 1519.26 478.321 1519.26 476.997V365.032H1568.15Z" fill="#08364D"/>
<path d="M1785.87 513.412C1785.21 514.004 1756.77 542.97 1715.14 542.97C1689.29 542.97 1651.03 530.993 1651.03 487.508V483.086H1813.45C1813.45 483.086 1812.93 450.703 1805.19 430.024C1798.1 411.107 1783.93 388.643 1764.41 378.002C1748.79 369.502 1732.36 364.82 1710.53 364.82C1694.81 364.634 1679.18 367.264 1664.39 372.587C1651.16 377.721 1639.2 385.668 1629.33 395.879C1619.97 405.386 1612.81 416.837 1608.37 429.421C1603.33 443.687 1600.82 458.723 1600.95 473.852C1600.95 507.524 1611 528.57 1630.8 548.066C1650.61 567.562 1678.83 577.387 1714.8 577.387C1770.94 577.387 1799.06 550.076 1805.19 543.502C1808.26 540.204 1813.45 532.861 1813.45 532.861L1791.02 508.033L1785.87 513.412ZM1709.11 397.191C1735.4 397.191 1766.22 418.236 1766.22 458.435H1650.49C1650.49 414.689 1685.92 397.191 1709.09 397.191H1709.11Z" fill="#08364D"/>
<path d="M1944.11 577.848C1894.32 577.848 1866.17 549.035 1853.77 531.868C1846.32 521.701 1841.41 509.902 1839.43 497.451C1838.66 492.666 1838.26 487.827 1838.25 482.98L1885.49 483.263C1886.49 487.527 1887.81 491.708 1889.44 495.772C1893.86 505.952 1898.7 510.61 1902.86 516.132C1905.75 519.986 1922.07 539.163 1959.28 539.163C1975.91 539.163 1992.17 535.9 2003.92 530.213C2019.27 522.8 2027.29 513.661 2027.29 499.473C2027.29 473.71 2002.97 459.274 1990.11 455.266C1980.05 452.121 1966.37 448.705 1949.42 445.134C1931.59 441.38 1914.2 435.786 1897.52 428.44C1883.15 422.292 1871.61 413.826 1863.28 403.28C1854.94 392.734 1850.83 379.634 1850.83 364.063C1850.66 349.696 1855.33 335.692 1864.08 324.302C1872.58 313.07 1899.29 287 1962.33 287C1992.63 287 2016.13 293.834 2036.64 307.099C2054.73 318.804 2066.44 340.417 2068.53 350.845C2069.3 355.535 2069.69 360.279 2069.71 365.032H2023.65C2023.65 365.032 2013.02 323.084 1959.49 323.084C1917.29 323.084 1900.23 349.095 1900.23 359.949C1900.23 365.281 1901.41 373.391 1905.93 378.865C1910.53 384.212 1916.15 388.581 1922.46 391.717C1927.69 394.354 1934.27 396.104 1940.08 397.629L1943.53 398.563C1946.94 399.509 1952.98 400.797 1960.06 402.287C1965.88 403.469 1972.48 404.924 1978.85 406.401C1991.53 408.956 2004.04 412.296 2016.31 416.404C2027.75 419.912 2038.61 425.091 2048.55 431.774C2058.95 438.56 2067.33 447.026 2072.16 455.621C2076.69 463.673 2082.08 476.382 2082.08 491.09C2082.08 508.506 2076.48 524.467 2066.33 536.018C2042.55 563.199 2016.02 577.848 1944.11 577.848Z" fill="#08364D"/>
<path d="M2308.71 415.363C2300.44 399.154 2288.96 386.704 2274.7 378.333C2260.42 369.947 2244.14 365.58 2227.58 365.695C2208.39 365.695 2197.95 369.159 2184.22 375.39C2165.36 383.949 2148.83 406.413 2148.83 406.413V365.032H2102.77C2102.77 365.032 2102.87 383.063 2102.87 392.545V672.433H2103.36C2115.07 672.448 2126.34 667.935 2134.81 659.835C2143.28 651.736 2148.3 640.675 2148.83 628.96V624.762L2148.73 541.575L2152.82 548.113C2152.89 548.243 2160.75 557.087 2177.07 567.137C2190.93 575.661 2208.64 578.392 2224.45 578.392C2237.9 578.392 2259.7 573.805 2270.51 568.39C2281.5 562.892 2295 549.319 2304.23 536.798C2308.88 530.485 2312.5 524.443 2314.08 519.832C2317.23 510.742 2319.35 501.327 2320.41 491.764C2321.09 485.838 2321.42 479.877 2321.41 473.911C2321.37 451.4 2317.1 431.703 2308.71 415.363ZM2264.26 514.145C2259.64 524.446 2252.13 533.182 2242.65 539.293C2232.55 545.879 2220.47 546.635 2212.26 546.635C2192.9 546.635 2179.95 541.362 2169 529.019C2157.36 515.931 2151.46 497.534 2151.46 474.325C2151.46 449.769 2157.36 430.757 2169.17 417.858C2181.03 404.77 2195.88 398.137 2213.29 398.137C2224.11 398.072 2234.68 401.319 2243.6 407.442C2252.6 413.566 2259.71 422.375 2264.72 433.654C2269.63 444.708 2272.12 458.045 2272.12 473.308C2272.12 489.175 2269.48 502.878 2264.26 514.145Z" fill="#08364D"/>
<path d="M2550.91 446.931V537.555C2549.11 548.798 2543.36 559.031 2534.71 566.416C2526.05 573.801 2515.05 577.854 2503.67 577.848H2502.08V454.983C2502.08 436.728 2501.63 427.423 2491.45 415.281C2482 403.99 2470.61 399.379 2452.09 399.379C2440.14 399.379 2427.45 403.8 2419.19 411.202C2408.56 420.66 2401.48 432.483 2401.48 459.676V531.041C2400.89 543.647 2395.48 555.544 2386.37 564.261C2377.25 572.977 2365.13 577.844 2352.53 577.848H2352.46V287H2401.54V395.288L2405.36 391.256C2405.45 391.173 2415.61 380.119 2427.56 374.491C2447.64 365.032 2455.72 365.293 2471.26 365.032C2486.8 364.772 2504.44 369.052 2515.42 375.366C2527.02 382.034 2535.36 388.17 2541.06 398.149C2544.99 404.575 2547.64 411.701 2548.88 419.135C2550.33 428.326 2551.01 437.625 2550.91 446.931Z" fill="#08364D"/>
<path d="M2769.55 513.412C2768.89 514.004 2740.45 542.97 2698.83 542.97C2672.98 542.97 2634.72 530.993 2634.72 487.508V483.086H2797.13C2797.13 483.086 2796.62 450.703 2788.87 430.024C2781.78 411.107 2767.61 388.643 2748.09 378.002C2732.47 369.502 2716.04 364.82 2694.21 364.82C2678.49 364.634 2662.86 367.264 2648.07 372.587C2634.84 377.721 2622.88 385.668 2613.01 395.879C2603.65 405.386 2596.5 416.837 2592.05 429.421C2587.01 443.687 2584.51 458.723 2584.63 473.852C2584.63 507.524 2594.68 528.57 2614.49 548.066C2634.29 567.562 2662.51 577.387 2698.48 577.387C2754.62 577.387 2782.74 550.076 2788.87 543.502C2791.94 540.204 2797.13 532.861 2797.13 532.861L2774.7 508.033L2769.55 513.412ZM2692.79 397.191C2719.08 397.191 2749.9 418.236 2749.9 458.435H2634.17C2634.17 414.689 2669.6 397.191 2692.77 397.191H2692.79Z" fill="#08364D"/>
<path d="M2980.17 381.585V417.054C2980.17 417.054 2963.64 405.231 2944.75 401.684C2929.26 398.776 2914.04 400.502 2901.47 409.062C2896.59 412.384 2892.48 416.522 2886.35 425.91C2880.08 435.522 2877.62 449.189 2877.53 450.159V535.545C2875.98 547.144 2870.31 557.797 2861.57 565.563C2852.82 573.328 2841.58 577.688 2829.89 577.848V365.032H2877.52V401.909C2881.7 395.279 2886.69 389.191 2892.36 383.784C2901.9 374.857 2914.94 367.965 2925.85 366.215C2930.54 365.475 2935.28 365.08 2940.02 365.032C2948.29 365.032 2958.92 368.579 2966 372.126C2975.71 377.068 2980.17 381.585 2980.17 381.585Z" fill="#08364D"/>
<path d="M3173.41 513.412C3172.75 514.004 3144.32 542.97 3102.69 542.97C3076.84 542.97 3038.58 530.993 3038.58 487.508V483.086H3201C3201 483.086 3200.48 450.703 3192.73 430.024C3185.65 411.107 3171.48 388.643 3151.96 378.002C3136.33 369.502 3119.91 364.82 3098.07 364.82C3082.35 364.634 3066.73 367.264 3051.94 372.587C3038.7 377.721 3026.74 385.668 3016.88 395.879C3007.52 405.386 3000.36 416.837 2995.91 429.421C2990.88 443.687 2988.37 458.723 2988.5 473.852C2988.5 507.524 2998.55 528.57 3018.35 548.066C3038.16 567.562 3066.38 577.387 3102.35 577.387C3158.49 577.387 3186.61 550.076 3192.73 543.502C3195.8 540.204 3201 532.861 3201 532.861L3178.56 508.033L3173.41 513.412ZM3096.66 397.191C3122.94 397.191 3153.76 418.236 3153.76 458.435H3038.04C3038.04 414.689 3073.46 397.191 3096.63 397.191H3096.66Z" fill="#08364D"/>
</g>
<path d="M329.728 358.5H334.728V353.5V353.447V353.395V353.342V353.289V353.236V353.184V353.131V353.078V353.026V352.973V352.921V352.868V352.815V352.763V352.71V352.658V352.605V352.553V352.5V352.448V352.395V352.343V352.291V352.238V352.186V352.134V352.081V352.029V351.977V351.924V351.872V351.82V351.768V351.716V351.663V351.611V351.559V351.507V351.455V351.403V351.351V351.299V351.247V351.195V351.143V351.091V351.04V350.988V350.936V350.884V350.832V350.781V350.729V350.677V350.626V350.574V350.523V350.471V350.42V350.368V350.317V350.265V350.214V350.163V350.111V350.06V350.009V349.958V349.906V349.855V349.804V349.753V349.702V349.651V349.6V349.549V349.499V349.448V349.397V349.346V349.295V349.245V349.194V349.144V349.093V349.043V348.992V348.942V348.891V348.841V348.791V348.74V348.69V348.64V348.59V348.54V348.49V348.44V348.39V348.34V348.29V348.24V348.191V348.141V348.091V348.042V347.992V347.943V347.893V347.844V347.794V347.745V347.696V347.647V347.598V347.548V347.499V347.45V347.401V347.353V347.304V347.255V347.206V347.158V347.109V347.06V347.012V346.963V346.915V346.867V346.818V346.77V346.722V346.674V346.626V346.578V346.53V346.482V346.434V346.387V346.339V346.291V346.244V346.196V346.149V346.102V346.054V346.007V345.96V345.913V345.866V345.819V345.772V345.725V345.678V345.631V345.585V345.538V345.492V345.445V345.399V345.353V345.306V345.26V345.214V345.168V345.122V345.076V345.03V344.985V344.939V344.893V344.848V344.802V344.757V344.712V344.666V344.621V344.576V344.531V344.486V344.441V344.397V344.352V344.307V344.263V344.218V344.174V344.13V344.085V344.041V343.997V343.953V343.909V343.865V343.822V343.778V343.734V343.691V343.647V343.604V343.561V343.518V343.475V343.432V343.389V343.346V343.303V343.26V343.218V343.175V343.133V343.09V343.048V343.006V342.964V342.922V342.88V342.838V342.797V342.755V342.714V342.672V342.631V342.59V342.548V342.507V342.466V342.425V342.385V342.344V342.303V342.263V342.222V342.182V342.142V342.102V342.062V342.022V341.982V341.942V341.903V341.863V341.824V341.784V341.745V341.706V341.667V341.628V341.589V341.55V341.512V341.473V341.435V341.396V341.358V341.32V341.282V341.244V341.206V341.168V341.131V341.093V341.056V341.019V340.981V340.944V340.907V340.871V340.834V340.797V340.761V340.724V340.688V340.652V340.615V340.579V340.544V340.508V340.472V340.437V340.401V340.366V340.331V340.296V340.261V340.226V340.191V340.156V340.122V340.087V340.053V340.019V339.985V339.951V339.917V339.883V339.85V339.816V339.783V339.75V339.716V339.683V339.651V339.618V339.585V339.553V339.52V339.488V339.456V339.424V339.392V339.36V339.328V339.297V339.265V339.234V339.203V339.172V339.141V339.11V339.08V339.049V339.019V338.988V338.958V338.928V338.898V338.868V338.839V338.809V338.78V338.751V338.722V338.693V338.664V338.635V338.606V338.578V338.55V338.521V338.493V338.465V338.438V338.41V338.382V338.355V338.328V338.301V338.274V338.247V338.22V338.194V338.167V338.141V338.115V338.089V338.063V338.037V338.012V337.986V337.961V337.936V337.911V337.886V337.861V337.836V337.812V337.788V337.763V337.739V337.715V337.692V337.668V337.645V337.621V337.598V337.575V337.552V337.53V337.507V337.485V337.462V337.44V337.418V337.396V337.375V337.353V337.332V337.311V337.29V337.269V337.248V337.227V337.207V337.187V337.166V337.146V337.127V337.107V337.087V337.068V337.049V337.03V337.011V336.992V336.973V336.955V336.937V336.919V336.901V336.883V336.865V336.848V336.83V336.813V336.796V336.779V336.763V336.746V336.73V336.713V336.697V336.682V336.666V336.65V336.635V336.62V336.605V336.59V336.575V336.56V336.546V336.532V336.518V336.504V336.49V336.477V336.463V336.45V336.437V336.424V336.411V336.399V336.387V336.374V336.362V336.35V336.339V336.327V336.316V336.305V336.294V336.283V336.272V336.262V336.252V336.242V336.232V336.222V336.212V336.203V336.194V336.185V336.178C341.539 256.536 408.378 194 489.799 194C558.949 194 617.615 239.116 637.875 301.543L639.04 305.134L642.812 304.997L684.042 303.497L690.284 303.27L688.696 297.229C665.513 209.051 585.282 144 489.799 144C382.099 144 293.76 226.774 284.887 332.192L284.869 332.401V332.611V353.5V358.5H289.869H329.728Z" fill="#056CE6" stroke="#056CE6" stroke-width="10"/>
<path d="M460.567 423.504L464.331 419.672L460.24 416.192C441.32 400.095 424.054 385.907 407.561 373.613C388.327 359.276 369.765 347.051 354.714 340.968C270.319 306.862 173.586 344.28 139.951 427.509C106.395 510.543 145.693 604.776 230.287 638.964C248.008 646.126 273.632 651.422 300.244 650.227C326.869 649.031 354.947 641.307 377.015 621.908C409.581 593.281 439.362 559.705 469.014 526.274C474.168 520.463 479.318 514.656 484.478 508.881C519.446 469.744 554.952 431.941 595.799 402.806C608.378 393.834 617.665 388.409 623.562 386.026C680.419 363.049 745.139 390.514 768.116 447.372C791.094 504.23 763.628 568.949 706.771 591.926C697.507 595.67 678.799 599.273 651.607 602.053C623.468 604.93 578.906 605.323 541.177 604.982C522.356 604.811 505.307 604.46 492.963 604.151C486.792 603.996 481.798 603.852 478.348 603.747C476.624 603.694 475.285 603.651 474.378 603.622C473.925 603.607 473.58 603.595 473.348 603.587L473.087 603.578L473.022 603.576L473.006 603.576L473.002 603.575C473.001 603.575 473.001 603.575 472.826 608.572L473.001 603.575L467.935 603.398L467.827 608.466L466.98 648.457L466.875 653.394L471.81 653.56L471.978 648.563C471.81 653.56 471.81 653.56 471.811 653.561L471.816 653.561L471.834 653.561L471.904 653.564L472.177 653.573C472.292 653.576 472.434 653.581 472.602 653.586C472.786 653.592 473.001 653.599 473.246 653.607C473.827 653.625 474.58 653.649 475.492 653.676C476.051 653.693 476.67 653.712 477.346 653.732C480.904 653.836 486.051 653.979 492.409 654.131C505.124 654.436 522.689 654.779 542.09 654.936C580.805 655.248 627.115 654.818 656.692 651.794C683.835 649.019 708.971 644.966 725.505 638.284C807.965 604.96 847.798 511.098 814.474 428.638C781.149 346.177 687.288 306.345 604.827 339.669C593.311 344.323 580.147 352.555 566.765 362.1C523.978 392.617 487.21 432.198 451.518 472.229C447.198 477.074 442.895 481.925 438.599 486.767C407.276 522.074 376.329 556.957 342.054 586.196C311.427 612.323 271.554 601.713 249.021 592.607C188.592 568.186 163.667 502.271 186.309 446.243C208.844 390.48 275.284 362.797 335.98 387.325C344.588 390.804 358.732 399.578 377.68 413.701C392.18 424.51 408.486 437.679 425.778 452.316L429.322 455.316L432.575 452.004L460.567 423.504Z" fill="#33A2F9" stroke="#33A2F9" stroke-width="10"/>
<defs>
<clipPath id="clip0_1944_28509">
<rect width="2200" height="385.433" fill="white" transform="translate(1001 287)"/>
</clipPath>
</defs>
</svg>
