<?xml version="1.0" standalone="no"?><!DOCTYPE svg PUBLIC "-//W3C//DTD SVG 1.1//EN" "http://www.w3.org/Graphics/SVG/1.1/DTD/svg11.dtd"><svg t="1651049708055" class="icon" viewBox="0 0 1024 1024" version="1.1" xmlns="http://www.w3.org/2000/svg" p-id="4076" xmlns:xlink="http://www.w3.org/1999/xlink" width="48" height="48"><defs><style type="text/css"></style></defs><path d="M949.888 546.304C905.984 437.376 782.08 384.896 673.28 428.8c-15.488 6.272-32.768 17.152-50.048 29.44-55.424 39.552-102.912 90.624-148.608 141.952-5.504 6.272-11.008 12.416-16.512 18.688-40.064 45.184-79.36 89.472-122.88 126.592-36.224 30.848-83.84 18.688-112.512 7.168-73.984-29.824-104.448-110.464-76.8-178.944 27.392-67.84 108.544-102.016 183.296-71.936 10.24 4.096 27.776 14.848 51.968 33.024 18.432 13.696 39.168 30.464 61.312 49.152l9.088 7.68 53.76-54.784-10.496-8.96c-24.192-20.608-46.464-38.912-67.712-54.784-24.704-18.432-49.024-34.432-69.12-42.624-6.912-2.816-13.824-5.248-20.864-7.296C349.056 328.192 430.08 254.72 528.384 254.72c85.632 0 158.336 55.936 183.424 133.248l2.944 9.216 78.464-2.816-4.096-15.488c-30.336-115.584-135.552-200.96-260.736-200.96-137.6 0-251.136 103.168-267.52 236.416-80.256 4.48-154.368 51.968-186.112 130.56-44.288 109.568 7.552 233.856 119.168 279.04 23.552 9.472 57.216 16.512 92.288 14.848 35.072-1.536 72.576-11.776 102.272-37.888 41.984-36.864 80.384-80.256 118.4-123.008 6.656-7.424 13.184-14.848 19.712-22.144 44.8-50.048 89.728-98.048 141.44-134.784 16-11.392 27.392-18.048 34.176-20.736 69.504-28.032 148.608 5.504 176.64 75.008 28.032 69.504-5.504 148.608-75.008 176.64-10.88 4.48-34.048 8.96-68.864 12.544-35.584 3.584-92.288 4.096-140.672 3.712-24.064-0.256-45.824-0.64-61.568-1.024-7.936-0.256-14.336-0.384-18.688-0.512-2.176 0-3.84-0.128-5.12-0.128h-1.664l-12.928-0.512-1.664 76.8 12.672 0.384h1.92c1.152 0 2.944 0.128 5.248 0.128 4.608 0.128 11.136 0.384 19.328 0.512 16.256 0.384 38.784 0.896 63.744 1.024 49.536 0.384 109.184-0.128 147.456-4.096 34.688-3.584 67.712-8.832 89.856-17.792 108.416-43.904 161.024-167.808 116.992-276.608z m-502.4-41.088c-2.56-2.048-4.992-3.968-7.424-6.016 2.432 2.048 4.864 4.096 7.424 6.016z m57.728 334.592v-1.024 1.024z m1.664-68.864v-1.152 1.152z" fill="#FFFFFF" fill-opacity=".06" p-id="4077"></path><path d="M539.26528 779.904c1.792 0 3.712 0.128 5.76 0.128-2.048-0.128-3.968-0.128-5.76-0.128zM641.792 780.8c6.4 0 12.8-0.128 19.072-0.256-6.272 0.128-12.672 0.256-19.072 0.256zM661.12 780.544c4.992-0.128 9.984-0.128 14.976-0.384-4.992 0.256-9.856 0.384-14.976 0.384z" fill="#FFFFFF" fill-opacity=".06" p-id="4078"></path></svg>