<svg width="400" height="400" viewBox="0 0 400 400" fill="none" xmlns="http://www.w3.org/2000/svg">
<path d="M206.444 98.4679C166.426 98.4679 133.565 129.148 130.164 168.236V182.001H99.7383V166.102L99.7562 165.89C104.376 111.055 150.369 68 206.444 68C256.161 68 297.931 101.839 310 147.703L311.615 153.838L280.478 154.97L279.293 151.323C269.325 120.639 240.46 98.4679 206.444 98.4679Z" fill="white"/>
<path d="M350.266 223.64C338.061 193.467 303.683 178.893 273.482 191.086C270.198 192.411 265.28 195.309 258.847 199.894C216.817 229.842 186.003 277.445 147.437 311.314C126.131 330.024 92.8382 326.533 75.4867 319.528C33.7905 302.693 14.443 256.322 30.9738 215.456C47.5046 174.591 95.1314 156.079 136.828 172.913C144.151 175.87 153.362 181.903 163.123 189.172C171.442 195.367 180.169 202.531 189.771 210.692L175.543 225.164C166.73 217.711 158.399 210.988 150.972 205.458C141.328 198.276 133.913 193.644 129.21 191.746C97.149 178.802 61.8413 193.36 49.8244 223.067C37.8076 252.773 51.0438 287.751 83.1047 300.695C94.6182 305.344 116.22 311.314 132.994 297.017C172.95 262.966 204.057 213.985 247.04 183.357C253.801 178.54 260.295 174.502 265.864 172.254C306.476 155.857 352.704 175.456 369.117 216.029C385.529 256.602 365.911 302.785 325.299 319.182C317.263 322.426 304.813 324.461 291.015 325.871C261.262 328.909 197.385 326.756 197.385 326.756L197.816 306.449C197.816 306.449 260.024 308.618 288.948 305.664C302.765 304.253 312.602 302.4 317.681 300.35C347.882 288.156 362.471 253.812 350.266 223.64Z" fill="white"/>
<path fill-rule="evenodd" clip-rule="evenodd" d="M192.197 331.662L192.843 301.194L197.993 301.374L197.816 306.449L197.385 326.756L197.213 331.831L192.197 331.662ZM175.543 225.164C166.73 217.711 158.399 210.988 150.972 205.458C141.328 198.276 133.913 193.644 129.21 191.746C97.149 178.802 61.8413 193.36 49.8244 223.067C37.8076 252.773 51.0438 287.751 83.1047 300.695C94.6182 305.344 116.22 311.314 132.994 297.017C150.561 282.047 166.417 264.19 182.324 246.276C202.598 223.444 222.955 200.519 247.04 183.357C253.801 178.54 260.295 174.502 265.864 172.254C306.476 155.857 352.704 175.456 369.117 216.029C385.529 256.602 365.911 302.785 325.299 319.182C317.263 322.426 304.813 324.461 291.015 325.871C261.262 328.909 197.385 326.756 197.385 326.756C197.213 331.831 197.214 331.831 197.215 331.831L197.217 331.831L197.226 331.831L197.403 331.837C197.46 331.839 197.53 331.841 197.612 331.844C197.707 331.847 197.82 331.851 197.949 331.855C198.427 331.87 199.132 331.892 200.039 331.918C201.851 331.971 204.472 332.044 207.709 332.121C214.181 332.276 223.124 332.451 233.002 332.531C252.671 332.689 276.341 332.474 291.532 330.922C305.328 329.513 318.43 327.432 327.203 323.89C370.419 306.443 391.294 257.3 373.83 214.127C356.365 170.953 307.174 150.098 263.959 167.546C257.82 170.024 250.932 174.346 244.089 179.223C222.084 194.902 203.228 215.198 185.088 235.524C182.887 237.991 180.697 240.456 178.513 242.915C162.577 260.859 146.973 278.43 129.696 293.154C115.335 305.393 96.4026 300.587 85.0092 295.987C55.639 284.13 43.5362 252.165 54.5371 224.969C65.4293 198.043 97.6634 184.486 127.305 196.454C131.353 198.088 138.317 202.367 147.934 209.529C155.249 214.976 163.494 221.627 172.259 229.04L175.862 232.087L197.224 210.358L193.065 206.824C183.433 198.637 174.609 191.392 166.161 185.101C156.369 177.809 146.71 171.426 138.732 168.205C94.6344 150.401 43.9233 169.891 26.2611 213.553C8.67946 257.017 29.281 306.349 73.5821 324.236C82.9217 328.006 96.3094 330.761 110.207 330.137C124.119 329.513 139.013 325.473 150.793 315.128C167.476 300.477 182.733 283.291 197.799 266.32C200.414 263.374 203.023 260.435 205.633 257.517C223.404 237.647 241.288 218.642 261.798 204.028C268.152 199.5 272.675 196.888 275.386 195.794C302.985 184.651 334.4 197.97 345.554 225.542C356.707 253.115 343.375 284.499 315.776 295.642C311.438 297.393 302.257 299.2 288.431 300.612C274.286 302.057 251.768 302.26 232.581 302.086C223.031 302 214.38 301.822 208.115 301.665C204.983 301.587 202.45 301.514 200.7 301.46C199.826 301.434 199.147 301.412 198.688 301.397C198.459 301.389 198.284 301.384 198.167 301.38L197.995 301.374L197.993 301.374C197.993 301.374 197.993 301.374 197.816 306.449C197.816 306.449 199.674 306.513 202.897 306.605C218.323 307.045 265.022 308.108 288.948 305.664C302.765 304.253 312.602 302.4 317.681 300.35C347.882 288.156 362.471 253.812 350.266 223.64C338.061 193.467 303.683 178.893 273.482 191.086C270.198 192.411 265.28 195.309 258.847 199.894C234.716 217.088 214.283 240.102 193.957 262.994C178.88 279.976 163.862 296.89 147.437 311.314C126.131 330.024 92.8382 326.533 75.4867 319.528C33.7905 302.693 14.443 256.322 30.9738 215.456C47.5046 174.591 95.1314 156.079 136.828 172.913C144.151 175.87 153.362 181.903 163.123 189.172C170.305 194.52 177.791 200.59 185.882 207.401C187.163 208.479 188.459 209.576 189.771 210.692L175.543 225.164Z" fill="white"/>
</svg>
