<svg width="240" height="240" viewBox="0 0 240 240" fill="none" xmlns="http://www.w3.org/2000/svg">
<path d="M39 78L119 102V214L39 190V78Z" fill="#ECEEF8"/>
<path d="M199 78L119 102V214L199 190V78Z" fill="#D9DCF0"/>
<path d="M199 78L119 102V214L199 190V78Z" fill="#7986CC" fill-opacity="0.1"/>
<path d="M119 102L39 78L119 54V102Z" fill="#949ED6"/>
<path d="M119 102L199 78L119 54V102Z" fill="#B5BCE3"/>
<path d="M7 107.363L39 78L119 102L85.2699 135.093L7 107.363Z" fill="#D0D3EC"/>
<path d="M231 107.363L199 78L119 102L152.73 135.093L231 107.363Z" fill="#ECEEF8"/>
<path d="M8 59.7293L39 78L119 54L87 35L8 59.7293Z" fill="#ECEEF8"/>
<path d="M230 59.7293L199 78L119 54L151 35L230 59.7293Z" fill="#D9DCF0"/>
<path d="M191.5 219C212.211 219 229 201.987 229 181C229 160.013 212.211 143 191.5 143C170.789 143 154 160.013 154 181C154 201.987 170.789 219 191.5 219Z" fill="#3F51B5"/>
<path d="M190.5 218C211.211 218 228 200.987 228 180C228 159.013 211.211 142 190.5 142C169.789 142 153 159.013 153 180C153 200.987 169.789 218 190.5 218Z" fill="#8491D6"/>
<path opacity="0.5" d="M209.964 176.464H196.536V163.036C196.536 161.7 196.536 158 196.536 158C196.536 158 192.836 158 191.5 158C190.164 158 186.464 158 186.464 158C186.464 158 186.464 161.7 186.464 163.036V176.464H173.036C171.7 176.464 168 176.464 168 176.464C168 176.464 168 180.164 168 181.5C168 182.836 168 186.536 168 186.536C168 186.536 171.7 186.536 173.036 186.536H186.464V199.964C186.464 201.3 186.464 205 186.464 205C186.464 205 190.164 205 191.5 205C192.836 205 196.536 205 196.536 205C196.536 205 196.536 201.3 196.536 199.964V186.536H209.964C211.3 186.536 215 186.536 215 186.536C215 186.536 215 182.836 215 181.5C215 180.164 215 176.464 215 176.464C215 176.464 211.3 176.464 209.964 176.464Z" fill="#3F51B5"/>
<path d="M208.071 175.071H194.929V161.929C194.929 160.621 194.929 157 194.929 157C194.929 157 191.307 157 190 157C188.693 157 185.071 157 185.071 157C185.071 157 185.071 160.621 185.071 161.929V175.071H171.929C170.621 175.071 167 175.071 167 175.071C167 175.071 167 178.693 167 180C167 181.307 167 184.929 167 184.929C167 184.929 170.621 184.929 171.929 184.929H185.071V198.071C185.071 199.379 185.071 203 185.071 203C185.071 203 188.693 203 190 203C191.307 203 194.929 203 194.929 203C194.929 203 194.929 199.379 194.929 198.071V184.929H208.071C209.379 184.929 213 184.929 213 184.929C213 184.929 213 181.307 213 180C213 178.693 213 175.071 213 175.071C213 175.071 209.379 175.071 208.071 175.071Z" fill="white"/>
<path d="M146.388 62.1853C147.13 60.6135 143.692 57.4141 138.709 55.0393C133.726 52.6646 129.085 52.0136 128.343 53.5855C127.601 55.1574 131.039 58.3568 136.022 60.7316C141.005 63.1063 145.646 63.7572 146.388 62.1853Z" fill="#2F2D54"/>
<path d="M187.513 78.3751C188.84 77.2583 187.046 72.9084 183.506 68.6594C179.965 64.4104 176.019 61.8712 174.692 62.9881C173.364 64.1049 175.158 68.4548 178.699 72.7038C182.239 76.9528 186.185 79.4919 187.513 78.3751Z" fill="#2F2D54"/>
<path d="M159.86 87.2653C170.89 87.2653 179.832 78.2805 179.832 67.1971C179.832 56.1138 170.89 47.1289 159.86 47.1289C148.83 47.1289 139.889 56.1138 139.889 67.1971C139.889 78.2805 148.83 87.2653 159.86 87.2653Z" fill="#2F2D54"/>
<path d="M168.313 82.9468H162.246V93.87H168.313V82.9468Z" fill="#2F2D54"/>
<path d="M156.179 82.9468H150.112V93.87H156.179V82.9468Z" fill="#2F2D54"/>
<path d="M163.257 95.9022C166.05 95.9022 168.313 95.0492 168.313 93.997C168.313 92.9448 166.05 92.0918 163.257 92.0918C160.465 92.0918 158.201 92.9448 158.201 93.997C158.201 95.0492 160.465 95.9022 163.257 95.9022Z" fill="#2F2D54"/>
<path d="M151.123 95.6483C153.915 95.6483 156.179 94.7953 156.179 93.7431C156.179 92.6909 153.915 91.8379 151.123 91.8379C148.331 91.8379 146.067 92.6909 146.067 93.7431C146.067 94.7953 148.331 95.6483 151.123 95.6483Z" fill="#2F2D54"/>
<path d="M153.59 41.9707C155.373 34.7542 163.245 30.5074 171.172 32.4853C179.099 34.4632 184.079 41.9167 182.296 49.1333C180.513 56.3498 174.596 56.3731 166.669 54.3952C158.742 52.4173 151.806 49.1873 153.59 41.9707Z" fill="#E0F0FD"/>
<path d="M156.874 69.6535C160.552 69.6535 163.533 66.6579 163.533 62.9627C163.533 59.2675 160.552 56.272 156.874 56.272C153.197 56.272 150.216 59.2675 150.216 62.9627C150.216 66.6579 153.197 69.6535 156.874 69.6535Z" fill="white"/>
<path d="M156.457 67.92C157.683 67.92 158.676 66.9214 158.676 65.6897C158.676 64.458 157.683 63.4595 156.457 63.4595C155.231 63.4595 154.237 64.458 154.237 65.6897C154.237 66.9214 155.231 67.92 156.457 67.92Z" fill="#2F2D54"/>
<path d="M165.335 75.076C165.774 77.4996 159.891 81.6482 157.479 82.0894C156.321 82.3013 155.127 82.0421 154.159 81.369C153.19 80.6958 152.528 79.6638 152.317 78.4999L152.316 78.4913C151.879 76.0672 153.744 75.2094 156.157 74.7706C158.569 74.3318 164.899 72.652 165.335 75.076Z" fill="white"/>
<path d="M88.7872 202.357L87.144 208.302L76.4942 205.358L78.1373 199.413L88.7872 202.357Z" fill="#2F2E41"/>
<path d="M88.0499 209.35C87.024 209.067 86.8054 206.619 87.5616 203.883C88.3179 201.148 89.7626 199.16 90.7885 199.443C91.8143 199.727 92.0329 202.175 91.2767 204.91C90.5205 207.646 89.0758 209.634 88.0499 209.35Z" fill="#2F2E41"/>
<path d="M55.1694 181.914C54.4165 176.359 55.2198 171.664 56.9636 171.428C58.7075 171.192 60.7315 175.503 61.4844 181.058C62.2373 186.613 61.434 191.308 59.6902 191.544C57.9463 191.78 55.9223 187.469 55.1694 181.914Z" fill="#2F2E41"/>
<path d="M60.3144 220.788C49.1031 220.788 40.0145 211.699 40.0145 200.488C40.0145 189.277 49.1031 180.188 60.3144 180.188C71.5257 180.188 80.6143 189.277 80.6143 200.488C80.6143 211.699 71.5257 220.788 60.3144 220.788Z" fill="#2F2E41"/>
<path d="M88.7872 198.76L87.144 204.704L76.4942 201.76L78.1373 195.816L88.7872 198.76Z" fill="#2F2E41"/>
<path d="M88.0504 205.755C87.0245 205.472 86.8059 203.024 87.5621 200.289C88.3183 197.553 89.763 195.565 90.7889 195.849C91.8148 196.132 92.0334 198.58 91.2772 201.316C90.521 204.051 89.0763 206.039 88.0504 205.755Z" fill="#2F2E41"/>
<path d="M54.9835 195.797C51.1517 195.797 48.0455 192.691 48.0455 188.859C48.0455 185.027 51.1517 181.921 54.9835 181.921C58.8152 181.921 61.9214 185.027 61.9214 188.859C61.9214 192.691 58.8152 195.797 54.9835 195.797Z" fill="white"/>
<path d="M52.765 188.107C51.4877 188.107 50.4523 187.071 50.4523 185.794C50.4523 184.517 51.4877 183.481 52.765 183.481C54.0422 183.481 55.0776 184.517 55.0776 185.794C55.0776 187.071 54.0422 188.107 52.765 188.107Z" fill="#3F3D56"/>
<path d="M36.8716 214.438C29.3595 214.062 23.6061 207.035 24.0211 198.744C24.4361 190.452 30.8623 184.035 38.3744 184.411C45.8865 184.787 47.0653 190.684 46.6503 198.976C46.2354 207.267 44.3837 214.814 36.8716 214.438Z" fill="#E1FBE2"/>
<path d="M68.6105 191.899C69.8332 191.998 71.0451 191.607 71.9797 190.812C72.9142 190.018 73.4948 188.884 73.5938 187.662C73.6928 186.439 73.302 185.227 72.5074 184.292C71.7128 183.358 70.5794 182.777 69.3567 182.678C66.8106 182.472 66.1162 184.494 65.9101 187.04C65.704 189.586 66.0643 191.693 68.6105 191.899Z" fill="white"/>
<path d="M62.7885 186.737C62.0356 181.183 62.8389 176.488 64.5828 176.251C66.3266 176.015 68.3506 180.327 69.1035 185.881C69.8564 191.436 69.0532 196.131 67.3093 196.367C65.5655 196.604 63.5414 192.292 62.7885 186.737Z" fill="#2F2E41"/>
<path d="M111 58C113.209 58 115 56.2091 115 54C115 51.7909 113.209 50 111 50C108.791 50 107 51.7909 107 54C107 56.2091 108.791 58 111 58Z" fill="#F9FFD1"/>
<path d="M95 72C97.2091 72 99 70.2091 99 68C99 65.7909 97.2091 64 95 64C92.7909 64 91 65.7909 91 68C91 70.2091 92.7909 72 95 72Z" fill="#F9FFD1"/>
<path d="M93 99C95.2091 99 97 97.2091 97 95C97 92.7909 95.2091 91 93 91C90.7909 91 89 92.7909 89 95C89 97.2091 90.7909 99 93 99Z" fill="#F9FFD1"/>
<path d="M86 124C88.2091 124 90 122.209 90 120C90 117.791 88.2091 116 86 116C83.7909 116 82 117.791 82 120C82 122.209 83.7909 124 86 124Z" fill="#F9FFD1"/>
<path d="M87 154C89.2091 154 91 152.209 91 150C91 147.791 89.2091 146 87 146C84.7909 146 83 147.791 83 150C83 152.209 84.7909 154 87 154Z" fill="#F9FFD1"/>
<path d="M76 178C78.2091 178 80 176.209 80 174C80 171.791 78.2091 170 76 170C73.7909 170 72 171.791 72 174C72 176.209 73.7909 178 76 178Z" fill="#F9FFD1"/>
</svg>
