<svg width="240" height="240" viewBox="0 0 240 240" fill="none" xmlns="http://www.w3.org/2000/svg">
<path d="M189.057 40.2311C189.057 40.2311 188.384 47.1251 185.862 52.5057C185.963 52.3712 185.828 81.5277 185.626 115.628C185.626 115.661 185.626 115.661 185.626 115.695C185.794 149.795 185.929 184.299 185.862 178.817C188.384 184.198 189.057 196.472 189.057 196.472L190.906 197.313V202.189L189.561 202.862C189.729 204.543 188.989 207.133 188.552 208.074L189.561 209.588L187.207 212.782L185.357 212.278C184.819 213.085 182.432 214.968 181.658 215.305L182.163 217.322L178.463 219.34L176.95 217.995C175.437 218.668 172.914 219.004 172.074 219.004L171.233 220.685H166.693L165.516 219.004C161.75 219.004 156.672 215.876 154.587 215.136H88.3371C86.2521 215.876 81.1741 219.004 77.4076 219.004L76.2306 220.685H71.6907L70.8499 219.004C70.0092 219.004 67.487 218.668 65.9737 217.995L64.4604 219.34L60.7612 217.322L61.2656 215.305C60.4921 214.968 58.1045 213.085 57.5664 212.278L55.7168 212.749L53.3627 209.554L54.3716 208.041C53.9344 207.099 53.1946 204.51 53.3627 202.828L52.0176 202.156V197.279L53.8672 196.439C53.8672 196.439 54.5398 189.545 57.062 184.164C56.9611 184.299 57.0956 149.761 57.2974 115.661C57.2974 115.628 57.2974 115.628 57.2974 115.594C57.1292 81.4941 56.9947 52.3712 57.062 52.4721C54.5398 47.1251 53.8672 40.2311 53.8672 40.2311L52.0176 39.3904V34.5141L53.3627 33.8415C53.1946 32.1601 53.9344 29.5706 54.3716 28.629L53.3627 27.1157L55.7168 23.9209L57.5664 24.4254C58.1045 23.6183 60.4921 21.735 61.2656 21.3987L60.7612 19.381L64.4604 17.3632L65.9737 18.7084C67.487 18.0358 70.0092 17.6995 70.8499 17.6995L71.6907 16.0181H76.2306L77.4076 17.6995C81.1741 17.6995 86.2521 19.1456 88.3371 19.8854H103.134V22.2395H139.79V19.8854H154.587C156.672 19.1456 161.75 17.6995 165.516 17.6995L166.693 16.0181H171.233L172.074 17.6995C172.914 17.6995 175.437 18.0358 176.95 18.7084L178.463 17.3632L182.163 19.381L181.658 21.3987C182.432 21.735 184.819 23.6183 185.357 24.4254L187.207 23.9209L189.561 27.1157L188.552 28.629C188.989 29.5706 189.729 32.1601 189.561 33.8415L190.906 34.5141V39.3904L189.057 40.2311Z" fill="#B7BDE4"/>
<path d="M188.384 39.558C188.384 39.558 187.712 46.452 185.189 51.8326C185.29 51.6981 185.156 80.8546 184.954 114.955C184.954 114.988 184.954 114.988 184.954 115.022C185.122 149.122 185.257 183.625 185.189 178.144C187.712 183.525 188.384 195.799 188.384 195.799L190.234 196.64V201.516L188.889 202.189C189.057 203.87 188.317 206.46 187.88 207.401L188.889 208.915L186.535 212.109L184.685 211.605C184.147 212.412 181.759 214.295 180.986 214.632L181.49 216.649L177.791 218.667L176.278 217.322C174.764 217.994 172.242 218.331 171.401 218.331L170.561 220.012H166.021L164.844 218.331C161.077 218.331 155.999 215.203 153.914 214.463H87.6647C85.5797 215.203 80.5017 218.331 76.7352 218.331L75.5582 220.012H71.0183L70.1776 218.331C69.3368 218.331 66.8146 217.994 65.3013 217.322L63.788 218.667L60.0888 216.649L60.5932 214.632C59.8198 214.295 57.4321 212.412 56.894 211.605L55.0444 212.076L52.6904 208.881L53.6993 207.368C53.2621 206.426 52.5222 203.837 52.6904 202.155L51.3452 201.483V196.606L53.1948 195.766C53.1948 195.766 53.8674 188.872 56.3896 183.491C56.2887 183.625 56.4232 149.088 56.625 114.988C56.625 114.955 56.625 114.955 56.625 114.921C56.4569 80.821 56.3223 51.6981 56.3896 51.799C53.8674 46.452 53.1948 39.558 53.1948 39.558L51.3452 38.7173V33.841L52.6904 33.1684C52.5222 31.487 53.2621 28.8975 53.6993 27.9559L52.6904 26.4426L55.0444 23.2478L56.894 23.7523C57.4321 22.9452 59.8198 21.0619 60.5932 20.7256L60.0888 18.7079L63.788 16.6901L65.3013 18.0353C66.8146 17.3627 69.3368 17.0264 70.1776 17.0264L71.0183 15.345H75.5582L76.7352 17.0264C80.5017 17.0264 85.5797 18.4725 87.6647 19.2123H102.462V21.5664H139.117V19.2123H153.914C155.999 18.4725 161.077 17.0264 164.844 17.0264L166.021 15.345H170.561L171.401 17.0264C172.242 17.0264 174.764 17.3627 176.278 18.0353L177.791 16.6901L181.49 18.7079L180.986 20.7256C181.759 21.0619 184.147 22.9452 184.685 23.7523L186.535 23.2478L188.889 26.4426L187.88 27.9559C188.317 28.8975 189.057 31.487 188.889 33.1684L190.234 33.841V38.7173L188.384 39.558Z" fill="#B7BDE4"/>
<path d="M187.711 38.8854C187.711 38.8854 187.039 45.7794 184.517 51.16C184.617 51.0255 184.483 80.182 184.281 114.282C184.281 114.316 184.281 114.316 184.281 114.349C184.449 148.449 184.584 182.953 184.517 177.471C187.039 182.852 187.711 195.127 187.711 195.127L189.561 195.967V200.844L188.216 201.516C188.384 203.198 187.644 205.787 187.207 206.729L188.216 208.242L185.862 211.437L184.012 210.932C183.474 211.739 181.086 213.623 180.313 213.959L180.817 215.977L177.118 217.994L175.605 216.649C174.091 217.322 171.569 217.658 170.729 217.658L169.888 219.34H165.348L164.171 217.658C160.404 217.658 155.326 214.531 153.241 213.791H86.9919C84.9069 214.531 79.8289 217.658 76.0624 217.658L74.8854 219.34H70.3454L69.5047 217.658C68.664 217.658 66.1418 217.322 64.6285 216.649L63.1152 217.994L59.416 215.977L59.9204 213.959C59.1469 213.623 56.7592 211.739 56.2212 210.932L54.3716 211.403L52.0175 208.208L53.0264 206.695C52.5892 205.753 51.8494 203.164 52.0175 201.482L50.6724 200.81V195.934L52.522 195.093C52.522 195.093 53.1946 188.199 55.7167 182.818C55.6159 182.953 55.7504 148.416 55.9521 114.316C55.9521 114.282 55.9521 114.282 55.9521 114.248C55.784 80.1484 55.6495 51.0255 55.7167 51.1264C53.1946 45.7794 52.522 38.8854 52.522 38.8854L50.6724 38.0446V33.1684L52.0175 32.4958C51.8494 30.8144 52.5892 28.2249 53.0264 27.2833L52.0175 25.77L54.3716 22.5752L56.2212 23.0797C56.7592 22.2726 59.1469 20.3893 59.9204 20.053L59.416 18.0353L63.1152 16.0175L64.6285 17.3627C66.1418 16.6901 68.664 16.3538 69.5047 16.3538L70.3454 14.6724H74.8854L76.0624 16.3538C79.8289 16.3538 84.9069 17.7999 86.9919 18.5397H101.789V20.8938H138.445V18.5397H153.241C155.326 17.7999 160.404 16.3538 164.171 16.3538L165.348 14.6724H169.888L170.729 16.3538C171.569 16.3538 174.091 16.6901 175.605 17.3627L177.118 16.0175L180.817 18.0353L180.313 20.053C181.086 20.3893 183.474 22.2726 184.012 23.0797L185.862 22.5752L188.216 25.77L187.207 27.2833C187.644 28.2249 188.384 30.8144 188.216 32.4958L189.561 33.1684V38.0446L187.711 38.8854Z" fill="#B7BDE4"/>
<path d="M187.039 38.213C187.039 38.213 186.366 45.107 183.844 50.4877C183.945 50.3531 183.811 79.5097 183.609 113.61C183.609 113.643 183.609 113.643 183.609 113.677C183.777 147.777 183.911 182.28 183.844 176.799C186.366 182.18 187.039 194.454 187.039 194.454L188.889 195.295V200.171L187.543 200.844C187.712 202.525 186.972 205.115 186.534 206.056L187.543 207.57L185.189 210.764L183.34 210.26C182.802 211.067 180.414 212.95 179.641 213.287L180.145 215.304L176.446 217.322L174.932 215.977C173.419 216.649 170.897 216.986 170.056 216.986L169.215 218.667H164.676L163.498 216.986C159.732 216.986 154.654 213.858 152.569 213.118H86.3195C84.2345 213.858 79.1565 216.986 75.39 216.986L74.213 218.667H69.6731L68.8323 216.986C67.9916 216.986 65.4694 216.649 63.9561 215.977L62.4428 217.322L58.7436 215.304L59.248 213.287C58.4746 212.95 56.0869 211.067 55.5488 210.26L53.6992 210.731L51.3452 207.536L52.354 206.023C51.9169 205.081 51.177 202.492 51.3452 200.81L50 200.138V195.261L51.8496 194.421C51.8496 194.421 52.5222 187.527 55.0444 182.146C54.9435 182.28 55.078 147.743 55.2798 113.643C55.2798 113.61 55.2798 113.61 55.2798 113.576C55.1116 79.476 54.9771 50.3531 55.0444 50.454C52.5222 45.107 51.8496 38.213 51.8496 38.213L50 37.3723V32.4961L51.3452 31.8235C51.177 30.142 51.9169 27.5526 52.354 26.6109L51.3452 25.0976L53.6992 21.9029L55.5488 22.4073C56.0869 21.6002 58.4746 19.717 59.248 19.3807L58.7436 17.3629L62.4428 15.3452L63.9561 16.6903C65.4694 16.0178 67.9916 15.6815 68.8323 15.6815L69.6731 14H74.213L75.39 15.6815C79.1565 15.6815 84.2345 17.1275 86.3195 17.8674H101.116V20.2214H137.772V17.8674H152.569C154.654 17.1275 159.732 15.6815 163.498 15.6815L164.676 14H169.215L170.056 15.6815C170.897 15.6815 173.419 16.0178 174.932 16.6903L176.446 15.3452L180.145 17.3629L179.641 19.3807C180.414 19.717 182.802 21.6002 183.34 22.4073L185.189 21.9029L187.543 25.0976L186.534 26.6109C186.972 27.5526 187.712 30.142 187.543 31.8235L188.889 32.4961V37.3723L187.039 38.213Z" fill="#D9DCF0"/>
<rect x="66" y="32" width="107" height="167" rx="4" fill="#F4F5FB"/>
<g filter="url(#filter0_i_371_18932)">
<rect x="67" y="33" width="105" height="165" rx="4" fill="white"/>
</g>
<rect x="77.7637" y="50.5181" width="24.5896" height="24.6731" rx="4" fill="#D9DCF0"/>
<rect x="108.729" y="50.5181" width="24.5896" height="24.6731" rx="4" fill="#D9DCF0"/>
<rect x="139.282" y="51.0181" width="23.5896" height="23.6731" rx="3.5" stroke="#F0F1F9"/>
<rect x="78.2637" y="86.6572" width="23.5896" height="23.6731" rx="3.5" stroke="#F0F1F9"/>
<rect x="78.2637" y="122.296" width="23.5896" height="23.6731" rx="3.5" stroke="#F0F1F9"/>
<rect x="109.229" y="86.6572" width="23.5896" height="23.6731" rx="3.5" stroke="#F0F1F9"/>
<rect x="109.229" y="122.296" width="23.5896" height="23.6731" rx="3.5" stroke="#F0F1F9"/>
<rect x="139.282" y="86.6572" width="23.5896" height="23.6731" rx="3.5" stroke="#F0F1F9"/>
<rect x="139.282" y="122.296" width="23.5896" height="23.6731" rx="3.5" stroke="#F0F1F9"/>
<path d="M114.276 187.23C115.257 187.23 116.052 186.43 116.052 185.444C116.052 184.458 115.257 183.659 114.276 183.659C113.294 183.659 112.499 184.458 112.499 185.444C112.499 186.43 113.294 187.23 114.276 187.23Z" fill="#E8EAF6"/>
<path d="M120.671 187.23C121.652 187.23 122.448 186.43 122.448 185.444C122.448 184.458 121.652 183.659 120.671 183.659C119.69 183.659 118.895 184.458 118.895 185.444C118.895 186.43 119.69 187.23 120.671 187.23Z" fill="#F4F5FB"/>
<path d="M127.068 187.23C128.049 187.23 128.844 186.43 128.844 185.444C128.844 184.458 128.049 183.659 127.068 183.659C126.086 183.659 125.291 184.458 125.291 185.444C125.291 186.43 126.086 187.23 127.068 187.23Z" fill="#F4F5FB"/>
<path d="M89.0783 40.5705H79.4846C79.0134 40.5705 78.5615 40.3824 78.2284 40.0476C77.8952 39.7128 77.708 39.2587 77.708 38.7853C77.708 38.3118 77.8952 37.8577 78.2284 37.5229C78.5615 37.1881 79.0134 37 79.4846 37H89.0783C89.5495 37 90.0014 37.1881 90.3346 37.5229C90.6677 37.8577 90.8549 38.3118 90.8549 38.7853C90.8549 39.2587 90.6677 39.7128 90.3346 40.0476C90.0014 40.3824 89.5495 40.5705 89.0783 40.5705Z" fill="#F4F5FB"/>
<path d="M151.97 40.3917C152.853 40.3917 153.569 39.6723 153.569 38.7849C153.569 37.8976 152.853 37.1782 151.97 37.1782C151.087 37.1782 150.371 37.8976 150.371 38.7849C150.371 39.6723 151.087 40.3917 151.97 40.3917Z" fill="#F4F5FB"/>
<path d="M156.945 40.3917C157.828 40.3917 158.544 39.6723 158.544 38.7849C158.544 37.8976 157.828 37.1782 156.945 37.1782C156.062 37.1782 155.346 37.8976 155.346 38.7849C155.346 39.6723 156.062 40.3917 156.945 40.3917Z" fill="#F4F5FB"/>
<path d="M161.919 40.3917C162.802 40.3917 163.518 39.6723 163.518 38.7849C163.518 37.8976 162.802 37.1782 161.919 37.1782C161.036 37.1782 160.32 37.8976 160.32 38.7849C160.32 39.6723 161.036 40.3917 161.919 40.3917Z" fill="#F4F5FB"/>
<circle cx="119.613" cy="26.0355" r="4.0355" fill="#B7BDE4"/>
<circle r="2.35404" transform="matrix(1 0 0 -1 119.612 26.0356)" fill="white" fill-opacity="0.5"/>
<rect x="109" y="201" width="21" height="11" rx="5.5" fill="#B7BDE4"/>
<rect x="111.5" y="203.5" width="16" height="6" rx="3" stroke="white" stroke-opacity="0.7"/>
<path opacity="0.5" d="M121.5 130L122.489 130.146L121.5 130ZM89.5 128.5L88.5152 128.326L89.5 128.5ZM125 138.5L124.528 137.619L125 138.5ZM104.5 114.5L104.336 113.514L104.5 114.5ZM30.9952 169.361C31.5458 169.318 31.9573 168.836 31.9142 168.286C31.8712 167.735 31.3899 167.324 30.8393 167.367L30.9952 169.361ZM35.6399 166.919C35.0907 166.977 34.6933 167.47 34.7521 168.019C34.811 168.569 35.3039 168.966 35.853 168.907L35.6399 166.919ZM39.7358 168.453C40.2837 168.384 40.6719 167.884 40.6027 167.336C40.5336 166.788 40.0334 166.4 39.4855 166.469L39.7358 168.453ZM44.2754 165.814C43.729 165.894 43.3512 166.402 43.4316 166.949C43.5119 167.495 44.02 167.873 44.5664 167.793L44.2754 165.814ZM48.4173 167.196C48.9624 167.108 49.3324 166.594 49.2438 166.049C49.1551 165.504 48.6414 165.134 48.0962 165.222L48.4173 167.196ZM52.865 164.401C52.3216 164.5 51.9611 165.021 52.0597 165.564C52.1583 166.107 52.6788 166.468 53.2222 166.369L52.865 164.401ZM57.0541 165.645C57.596 165.538 57.949 165.013 57.8424 164.471C57.7359 163.929 57.2103 163.576 56.6683 163.683L57.0541 165.645ZM61.4079 162.706C60.868 162.822 60.5248 163.354 60.6413 163.894C60.7578 164.434 61.2899 164.777 61.8298 164.661L61.4079 162.706ZM65.6339 163.81C66.1719 163.685 66.507 163.148 66.3823 162.61C66.2576 162.072 65.7203 161.737 65.1823 161.861L65.6339 163.81ZM69.8794 160.723C69.344 160.859 69.0197 161.403 69.1552 161.938C69.2906 162.474 69.8345 162.798 70.3699 162.662L69.8794 160.723ZM74.1439 161.673C74.677 161.529 74.9918 160.98 74.8472 160.447C74.7026 159.914 74.1533 159.599 73.6203 159.743L74.1439 161.673ZM78.269 158.425C77.7394 158.582 77.4374 159.138 77.5943 159.668C77.7512 160.197 78.3077 160.5 78.8372 160.343L78.269 158.425ZM82.5697 159.196C83.0959 159.028 83.3865 158.465 83.2188 157.939C83.0511 157.413 82.4886 157.122 81.9624 157.29L82.5697 159.196ZM86.537 155.762C86.0158 155.944 85.7413 156.515 85.9239 157.036C86.1066 157.557 86.6771 157.832 87.1983 157.649L86.537 155.762ZM90.8701 156.31C91.3865 156.114 91.6461 155.537 91.4501 155.02C91.2541 154.504 90.6766 154.244 90.1603 154.44L90.8701 156.31ZM94.6354 152.648C94.1268 152.863 93.8889 153.45 94.1041 153.958C94.3193 154.467 94.906 154.705 95.4147 154.49L94.6354 152.648ZM98.9989 152.9C99.4996 152.668 99.7168 152.073 99.4838 151.572C99.2509 151.071 98.6561 150.854 98.1553 151.087L98.9989 152.9ZM102.455 148.952C101.967 149.211 101.782 149.817 102.041 150.304C102.3 150.792 102.905 150.978 103.393 150.718L102.455 148.952ZM106.815 148.788C107.288 148.504 107.442 147.89 107.157 147.416C106.873 146.943 106.259 146.789 105.785 147.073L106.815 148.788ZM109.783 144.452C109.335 144.775 109.233 145.4 109.556 145.848C109.879 146.296 110.504 146.398 110.952 146.075L109.783 144.452ZM114.069 143.626C114.487 143.265 114.533 142.633 114.173 142.215C113.812 141.797 113.181 141.75 112.762 142.111L114.069 143.626ZM116.101 138.796C115.741 139.215 115.789 139.847 116.208 140.207C116.627 140.567 117.258 140.519 117.618 140.1L116.101 138.796ZM119.999 136.845C120.286 136.373 120.135 135.758 119.663 135.471C119.191 135.184 118.576 135.334 118.289 135.807L119.999 136.845ZM120.132 131.629C119.984 132.161 120.295 132.713 120.826 132.862C121.358 133.01 121.91 132.699 122.059 132.167L120.132 131.629ZM122.682 128.02C122.699 127.468 122.266 127.006 121.714 126.989C121.162 126.971 120.7 127.405 120.683 127.957L122.682 128.02ZM120.035 123.331C120.212 123.854 120.78 124.134 121.303 123.957C121.826 123.78 122.106 123.212 121.929 122.689L120.035 123.331ZM119.873 118.852C119.535 118.415 118.907 118.335 118.47 118.674C118.034 119.012 117.954 119.64 118.292 120.077L119.873 118.852ZM114.78 117.069C115.261 117.34 115.871 117.171 116.143 116.69C116.415 116.209 116.245 115.599 115.764 115.328L114.78 117.069ZM111.76 113.754C111.224 113.622 110.682 113.95 110.551 114.487C110.419 115.023 110.747 115.564 111.284 115.696L111.76 113.754ZM106.564 115.276C107.116 115.245 107.538 114.773 107.507 114.222C107.476 113.67 107.004 113.248 106.453 113.279L106.564 115.276ZM101.851 114.078C101.321 114.233 101.016 114.788 101.17 115.318C101.325 115.848 101.88 116.153 102.41 115.999L101.851 114.078ZM97.2263 118.445C97.681 118.132 97.7955 117.509 97.4821 117.054C97.1686 116.599 96.5459 116.485 96.0912 116.798L97.2263 118.445ZM92.3085 120.247C91.9554 120.671 92.0133 121.302 92.438 121.655C92.8626 122.008 93.4931 121.95 93.8462 121.526L92.3085 120.247ZM91.0527 126.472C91.2313 125.949 90.9525 125.381 90.4298 125.202C89.9072 125.024 89.3388 125.303 89.1602 125.825L91.0527 126.472ZM88.3438 130.573C88.3521 131.125 88.8066 131.566 89.3588 131.557C89.911 131.549 90.3519 131.094 90.3435 130.542L88.3438 130.573ZM91.3322 135.212C91.1217 134.702 90.5371 134.459 90.0265 134.669C89.5159 134.88 89.2727 135.464 89.4832 135.975L91.3322 135.212ZM91.7371 139.771C92.0854 140.2 92.7152 140.265 93.1438 139.917C93.5725 139.569 93.6376 138.939 93.2893 138.51L91.7371 139.771ZM96.9359 141.591C96.4557 141.318 95.8453 141.486 95.5725 141.967C95.2998 142.447 95.468 143.057 95.9482 143.33L96.9359 141.591ZM100.026 144.956C100.562 145.092 101.106 144.768 101.242 144.233C101.379 143.698 101.055 143.154 100.52 143.017L100.026 144.956ZM105.392 143.565C104.84 143.571 104.397 144.023 104.403 144.575C104.408 145.127 104.861 145.57 105.413 145.565L105.392 143.565ZM109.683 145.181C110.228 145.092 110.597 144.578 110.508 144.033C110.42 143.488 109.906 143.118 109.36 143.207L109.683 145.181ZM114.245 142.038C113.717 142.201 113.422 142.761 113.585 143.289C113.749 143.816 114.309 144.111 114.836 143.948L114.245 142.038ZM118.81 142.526C119.322 142.319 119.57 141.736 119.363 141.224C119.156 140.712 118.573 140.465 118.061 140.671L118.81 142.526ZM122.698 138.567C122.205 138.815 122.005 139.416 122.252 139.909C122.5 140.403 123.101 140.603 123.595 140.355L122.698 138.567ZM127.354 138.369C127.839 138.106 128.02 137.499 127.758 137.013C127.495 136.528 126.888 136.347 126.402 136.61L127.354 138.369ZM131.032 134.074C130.549 134.341 130.375 134.95 130.643 135.433C130.911 135.916 131.52 136.09 132.002 135.822L131.032 134.074ZM135.709 133.742C136.189 133.47 136.358 132.859 136.085 132.379C135.812 131.899 135.202 131.73 134.722 132.003L135.709 133.742ZM139.296 129.367C138.819 129.646 138.659 130.259 138.938 130.735C139.217 131.212 139.83 131.372 140.306 131.093L139.296 129.367ZM143.953 128.927C144.426 128.642 144.579 128.028 144.294 127.555C144.009 127.082 143.395 126.929 142.921 127.214L143.953 128.927ZM147.415 124.454C146.947 124.747 146.805 125.365 147.099 125.832C147.392 126.3 148.009 126.442 148.477 126.148L147.415 124.454ZM152.067 123.855C152.53 123.554 152.661 122.934 152.359 122.472C152.058 122.009 151.439 121.878 150.976 122.179L152.067 123.855ZM155.353 119.249C154.898 119.563 154.784 120.185 155.097 120.64C155.411 121.095 156.034 121.209 156.488 120.896L155.353 119.249ZM159.968 118.428C160.414 118.102 160.511 117.477 160.185 117.031C159.86 116.585 159.234 116.488 158.788 116.813L159.968 118.428ZM162.949 113.628C162.519 113.975 162.452 114.605 162.799 115.035C163.146 115.464 163.775 115.532 164.205 115.185L162.949 113.628ZM167.47 112.395C167.878 112.022 167.906 111.389 167.534 110.982C167.161 110.574 166.529 110.546 166.121 110.918L167.47 112.395ZM169.626 107.216C169.294 107.658 169.383 108.285 169.824 108.617C170.266 108.949 170.893 108.86 171.225 108.419L169.626 107.216ZM29.0636 169.498C29.6877 169.458 30.332 169.413 30.9952 169.361L30.8393 167.367C30.1852 167.418 29.5504 167.463 28.9364 167.502L29.0636 169.498ZM35.853 168.907C37.1035 168.773 38.3997 168.622 39.7358 168.453L39.4855 166.469C38.1614 166.636 36.8775 166.786 35.6399 166.919L35.853 168.907ZM44.5664 167.793C45.8256 167.608 47.1106 167.409 48.4173 167.196L48.0962 165.222C46.7995 165.433 45.5245 165.63 44.2754 165.814L44.5664 167.793ZM53.2222 166.369C54.4861 166.14 55.7645 165.898 57.0541 165.645L56.6683 163.683C55.3884 163.934 54.1195 164.174 52.865 164.401L53.2222 166.369ZM61.8298 164.661C63.0923 164.388 64.3613 164.105 65.6339 163.81L65.1823 161.861C63.9199 162.154 62.6607 162.435 61.4079 162.706L61.8298 164.661ZM70.3699 162.662C71.6291 162.344 72.8881 162.014 74.1439 161.673L73.6203 159.743C72.3758 160.081 71.1279 160.408 69.8794 160.723L70.3699 162.662ZM78.8372 160.343C80.0891 159.972 81.3343 159.589 82.5697 159.196L81.9624 157.29C80.7405 157.679 79.5084 158.058 78.269 158.425L78.8372 160.343ZM87.1983 157.649C88.4375 157.215 89.6625 156.769 90.8701 156.31L90.1603 154.44C88.9695 154.892 87.7607 155.333 86.537 155.762L87.1983 157.649ZM95.4147 154.49C96.6343 153.974 97.8303 153.444 98.9989 152.9L98.1553 151.087C97.0094 151.62 95.8348 152.14 94.6354 152.648L95.4147 154.49ZM103.393 150.718C104.572 150.092 105.715 149.448 106.815 148.788L105.785 147.073C104.718 147.714 103.606 148.341 102.455 148.952L103.393 150.718ZM110.952 146.075C112.054 145.281 113.095 144.465 114.069 143.626L112.762 142.111C111.838 142.909 110.842 143.689 109.783 144.452L110.952 146.075ZM117.618 140.1C118.521 139.049 119.319 137.965 119.999 136.845L118.289 135.807C117.672 136.823 116.94 137.82 116.101 138.796L117.618 140.1ZM122.059 132.167C122.244 131.503 122.388 130.829 122.489 130.146L120.511 129.854C120.422 130.453 120.296 131.044 120.132 131.629L122.059 132.167ZM122.489 130.146C122.597 129.419 122.66 128.71 122.682 128.02L120.683 127.957C120.663 128.568 120.607 129.2 120.511 129.854L122.489 130.146ZM121.929 122.689C121.446 121.264 120.747 119.98 119.873 118.852L118.292 120.077C119.031 121.03 119.624 122.117 120.035 123.331L121.929 122.689ZM115.764 115.328C114.53 114.63 113.181 114.102 111.76 113.754L111.284 115.696C112.536 116.004 113.713 116.465 114.78 117.069L115.764 115.328ZM106.453 113.279C105.752 113.318 105.045 113.396 104.336 113.514L104.664 115.486C105.302 115.381 105.936 115.311 106.564 115.276L106.453 113.279ZM104.336 113.514C103.481 113.655 102.652 113.845 101.851 114.078L102.41 115.999C103.135 115.788 103.886 115.616 104.664 115.486L104.336 113.514ZM96.0912 116.798C94.6504 117.792 93.3819 118.956 92.3085 120.247L93.8462 121.526C94.8025 120.376 95.9354 119.335 97.2263 118.445L96.0912 116.798ZM89.1602 125.825C88.8811 126.642 88.6649 127.478 88.5152 128.326L90.4848 128.674C90.6163 127.929 90.8064 127.193 91.0527 126.472L89.1602 125.825ZM88.5152 128.326C88.3895 129.039 88.332 129.794 88.3438 130.573L90.3435 130.542C90.3335 129.88 90.3827 129.252 90.4848 128.674L88.5152 128.326ZM89.4832 135.975C90.0259 137.291 90.7712 138.583 91.7371 139.771L93.2893 138.51C92.4529 137.481 91.805 136.359 91.3322 135.212L89.4832 135.975ZM95.9482 143.33C97.1554 144.016 98.513 144.57 100.026 144.956L100.52 143.017C99.1755 142.675 97.9845 142.187 96.9359 141.591L95.9482 143.33ZM105.413 145.565C106.753 145.551 108.175 145.427 109.683 145.181L109.36 143.207C107.945 143.438 106.624 143.552 105.392 143.565L105.413 145.565ZM114.836 143.948C116.11 143.553 117.434 143.081 118.81 142.526L118.061 140.671C116.733 141.207 115.462 141.66 114.245 142.038L114.836 143.948ZM123.595 140.355C124.211 140.046 124.837 139.722 125.472 139.381L124.528 137.619C123.908 137.95 123.298 138.267 122.698 138.567L123.595 140.355ZM125.472 139.381C126.107 139.041 126.734 138.704 127.354 138.369L126.402 136.61C125.785 136.943 125.16 137.28 124.528 137.619L125.472 139.381ZM132.002 135.822C133.273 135.117 134.509 134.424 135.709 133.742L134.722 132.003C133.527 132.681 132.298 133.371 131.032 134.074L132.002 135.822ZM140.306 131.093C141.565 130.355 142.781 129.634 143.953 128.927L142.921 127.214C141.756 127.916 140.548 128.634 139.296 129.367L140.306 131.093ZM148.477 126.148C149.731 125.362 150.927 124.598 152.067 123.855L150.976 122.179C149.845 122.916 148.659 123.674 147.415 124.454L148.477 126.148ZM156.488 120.896C157.73 120.039 158.889 119.217 159.968 118.428L158.788 116.813C157.724 117.591 156.581 118.402 155.353 119.249L156.488 120.896ZM164.205 115.185C165.444 114.185 166.529 113.255 167.47 112.395L166.121 110.918C165.214 111.747 164.161 112.651 162.949 113.628L164.205 115.185ZM171.225 108.419C171.791 107.666 172.203 106.974 172.436 106.351L170.564 105.649C170.423 106.025 170.132 106.545 169.626 107.216L171.225 108.419Z" fill="#3F51B5" fill-opacity="0.5"/>
<path d="M151.226 103.227L234.088 68.7343L151.226 131.69L151.226 103.227Z" fill="#7986CC"/>
<path d="M135.196 86.2566L234.088 68.7351L151.185 103.789L135.196 86.2566Z" fill="#C2C8EB"/>
<path d="M181.404 139.315L234.211 68.7428L156.94 110.457L181.404 139.315Z" fill="#C2C8EB"/>
<path d="M72.7752 160.957C78.107 162.386 82.7991 162.184 83.2552 160.507C83.7114 158.83 79.7589 156.312 74.427 154.883C69.0952 153.455 64.4032 153.656 63.947 155.333C63.4909 157.011 67.4434 159.528 72.7752 160.957Z" fill="#2F2D54"/>
<path d="M33.2177 171.703C36.7581 167.454 38.552 163.105 37.2246 161.988C35.8971 160.871 31.9509 163.41 28.4105 167.659C24.8701 171.908 23.0761 176.258 24.4036 177.375C25.731 178.492 29.6772 175.952 33.2177 171.703Z" fill="#2F2D54"/>
<path d="M52.056 186.265C63.0859 186.265 72.0275 177.28 72.0275 166.197C72.0275 155.114 63.0859 146.129 52.056 146.129C41.026 146.129 32.0845 155.114 32.0845 166.197C32.0845 177.28 41.026 186.265 52.056 186.265Z" fill="#2F2D54"/>
<path d="M46.1212 174.732C46.1212 176.696 51.1541 180.574 56.7389 180.574C62.3237 180.574 67.5601 175.045 67.5601 173.08C67.5601 171.116 62.3237 173.461 56.7389 173.461C51.1541 173.461 46.1212 172.767 46.1212 174.732Z" fill="white"/>
<path d="M49.6703 181.947H43.603V192.87H49.6703V181.947Z" fill="#2F2D54"/>
<path d="M61.8046 181.947H55.7373V192.87H61.8046V181.947Z" fill="#2F2D54"/>
<path d="M48.6591 194.902C51.4515 194.902 53.7152 194.049 53.7152 192.997C53.7152 191.945 51.4515 191.092 48.6591 191.092C45.8667 191.092 43.603 191.945 43.603 192.997C43.603 194.049 45.8667 194.902 48.6591 194.902Z" fill="#2F2D54"/>
<path d="M60.7934 194.648C63.5858 194.648 65.8495 193.795 65.8495 192.743C65.8495 191.69 63.5858 190.837 60.7934 190.837C58.001 190.837 55.7373 191.69 55.7373 192.743C55.7373 193.795 58.001 194.648 60.7934 194.648Z" fill="#2F2D54"/>
<path d="M58.327 140.971C56.5437 133.754 48.672 129.507 40.7449 131.485C32.8179 133.463 27.8374 140.917 29.6207 148.133C31.404 155.35 37.3204 155.373 45.2474 153.395C53.1745 151.417 60.1103 148.187 58.327 140.971Z" fill="#E1FBE2"/>
<path d="M55.0418 168.653C58.7192 168.653 61.7003 165.657 61.7003 161.962C61.7003 158.267 58.7192 155.271 55.0418 155.271C51.3644 155.271 48.3833 158.267 48.3833 161.962C48.3833 165.657 51.3644 168.653 55.0418 168.653Z" fill="white"/>
<path d="M56.8621 161.46C58.0879 161.46 59.0816 160.462 59.0816 159.23C59.0816 157.999 58.0879 157 56.8621 157C55.6363 157 54.6426 157.999 54.6426 159.23C54.6426 160.462 55.6363 161.46 56.8621 161.46Z" fill="#2F2D54"/>
<path d="M176.398 216.853C186.864 216.853 195.349 208.368 195.349 197.902C195.349 187.436 186.864 178.952 176.398 178.952C165.932 178.952 157.448 187.436 157.448 197.902C157.448 208.368 165.932 216.853 176.398 216.853Z" fill="#2F2D54"/>
<path d="M183.718 222.174L189.383 221.149L187.545 210.999L181.88 212.025L183.718 222.174Z" fill="#2F2D54"/>
<path d="M172.388 224.225L178.053 223.2L176.215 213.05L170.55 214.075L172.388 224.225Z" fill="#2F2D54"/>
<path d="M187.124 225.767C189.146 224.054 190.046 221.793 189.134 220.716C188.222 219.639 185.843 220.154 183.821 221.867C181.799 223.579 180.9 225.84 181.812 226.917C182.724 227.994 185.102 227.479 187.124 225.767Z" fill="#2F2D54"/>
<path d="M175.793 227.655C177.815 225.943 178.715 223.682 177.803 222.605C176.891 221.528 174.512 222.043 172.49 223.755C170.468 225.468 169.568 227.729 170.481 228.806C171.393 229.883 173.771 229.367 175.793 227.655Z" fill="#2F2D54"/>
<path d="M175.072 199.743C178.649 199.743 181.548 196.843 181.548 193.266C181.548 189.689 178.649 186.79 175.072 186.79C171.494 186.79 168.595 189.689 168.595 193.266C168.595 196.843 171.494 199.743 175.072 199.743Z" fill="white"/>
<path d="M172.41 193.104C173.602 193.104 174.569 192.137 174.569 190.945C174.569 189.752 173.602 188.786 172.41 188.786C171.218 188.786 170.251 189.752 170.251 190.945C170.251 192.137 171.218 193.104 172.41 193.104Z" fill="#2F2D54"/>
<path d="M191.348 177.286C191.633 170.27 185.587 164.328 177.843 164.013C170.099 163.698 163.59 169.131 163.305 176.147C163.02 183.162 168.403 184.756 176.147 185.071C183.891 185.386 191.063 184.302 191.348 177.286Z" fill="#E0F0FD"/>
<path d="M168.136 196.567C168.503 194.965 164.666 192.719 159.565 191.55C154.464 190.381 150.032 190.731 149.665 192.333C149.298 193.934 153.135 196.18 158.236 197.349C163.337 198.518 167.769 198.168 168.136 196.567Z" fill="#2F2D54"/>
<path d="M205.335 202.753C205.702 201.152 201.865 198.906 196.764 197.737C191.663 196.568 187.231 196.918 186.864 198.519C186.497 200.12 190.334 202.366 195.435 203.535C200.536 204.705 204.968 204.354 205.335 202.753Z" fill="#2F2D54"/>
<path d="M181.604 205.37C181.705 205.928 181.695 206.501 181.575 207.055C181.455 207.61 181.227 208.135 180.904 208.601C180.581 209.068 180.169 209.466 179.692 209.773C179.215 210.08 178.683 210.29 178.124 210.391C177.566 210.492 176.994 210.482 176.439 210.362C175.885 210.241 175.36 210.013 174.894 209.689C174.428 209.366 174.03 208.954 173.723 208.477C173.416 208 173.207 207.467 173.106 206.909C172.681 204.562 174.495 203.732 176.842 203.307C179.189 202.882 181.179 203.024 181.604 205.37Z" fill="white"/>
<defs>
<filter id="filter0_i_371_18932" x="67" y="33" width="106" height="166" filterUnits="userSpaceOnUse" color-interpolation-filters="sRGB">
<feFlood flood-opacity="0" result="BackgroundImageFix"/>
<feBlend mode="normal" in="SourceGraphic" in2="BackgroundImageFix" result="shape"/>
<feColorMatrix in="SourceAlpha" type="matrix" values="0 0 0 0 0 0 0 0 0 0 0 0 0 0 0 0 0 0 127 0" result="hardAlpha"/>
<feMorphology radius="1" operator="erode" in="SourceAlpha" result="effect1_innerShadow_371_18932"/>
<feOffset dx="1" dy="1"/>
<feGaussianBlur stdDeviation="2"/>
<feComposite in2="hardAlpha" operator="arithmetic" k2="-1" k3="1"/>
<feColorMatrix type="matrix" values="0 0 0 0 0.517647 0 0 0 0 0.568627 0 0 0 0 0.839216 0 0 0 0.2 0"/>
<feBlend mode="normal" in2="shape" result="effect1_innerShadow_371_18932"/>
</filter>
</defs>
</svg>
