<svg width="240" height="240" viewBox="0 0 240 240" fill="none" xmlns="http://www.w3.org/2000/svg">
<rect x="41" y="68" width="164" height="90" rx="6" fill="#C2C8EB"/>
<path d="M63 42C63 38.6863 65.6863 36 69 36L147 36L183 72V130C183 133.314 180.314 136 177 136H69C65.6863 136 63 133.314 63 130V42Z" fill="#C2C8EB"/>
<path d="M183 72L147 36V66C147 69.3137 149.686 72 153 72H183Z" fill="#C2C8EB"/>
<path d="M105.439 115C107.153 115 108.786 114.266 109.925 112.985L125.289 95.6872C126.807 93.978 128.984 93 131.27 93H210.607C217.603 93 223.116 98.9608 222.57 105.936L215.567 195.468C215.323 198.591 212.718 201 209.585 201H34.6572C31.5358 201 28.9358 198.607 28.6777 195.496L22.5389 121.496C22.2488 117.999 25.009 115 28.5184 115H105.439Z" fill="#C2C8EB"/>
<rect x="77" y="56" width="48" height="5" fill="#C2C8EB"/>
<rect x="77" y="75" width="58" height="2" fill="#C2C8EB"/>
<rect x="77" y="85" width="58" height="2" fill="#C2C8EB"/>
<rect x="40" y="67" width="164" height="90" rx="6" fill="#C2C8EB"/>
<path d="M62 41C62 37.6863 64.6863 35 68 35L146 35L182 71V129C182 132.314 179.314 135 176 135H68C64.6863 135 62 132.314 62 129V41Z" fill="#C2C8EB"/>
<path d="M182 71L146 35V65C146 68.3137 148.686 71 152 71H182Z" fill="#C2C8EB"/>
<path d="M104.439 114C106.153 114 107.786 113.266 108.925 111.985L124.289 94.6872C125.807 92.978 127.984 92 130.27 92H209.607C216.603 92 222.116 97.9608 221.57 104.936L214.567 194.468C214.323 197.591 211.718 200 208.585 200H33.6572C30.5358 200 27.9358 197.607 27.6777 194.496L21.5389 120.496C21.2488 116.999 24.009 114 27.5184 114H104.439Z" fill="#C2C8EB"/>
<rect x="76" y="55" width="48" height="5" fill="#C2C8EB"/>
<rect x="76" y="74" width="58" height="2" fill="#C2C8EB"/>
<rect x="76" y="84" width="58" height="2" fill="#C2C8EB"/>
<rect x="39" y="66" width="164" height="90" rx="6" fill="#949ED6"/>
<path d="M61 40C61 36.6863 63.6863 34 67 34L145 34L181 70V128C181 131.314 178.314 134 175 134H67C63.6863 134 61 131.314 61 128V40Z" fill="#F9FAFD"/>
<path d="M181 70L145 34V64C145 67.3137 147.686 70 151 70H181Z" fill="#C2C8EB"/>
<path d="M103.439 113C105.153 113 106.786 112.266 107.925 110.985L123.289 93.6872C124.807 91.978 126.984 91 129.27 91H208.607C215.603 91 221.116 96.9608 220.57 103.936L213.567 193.468C213.323 196.591 210.718 199 207.585 199H32.6572C29.5358 199 26.9358 196.607 26.6777 193.496L20.5389 119.496C20.2488 115.999 23.009 113 26.5184 113H103.439Z" fill="#ECEEF8"/>
<rect x="75" y="54" width="48" height="5" fill="#C2C8EB"/>
<rect x="75" y="73" width="58" height="2" fill="#C2C8EB"/>
<rect x="75" y="83" width="58" height="2" fill="#C2C8EB"/>
<path d="M192.5 208C213.211 208 230 190.987 230 170C230 149.013 213.211 132 192.5 132C171.789 132 155 149.013 155 170C155 190.987 171.789 208 192.5 208Z" fill="#3F51B5"/>
<path d="M191.5 207C212.211 207 229 189.987 229 169C229 148.013 212.211 131 191.5 131C170.789 131 154 148.013 154 169C154 189.987 170.789 207 191.5 207Z" fill="#8491D6"/>
<path opacity="0.5" d="M210.964 165.464H197.536V152.036C197.536 150.7 197.536 147 197.536 147C197.536 147 193.836 147 192.5 147C191.164 147 187.464 147 187.464 147C187.464 147 187.464 150.7 187.464 152.036V165.464H174.036C172.7 165.464 169 165.464 169 165.464C169 165.464 169 169.164 169 170.5C169 171.836 169 175.536 169 175.536C169 175.536 172.7 175.536 174.036 175.536H187.464V188.964C187.464 190.3 187.464 194 187.464 194C187.464 194 191.164 194 192.5 194C193.836 194 197.536 194 197.536 194C197.536 194 197.536 190.3 197.536 188.964V175.536H210.964C212.3 175.536 216 175.536 216 175.536C216 175.536 216 171.836 216 170.5C216 169.164 216 165.464 216 165.464C216 165.464 212.3 165.464 210.964 165.464Z" fill="#3F51B5"/>
<path d="M209.071 164.071H195.929V150.929C195.929 149.621 195.929 146 195.929 146C195.929 146 192.307 146 191 146C189.693 146 186.071 146 186.071 146C186.071 146 186.071 149.621 186.071 150.929V164.071H172.929C171.621 164.071 168 164.071 168 164.071C168 164.071 168 167.693 168 169C168 170.307 168 173.929 168 173.929C168 173.929 171.621 173.929 172.929 173.929H186.071V187.071C186.071 188.379 186.071 192 186.071 192C186.071 192 189.693 192 191 192C192.307 192 195.929 192 195.929 192C195.929 192 195.929 188.379 195.929 187.071V173.929H209.071C210.379 173.929 214 173.929 214 173.929C214 173.929 214 170.307 214 169C214 167.693 214 164.071 214 164.071C214 164.071 210.379 164.071 209.071 164.071Z" fill="white"/>
<path d="M92.5365 119.81C94.5522 114.537 94.8442 109.748 93.1886 109.116C91.5329 108.483 88.5567 112.245 86.541 117.519C84.5252 122.793 84.2333 127.581 85.8889 128.214C87.5445 128.846 90.5207 125.084 92.5365 119.81Z" fill="#2F2D54"/>
<path d="M100.92 192.563C105.169 188.844 107.667 184.749 106.499 183.415C105.332 182.081 100.942 184.014 96.6929 187.732C92.4442 191.451 89.9463 195.546 91.1135 196.88C92.2808 198.214 96.6713 196.281 100.92 192.563Z" fill="#2F2D54"/>
<path d="M77.6283 213.299C88.9201 213.299 98.0739 204.145 98.0739 192.853C98.0739 181.561 88.9201 172.407 77.6283 172.407C66.3364 172.407 57.1826 181.561 57.1826 192.853C57.1826 204.145 66.3364 213.299 77.6283 213.299Z" fill="#2F2D54"/>
<path d="M74.5229 208.899H68.3115V220.028H74.5229V208.899Z" fill="#2F2D54"/>
<path d="M86.9452 208.899H80.7339V220.028H86.9452V208.899Z" fill="#2F2D54"/>
<path d="M73.4876 222.098C76.3463 222.098 78.6637 221.229 78.6637 220.157C78.6637 219.085 76.3463 218.216 73.4876 218.216C70.6289 218.216 68.3115 219.085 68.3115 220.157C68.3115 221.229 70.6289 222.098 73.4876 222.098Z" fill="#2F2D54"/>
<path d="M85.91 221.839C88.7687 221.839 91.0861 220.97 91.0861 219.898C91.0861 218.826 88.7687 217.957 85.91 217.957C83.0513 217.957 80.7339 218.826 80.7339 219.898C80.7339 220.97 83.0513 221.839 85.91 221.839Z" fill="#2F2D54"/>
<path d="M78.146 194.665C82.0052 194.665 85.1337 191.536 85.1337 187.677C85.1337 183.818 82.0052 180.689 78.146 180.689C74.2867 180.689 71.1582 183.818 71.1582 187.677C71.1582 191.536 74.2867 194.665 78.146 194.665Z" fill="white"/>
<path d="M78.1462 190.006C79.4326 190.006 80.4754 188.964 80.4754 187.677C80.4754 186.391 79.4326 185.348 78.1462 185.348C76.8597 185.348 75.8169 186.391 75.8169 187.677C75.8169 188.964 76.8597 190.006 78.1462 190.006Z" fill="#2F2D54"/>
<path d="M57.7954 173.839C56.1445 166.445 61.4218 158.975 69.5825 157.152C77.7432 155.33 85.697 159.847 87.3479 167.24C88.9988 174.633 83.5904 177.36 75.4297 179.182C67.269 181.005 59.4463 181.232 57.7954 173.839Z" fill="#E0F0FD"/>
<path d="M70.6405 154.55C81.9323 154.55 91.0861 145.396 91.0861 134.104C91.0861 122.812 81.9323 113.658 70.6405 113.658C59.3486 113.658 50.1948 122.812 50.1948 134.104C50.1948 145.396 59.3486 154.55 70.6405 154.55Z" fill="#2F2D54"/>
<path d="M67.5351 150.15H61.3237V161.279H67.5351V150.15Z" fill="#2F2D54"/>
<path d="M79.9574 150.15H73.7461V161.279H79.9574V150.15Z" fill="#2F2D54"/>
<path d="M66.4998 163.349C69.3585 163.349 71.676 162.48 71.676 161.408C71.676 160.336 69.3585 159.467 66.4998 159.467C63.6412 159.467 61.3237 160.336 61.3237 161.408C61.3237 162.48 63.6412 163.349 66.4998 163.349Z" fill="#2F2D54"/>
<path d="M78.9222 163.091C81.7809 163.091 84.0983 162.222 84.0983 161.15C84.0983 160.078 81.7809 159.208 78.9222 159.208C76.0635 159.208 73.7461 160.078 73.7461 161.15C73.7461 162.222 76.0635 163.091 78.9222 163.091Z" fill="#2F2D54"/>
<path d="M71.1582 135.915C75.0174 135.915 78.1459 132.787 78.1459 128.927C78.1459 125.068 75.0174 121.94 71.1582 121.94C67.2989 121.94 64.1704 125.068 64.1704 128.927C64.1704 132.787 67.2989 135.915 71.1582 135.915Z" fill="white"/>
<path d="M71.1584 131.257C72.4448 131.257 73.4876 130.215 73.4876 128.928C73.4876 127.642 72.4448 126.599 71.1584 126.599C69.872 126.599 68.8291 127.642 68.8291 128.928C68.8291 130.215 69.872 131.257 71.1584 131.257Z" fill="#2F2D54"/>
<path d="M50.8076 115.09C49.1567 107.697 54.434 100.226 62.5947 98.4038C70.7554 96.5816 78.7092 101.098 80.3601 108.491C82.011 115.885 76.6026 118.612 68.4419 120.434C60.2812 122.256 52.4585 122.484 50.8076 115.09Z" fill="#E1FBE2"/>
<path d="M56.8485 128.998C57.608 127.396 54.0884 124.137 48.9871 121.717C43.8859 119.298 39.1348 118.635 38.3753 120.236C37.6157 121.838 41.1354 125.097 46.2366 127.517C51.3378 129.936 56.0889 130.599 56.8485 128.998Z" fill="#2F2D54"/>
<path d="M65.5116 195.661C65.5509 193.889 61.0069 192.351 55.3624 192.226C49.7178 192.101 45.1102 193.437 45.071 195.209C45.0318 196.981 49.5758 198.518 55.2203 198.643C60.8649 198.768 65.4724 197.433 65.5116 195.661Z" fill="#2F2D54"/>
<path d="M60.5977 141.48C60.5977 143.481 65.7501 147.433 71.4675 147.433C77.1849 147.433 82.5456 141.799 82.5456 139.798C82.5456 137.797 77.1849 140.186 71.4675 140.186C65.7501 140.186 60.5977 139.479 60.5977 141.48Z" fill="white"/>
<path d="M85.5596 201.251C85.6609 201.809 85.6514 202.382 85.5314 202.936C85.4114 203.491 85.1833 204.016 84.8602 204.482C84.5371 204.949 84.1253 205.347 83.6483 205.654C83.1714 205.961 82.6386 206.171 82.0804 206.272C81.5222 206.373 80.9496 206.363 80.3953 206.243C79.8409 206.122 79.3157 205.894 78.8497 205.571C78.3837 205.247 77.9859 204.835 77.6792 204.358C77.3724 203.881 77.1627 203.348 77.062 202.79C76.6372 200.443 78.4515 199.613 80.798 199.188C83.1446 198.763 85.1348 198.905 85.5596 201.251Z" fill="white"/>
</svg>
