<svg width="217" height="156" viewBox="0 0 217 156" fill="none" xmlns="http://www.w3.org/2000/svg">
<path d="M1 12.5311C1 10.5138 2.50215 8.81223 4.50386 8.56202L64.5279 1.05901C64.8415 1.01981 65.1587 1.01791 65.4727 1.05336L138.508 9.2974C138.835 9.33429 139.165 9.33074 139.491 9.28683L196.466 1.61085C198.866 1.28756 201 3.15368 201 5.57504V141.51C201 143.51 199.524 145.202 197.543 145.473L140.492 153.286C140.165 153.33 139.834 153.334 139.507 153.298L65.4698 145.052C65.1577 145.018 64.8426 145.02 64.5309 145.059L5.49614 152.438C3.10872 152.736 1 150.875 1 148.469V12.5311Z" fill="#D6DAF1"/>
<path d="M0 11.5444C0 9.52145 1.51039 7.81692 3.51867 7.57349L65.5335 0.0565476C65.8434 0.0189787 66.1567 0.0178262 66.4669 0.0531145L139.495 8.36049C139.83 8.39862 140.169 8.39419 140.503 8.34733L195.444 0.639165C197.851 0.301524 200 2.17021 200 4.60037V140.522C200 142.516 198.531 144.206 196.556 144.483L140.503 152.347C140.169 152.394 139.83 152.399 139.495 152.36L66.4669 144.053C66.1567 144.018 65.8434 144.019 65.5335 144.057L4.48133 151.457C2.09876 151.746 0 149.886 0 147.486V11.5444Z" fill="#E6E9F8"/>
<g filter="url(#filter0_d_771_28890)">
<path d="M5 14.7548C5 13.7508 5.74442 12.9024 6.73993 12.7718L65.7557 5.03204C65.918 5.01076 66.0822 5.00947 66.2447 5.0282L140.232 13.5537C140.41 13.5742 140.59 13.5707 140.767 13.5434L193.694 5.35664C194.906 5.16917 196 6.10671 196 7.33314V137.286C196 138.272 195.281 139.111 194.306 139.262L140.767 147.543C140.59 147.571 140.41 147.574 140.232 147.554L66.2447 139.028C66.0822 139.009 65.918 139.011 65.7557 139.032L7.26007 146.704C6.06247 146.861 5 145.928 5 144.721V14.7548Z" fill="white"/>
</g>
<path d="M140.5 15.299C140.5 14.3125 141.219 13.4733 142.194 13.3225L193.694 5.35664C194.906 5.16917 196 6.10671 196 7.33314V137.286C196 138.272 195.281 139.111 194.306 139.262L142.806 147.228C141.594 147.415 140.5 146.478 140.5 145.251V15.299Z" fill="url(#paint0_linear_771_28890)"/>
<path d="M5 14.7548C5 13.7508 5.74442 12.9024 6.73993 12.7718L63.7399 5.2964C64.9375 5.13934 66 6.07157 66 7.27942V137.245C66 138.249 65.2556 139.098 64.2601 139.228L7.26007 146.704C6.06247 146.861 5 145.928 5 144.721V14.7548Z" fill="url(#paint1_linear_771_28890)"/>
<mask id="mask0_771_28890" style="mask-type:alpha" maskUnits="userSpaceOnUse" x="5" y="5" width="191" height="143">
<path d="M5 14.7548C5 13.7508 5.74442 12.9024 6.73993 12.7718L65.7557 5.03204C65.918 5.01076 66.0822 5.00947 66.2447 5.0282L140.232 13.5537C140.41 13.5742 140.59 13.5707 140.767 13.5434L193.694 5.35664C194.906 5.16917 196 6.10671 196 7.33314V137.286C196 138.272 195.281 139.111 194.306 139.262L140.767 147.543C140.59 147.571 140.41 147.574 140.232 147.554L66.2447 139.028C66.0822 139.009 65.918 139.011 65.7557 139.032L7.26007 146.704C6.06247 146.861 5 145.928 5 144.721V14.7548Z" fill="white"/>
</mask>
<g mask="url(#mask0_771_28890)">
<path d="M0.5 76C-1 76 -1 87 -1 90L0.5 139.5C1.5 144.167 11.4 121.1 23 123.5C38.8113 126.771 41.4757 133.5 57 133.5C68.5 133.5 70 128 89.5 121.5C103.354 116.882 120.5 138.5 125.5 139.5C130.5 140.5 161.5 137.5 161.5 131C161.5 124.5 185.5 128 191.5 123.5C197.5 119 184 98 184.5 92C185 86 196 83.5 198.5 79C201 74.5 202.5 65 201.5 58C200.5 51 191.5 48.5 188.5 48.5C185.5 48.5 184.201 30 178.5 30C171.5 30 169 40 161.5 42C154 44 145 13.5 142.5 12C140 10.5 107 8.00001 101.5 6.00001C92.833 2.84839 101.449 40.0764 67 24C61 21.2 44.6667 24.1667 40 30C34.4 37 21.5 19 23 61H15.5C12.5 61 10 72 8.5 74C7 76 2 76 0.5 76Z" fill="#D0D8F3" fill-opacity="0.16"/>
<path d="M38.5 12C43 12.5 46.5 5.5 47 3.5L-5.5 8L0 45.5C0.666667 40.6667 4.5 45.5 17.5 41.5C23.2347 39.7355 24.5 29.5 28 25.5C31.5 21.5 34 11.5 38.5 12Z" fill="#D0D8F3" fill-opacity="0.2"/>
<path d="M93.4703 70.25C84.9703 63.75 73.4703 66.25 61.4703 67.75C39.9704 62.75 12.4702 90.75 18.9703 102.75C25.162 114.181 54.4702 108.424 68.9702 102.75C80.4702 98.25 103.97 107.75 111.47 107.75C118.97 107.75 123.47 90.25 120.47 81.75C117.47 73.25 101.97 76.75 93.4703 70.25Z" fill="#D0D8F3" fill-opacity="0.2"/>
<path d="M181.47 20C172.97 13.5 160.5 18.5 148.5 20C127 15 120 37 126.5 49C132.692 60.4308 142.5 65.174 157 59.5C168.5 55 173.97 66 181.47 66C188.97 66 193.47 46.25 190.47 37.75C187.47 29.25 189.97 26.5 181.47 20Z" fill="#D0D8F3" fill-opacity="0.3"/>
</g>
<path d="M78.9998 100.131C73.6395 100.131 69.2915 104.479 69.2915 109.839C69.2915 117.121 78.9998 127.869 78.9998 127.869C78.9998 127.869 88.7082 117.121 88.7082 109.839C88.7081 104.479 84.3602 100.131 78.9998 100.131ZM78.9998 113.307C77.0859 113.307 75.5326 111.753 75.5326 109.839C75.5326 107.925 77.0859 106.372 78.9998 106.372C80.9138 106.372 82.4671 107.925 82.4671 109.839C82.4671 111.753 80.9138 113.307 78.9998 113.307Z" fill="#3F51B5"/>
<path d="M149 79.131C143.639 79.131 139.292 83.4789 139.292 88.8393C139.292 96.1206 149 106.869 149 106.869C149 106.869 158.708 96.1206 158.708 88.8393C158.708 83.4789 154.36 79.131 149 79.131ZM149 92.3066C147.086 92.3066 145.533 90.7532 145.533 88.8393C145.533 86.9254 147.086 85.372 149 85.372C150.914 85.372 152.467 86.9254 152.467 88.8393C152.467 90.7532 150.914 92.3066 149 92.3066Z" fill="#3F51B5"/>
<path d="M101 52.131C95.6395 52.131 91.2915 56.4789 91.2915 61.8393C91.2915 69.1206 101 79.869 101 79.869C101 79.869 110.708 69.1206 110.708 61.8393C110.708 56.4789 106.36 52.131 101 52.131ZM101 65.3066C99.0859 65.3066 97.5326 63.7532 97.5326 61.8393C97.5326 59.9254 99.0859 58.372 101 58.372C102.914 58.372 104.467 59.9254 104.467 61.8393C104.467 63.7532 102.914 65.3066 101 65.3066Z" fill="#3F51B5"/>
<path d="M41.9998 28.131C36.6395 28.131 32.2915 32.4789 32.2915 37.8393C32.2915 45.1206 41.9998 55.869 41.9998 55.869C41.9998 55.869 51.7082 45.1206 51.7082 37.8393C51.7081 32.4789 47.3602 28.131 41.9998 28.131ZM41.9998 41.3066C40.0859 41.3066 38.5326 39.7532 38.5326 37.8393C38.5326 35.9254 40.0859 34.372 41.9998 34.372C43.9138 34.372 45.4671 35.9254 45.4671 37.8393C45.4671 39.7532 43.9138 41.3066 41.9998 41.3066Z" fill="#3F51B5"/>
<path d="M185.5 156C202.897 156 217 141.673 217 124C217 106.327 202.897 92 185.5 92C168.103 92 154 106.327 154 124C154 141.673 168.103 156 185.5 156Z" fill="#3F51B5"/>
<path d="M184.5 155C201.897 155 216 140.673 216 123C216 105.327 201.897 91 184.5 91C167.103 91 153 105.327 153 123C153 140.673 167.103 155 184.5 155Z" fill="#3F51B5"/>
<path d="M183.5 154C200.897 154 215 139.673 215 122C215 104.327 200.897 90 183.5 90C166.103 90 152 104.327 152 122C152 139.673 166.103 154 183.5 154Z" fill="#8491D6"/>
<path opacity="0.5" d="M199.821 119.321H188.679V108.179C188.679 107.07 188.679 104 188.679 104C188.679 104 185.608 104 184.5 104C183.392 104 180.321 104 180.321 104C180.321 104 180.321 107.07 180.321 108.179V119.321H169.179C168.07 119.321 165 119.321 165 119.321C165 119.321 165 122.392 165 123.5C165 124.608 165 127.679 165 127.679C165 127.679 168.07 127.679 169.179 127.679H180.321V138.821C180.321 139.93 180.321 143 180.321 143C180.321 143 183.392 143 184.5 143C185.608 143 188.679 143 188.679 143C188.679 143 188.679 139.93 188.679 138.821V127.679H199.821C200.93 127.679 204 127.679 204 127.679C204 127.679 204 124.608 204 123.5C204 122.392 204 119.321 204 119.321C204 119.321 200.93 119.321 199.821 119.321Z" fill="#3F51B5"/>
<path d="M198.821 118.321H187.679V107.179C187.679 106.07 187.679 103 187.679 103C187.679 103 184.608 103 183.5 103C182.392 103 179.321 103 179.321 103C179.321 103 179.321 106.07 179.321 107.179V118.321H168.179C167.07 118.321 164 118.321 164 118.321C164 118.321 164 121.392 164 122.5C164 123.608 164 126.679 164 126.679C164 126.679 167.07 126.679 168.179 126.679H179.321V137.821C179.321 138.93 179.321 142 179.321 142C179.321 142 182.392 142 183.5 142C184.608 142 187.679 142 187.679 142C187.679 142 187.679 138.93 187.679 137.821V126.679H198.821C199.93 126.679 203 126.679 203 126.679C203 126.679 203 123.608 203 122.5C203 121.392 203 118.321 203 118.321C203 118.321 199.93 118.321 198.821 118.321Z" fill="white"/>
<defs>
<filter id="filter0_d_771_28890" x="2" y="3.01505" width="199" height="150.552" filterUnits="userSpaceOnUse" color-interpolation-filters="sRGB">
<feFlood flood-opacity="0" result="BackgroundImageFix"/>
<feColorMatrix in="SourceAlpha" type="matrix" values="0 0 0 0 0 0 0 0 0 0 0 0 0 0 0 0 0 0 127 0" result="hardAlpha"/>
<feOffset dx="1" dy="2"/>
<feGaussianBlur stdDeviation="2"/>
<feComposite in2="hardAlpha" operator="out"/>
<feColorMatrix type="matrix" values="0 0 0 0 0.47451 0 0 0 0 0.52549 0 0 0 0 0.796078 0 0 0 0.2 0"/>
<feBlend mode="normal" in2="BackgroundImageFix" result="effect1_dropShadow_771_28890"/>
<feBlend mode="normal" in="SourceGraphic" in2="effect1_dropShadow_771_28890" result="shape"/>
</filter>
<linearGradient id="paint0_linear_771_28890" x1="188" y1="5" x2="140" y2="162" gradientUnits="userSpaceOnUse">
<stop stop-color="#F2F4FC"/>
<stop offset="1" stop-color="#F6F7FB"/>
</linearGradient>
<linearGradient id="paint1_linear_771_28890" x1="42.5" y1="-19.5" x2="25.5" y2="92.5" gradientUnits="userSpaceOnUse">
<stop stop-color="#F4F5FB" stop-opacity="0.2"/>
<stop offset="1" stop-color="#F4F5FB" stop-opacity="0.8"/>
</linearGradient>
</defs>
</svg>
