<svg width="240" height="240" viewBox="0 0 240 240" fill="none" xmlns="http://www.w3.org/2000/svg">
<g clip-path="url(#clip0_371_18880)">
<rect x="22" y="64" width="200" height="144" rx="8" fill="#D9DCF0"/>
<rect x="22" y="62" width="200" height="144" rx="8" fill="#D9DCF0"/>
<rect x="20" y="62" width="200" height="144" rx="8" fill="#F4F5FB"/>
<g filter="url(#filter0_d_371_18880)">
<rect x="28" y="69" width="184" height="129" rx="7" fill="white"/>
</g>
<rect x="36" y="85" width="29" height="29" rx="3" fill="#3F51B5" fill-opacity="0.12"/>
<rect x="76" y="87" width="71" height="9" rx="1" fill="#3F51B5" fill-opacity="0.2"/>
<rect x="76" y="106" width="125" height="7" rx="1" fill="#3F51B5" fill-opacity="0.12"/>
<rect x="76" y="130" width="35" height="14" rx="7" fill="#3F51B5" fill-opacity="0.06"/>
<rect x="120" y="130" width="35" height="14" rx="7" fill="#3F51B5" fill-opacity="0.06"/>
<rect x="164" y="130" width="35" height="14" rx="7" fill="#3F51B5" fill-opacity="0.06"/>
<rect x="30" y="158" width="181" height="1" fill="#3F51B5" fill-opacity="0.08"/>
<rect x="64" y="173" width="113" height="15" rx="2" fill="#3F51B5" fill-opacity="0.08"/>
<path d="M205.5 210C222.897 210 237 195.673 237 178C237 160.327 222.897 146 205.5 146C188.103 146 174 160.327 174 178C174 195.673 188.103 210 205.5 210Z" fill="#3F51B5"/>
<path d="M204.5 209C221.897 209 236 194.673 236 177C236 159.327 221.897 145 204.5 145C187.103 145 173 159.327 173 177C173 194.673 187.103 209 204.5 209Z" fill="#3F51B5"/>
<path d="M203.5 208C220.897 208 235 193.673 235 176C235 158.327 220.897 144 203.5 144C186.103 144 172 158.327 172 176C172 193.673 186.103 208 203.5 208Z" fill="#8491D6"/>
<path opacity="0.5" d="M219.821 173.321H208.679V162.179C208.679 161.07 208.679 158 208.679 158C208.679 158 205.608 158 204.5 158C203.392 158 200.321 158 200.321 158C200.321 158 200.321 161.07 200.321 162.179V173.321H189.179C188.07 173.321 185 173.321 185 173.321C185 173.321 185 176.392 185 177.5C185 178.608 185 181.679 185 181.679C185 181.679 188.07 181.679 189.179 181.679H200.321V192.821C200.321 193.93 200.321 197 200.321 197C200.321 197 203.392 197 204.5 197C205.608 197 208.679 197 208.679 197C208.679 197 208.679 193.93 208.679 192.821V181.679H219.821C220.93 181.679 224 181.679 224 181.679C224 181.679 224 178.608 224 177.5C224 176.392 224 173.321 224 173.321C224 173.321 220.93 173.321 219.821 173.321Z" fill="#3F51B5"/>
<path d="M218.821 172.321H207.679V161.179C207.679 160.07 207.679 157 207.679 157C207.679 157 204.608 157 203.5 157C202.392 157 199.321 157 199.321 157C199.321 157 199.321 160.07 199.321 161.179V172.321H188.179C187.07 172.321 184 172.321 184 172.321C184 172.321 184 175.392 184 176.5C184 177.608 184 180.679 184 180.679C184 180.679 187.07 180.679 188.179 180.679H199.321V191.821C199.321 192.93 199.321 196 199.321 196C199.321 196 202.392 196 203.5 196C204.608 196 207.679 196 207.679 196C207.679 196 207.679 192.93 207.679 191.821V180.679H218.821C219.93 180.679 223 180.679 223 180.679C223 180.679 223 177.608 223 176.5C223 175.392 223 172.321 223 172.321C223 172.321 219.93 172.321 218.821 172.321Z" fill="white"/>
<path d="M101.388 50.1853C102.13 48.6135 98.6921 45.4141 93.7091 43.0393C88.7262 40.6646 84.0853 40.0136 83.3434 41.5855C82.6014 43.1574 86.0395 46.3568 91.0224 48.7316C96.0054 51.1063 100.646 51.7572 101.388 50.1853Z" fill="#2F2D54"/>
<path d="M142.513 66.3751C143.84 65.2583 142.046 60.9084 138.506 56.6594C134.965 52.4104 131.019 49.8712 129.692 50.9881C128.364 52.1049 130.158 56.4548 133.699 60.7038C137.239 64.9528 141.185 67.4919 142.513 66.3751Z" fill="#2F2D54"/>
<path d="M114.86 75.2653C125.89 75.2653 134.832 66.2805 134.832 55.1971C134.832 44.1138 125.89 35.1289 114.86 35.1289C103.83 35.1289 94.8887 44.1138 94.8887 55.1971C94.8887 66.2805 103.83 75.2653 114.86 75.2653Z" fill="#2F2D54"/>
<path d="M123.313 70.9468H117.246V81.87H123.313V70.9468Z" fill="#2F2D54"/>
<path d="M111.179 70.9468H105.112V81.87H111.179V70.9468Z" fill="#2F2D54"/>
<path d="M118.257 83.9022C121.05 83.9022 123.313 83.0492 123.313 81.997C123.313 80.9448 121.05 80.0918 118.257 80.0918C115.465 80.0918 113.201 80.9448 113.201 81.997C113.201 83.0492 115.465 83.9022 118.257 83.9022Z" fill="#2F2D54"/>
<path d="M106.123 83.6483C108.915 83.6483 111.179 82.7953 111.179 81.7431C111.179 80.6909 108.915 79.8379 106.123 79.8379C103.331 79.8379 101.067 80.6909 101.067 81.7431C101.067 82.7953 103.331 83.6483 106.123 83.6483Z" fill="#2F2D54"/>
<path d="M108.59 29.9707C110.373 22.7542 118.245 18.5074 126.172 20.4853C134.099 22.4632 139.079 29.9167 137.296 37.1333C135.513 44.3498 129.596 44.3731 121.669 42.3952C113.742 40.4173 106.806 37.1873 108.59 29.9707Z" fill="#E0F0FD"/>
<path d="M111.874 57.6535C115.552 57.6535 118.533 54.6579 118.533 50.9627C118.533 47.2675 115.552 44.272 111.874 44.272C108.197 44.272 105.216 47.2675 105.216 50.9627C105.216 54.6579 108.197 57.6535 111.874 57.6535Z" fill="white"/>
<path d="M111.457 55.92C112.683 55.92 113.676 54.9214 113.676 53.6897C113.676 52.458 112.683 51.4595 111.457 51.4595C110.231 51.4595 109.237 52.458 109.237 53.6897C109.237 54.9214 110.231 55.92 111.457 55.92Z" fill="#2F2D54"/>
<path d="M120.335 63.076C120.774 65.4996 114.891 69.6482 112.479 70.0894C111.321 70.3013 110.127 70.0421 109.159 69.369C108.19 68.6958 107.528 67.6638 107.317 66.4999L107.316 66.4913C106.879 64.0672 108.744 63.2094 111.157 62.7706C113.569 62.3318 119.899 60.652 120.335 63.076Z" fill="white"/>
<path d="M33.221 209.506C44.251 209.506 53.1925 200.521 53.1925 189.438C53.1925 178.354 44.251 169.369 33.221 169.369C22.1911 169.369 13.2495 178.354 13.2495 189.438C13.2495 200.521 22.1911 209.506 33.221 209.506Z" fill="#2F2D54"/>
<path d="M30.1874 205.188H24.1201V216.111H30.1874V205.188Z" fill="#2F2D54"/>
<path d="M42.3217 205.188H36.2544V216.111H42.3217V205.188Z" fill="#2F2D54"/>
<path d="M33.2841 219.805C33.7313 218.853 32.0468 217.111 29.5217 215.913C26.9967 214.715 24.5873 214.515 24.1402 215.466C23.693 216.418 25.3775 218.16 27.9026 219.358C30.4276 220.556 32.837 220.756 33.2841 219.805Z" fill="#2F2D54"/>
<path d="M45.5327 219.29C45.926 218.315 44.1468 216.67 41.5589 215.616C38.9709 214.562 36.5541 214.498 36.1608 215.474C35.7675 216.449 37.5467 218.094 40.1347 219.147C42.7227 220.201 45.1394 220.265 45.5327 219.29Z" fill="#2F2D54"/>
<path d="M13.848 170.775C12.2354 163.518 17.3902 156.185 25.3617 154.396C33.3332 152.608 41.1026 157.041 42.7152 164.298C44.3278 171.555 39.0448 174.231 31.0734 176.02C23.1019 177.808 15.4606 178.032 13.848 170.775Z" fill="#E1FBE2"/>
<path d="M56.9612 181.201C58.9549 175.387 59.0989 170.165 57.2828 169.536C55.4667 168.907 52.3781 173.11 50.3844 178.923C48.3907 184.736 48.2467 189.959 50.0628 190.588C51.879 191.216 54.9675 187.014 56.9612 181.201Z" fill="#2F2D54"/>
<path d="M17.1233 187.471C18.4821 186.107 16.0774 181.475 11.7523 177.125C7.42708 172.776 2.81926 170.356 1.46041 171.72C0.101565 173.085 2.50625 177.717 6.83143 182.066C11.1566 186.416 15.7644 188.836 17.1233 187.471Z" fill="#2F2D54"/>
</g>
<defs>
<filter id="filter0_d_371_18880" x="24" y="65" width="194" height="139" filterUnits="userSpaceOnUse" color-interpolation-filters="sRGB">
<feFlood flood-opacity="0" result="BackgroundImageFix"/>
<feColorMatrix in="SourceAlpha" type="matrix" values="0 0 0 0 0 0 0 0 0 0 0 0 0 0 0 0 0 0 127 0" result="hardAlpha"/>
<feMorphology radius="1" operator="dilate" in="SourceAlpha" result="effect1_dropShadow_371_18880"/>
<feOffset dx="1" dy="1"/>
<feGaussianBlur stdDeviation="2"/>
<feComposite in2="hardAlpha" operator="out"/>
<feColorMatrix type="matrix" values="0 0 0 0 0.47451 0 0 0 0 0.52549 0 0 0 0 0.796078 0 0 0 0.2 0"/>
<feBlend mode="normal" in2="BackgroundImageFix" result="effect1_dropShadow_371_18880"/>
<feBlend mode="normal" in="SourceGraphic" in2="effect1_dropShadow_371_18880" result="shape"/>
</filter>
<clipPath id="clip0_371_18880">
<rect width="240" height="240" fill="white"/>
</clipPath>
</defs>
</svg>
