<svg width="720" height="500" viewBox="0 0 720 500" fill="none" xmlns="http://www.w3.org/2000/svg">
<ellipse opacity="0.08" cx="353.509" cy="250" rx="249.653" ry="250" fill="#7986CB"/>
<ellipse opacity="0.1" cx="353.509" cy="250" rx="199.723" ry="200" fill="#7986CB"/>
<ellipse opacity="0.12" cx="353.509" cy="250" rx="159.778" ry="160" fill="#7986CB"/>
<ellipse cx="353.509" cy="250" rx="119.834" ry="120" fill="#3F51B5"/>
<mask id="mask0_111_13133" style="mask-type:alpha" maskUnits="userSpaceOnUse" x="233" y="130" width="241" height="240">
<ellipse cx="353.509" cy="250" rx="119.834" ry="120" fill="#3F51B5"/>
</mask>
<g mask="url(#mask0_111_13133)">
<ellipse cx="341.526" cy="234" rx="119.834" ry="120" fill="#9DA7DC"/>
</g>
<path d="M370.985 297C370.985 309.677 361.976 320 349.015 320C336.055 320 323.551 311 323.551 297C323.551 281 334.036 273.192 347.018 274.047C361.498 275 370.985 284.323 370.985 297Z" fill="#3F51B5"/>
<mask id="mask1_111_13133" style="mask-type:alpha" maskUnits="userSpaceOnUse" x="323" y="273" width="48" height="47">
<path d="M370.985 297C370.985 309.677 361.976 320 349.015 320C336.055 320 323.551 311 323.551 297C323.551 281 334.036 273.192 347.018 274.047C361.498 275 370.985 284.323 370.985 297Z" fill="#3F51B5"/>
</mask>
<g mask="url(#mask1_111_13133)">
<path d="M375.479 298.017C375.479 310.694 366.47 321.017 353.509 321.017C340.548 321.017 328.044 312.017 328.044 298.017C328.044 282.017 338.53 274.208 351.512 275.063C365.992 276.017 375.479 285.34 375.479 298.017Z" fill="#7986CB"/>
</g>
<path d="M365.841 334.125C367.49 341 360.583 344.92 352.511 346C344.438 347.08 338.53 345.5 336.607 338.038C335.534 331.5 341.931 328.018 350.003 326.937C358.076 325.857 364.293 327.673 365.841 334.125Z" fill="#3F51B5"/>
<mask id="mask2_111_13133" style="mask-type:alpha" maskUnits="userSpaceOnUse" x="336" y="326" width="31" height="21">
<path d="M365.841 334.125C367.49 341 360.583 344.92 352.511 346C344.438 347.08 338.53 345.5 336.607 338.038C335.534 331.5 341.931 328.018 350.003 326.937C358.076 325.857 364.293 327.673 365.841 334.125Z" fill="#3F51B5"/>
</mask>
<g mask="url(#mask2_111_13133)">
<path d="M367.99 333.231C369.639 340.106 362.733 344.026 354.66 345.106C346.587 346.186 340.679 344.606 338.756 337.143C337.684 330.606 344.08 327.124 352.153 326.043C360.225 324.963 366.442 326.778 367.99 333.231Z" fill="#7986CB"/>
</g>
<path d="M279.435 303.143C275.94 304.143 267.452 299.624 264.592 291.562C261.959 284.143 262.805 277.512 269.948 274.643C276.939 272.643 282.431 280.143 283.929 287.643C285.527 295.643 282.93 302.143 279.435 303.143Z" fill="#3F51B5"/>
<mask id="mask3_111_13133" style="mask-type:alpha" maskUnits="userSpaceOnUse" x="263" y="274" width="22" height="30">
<path d="M279.435 303.143C275.94 304.143 267.452 299.624 264.592 291.562C261.959 284.143 262.805 277.512 269.948 274.643C276.939 272.643 282.431 280.143 283.929 287.643C285.527 295.643 282.93 302.143 279.435 303.143Z" fill="#3F51B5"/>
</mask>
<g mask="url(#mask3_111_13133)">
<path d="M281.755 302.785C278.26 303.785 269.772 299.266 266.912 291.205C264.279 283.785 265.125 277.154 272.268 274.285C279.258 272.285 284.751 279.785 286.249 287.285C287.847 295.285 285.25 301.785 281.755 302.785Z" fill="#7986CB"/>
</g>
<path d="M442.48 285.231C440.22 285.728 436.781 290.644 437.551 295.791C438.26 300.529 440.692 303.819 445.554 303.244C450.074 302.249 450.95 296.625 449.579 292.18C448.118 287.437 444.74 284.733 442.48 285.231Z" fill="#3F51B5"/>
<mask id="mask4_111_13133" style="mask-type:alpha" maskUnits="userSpaceOnUse" x="437" y="285" width="14" height="19">
<path d="M442.48 285.231C440.22 285.728 436.781 290.644 437.551 295.791C438.26 300.529 440.692 303.819 445.554 303.244C450.074 302.249 450.95 296.625 449.579 292.18C448.118 287.437 444.74 284.733 442.48 285.231Z" fill="#3F51B5"/>
</mask>
<g mask="url(#mask4_111_13133)">
<path d="M443.89 285.737C441.63 286.234 438.19 291.151 438.961 296.298C439.67 301.035 442.101 304.326 446.964 303.75C451.484 302.756 452.359 297.132 450.989 292.686C449.527 287.944 446.15 285.24 443.89 285.737Z" fill="#7986CB"/>
</g>
<ellipse rx="5.99206" ry="6.34843" transform="matrix(0.976432 -0.215825 0.215254 0.976558 439.617 215.493)" fill="#3F51B5"/>
<mask id="mask5_111_13133" style="mask-type:alpha" maskUnits="userSpaceOnUse" x="433" y="209" width="13" height="13">
<ellipse rx="5.99206" ry="6.34843" transform="matrix(0.976432 -0.215825 0.215254 0.976558 439.617 215.493)" fill="#3F51B5"/>
</mask>
<g mask="url(#mask5_111_13133)">
<ellipse rx="5.99206" ry="6.34843" transform="matrix(0.976432 -0.215825 0.215254 0.976558 440.845 215.222)" fill="#7986CB"/>
</g>
<ellipse rx="5.99206" ry="6.34843" transform="matrix(0.976432 -0.215825 0.215254 0.976558 364.401 148.016)" fill="#3F51B5"/>
<mask id="mask6_111_13133" style="mask-type:alpha" maskUnits="userSpaceOnUse" x="358" y="141" width="13" height="14">
<ellipse rx="5.99374" ry="6.34665" transform="matrix(0.962389 0.270779 -0.270215 0.963052 364.401 148.016)" fill="#3F51B5"/>
</mask>
<g mask="url(#mask6_111_13133)">
<ellipse rx="5.99374" ry="6.34665" transform="matrix(0.962389 0.270779 -0.270215 0.963052 365.611 148.356)" fill="#7986CB"/>
</g>
<ellipse rx="2.59469" ry="2.749" transform="matrix(0.976432 -0.215825 -0.215254 -0.976558 274.748 183.245)" fill="#3F51B5"/>
<mask id="mask7_111_13133" style="mask-type:alpha" maskUnits="userSpaceOnUse" x="272" y="180" width="6" height="6">
<ellipse rx="2.59469" ry="2.749" transform="matrix(0.976432 -0.215825 -0.215254 -0.976558 274.748 183.245)" fill="#3F51B5"/>
</mask>
<g mask="url(#mask7_111_13133)">
<ellipse rx="2.59469" ry="2.749" transform="matrix(0.976432 -0.215825 -0.215254 -0.976558 275.465 183.127)" fill="#6270BA"/>
</g>
<ellipse rx="1.80891" ry="1.91649" transform="matrix(0.976432 -0.215825 -0.215254 -0.976558 270.805 194.262)" fill="#3F51B5"/>
<mask id="mask8_111_13133" style="mask-type:alpha" maskUnits="userSpaceOnUse" x="268" y="192" width="5" height="5">
<ellipse rx="1.80891" ry="1.91649" transform="matrix(0.976432 -0.215825 -0.215254 -0.976558 270.805 194.262)" fill="#3F51B5"/>
</mask>
<g mask="url(#mask8_111_13133)">
<ellipse rx="1.80891" ry="1.91649" transform="matrix(0.976432 -0.215825 -0.215254 -0.976558 271.176 194.18)" fill="#6270BA"/>
</g>
<ellipse rx="2.59469" ry="2.749" transform="matrix(0.976432 -0.215825 -0.215254 -0.976558 354.637 171.245)" fill="#3F51B5"/>
<mask id="mask9_111_13133" style="mask-type:alpha" maskUnits="userSpaceOnUse" x="352" y="168" width="6" height="6">
<ellipse rx="2.59469" ry="2.749" transform="matrix(0.976432 -0.215825 -0.215254 -0.976558 354.637 171.245)" fill="#3F51B5"/>
</mask>
<g mask="url(#mask9_111_13133)">
<ellipse rx="2.59469" ry="2.749" transform="matrix(0.976432 -0.215825 -0.215254 -0.976558 355.168 171.127)" fill="#6270BA"/>
</g>
<ellipse rx="2.59469" ry="2.749" transform="matrix(0.976432 -0.215825 -0.215254 -0.976558 437.522 191.245)" fill="#3F51B5"/>
<mask id="mask10_111_13133" style="mask-type:alpha" maskUnits="userSpaceOnUse" x="434" y="188" width="7" height="6">
<ellipse rx="2.59469" ry="2.749" transform="matrix(0.976432 -0.215825 -0.215254 -0.976558 437.522 191.245)" fill="#3F51B5"/>
</mask>
<g mask="url(#mask10_111_13133)">
<ellipse rx="2.59469" ry="2.749" transform="matrix(0.976432 -0.215825 -0.215254 -0.976558 438.054 191.127)" fill="#6270BA"/>
</g>
<ellipse rx="2.95402" ry="3.1297" transform="matrix(0.976432 -0.215825 0.215254 0.976558 268.191 266.694)" fill="#3F51B5"/>
<mask id="mask11_111_13133" style="mask-type:alpha" maskUnits="userSpaceOnUse" x="265" y="263" width="7" height="7">
<ellipse rx="2.95402" ry="3.1297" transform="matrix(0.976432 -0.215825 0.215254 0.976558 268.191 266.694)" fill="#3F51B5"/>
</mask>
<g mask="url(#mask11_111_13133)">
<ellipse rx="2.95402" ry="3.1297" transform="matrix(0.976432 -0.215825 0.215254 0.976558 268.796 266.56)" fill="#6270BA"/>
</g>
<ellipse rx="1.76596" ry="1.87099" transform="matrix(0.976432 -0.215825 0.215254 0.976558 420.978 322.694)" fill="#3F51B5"/>
<mask id="mask12_111_13133" style="mask-type:alpha" maskUnits="userSpaceOnUse" x="419" y="320" width="4" height="5">
<ellipse rx="1.76596" ry="1.87099" transform="matrix(0.976432 -0.215825 0.215254 0.976558 420.978 322.694)" fill="#3F51B5"/>
</mask>
<g mask="url(#mask12_111_13133)">
<ellipse rx="1.76596" ry="1.87099" transform="matrix(0.976432 -0.215825 0.215254 0.976558 421.544 322.614)" fill="#6270BA"/>
</g>
<path d="M426.845 184.285C426.845 192.367 420.984 197.419 412.978 197.419C404.971 197.419 399.111 192.101 398.481 182.785C397.921 174.514 404.341 168 412.348 168C420.354 168 426.845 176.203 426.845 184.285Z" fill="#3F51B5"/>
<mask id="mask13_111_13133" style="mask-type:alpha" maskUnits="userSpaceOnUse" x="398" y="168" width="29" height="30">
<path d="M426.845 184.285C426.845 192.367 420.984 197.419 412.978 197.419C404.971 197.419 399.111 192.101 398.481 182.785C397.921 174.514 404.341 168 412.348 168C420.354 168 426.845 176.203 426.845 184.285Z" fill="#3F51B5"/>
</mask>
<g mask="url(#mask13_111_13133)">
<path d="M430.516 182.785C430.516 190.867 424.025 197.419 416.019 197.419C408.012 197.419 402.262 192.101 401.632 183.633C400.859 173.242 408.012 168.151 416.019 168.151C424.025 168.151 430.516 174.703 430.516 182.785Z" fill="#7986CB"/>
</g>
<path d="M199.639 284.77V318.52H15.0686L13.6624 293.031L124.053 120.062H157.979L121.24 182.992L57.7834 284.77H199.639ZM167.647 120.062V376H125.283V120.062H167.647Z" fill="#3F51B5"/>
<path d="M198.64 283.77V317.52H14.0701L12.6638 292.031L123.054 119.062H156.98L120.242 181.992L56.7849 283.77H198.64ZM166.648 119.062V375H124.285V119.062H166.648Z" fill="#3F51B5"/>
<path d="M197.642 282.77V316.52H13.0715L11.6653 291.031L122.056 118.062H155.982L119.243 180.992L55.7864 282.77H197.642ZM165.65 118.062V374H123.286V118.062H165.65Z" fill="#3F51B5"/>
<path d="M196.643 281.77V315.52H12.0728L10.6665 290.031L121.057 117.062H154.983L118.245 179.992L54.7876 281.77H196.643ZM164.651 117.062V373H122.288V117.062H164.651Z" fill="#3F51B5"/>
<path d="M195.645 280.77V314.52H11.0742L9.66797 289.031L120.059 116.062H153.984L117.246 178.992L53.7891 280.77H195.645ZM163.652 116.062V372H121.289V116.062H163.652Z" fill="#8491D6"/>
<path d="M710.929 284.77V318.52H526.358L524.952 293.031L635.343 120.062H669.269L632.53 182.992L569.073 284.77H710.929ZM678.937 120.062V376H636.573V120.062H678.937Z" fill="#3F51B5"/>
<path d="M709.93 283.77V317.52H525.36L523.954 292.031L634.344 119.062H668.27L631.532 181.992L568.075 283.77H709.93ZM677.938 119.062V375H635.575V119.062H677.938Z" fill="#3F51B5"/>
<path d="M708.932 282.77V316.52H524.361L522.955 291.031L633.346 118.062H667.271L630.533 180.992L567.076 282.77H708.932ZM676.939 118.062V374H634.576V118.062H676.939Z" fill="#3F51B5"/>
<path d="M707.933 281.77V315.52H523.363L521.957 290.031L632.347 117.062H666.273L629.535 179.992L566.078 281.77H707.933ZM675.941 117.062V373H633.578V117.062H675.941Z" fill="#3F51B5"/>
<path d="M706.935 280.77V314.52H522.364L520.958 289.031L631.349 116.062H665.274L628.536 178.992L565.079 280.77H706.935ZM674.942 116.062V372H632.579V116.062H674.942Z" fill="#8491D6"/>
<path d="M321.902 157.343C332.003 154.632 338 144.247 335.297 134.147C332.595 124.046 322.216 118.056 312.115 120.766C302.014 123.476 296.017 133.861 298.719 143.962C301.422 154.062 311.801 160.053 321.902 157.343Z" fill="#2F2D54"/>
<path d="M313.268 152.936L305.56 159.782L309.377 164.082L317.086 157.236L313.268 152.936Z" fill="#2F2D54"/>
<path d="M310.416 163.263C310.729 162.321 308.948 160.88 306.436 160.045C303.925 159.211 301.634 159.298 301.321 160.24C301.007 161.182 302.789 162.623 305.3 163.457C307.812 164.292 310.102 164.205 310.416 163.263Z" fill="#2F2D54"/>
<path d="M327.178 149.204L326.019 154.839L336.113 156.908L337.271 151.273L327.178 149.204Z" fill="#2F2D54"/>
<path d="M339.332 154.326C341.09 152.346 341.914 150.206 341.172 149.547C340.43 148.888 338.403 149.959 336.645 151.94C334.886 153.92 334.063 156.06 334.805 156.719C335.547 157.378 337.574 156.306 339.332 154.326Z" fill="#2F2D54"/>
<path d="M316.204 141.175C319.656 140.248 321.705 136.699 320.782 133.247C319.858 129.795 316.311 127.748 312.859 128.674C309.406 129.6 307.357 133.149 308.28 136.601C309.204 140.054 312.751 142.101 316.204 141.175Z" fill="white"/>
<path d="M315.731 133.318C316.324 132.29 315.967 130.973 314.932 130.376C313.898 129.779 312.578 130.128 311.985 131.156C311.391 132.184 311.749 133.501 312.783 134.098C313.817 134.695 315.137 134.346 315.731 133.318Z" fill="#2F2D54"/>
<path d="M326.112 115.287C324.576 108.443 317.206 104.274 309.651 105.976C302.096 107.677 297.217 114.605 298.754 121.45C300.291 128.294 305.897 128.439 313.452 126.737C321.007 125.035 327.649 122.132 326.112 115.287Z" fill="#FFF175"/>
<path d="M344.54 141.931C345.467 140.575 342.72 137.086 338.405 134.136C334.09 131.187 329.841 129.895 328.914 131.251C327.988 132.606 330.734 136.096 335.049 139.045C339.364 141.994 343.614 143.286 344.54 141.931Z" fill="#2F2D54"/>
<path d="M301.43 148.066C303.695 143.351 304.331 138.954 302.852 138.244C301.372 137.534 298.338 140.78 296.073 145.495C293.809 150.21 293.172 154.607 294.652 155.317C296.131 156.027 299.166 152.78 301.43 148.066Z" fill="#2F2D54"/>
<path d="M323.959 144.914C324.448 145.948 324.506 147.134 324.12 148.212C323.735 149.289 322.937 150.17 321.903 150.659C320.868 151.149 319.682 151.208 318.605 150.823C317.528 150.438 316.648 149.64 316.159 148.606L316.156 148.599C315.14 146.444 316.676 145.173 318.831 144.155C320.986 143.138 322.943 142.759 323.959 144.914Z" fill="white"/>
<path d="M502.788 348.783C504.278 347.536 502.265 342.679 498.292 337.934C494.32 333.19 489.892 330.354 488.403 331.601C486.913 332.849 488.926 337.706 492.899 342.45C496.871 347.195 501.299 350.03 502.788 348.783Z" fill="#2F2D54"/>
<path d="M493.02 343.387C496.934 331.647 490.589 318.956 478.848 315.043C467.106 311.129 454.416 317.474 450.502 329.215C446.588 340.956 452.934 353.646 464.675 357.56C476.416 361.473 489.107 355.128 493.02 343.387Z" fill="#2F2D54"/>
<path d="M481.245 353.887H474.438V366.084H481.245V353.887Z" fill="#2F2D54"/>
<path d="M467.63 353.887H460.822V366.084H467.63V353.887Z" fill="#2F2D54"/>
<path d="M475.572 368.354C478.705 368.354 481.245 367.401 481.245 366.226C481.245 365.051 478.705 364.099 475.572 364.099C472.439 364.099 469.899 365.051 469.899 366.226C469.899 367.401 472.439 368.354 475.572 368.354Z" fill="#2F2D54"/>
<path d="M461.957 368.07C465.09 368.07 467.63 367.118 467.63 365.943C467.63 364.768 465.09 363.815 461.957 363.815C458.824 363.815 456.284 364.768 456.284 365.943C456.284 367.118 458.824 368.07 461.957 368.07Z" fill="#2F2D54"/>
<path d="M464.725 308.133C466.726 300.075 475.558 295.333 484.453 297.542C493.347 299.75 498.936 308.073 496.935 316.131C494.934 324.189 488.295 324.215 479.401 322.007C470.506 319.798 462.724 316.191 464.725 308.133Z" fill="#9EE8FF"/>
<path d="M456.644 330.705C457.477 328.95 453.619 325.377 448.028 322.726C442.437 320.074 437.229 319.347 436.397 321.102C435.565 322.858 439.422 326.43 445.013 329.082C450.604 331.733 455.812 332.46 456.644 330.705Z" fill="#2F2D54"/>
<path d="M468.411 339.044C472.537 339.044 475.882 335.699 475.882 331.573C475.882 327.447 472.537 324.102 468.411 324.102C464.284 324.102 460.939 327.447 460.939 331.573C460.939 335.699 464.284 339.044 468.411 339.044Z" fill="white"/>
<path d="M465.34 331.385C466.715 331.385 467.83 330.27 467.83 328.895C467.83 327.52 466.715 326.405 465.34 326.405C463.965 326.405 462.85 327.52 462.85 328.895C462.85 330.27 463.965 331.385 465.34 331.385Z" fill="#2F2D54"/>
<path d="M468.347 350.293C470.071 350.293 471.469 348.895 471.469 347.171C471.469 345.447 470.071 344.049 468.347 344.049C466.622 344.049 465.225 345.447 465.225 347.171C465.225 348.895 466.622 350.293 468.347 350.293Z" fill="white"/>
<path d="M282.586 66.6734L312.172 58.7347L386.661 188.978L283.108 216.764L282.586 66.6734Z" fill="url(#paint0_linear_111_13133)"/>
<path d="M324.5 51.7681C315.186 52.7394 304.811 54.7081 294.217 57.5506C284.522 60.1519 275.352 63.2942 267.314 66.7366C267.281 66.6077 267.249 66.4788 267.22 66.3489C265.448 58.8384 266.684 50.9305 270.664 44.3153C274.644 37.7001 281.052 32.9025 288.519 30.9479C295.985 28.9932 303.918 30.0366 310.622 33.855C317.325 37.6735 322.268 43.964 324.392 51.3821C324.429 51.5119 324.465 51.6397 324.5 51.7681Z" fill="#7986CB"/>
<ellipse rx="61.7448" ry="13.4181" transform="matrix(0.965836 -0.259154 0.258484 0.966016 298.728 69.9068)" fill="#3F51B5"/>
<mask id="mask14_111_13133" style="mask-type:alpha" maskUnits="userSpaceOnUse" x="238" y="49" width="121" height="42">
<ellipse rx="61.7448" ry="13.4181" transform="matrix(0.965836 -0.259154 0.258484 0.966016 298.728 69.9068)" fill="#3F51B5"/>
</mask>
<g mask="url(#mask14_111_13133)">
<ellipse rx="61.5744" ry="13.2778" transform="matrix(0.965836 -0.259154 0.258484 0.966016 297.219 66.8)" fill="#B5BFF8"/>
</g>
<ellipse rx="6.70099" ry="1.43765" transform="matrix(0.965836 -0.259154 0.258484 0.966016 255.792 77.9543)" fill="#8F9DE8"/>
<ellipse rx="6.70099" ry="1.43765" transform="matrix(0.965836 -0.259154 0.258484 0.966016 271.642 81.6399)" fill="#8F9DE8"/>
<ellipse rx="6.70099" ry="1.43765" transform="matrix(0.965836 -0.259154 0.258484 0.966016 301.048 76.7269)" fill="#8F9DE8"/>
<ellipse rx="6.70099" ry="1.43765" transform="matrix(0.965836 -0.259154 0.258484 0.966016 328.042 66.5068)" fill="#8F9DE8"/>
<ellipse rx="6.70099" ry="1.43765" transform="matrix(0.965836 -0.259154 0.258484 0.966016 339.929 55.3786)" fill="#8F9DE8"/>
<defs>
<linearGradient id="paint0_linear_111_13133" x1="300.6" y1="61.1195" x2="312.76" y2="133.136" gradientUnits="userSpaceOnUse">
<stop stop-color="#C4F4FF"/>
<stop offset="1" stop-color="#C4F4FF" stop-opacity="0"/>
</linearGradient>
</defs>
</svg>
