<svg width="488" height="342" viewBox="0 0 488 342" fill="none" xmlns="http://www.w3.org/2000/svg">
<g opacity="0.1">
<path fill-rule="evenodd" clip-rule="evenodd" d="M377.422 335.532C396.27 333.418 411.464 330.594 420.71 326.858C475.009 304.914 501.239 243.107 479.295 188.808C457.352 134.508 395.544 108.279 341.245 130.222C321.011 138.399 283.33 169.509 244.014 205.325C301.369 257.574 362.203 319.839 377.422 335.532Z" fill="white" fill-opacity="0.5"/>
<path fill-rule="evenodd" clip-rule="evenodd" d="M110.605 335.532C91.7577 333.418 76.5639 330.594 67.3176 326.858C13.0182 304.914 -13.2113 243.107 8.7324 188.808C30.6761 134.508 92.4833 108.279 146.783 130.222C167.017 138.399 204.698 169.509 244.014 205.325C186.659 257.574 125.825 319.839 110.605 335.532Z" fill="white" fill-opacity="0.5"/>
<path fill-rule="evenodd" clip-rule="evenodd" d="M244.014 205.325C301.369 257.574 362.203 319.839 377.422 335.532C341.062 339.609 291.103 341.042 244.014 341.286C196.924 341.042 146.966 339.609 110.605 335.532C125.825 319.839 186.659 257.574 244.014 205.325Z" fill="white" fill-opacity="0.5"/>
<path fill-rule="evenodd" clip-rule="evenodd" d="M244.014 205.325C301.369 257.574 362.203 319.839 377.422 335.532C341.062 339.609 291.103 341.042 244.014 341.286C196.924 341.042 146.966 339.609 110.605 335.532C125.825 319.839 186.659 257.574 244.014 205.325Z" fill="white" fill-opacity="0.5"/>
<circle cx="244.004" cy="141.39" r="141.39" fill="white" fill-opacity="0.5"/>
</g>
</svg>
