<svg width="1200" height="211" viewBox="0 0 1200 211" fill="none" xmlns="http://www.w3.org/2000/svg">
<path d="M151.98 79.7048L146.392 77.9955L151.706 75.6619C167.439 68.661 173.558 60.6509 173.558 47.0052C173.558 21.9539 148.741 12.5028 142.599 11.5052C136.379 10.5758 130.095 10.1369 123.807 10.1925H73.776C67.6984 10.1925 57 10 57 10V153.517C57 153.517 68.4268 153.26 73.776 153.26H142.197C146.963 153.26 151.392 151.387 155.302 149.731C156.112 149.386 156.898 149.06 157.633 148.756C163.069 146.469 180.812 137.182 180.812 113.752C180.83 96.5243 171.658 85.708 151.98 79.7048ZM83.8043 28.3188H112.065C123.55 28.3188 147.453 28.3188 147.453 49.0704C147.453 58.4048 142.925 64.8514 133.998 68.2352C126.895 70.9246 118.749 70.9246 114.839 70.9246H83.8043V28.3188ZM144.941 130.303C139.61 133.675 131.597 135.245 119.705 135.245H83.8043V88.0475H118.65C124.477 88.0475 153.693 89.1793 153.693 111.518C153.693 120.426 150.815 126.57 144.941 130.303Z" fill="white"/>
<path d="M223.069 10V129.014C223.069 135.513 220.491 141.745 215.901 146.34C211.311 150.935 205.086 153.517 198.596 153.517V10H223.069Z" fill="white"/>
<path d="M336.853 48.5045V131.546C336.393 137.299 333.871 142.691 329.753 146.729C325.634 150.767 320.196 153.178 314.442 153.517H312.804V139.988C312.804 139.988 312.49 140.367 311.936 140.95C308.532 144.518 304.572 147.511 300.212 149.812L300.119 149.865C295.771 152.191 290.93 153.444 286 153.517C267.196 153.517 260.653 152.233 255.857 149.836C250.981 147.491 246.859 143.824 243.958 139.253C240.614 133.78 238.912 125.665 238.912 115.152V48.5045H263.1V104.639C263.1 131.33 276.269 136.931 287.317 136.931C288.238 136.931 289.135 136.931 290.003 136.843C305.235 135.851 312.315 126.103 312.729 105.678C312.729 105.048 312.729 104.406 312.729 103.753V48.5045H336.853Z" fill="white"/>
<path d="M444.287 121.722C443.96 122.013 429.929 136.307 409.389 136.307C396.633 136.307 377.754 130.397 377.754 108.939V106.757H457.899C457.899 106.757 457.642 90.7779 453.82 80.5742C450.323 71.2397 443.331 60.1551 433.699 54.9045C425.99 50.7098 417.884 48.3996 407.11 48.3996C399.354 48.3078 391.644 49.6059 384.344 52.2325C377.815 54.7657 371.912 58.6869 367.044 63.7255C362.426 68.4167 358.895 74.0672 356.701 80.2766C354.216 87.316 352.978 94.7353 353.041 102.201C353.041 118.816 358 129.201 367.772 138.821C377.544 148.441 391.471 153.289 409.22 153.289C436.921 153.289 450.795 139.813 453.82 136.569C455.335 134.941 457.899 131.318 457.899 131.318L446.827 119.067L444.287 121.722ZM406.411 64.3731C419.382 64.3731 434.59 74.7577 434.59 94.5933H377.486C377.486 73.0075 394.967 64.3731 406.399 64.3731H406.411Z" fill="white"/>
<path d="M522.368 153.517C497.801 153.517 483.91 139.299 477.791 130.828C474.117 125.812 471.692 119.989 470.717 113.846C470.335 111.484 470.14 109.097 470.135 106.705L493.443 106.845C493.937 108.948 494.59 111.012 495.395 113.017C497.574 118.04 499.963 120.339 502.014 123.063C503.442 124.965 511.495 134.428 529.856 134.428C538.06 134.428 546.084 132.818 551.882 130.012C559.457 126.354 563.414 121.844 563.414 114.843C563.414 102.131 551.416 95.0075 545.07 93.0297C540.106 91.4779 533.352 89.7919 524.99 88.03C516.192 86.1779 507.61 83.4172 499.381 79.7923C492.289 76.7587 486.596 72.5815 482.482 67.3776C478.368 62.1736 476.341 55.7095 476.341 48.0261C476.259 40.937 478.562 34.0265 482.878 28.4063C487.074 22.864 500.255 10 531.359 10C546.311 10 557.907 13.3721 568.029 19.9178C576.956 25.6935 582.73 36.3581 583.762 41.5037C584.143 43.8179 584.338 46.159 584.344 48.5045H561.619C561.619 48.5045 556.375 27.8054 529.961 27.8054C509.135 27.8054 500.715 40.6403 500.715 45.9959C500.715 48.627 501.298 52.6292 503.529 55.3303C505.799 57.9683 508.572 60.1245 511.687 61.6719C514.269 62.9729 517.514 63.8363 520.381 64.5889L522.083 65.0498C523.767 65.5165 526.744 66.1524 530.24 66.8875C533.113 67.4709 536.37 68.1885 539.511 68.9177C545.768 70.1781 551.941 71.8265 557.995 73.8533C563.641 75.5846 569.001 78.1402 573.902 81.4375C579.036 84.7863 583.173 88.9634 585.556 93.2048C587.788 97.1777 590.451 103.449 590.451 110.707C590.451 119.3 587.689 127.176 582.678 132.876C570.942 146.288 557.855 153.517 522.368 153.517Z" fill="white"/>
<path d="M702.278 73.3399C698.199 65.3415 692.535 59.1983 685.496 55.0678C678.449 50.9294 670.416 48.7746 662.246 48.8312C652.777 48.8312 647.626 50.5406 640.849 53.6151C631.543 57.8389 623.386 68.9236 623.386 68.9236V48.5045H600.66C600.66 48.5045 600.707 57.4014 600.707 62.0803V200.189H600.952C606.731 200.196 612.291 197.969 616.47 193.973C620.65 189.976 623.127 184.518 623.386 178.737V176.666L623.339 135.618L625.355 138.844C625.39 138.908 629.271 143.272 637.324 148.231C644.159 152.438 652.899 153.785 660.702 153.785C667.339 153.785 678.095 151.522 683.427 148.85C688.852 146.137 695.512 139.439 700.069 133.261C702.365 130.146 704.148 127.165 704.929 124.889C706.482 120.404 707.53 115.758 708.052 111.039C708.387 108.115 708.553 105.174 708.547 102.23C708.524 91.122 706.421 81.4025 702.278 73.3399ZM680.345 122.083C678.065 127.166 674.361 131.477 669.681 134.492C664.699 137.742 658.738 138.115 654.688 138.115C645.132 138.115 638.746 135.513 633.338 129.422C627.598 122.964 624.685 113.886 624.685 102.434C624.685 90.3169 627.598 80.9358 633.425 74.5709C639.276 68.1127 646.606 64.8398 655.195 64.8398C660.532 64.8077 665.751 66.4097 670.153 69.4311C674.593 72.4532 678.101 76.7995 680.572 82.3652C682.996 87.82 684.225 94.4007 684.225 101.932C684.225 109.762 682.92 116.523 680.345 122.083Z" fill="white"/>
<path d="M821.79 88.9168V133.634C820.902 139.182 818.067 144.232 813.795 147.876C809.524 151.52 804.094 153.52 798.482 153.517H797.696V92.8897C797.696 83.882 797.474 79.2906 792.451 73.2991C787.79 67.7276 782.167 65.4523 773.03 65.4523C767.133 65.4523 760.869 67.6343 756.796 71.2864C751.551 75.9536 748.055 81.7876 748.055 95.2058V130.42C747.767 136.641 745.097 142.511 740.6 146.812C736.102 151.113 730.122 153.514 723.902 153.517H723.867V10H748.084V63.4338L749.972 61.4444C750.013 61.4035 755.03 55.9487 760.927 53.1717C770.833 48.5045 774.819 48.6329 782.487 48.5045C790.155 48.3762 798.861 50.4881 804.28 53.6034C810.002 56.8938 814.116 59.9217 816.931 64.8456C818.87 68.0166 820.18 71.5328 820.788 75.201C821.508 79.7365 821.843 84.3247 821.79 88.9168Z" fill="white"/>
<path d="M929.677 121.722C929.351 122.013 915.319 136.307 894.779 136.307C882.024 136.307 863.144 130.397 863.144 108.939V106.757H943.289C943.289 106.757 943.033 90.7779 939.21 80.5742C935.714 71.2397 928.722 60.1551 919.09 54.9045C911.38 50.7098 903.275 48.3996 892.501 48.3996C884.745 48.3078 877.034 49.6059 869.735 52.2325C863.206 54.7657 857.303 58.6869 852.434 63.7255C847.816 68.4167 844.285 74.0672 842.091 80.2766C839.607 87.316 838.369 94.7353 838.432 102.201C838.432 118.816 843.391 129.201 853.163 138.821C862.935 148.441 876.861 153.289 894.61 153.289C922.312 153.289 936.186 139.813 939.21 136.569C940.725 134.941 943.289 131.318 943.289 131.318L932.218 119.067L929.677 121.722ZM891.802 64.3731C904.773 64.3731 919.981 74.7577 919.981 94.5933H862.876C862.876 73.0075 880.357 64.3731 891.79 64.3731H891.802Z" fill="white"/>
<path d="M1033.61 56.6721V74.1742C1033.61 74.1742 1025.45 68.3402 1016.13 66.59C1008.49 65.1548 1000.98 66.0066 994.771 70.2304C992.364 71.8698 990.336 73.9117 987.312 78.5439C984.218 83.2869 983.006 90.0311 982.959 90.5094V132.643C982.193 138.366 979.397 143.623 975.082 147.455C970.767 151.286 965.22 153.438 959.453 153.517V48.5045H982.953V66.7008C985.018 63.4294 987.478 60.4255 990.278 57.7573C994.986 53.3526 1001.42 49.9514 1006.8 49.0879C1009.12 48.7228 1011.45 48.5278 1013.8 48.5045C1017.87 48.5045 1023.12 50.2547 1026.62 52.0049C1031.41 54.4435 1033.61 56.6721 1033.61 56.6721Z" fill="white"/>
<path d="M1128.96 121.722C1128.64 122.013 1114.6 136.307 1094.06 136.307C1081.31 136.307 1062.43 130.397 1062.43 108.939V106.757H1142.57C1142.57 106.757 1142.32 90.7779 1138.5 80.5742C1135 71.2397 1128.01 60.1551 1118.37 54.9045C1110.67 50.7098 1102.56 48.3996 1091.79 48.3996C1084.03 48.3078 1076.32 49.6059 1069.02 52.2325C1062.49 54.7657 1056.59 58.6869 1051.72 63.7255C1047.1 68.4167 1043.57 74.0672 1041.38 80.2766C1038.89 87.316 1037.65 94.7353 1037.72 102.201C1037.72 118.816 1042.68 129.201 1052.45 138.821C1062.22 148.441 1076.15 153.289 1093.9 153.289C1121.6 153.289 1135.47 139.813 1138.5 136.569C1140.01 134.941 1142.57 131.318 1142.57 131.318L1131.5 119.067L1128.96 121.722ZM1091.09 64.3731C1104.06 64.3731 1119.27 74.7577 1119.27 94.5933H1062.16C1062.16 73.0075 1079.64 64.3731 1091.08 64.3731H1091.09Z" fill="white"/>
<path d="M151.98 79.7048L146.392 77.9955L151.706 75.6619C167.439 68.661 173.558 60.6509 173.558 47.0052C173.558 21.9539 148.741 12.5028 142.599 11.5052C136.379 10.5758 130.095 10.1369 123.807 10.1925H73.776C67.6984 10.1925 57 10 57 10V153.517C57 153.517 68.4268 153.26 73.776 153.26H142.197C146.963 153.26 151.392 151.387 155.302 149.731C156.112 149.386 156.898 149.06 157.633 148.756C163.069 146.469 180.812 137.182 180.812 113.752C180.83 96.5243 171.658 85.708 151.98 79.7048ZM83.8043 28.3188H112.065C123.55 28.3188 147.453 28.3188 147.453 49.0704C147.453 58.4048 142.925 64.8514 133.998 68.2352C126.895 70.9246 118.749 70.9246 114.839 70.9246H83.8043V28.3188ZM144.941 130.303C139.61 133.675 131.597 135.245 119.705 135.245H83.8043V88.0475H118.65C124.477 88.0475 153.693 89.1793 153.693 111.518C153.693 120.426 150.815 126.57 144.941 130.303Z" fill="white"/>
<path d="M223.069 10V129.014C223.069 135.513 220.491 141.745 215.901 146.34C211.311 150.935 205.086 153.517 198.596 153.517V10H223.069Z" fill="white"/>
<path d="M336.853 48.5045V131.546C336.393 137.299 333.871 142.691 329.753 146.729C325.634 150.767 320.196 153.178 314.442 153.517H312.804V139.988C312.804 139.988 312.49 140.367 311.936 140.95C308.532 144.518 304.572 147.511 300.212 149.812L300.119 149.865C295.771 152.191 290.93 153.444 286 153.517C267.196 153.517 260.653 152.233 255.857 149.836C250.981 147.491 246.859 143.824 243.958 139.253C240.614 133.78 238.912 125.665 238.912 115.152V48.5045H263.1V104.639C263.1 131.33 276.269 136.931 287.317 136.931C288.238 136.931 289.135 136.931 290.003 136.843C305.235 135.851 312.315 126.103 312.729 105.678C312.729 105.048 312.729 104.406 312.729 103.753V48.5045H336.853Z" fill="white"/>
<path d="M444.287 121.722C443.96 122.013 429.929 136.307 409.389 136.307C396.633 136.307 377.754 130.397 377.754 108.939V106.757H457.899C457.899 106.757 457.642 90.7779 453.82 80.5742C450.323 71.2397 443.331 60.1551 433.699 54.9045C425.99 50.7098 417.884 48.3996 407.11 48.3996C399.354 48.3078 391.644 49.6059 384.344 52.2325C377.815 54.7657 371.912 58.6869 367.044 63.7255C362.426 68.4167 358.895 74.0672 356.701 80.2766C354.216 87.316 352.978 94.7353 353.041 102.201C353.041 118.816 358 129.201 367.772 138.821C377.544 148.441 391.471 153.289 409.22 153.289C436.921 153.289 450.795 139.813 453.82 136.569C455.335 134.941 457.899 131.318 457.899 131.318L446.827 119.067L444.287 121.722ZM406.411 64.3731C419.382 64.3731 434.59 74.7577 434.59 94.5933H377.486C377.486 73.0075 394.967 64.3731 406.399 64.3731H406.411Z" fill="white"/>
<path d="M522.368 153.517C497.801 153.517 483.91 139.299 477.791 130.828C474.117 125.812 471.692 119.989 470.717 113.846C470.335 111.484 470.14 109.097 470.135 106.705L493.443 106.845C493.937 108.948 494.59 111.012 495.395 113.017C497.574 118.04 499.963 120.339 502.014 123.063C503.442 124.965 511.495 134.428 529.856 134.428C538.06 134.428 546.084 132.818 551.882 130.012C559.457 126.354 563.414 121.844 563.414 114.843C563.414 102.131 551.416 95.0075 545.07 93.0297C540.106 91.4779 533.352 89.7919 524.99 88.03C516.192 86.1779 507.61 83.4172 499.381 79.7923C492.289 76.7587 486.596 72.5815 482.482 67.3776C478.368 62.1736 476.341 55.7095 476.341 48.0261C476.259 40.937 478.562 34.0265 482.878 28.4063C487.074 22.864 500.255 10 531.359 10C546.311 10 557.907 13.3721 568.029 19.9178C576.956 25.6935 582.73 36.3581 583.762 41.5037C584.143 43.8179 584.338 46.159 584.344 48.5045H561.619C561.619 48.5045 556.375 27.8054 529.961 27.8054C509.135 27.8054 500.715 40.6403 500.715 45.9959C500.715 48.627 501.298 52.6292 503.529 55.3303C505.799 57.9683 508.572 60.1245 511.687 61.6719C514.269 62.9729 517.514 63.8363 520.381 64.5889L522.083 65.0498C523.767 65.5165 526.744 66.1524 530.24 66.8875C533.113 67.4709 536.37 68.1885 539.511 68.9177C545.768 70.1781 551.941 71.8265 557.995 73.8533C563.641 75.5846 569.001 78.1402 573.902 81.4375C579.036 84.7863 583.173 88.9634 585.556 93.2048C587.788 97.1777 590.451 103.449 590.451 110.707C590.451 119.3 587.689 127.176 582.678 132.876C570.942 146.288 557.855 153.517 522.368 153.517Z" fill="white"/>
<path d="M702.278 73.3399C698.199 65.3415 692.535 59.1983 685.496 55.0678C678.449 50.9294 670.416 48.7746 662.246 48.8312C652.777 48.8312 647.626 50.5406 640.849 53.6151C631.543 57.8389 623.386 68.9236 623.386 68.9236V48.5045H600.66C600.66 48.5045 600.707 57.4014 600.707 62.0803V200.189H600.952C606.731 200.196 612.291 197.969 616.47 193.973C620.65 189.976 623.127 184.518 623.386 178.737V176.666L623.339 135.618L625.355 138.844C625.39 138.908 629.271 143.272 637.324 148.231C644.159 152.438 652.899 153.785 660.702 153.785C667.339 153.785 678.095 151.522 683.427 148.85C688.852 146.137 695.512 139.439 700.069 133.261C702.365 130.146 704.148 127.165 704.929 124.889C706.482 120.404 707.53 115.758 708.052 111.039C708.387 108.115 708.553 105.174 708.547 102.23C708.524 91.122 706.421 81.4025 702.278 73.3399ZM680.345 122.083C678.065 127.166 674.361 131.477 669.681 134.492C664.699 137.742 658.738 138.115 654.688 138.115C645.132 138.115 638.746 135.513 633.338 129.422C627.598 122.964 624.685 113.886 624.685 102.434C624.685 90.3169 627.598 80.9358 633.425 74.5709C639.276 68.1127 646.606 64.8398 655.195 64.8398C660.532 64.8077 665.751 66.4097 670.153 69.4311C674.593 72.4532 678.101 76.7995 680.572 82.3652C682.996 87.82 684.225 94.4007 684.225 101.932C684.225 109.762 682.92 116.523 680.345 122.083Z" fill="white"/>
<path d="M821.79 88.9168V133.634C820.902 139.182 818.067 144.232 813.795 147.876C809.524 151.52 804.094 153.52 798.482 153.517H797.696V92.8897C797.696 83.882 797.474 79.2906 792.451 73.2991C787.79 67.7276 782.167 65.4523 773.03 65.4523C767.133 65.4523 760.869 67.6343 756.796 71.2864C751.551 75.9536 748.055 81.7876 748.055 95.2058V130.42C747.767 136.641 745.097 142.511 740.6 146.812C736.102 151.113 730.122 153.514 723.902 153.517H723.867V10H748.084V63.4338L749.972 61.4444C750.013 61.4035 755.03 55.9487 760.927 53.1717C770.833 48.5045 774.819 48.6329 782.487 48.5045C790.155 48.3762 798.861 50.4881 804.28 53.6034C810.002 56.8938 814.116 59.9217 816.931 64.8456C818.87 68.0166 820.18 71.5328 820.788 75.201C821.508 79.7365 821.843 84.3247 821.79 88.9168Z" fill="white"/>
<path d="M929.677 121.722C929.351 122.013 915.319 136.307 894.779 136.307C882.024 136.307 863.144 130.397 863.144 108.939V106.757H943.289C943.289 106.757 943.033 90.7779 939.21 80.5742C935.714 71.2397 928.722 60.1551 919.09 54.9045C911.38 50.7098 903.275 48.3996 892.501 48.3996C884.745 48.3078 877.034 49.6059 869.735 52.2325C863.206 54.7657 857.303 58.6869 852.434 63.7255C847.816 68.4167 844.285 74.0672 842.091 80.2766C839.607 87.316 838.369 94.7353 838.432 102.201C838.432 118.816 843.391 129.201 853.163 138.821C862.935 148.441 876.861 153.289 894.61 153.289C922.312 153.289 936.186 139.813 939.21 136.569C940.725 134.941 943.289 131.318 943.289 131.318L932.218 119.067L929.677 121.722ZM891.802 64.3731C904.773 64.3731 919.981 74.7577 919.981 94.5933H862.876C862.876 73.0075 880.357 64.3731 891.79 64.3731H891.802Z" fill="white"/>
<path d="M1033.61 56.6721V74.1742C1033.61 74.1742 1025.45 68.3402 1016.13 66.59C1008.49 65.1548 1000.98 66.0066 994.771 70.2304C992.364 71.8698 990.336 73.9117 987.312 78.5439C984.218 83.2869 983.006 90.0311 982.959 90.5094V132.643C982.193 138.366 979.397 143.623 975.082 147.455C970.767 151.286 965.22 153.438 959.453 153.517V48.5045H982.953V66.7008C985.018 63.4294 987.478 60.4255 990.278 57.7573C994.986 53.3526 1001.42 49.9514 1006.8 49.0879C1009.12 48.7228 1011.45 48.5278 1013.8 48.5045C1017.87 48.5045 1023.12 50.2547 1026.62 52.0049C1031.41 54.4435 1033.61 56.6721 1033.61 56.6721Z" fill="white"/>
<path d="M1128.96 121.722C1128.64 122.013 1114.6 136.307 1094.06 136.307C1081.31 136.307 1062.43 130.397 1062.43 108.939V106.757H1142.57C1142.57 106.757 1142.32 90.7779 1138.5 80.5742C1135 71.2397 1128.01 60.1551 1118.37 54.9045C1110.67 50.7098 1102.56 48.3996 1091.79 48.3996C1084.03 48.3078 1076.32 49.6059 1069.02 52.2325C1062.49 54.7657 1056.59 58.6869 1051.72 63.7255C1047.1 68.4167 1043.57 74.0672 1041.38 80.2766C1038.89 87.316 1037.65 94.7353 1037.72 102.201C1037.72 118.816 1042.68 129.201 1052.45 138.821C1062.22 148.441 1076.15 153.289 1093.9 153.289C1121.6 153.289 1135.47 139.813 1138.5 136.569C1140.01 134.941 1142.57 131.318 1142.57 131.318L1131.5 119.067L1128.96 121.722ZM1091.09 64.3731C1104.06 64.3731 1119.27 74.7577 1119.27 94.5933H1062.16C1062.16 73.0075 1079.64 64.3731 1091.08 64.3731H1091.09Z" fill="white"/>
</svg>
