<?xml version="1.0" standalone="no"?><!DOCTYPE svg PUBLIC "-//W3C//DTD SVG 1.1//EN" "http://www.w3.org/Graphics/SVG/1.1/DTD/svg11.dtd"><svg t="1651049552312" class="icon" viewBox="0 0 3982 1024" version="1.1" xmlns="http://www.w3.org/2000/svg" p-id="3471" xmlns:xlink="http://www.w3.org/1999/xlink" width="186.65625" height="48"><defs><style type="text/css"></style></defs><path d="M1414.506667 507.569778l-13.428148-4.105482 12.764444-5.60474c37.783704-16.815407 52.48-36.054519 52.48-68.82963 0-60.169481-59.602963-82.870519-74.358519-85.266963a288.292741 288.292741 0 0 0-45.131851-3.152593H1226.666667c-14.601481 0-40.296296-0.462222-40.296297-0.462222v344.708741s27.448889-0.616296 40.296297-0.616296h164.337777c11.448889 0 22.08-4.497778 31.478519-8.47763 1.943704-0.827259 3.828148-1.611852 5.594074-2.339556 13.060741-5.493333 55.68-27.800889 55.68-84.075851 0.035556-41.379556-21.997037-67.358815-69.25037-81.777778z m-163.757037-123.42163h67.875555c27.591111 0 85.001481 0 85.001482 49.841778 0 22.420148-10.88 37.904593-32.32 46.031407-17.054815 6.460444-36.622222 6.460444-46.008889 6.460445h-74.548148v-102.33363z m146.844444 244.952889c-12.811852 8.099556-32.047407 11.868444-60.61037 11.868444h-86.234074v-113.361777h83.697777c13.997037 0 84.171852 2.718815 84.171852 56.373333 0 21.397333-6.921481 36.151704-21.025185 45.12zM1585.244444 340.148148v285.856c0 15.608889-6.186667 30.578963-17.208888 41.615408a58.747259 58.747259 0 0 1-41.564445 17.237333V340.148148h58.773333zM1858.548148 432.630519v199.454814a57.57037 57.57037 0 0 1-17.054815 36.468148 57.365333 57.365333 0 0 1-36.776296 16.303408h-3.934815v-32.494222s-0.758519 0.910222-2.085926 2.311111a109.633185 109.633185 0 0 1-28.16 21.285926l-0.225185 0.125629a74.190222 74.190222 0 0 1-33.908148 8.771556c-45.167407 0-60.882963-3.082667-72.402963-8.841482a69.553778 69.553778 0 0 1-28.574815-25.418666c-8.035556-13.143704-12.124444-32.635259-12.124444-57.88563V432.630519h58.097778v134.829037c0 64.107852 31.632593 77.559704 58.168888 77.559703 2.204444 0 4.361481 0 6.447408-0.209778 36.586667-2.382222 53.594074-25.796741 54.589629-74.855111V432.630519h57.943704zM2116.586667 608.488296c-0.782222 0.70163-34.488889 35.031704-83.828148 35.031704-30.637037 0-75.982222-14.194963-75.982223-65.732741v-5.240889h192.497778s-0.616296-38.379852-9.78963-62.888296c-8.402963-22.420148-25.197037-49.044148-48.331851-61.655704-18.512593-10.074074-37.985185-15.623111-63.857778-15.623111a156.045037 156.045037 0 0 0-54.684445 9.205334 116.321185 116.321185 0 0 0-41.552592 27.605333 107.792593 107.792593 0 0 0-24.841482 39.753481 154.106074 154.106074 0 0 0-8.794074 52.658963c0 39.907556 11.911111 64.850963 35.377778 87.957334 23.478519 23.10637 56.924444 34.750815 99.555556 34.750815 66.536296 0 99.863704-32.368593 107.128888-40.16 3.638519-3.908741 9.78963-12.611556 9.78963-12.611556l-26.583704-29.425778-6.103703 6.375111z m-90.974815-137.743407c31.158519 0 67.685926 24.942222 67.685926 72.585481h-137.161482c0-51.847111 41.991111-72.585481 69.451852-72.585481h0.023704zM2304.13037 684.856889c-59.01037 0-92.373333-34.148741-107.069629-54.494815a93.967407 93.967407 0 0 1-16.995556-40.790518 109.385481 109.385481 0 0 1-1.398518-17.150815l55.988148 0.335407c1.185185 5.05363 2.74963 10.008889 4.681481 14.825482 5.238519 12.065185 10.974815 17.585778 15.905185 24.13037 3.425185 4.567704 22.767407 27.296 66.868149 27.296 19.70963 0 38.980741-3.867259 52.906666-10.607407 18.192593-8.785778 27.697778-19.617185 27.697778-36.432593 0-30.533926-28.823704-47.643259-44.065185-52.393481-11.922963-3.727407-28.136296-7.776-48.225185-12.008297a312.176593 312.176593 0 0 1-61.511111-19.785481c-17.031111-7.286519-30.708148-17.320296-40.580741-29.81926-9.884444-12.498963-14.755556-28.024889-14.755556-46.479407a75.882667 75.882667 0 0 1 15.703704-47.124148c10.074074-13.312 41.73037-44.209778 116.444444-44.209778 35.911111 0 63.762963 8.099556 88.071112 23.821037 21.44 13.872593 35.318519 39.488 37.795555 51.847111 0.912593 5.558519 1.374815 11.181037 1.398519 16.814223h-54.58963s-12.598519-49.716148-76.041481-49.716149c-50.014815 0-70.234074 30.827852-70.234075 43.691852 0 6.319407 1.398519 15.931259 6.755556 22.418963a62.587259 62.587259 0 0 0 19.591111 15.232c6.198519 3.125333 13.997037 5.199407 20.882963 7.006815l4.088889 1.106963c4.041481 1.121185 11.2 2.647704 19.591111 4.41363 6.897778 1.400889 14.72 3.125333 22.26963 4.875851a370.112 370.112 0 0 1 44.397037 11.855408 144.298667 144.298667 0 0 1 38.21037 18.216296c12.325926 8.042667 22.257778 18.076444 27.982222 28.263111 5.368889 9.543111 11.757037 24.60563 11.757037 42.037334 0 20.641185-6.637037 39.557926-18.666666 53.248-28.183704 32.214519-59.626667 49.576296-144.853334 49.576296zM2736.248889 492.282074c-9.801481-19.210667-23.407407-33.966222-40.308148-43.887407a108.785778 108.785778 0 0 0-55.845926-14.978371c-22.743704 0-35.117037 4.105481-51.38963 11.490371-22.352593 10.144-41.943704 36.768-41.943704 36.768v-49.044148h-54.589629s0.118519 21.370074 0.118518 32.608v331.719111h0.580741a53.837037 53.837037 0 0 0 37.274074-14.930963 54.004148 54.004148 0 0 0 16.616296-36.592593v-4.975407l-0.118518-98.592 4.847407 7.74874c0.082963 0.154074 9.398519 10.635852 28.740741 22.546963 16.426667 10.102519 37.416296 13.339259 56.154074 13.33926 15.940741 0 41.777778-5.436444 54.58963-11.854223 13.025185-6.516148 29.025185-22.602667 39.964444-37.44237 5.511111-7.482074 9.801481-14.642963 11.674074-20.107852 3.733333-10.773333 6.245926-21.931852 7.502223-33.265778a182.90963 182.90963 0 0 0 1.185185-21.159111c-0.047407-26.679704-5.108148-50.024296-15.051852-69.390222z m-52.681482 117.074963a69.112889 69.112889 0 0 1-25.611851 29.805037c-11.97037 7.80563-26.287407 8.70163-36.017778 8.70163-22.945185 0-38.293333-6.249481-51.271111-20.878223-13.795556-15.511704-20.788148-37.315556-20.788148-64.822518 0-29.103407 6.992593-51.636148 20.989629-66.923852 14.056296-15.511704 31.656296-23.373037 52.290371-23.373037a62.791111 62.791111 0 0 1 35.922962 11.028148c10.666667 7.258074 19.093333 17.69837 25.031112 31.066074 5.819259 13.101037 8.77037 28.907852 8.77037 46.997334 0 18.805333-3.128889 35.045926-9.315556 48.399407zM3023.300741 529.696v107.406222a56.791704 56.791704 0 0 1-19.2 34.20563 56.636444 56.636444 0 0 1-36.788148 13.549037h-1.884445V539.239111c0-21.635556-0.533333-32.663704-12.598518-47.054222-11.2-13.381926-24.699259-18.846815-46.648889-18.846815-14.162963 0-29.202963 5.239704-38.992593 14.012445-12.598519 11.209481-20.98963 25.221926-20.989629 57.450666v84.580741a58.263704 58.263704 0 0 1-17.908149 39.371852 58.08237 58.08237 0 0 1-40.106666 16.103111h-0.082963V340.148148h58.168889v128.341333l4.527407-4.778666c0.106667-0.09837 12.148148-13.199407 26.311111-19.86963 23.798519-11.210667 33.374815-10.901333 51.792593-11.210666 18.417778-0.308148 39.324444 4.764444 52.337778 12.247703 13.748148 7.902815 23.632593 15.175111 30.388148 27.002074a69.616593 69.616593 0 0 1 9.268148 24.872297c1.718519 10.893037 2.524444 21.914074 2.405926 32.943407zM3282.42963 608.488296c-0.782222 0.70163-34.488889 35.031704-83.816297 35.031704-30.637037 0-75.982222-14.194963-75.982222-65.732741v-5.240889h192.485926s-0.604444-38.379852-9.78963-62.888296c-8.402963-22.420148-25.197037-49.044148-48.331851-61.655704-18.512593-10.074074-37.985185-15.623111-63.857778-15.623111a156.045037 156.045037 0 0 0-54.684445 9.205334 116.321185 116.321185 0 0 0-41.552592 27.605333 107.946667 107.946667 0 0 0-24.841482 39.753481 154.392889 154.392889 0 0 0-8.794074 52.658963c0 39.907556 11.911111 64.850963 35.38963 87.957334 23.466667 23.10637 56.912593 34.750815 99.543704 34.750815 66.536296 0 99.863704-32.368593 107.128888-40.16 3.638519-3.908741 9.78963-12.611556 9.78963-12.611556l-26.583704-29.425778-6.103703 6.375111z m-90.974815-137.743407c31.158519 0 67.685926 24.942222 67.685926 72.585481h-137.161482c0-51.847111 41.991111-72.585481 69.451852-72.585481h0.023704zM3532.053333 452.248889v42.037333s-19.591111-14.012444-41.979259-18.216296c-18.358519-3.446519-36.397037-1.400889-51.294815 8.744296-5.783704 3.937185-10.654815 8.841481-17.92 19.968-7.431111 11.392-10.346667 27.589926-10.453333 28.739556v101.198222a57.851259 57.851259 0 0 1-18.915556 35.576889 57.754074 57.754074 0 0 1-37.546666 14.56V432.630519h56.45037v43.706074a112.890074 112.890074 0 0 1 17.588148-21.481482c11.306667-10.580148 26.761481-18.748444 39.691852-20.822518 5.558519-0.877037 11.176296-1.345185 16.794074-1.402074 9.801481 0 22.4 4.203852 30.791111 8.407703 11.508148 5.857185 16.794074 11.210667 16.794074 11.210667zM3761.078519 608.488296c-0.782222 0.70163-34.477037 35.031704-83.816297 35.031704-30.637037 0-75.982222-14.194963-75.982222-65.732741v-5.240889H3793.777778s-0.616296-38.379852-9.801482-62.888296c-8.391111-22.420148-25.185185-49.044148-48.32-61.655704-18.524444-10.074074-37.985185-15.623111-63.869629-15.623111a155.979852 155.979852 0 0 0-54.672593 9.205334 116.114963 116.114963 0 0 0-41.552593 27.605333 107.975111 107.975111 0 0 0-24.853333 39.753481 154.382222 154.382222 0 0 0-8.782222 52.658963c0 39.907556 11.911111 64.850963 35.377778 87.957334 23.478519 23.10637 56.924444 34.750815 99.555555 34.750815 66.536296 0 99.863704-32.368593 107.117037-40.16 3.638519-3.908741 9.801481-12.611556 9.801482-12.611556l-26.595556-29.425778-6.103703 6.375111z m-90.962963-137.743407c31.146667 0 67.674074 24.942222 67.674074 72.585481h-137.14963c0-51.847111 41.979259-72.585481 69.44-72.585481h0.035556z" fill="#FFFFFF" p-id="3472"></path><path d="M1414.506667 507.569778l-13.428148-4.105482 12.764444-5.60474c37.783704-16.815407 52.48-36.054519 52.48-68.82963 0-60.169481-59.602963-82.870519-74.358519-85.266963a288.292741 288.292741 0 0 0-45.131851-3.152593H1226.666667c-14.601481 0-40.296296-0.462222-40.296297-0.462222v344.708741s27.448889-0.616296 40.296297-0.616296h164.337777c11.448889 0 22.08-4.497778 31.478519-8.47763 1.943704-0.827259 3.828148-1.611852 5.594074-2.339556 13.060741-5.493333 55.68-27.800889 55.68-84.075851 0.035556-41.379556-21.997037-67.358815-69.25037-81.777778z m-163.757037-123.42163h67.875555c27.591111 0 85.001481 0 85.001482 49.841778 0 22.420148-10.88 37.904593-32.32 46.031407-17.054815 6.460444-36.622222 6.460444-46.008889 6.460445h-74.548148v-102.33363z m146.844444 244.952889c-12.811852 8.099556-32.047407 11.868444-60.61037 11.868444h-86.234074v-113.361777h83.697777c13.997037 0 84.171852 2.718815 84.171852 56.373333 0 21.397333-6.921481 36.151704-21.025185 45.12zM1585.244444 340.148148v285.856c0 15.608889-6.186667 30.578963-17.208888 41.615408a58.747259 58.747259 0 0 1-41.564445 17.237333V340.148148h58.773333zM1858.548148 432.630519v199.454814a57.57037 57.57037 0 0 1-17.054815 36.468148 57.365333 57.365333 0 0 1-36.776296 16.303408h-3.934815v-32.494222s-0.758519 0.910222-2.085926 2.311111a109.633185 109.633185 0 0 1-28.16 21.285926l-0.225185 0.125629a74.190222 74.190222 0 0 1-33.908148 8.771556c-45.167407 0-60.882963-3.082667-72.402963-8.841482a69.553778 69.553778 0 0 1-28.574815-25.418666c-8.035556-13.143704-12.124444-32.635259-12.124444-57.88563V432.630519h58.097778v134.829037c0 64.107852 31.632593 77.559704 58.168888 77.559703 2.204444 0 4.361481 0 6.447408-0.209778 36.586667-2.382222 53.594074-25.796741 54.589629-74.855111V432.630519h57.943704zM2116.586667 608.488296c-0.782222 0.70163-34.488889 35.031704-83.828148 35.031704-30.637037 0-75.982222-14.194963-75.982223-65.732741v-5.240889h192.497778s-0.616296-38.379852-9.78963-62.888296c-8.402963-22.420148-25.197037-49.044148-48.331851-61.655704-18.512593-10.074074-37.985185-15.623111-63.857778-15.623111a156.045037 156.045037 0 0 0-54.684445 9.205334 116.321185 116.321185 0 0 0-41.552592 27.605333 107.792593 107.792593 0 0 0-24.841482 39.753481 154.106074 154.106074 0 0 0-8.794074 52.658963c0 39.907556 11.911111 64.850963 35.377778 87.957334 23.478519 23.10637 56.924444 34.750815 99.555556 34.750815 66.536296 0 99.863704-32.368593 107.128888-40.16 3.638519-3.908741 9.78963-12.611556 9.78963-12.611556l-26.583704-29.425778-6.103703 6.375111z m-90.974815-137.743407c31.158519 0 67.685926 24.942222 67.685926 72.585481h-137.161482c0-51.847111 41.991111-72.585481 69.451852-72.585481h0.023704zM2304.13037 684.856889c-59.01037 0-92.373333-34.148741-107.069629-54.494815a93.967407 93.967407 0 0 1-16.995556-40.790518 109.385481 109.385481 0 0 1-1.398518-17.150815l55.988148 0.335407c1.185185 5.05363 2.74963 10.008889 4.681481 14.825482 5.238519 12.065185 10.974815 17.585778 15.905185 24.13037 3.425185 4.567704 22.767407 27.296 66.868149 27.296 19.70963 0 38.980741-3.867259 52.906666-10.607407 18.192593-8.785778 27.697778-19.617185 27.697778-36.432593 0-30.533926-28.823704-47.643259-44.065185-52.393481-11.922963-3.727407-28.136296-7.776-48.225185-12.008297a312.176593 312.176593 0 0 1-61.511111-19.785481c-17.031111-7.286519-30.708148-17.320296-40.580741-29.81926-9.884444-12.498963-14.755556-28.024889-14.755556-46.479407a75.882667 75.882667 0 0 1 15.703704-47.124148c10.074074-13.312 41.73037-44.209778 116.444444-44.209778 35.911111 0 63.762963 8.099556 88.071112 23.821037 21.44 13.872593 35.318519 39.488 37.795555 51.847111 0.912593 5.558519 1.374815 11.181037 1.398519 16.814223h-54.58963s-12.598519-49.716148-76.041481-49.716149c-50.014815 0-70.234074 30.827852-70.234075 43.691852 0 6.319407 1.398519 15.931259 6.755556 22.418963a62.587259 62.587259 0 0 0 19.591111 15.232c6.198519 3.125333 13.997037 5.199407 20.882963 7.006815l4.088889 1.106963c4.041481 1.121185 11.2 2.647704 19.591111 4.41363 6.897778 1.400889 14.72 3.125333 22.26963 4.875851a370.112 370.112 0 0 1 44.397037 11.855408 144.298667 144.298667 0 0 1 38.21037 18.216296c12.325926 8.042667 22.257778 18.076444 27.982222 28.263111 5.368889 9.543111 11.757037 24.60563 11.757037 42.037334 0 20.641185-6.637037 39.557926-18.666666 53.248-28.183704 32.214519-59.626667 49.576296-144.853334 49.576296zM2736.248889 492.282074c-9.801481-19.210667-23.407407-33.966222-40.308148-43.887407a108.785778 108.785778 0 0 0-55.845926-14.978371c-22.743704 0-35.117037 4.105481-51.38963 11.490371-22.352593 10.144-41.943704 36.768-41.943704 36.768v-49.044148h-54.589629s0.118519 21.370074 0.118518 32.608v331.719111h0.580741a53.837037 53.837037 0 0 0 37.274074-14.930963 54.004148 54.004148 0 0 0 16.616296-36.592593v-4.975407l-0.118518-98.592 4.847407 7.74874c0.082963 0.154074 9.398519 10.635852 28.740741 22.546963 16.426667 10.102519 37.416296 13.339259 56.154074 13.33926 15.940741 0 41.777778-5.436444 54.58963-11.854223 13.025185-6.516148 29.025185-22.602667 39.964444-37.44237 5.511111-7.482074 9.801481-14.642963 11.674074-20.107852 3.733333-10.773333 6.245926-21.931852 7.502223-33.265778a182.90963 182.90963 0 0 0 1.185185-21.159111c-0.047407-26.679704-5.108148-50.024296-15.051852-69.390222z m-52.681482 117.074963a69.112889 69.112889 0 0 1-25.611851 29.805037c-11.97037 7.80563-26.287407 8.70163-36.017778 8.70163-22.945185 0-38.293333-6.249481-51.271111-20.878223-13.795556-15.511704-20.788148-37.315556-20.788148-64.822518 0-29.103407 6.992593-51.636148 20.989629-66.923852 14.056296-15.511704 31.656296-23.373037 52.290371-23.373037a62.791111 62.791111 0 0 1 35.922962 11.028148c10.666667 7.258074 19.093333 17.69837 25.031112 31.066074 5.819259 13.101037 8.77037 28.907852 8.77037 46.997334 0 18.805333-3.128889 35.045926-9.315556 48.399407zM3023.300741 529.696v107.406222a56.791704 56.791704 0 0 1-19.2 34.20563 56.636444 56.636444 0 0 1-36.788148 13.549037h-1.884445V539.239111c0-21.635556-0.533333-32.663704-12.598518-47.054222-11.2-13.381926-24.699259-18.846815-46.648889-18.846815-14.162963 0-29.202963 5.239704-38.992593 14.012445-12.598519 11.209481-20.98963 25.221926-20.989629 57.450666v84.580741a58.263704 58.263704 0 0 1-17.908149 39.371852 58.08237 58.08237 0 0 1-40.106666 16.103111h-0.082963V340.148148h58.168889v128.341333l4.527407-4.778666c0.106667-0.09837 12.148148-13.199407 26.311111-19.86963 23.798519-11.210667 33.374815-10.901333 51.792593-11.210666 18.417778-0.308148 39.324444 4.764444 52.337778 12.247703 13.748148 7.902815 23.632593 15.175111 30.388148 27.002074a69.616593 69.616593 0 0 1 9.268148 24.872297c1.718519 10.893037 2.524444 21.914074 2.405926 32.943407zM3282.42963 608.488296c-0.782222 0.70163-34.488889 35.031704-83.816297 35.031704-30.637037 0-75.982222-14.194963-75.982222-65.732741v-5.240889h192.485926s-0.604444-38.379852-9.78963-62.888296c-8.402963-22.420148-25.197037-49.044148-48.331851-61.655704-18.512593-10.074074-37.985185-15.623111-63.857778-15.623111a156.045037 156.045037 0 0 0-54.684445 9.205334 116.321185 116.321185 0 0 0-41.552592 27.605333 107.946667 107.946667 0 0 0-24.841482 39.753481 154.392889 154.392889 0 0 0-8.794074 52.658963c0 39.907556 11.911111 64.850963 35.38963 87.957334 23.466667 23.10637 56.912593 34.750815 99.543704 34.750815 66.536296 0 99.863704-32.368593 107.128888-40.16 3.638519-3.908741 9.78963-12.611556 9.78963-12.611556l-26.583704-29.425778-6.103703 6.375111z m-90.974815-137.743407c31.158519 0 67.685926 24.942222 67.685926 72.585481h-137.161482c0-51.847111 41.991111-72.585481 69.451852-72.585481h0.023704zM3532.053333 452.248889v42.037333s-19.591111-14.012444-41.979259-18.216296c-18.358519-3.446519-36.397037-1.400889-51.294815 8.744296-5.783704 3.937185-10.654815 8.841481-17.92 19.968-7.431111 11.392-10.346667 27.589926-10.453333 28.739556v101.198222a57.851259 57.851259 0 0 1-18.915556 35.576889 57.754074 57.754074 0 0 1-37.546666 14.56V432.630519h56.45037v43.706074a112.890074 112.890074 0 0 1 17.588148-21.481482c11.306667-10.580148 26.761481-18.748444 39.691852-20.822518 5.558519-0.877037 11.176296-1.345185 16.794074-1.402074 9.801481 0 22.4 4.203852 30.791111 8.407703 11.508148 5.857185 16.794074 11.210667 16.794074 11.210667zM3761.078519 608.488296c-0.782222 0.70163-34.477037 35.031704-83.816297 35.031704-30.637037 0-75.982222-14.194963-75.982222-65.732741v-5.240889H3793.777778s-0.616296-38.379852-9.801482-62.888296c-8.391111-22.420148-25.185185-49.044148-48.32-61.655704-18.524444-10.074074-37.985185-15.623111-63.869629-15.623111a155.979852 155.979852 0 0 0-54.672593 9.205334 116.114963 116.114963 0 0 0-41.552593 27.605333 107.975111 107.975111 0 0 0-24.853333 39.753481 154.382222 154.382222 0 0 0-8.782222 52.658963c0 39.907556 11.911111 64.850963 35.377778 87.957334 23.478519 23.10637 56.924444 34.750815 99.555555 34.750815 66.536296 0 99.863704-32.368593 107.117037-40.16 3.638519-3.908741 9.801481-12.611556 9.801482-12.611556l-26.595556-29.425778-6.103703 6.375111z m-90.962963-137.743407c31.146667 0 67.674074 24.942222 67.674074 72.585481h-137.14963c0-51.847111 41.979259-72.585481 69.44-72.585481h0.035556z" fill="#FFFFFF" p-id="3473"></path><path d="M580.502519 235.851852c-93.310815 0-169.931852 71.605333-177.861926 162.836148V430.814815h-70.944v-37.106963l0.041481-0.496593C342.511407 265.229037 449.751704 164.740741 580.502519 164.740741c115.924148 0 213.317926 78.979556 241.461333 186.023111l3.764148 14.319407-72.603259 2.641778-2.761482-8.510815C727.120593 287.598222 659.816296 235.851852 580.502519 235.851852z" fill="#FFFFFF" p-id="3474"></path><path d="M915.851852 527.99763c-28.458667-70.420148-108.616296-104.437333-179.03763-75.978667-7.656296 3.093333-19.122963 9.857185-34.123852 20.557037-98.000593 69.897481-169.848889 181.002667-259.772444 260.049778-49.679407 43.670519-127.309037 35.52237-167.766519 19.171555-97.223111-39.292444-142.334815-147.521185-103.790222-242.898963 38.544593-95.378963 149.595259-138.583704 246.818371-99.293629 17.076148 6.900148 38.554074 20.982519 61.313185 37.947259 19.395556 14.458074 39.74637 31.177481 62.135703 50.225778l-33.175703 33.777778c-20.549926-17.394963-39.976296-33.086815-57.293037-45.993482-22.486519-16.762074-39.776-27.572148-50.742519-32.003555-74.756741-30.21037-157.083259 3.767704-185.102222 73.102222-28.020148 69.334519 2.843259 150.971259 77.598815 181.181629 26.84563 10.849185 77.21363 24.783407 116.327111-8.583111 93.163852-79.476148 165.696-193.79437 265.92-265.28 15.764148-11.242667 30.906074-20.667259 43.889778-25.914074 94.696296-38.26963 202.486519 7.473778 240.754963 102.170074 38.26963 94.696296-7.473778 202.486519-102.170074 240.754963-18.735407 7.572148-47.766519 12.32237-79.938371 15.611259-69.376 7.092148-218.317037 2.065778-218.317037 2.065778l1.005037-47.39674s145.048889 5.064296 212.490667-1.831112c32.216889-3.29363 55.154963-7.617185 66.997333-12.402963 70.420148-28.458667 104.438519-108.617481 75.978667-179.038814z" fill="#FFFFFF" p-id="3475"></path><path d="M547.282963 780.118519l1.507556-71.111112 12.008296 0.418371-0.41363 11.844741-1.005037 47.39674-0.399407 11.845926-11.697778-0.394666zM508.452741 531.555556c-20.549926-17.394963-39.976296-33.086815-57.293037-45.993482-22.486519-16.762074-39.776-27.572148-50.742519-32.003555-74.756741-30.21037-157.083259 3.767704-185.102222 73.102222-28.020148 69.334519 2.843259 150.971259 77.598815 181.181629 26.84563 10.849185 77.21363 24.783407 116.327111-8.583111 40.96-34.94163 77.931852-76.618667 115.022222-118.428444 47.272296-53.289481 94.737778-106.794667 150.897778-146.851556 15.764148-11.242667 30.906074-20.667259 43.889778-25.914074 94.696296-38.26963 202.486519 7.473778 240.754963 102.170074 38.26963 94.696296-7.473778 202.486519-102.170074 240.754963-18.735407 7.572148-47.766519 12.32237-79.938371 15.611259-69.376 7.092148-218.317037 2.065778-218.317037 2.065778-0.399407 11.845926-0.399407 11.845926-0.397037 11.845926h0.005926l0.021333 0.001185 0.41126 0.013037 0.487111 0.015408 0.785778 0.024889c1.116444 0.035556 2.759111 0.086519 4.873481 0.149333a3763.511704 3763.511704 0 0 0 76.859259 1.428148c45.863111 0.369778 101.05363-0.131556 136.476445-3.753481 32.167111-3.288889 62.716444-8.145778 83.17274-16.412445 100.764444-40.721778 149.44-155.419259 108.718223-256.184889-40.721778-100.764444-155.419259-149.44-256.183704-108.718222-14.314667 5.784889-30.375111 15.873185-46.331259 27.254519-51.309037 36.596148-95.275852 83.96563-137.572741 131.405037a8883.591111 8883.591111 0 0 0-15.33037 17.251555c-37.157926 41.879704-73.541926 82.888296-113.827556 117.255111-33.483852 28.565333-77.628444 17.347556-104.19437 6.612149-68.48237-27.675259-96.702815-102.280296-71.051852-165.752889 25.397333-62.84563 100.557037-94.486519 169.673481-66.55526 9.436444 3.813926 25.675852 13.802667 48.100741 30.517334 17.054815 12.712296 36.280889 28.237037 56.718222 45.53837l8.400593 7.111111 49.808592-50.712889-9.697185-8.250074c-22.458074-19.10637-43.032889-36.017778-62.731852-50.701037-22.832593-17.019259-45.353481-31.915852-63.954963-39.433481-102.823111-41.552593-221.065481 3.936-262.248296 105.841777-40.995556 101.441185 7.041185 216.580741 110.338371 258.327704 21.776593 8.801185 52.993185 15.22963 85.398518 13.774222 32.437333-1.456593 67.164444-10.884741 94.633482-35.031703 38.898963-34.193778 74.473481-74.305185 109.603555-113.91526 6.097778-6.875259 12.181333-13.735111 18.267259-20.54637 41.435259-46.373926 83.134815-90.731852 130.958223-124.841481 14.816-10.567111 25.361778-16.662519 31.683555-19.217778 64.352-26.006519 137.60237 5.079704 163.608889 69.431704 26.006519 64.353185-5.079704 137.603556-69.431704 163.608888-10.115556 4.088889-31.52237 8.305778-63.761777 11.601778-32.980148 3.371852-85.485037 3.844741-130.223408 3.440593a3619.397926 3619.397926 0 0 1-74.337185-1.461334c-2.038519-0.06163-3.620741-0.112593-4.690963-0.148148l-1.214815-0.040296-0.400592-0.013037-0.004741-0.001185-0.41363 11.844741s4.331852 0.151704 11.845926 0.366222c35.97037 1.027556 144.858074 3.506963 200.644741-2.197334 32.216889-3.29363 55.154963-7.617185 66.997333-12.402963 70.420148-28.458667 104.438519-108.617481 75.978667-179.038814-28.458667-70.420148-108.616296-104.437333-179.03763-75.978667-7.656296 3.093333-19.122963 9.857185-34.123852 20.557037-56.265481 40.13037-103.909926 93.842963-151.303111 147.274667-35.156148 39.633778-70.17363 79.111111-108.469333 112.775111-49.679407 43.670519-127.309037 35.52237-167.766519 19.171555-97.223111-39.292444-142.334815-147.521185-103.790222-242.898963 38.544593-95.378963 149.595259-138.583704 246.818371-99.293629 17.076148 6.900148 38.554074 20.982519 61.313185 37.947259 16.744296 12.481185 34.200889 26.650074 53.066666 42.545778 2.986667 2.516148 6.008889 5.076148 9.069037 7.68l-33.175703 33.777778z" fill="#FFFFFF" p-id="3476"></path></svg>